<?xml version="1.0" encoding="UTF-8" standalone="no"?>
<!-- Creator: CorelDRAW X7 -->

<svg
   xml:space="preserve"
   width="61mm"
   height="29mm"
   version="1.1"
   style="clip-rule:evenodd;fill-rule:evenodd;image-rendering:optimizeQuality;shape-rendering:geometricPrecision;text-rendering:geometricPrecision"
   viewBox="0 0 6100.7596 2900.3637"
   id="svg5546"
   sodipodi:docname="abec.svg"
   inkscape:version="1.1 (1:1.1+202105261517+ce6663b3b7)"
   xmlns:inkscape="http://www.inkscape.org/namespaces/inkscape"
   xmlns:sodipodi="http://sodipodi.sourceforge.net/DTD/sodipodi-0.dtd"
   xmlns="http://www.w3.org/2000/svg"
   xmlns:svg="http://www.w3.org/2000/svg"><sodipodi:namedview
   id="namedview5548"
   pagecolor="#ffffff"
   bordercolor="#666666"
   borderopacity="1.0"
   inkscape:pageshadow="2"
   inkscape:pageopacity="0.0"
   inkscape:pagecheckerboard="0"
   inkscape:document-units="mm"
   showgrid="false"
   inkscape:zoom="1.5326361"
   inkscape:cx="61.984709"
   inkscape:cy="220.20884"
   inkscape:window-width="1680"
   inkscape:window-height="986"
   inkscape:window-x="0"
   inkscape:window-y="27"
   inkscape:window-maximized="1"
   inkscape:current-layer="Camada_x0020_1" />
 <defs
   id="defs36">
  <style
   type="text/css"
   id="style2">
   <![CDATA[
    .str2 {stroke:#E88734;stroke-width:141.127}
    .str4 {stroke:#A6CE53;stroke-width:123.485}
    .str26 {stroke:#373435;stroke-width:21.1726}
    .str18 {stroke:#96989A;stroke-width:26.4533}
    .str3 {stroke:#FEFEFE;stroke-width:105.843}
    .str7 {stroke:black;stroke-width:11.1514}
    .str10 {stroke:black;stroke-width:8.9311}
    .str21 {stroke:#E6E7E8;stroke-width:35.2744}
    .str5 {stroke:#201E1E;stroke-width:35.2744}
    .str22 {stroke:#D2D3D5;stroke-width:20.0025}
    .str27 {stroke:#A9ABAE;stroke-width:20.0025}
    .str25 {stroke:#373435;stroke-width:20.0025}
    .str1 {stroke:#E88734;stroke-width:20.0025}
    .str0 {stroke:#BDBFC1;stroke-width:17.6322}
    .str19 {stroke:#4B4B4D;stroke-width:17.6322}
    .str23 {stroke:#FEFEFE;stroke-width:7.62094}
    .str17 {stroke:#96989A;stroke-width:7.62094}
    .str20 {stroke:#4B4B4D;stroke-width:7.62094}
    .str8 {stroke:black;stroke-width:11.1514;stroke-linejoin:round}
    .str9 {stroke:black;stroke-width:0.0400049;stroke-linecap:round;stroke-linejoin:round}
    .str6 {stroke:#282828;stroke-width:44.2055}
    .str11 {stroke:#373435;stroke-width:18.7423}
    .str13 {stroke:#373435;stroke-width:3.50043}
    .str14 {stroke:#373435;stroke-width:3.51043}
    .str12 {stroke:#373435;stroke-width:1.01012}
    .str15 {stroke:#373435;stroke-width:34.6143}
    .str16 {stroke:#373435;stroke-width:34.6143}
    .str24 {stroke:#FEFEFE;stroke-width:53.0566}
    .fil3 {fill:none}
    .fil23 {fill:none;fill-rule:nonzero}
    .fil20 {fill:#FEFEFE}
    .fil6 {fill:#FEFEFE}
    .fil0 {fill:#E6E7E8}
    .fil30 {fill:#848688}
    .fil34 {fill:#606062}
    .fil31 {fill:#4B4B4D}
    .fil27 {fill:#373435}
    .fil32 {fill:#373435}
    .fil22 {fill:#ACB3AC}
    .fil21 {fill:#282828}
    .fil26 {fill:#201E1E}
    .fil25 {fill:#201E1E}
    .fil11 {fill:#004B92}
    .fil41 {fill:#12AED7}
    .fil38 {fill:#2B5492}
    .fil39 {fill:#2F691D}
    .fil7 {fill:#367372}
    .fil18 {fill:#709D21}
    .fil37 {fill:#8FC73E}
    .fil40 {fill:#A34963}
    .fil43 {fill:#D91F2C}
    .fil19 {fill:#E3F1E0}
    .fil29 {fill:#E88734}
    .fil16 {fill:#EF9E57}
    .fil15 {fill:#EF9E57}
    .fil35 {fill:#F19317}
    .fil9 {fill:#F1F1F1}
    .fil36 {fill:#F3BF07}
    .fil13 {fill:#FDFDFD}
    .fil12 {fill:#FEFEFE}
    .fil5 {fill:#FEFEFE;fill-rule:nonzero}
    .fil17 {fill:#96989A;fill-rule:nonzero}
    .fil2 {fill:#4B4B4D;fill-rule:nonzero}
    .fil14 {fill:#373435;fill-rule:nonzero}
    .fil4 {fill:#373435;fill-rule:nonzero}
    .fil33 {fill:#201E1E;fill-rule:nonzero}
    .fil42 {fill:#D91F2C;fill-rule:nonzero}
    .fil10 {fill:#DADCE0;fill-rule:nonzero}
    .fil1 {fill:#E88734;fill-rule:nonzero}
    .fil24 {fill:black;fill-rule:nonzero}
    .fil28 {fill:white;fill-rule:nonzero}
    .fil8 {fill:#D2D3D5;fill-opacity:0.458824}
   ]]>
  </style>
    <clipPath
   id="id0">
     <path
   d="M 24,2683 H 36167 V 23577 H 24 Z"
   id="path4" />
    </clipPath>
    <mask
   id="id1">
  <linearGradient
   id="id2"
   gradientUnits="userSpaceOnUse"
   x1="-33.794201"
   y1="5327.6299"
   x2="36205.602"
   y2="4090.3">
   <stop
   offset="0"
   style="stop-opacity:1; stop-color:white"
   id="stop7" />
   <stop
   offset="0.980392"
   style="stop-opacity:-95.8784; stop-color:white"
   id="stop9" />
   <stop
   offset="1"
   style="stop-opacity:0; stop-color:white"
   id="stop11" />
  </linearGradient>
     <rect
   style="fill:url(#id2)"
   x="15"
   y="2671"
   width="36142"
   height="4077"
   id="rect14" />
    </mask>
    <mask
   id="id3">
  <linearGradient
   id="id4"
   gradientUnits="userSpaceOnUse"
   x1="15052.7"
   y1="16018.4"
   x2="36353.301"
   y2="15291.1">
   <stop
   offset="0"
   style="stop-opacity:1; stop-color:white"
   id="stop17" />
   <stop
   offset="0.988235"
   style="stop-opacity:-95.8784; stop-color:white"
   id="stop19" />
   <stop
   offset="1"
   style="stop-opacity:0; stop-color:white"
   id="stop21" />
  </linearGradient>
     <rect
   style="fill:url(#id4)"
   x="15244"
   y="9384"
   width="20918"
   height="12542"
   id="rect24" />
    </mask>
    <clipPath
   id="id5">
     <rect
   x="4123"
   y="215"
   width="771"
   height="535"
   id="rect27" />
    </clipPath>
     <clipPath
   id="id6">
      <rect
   x="4123"
   y="215"
   width="771"
   height="535"
   id="rect30" />
     </clipPath>
     <clipPath
   id="id7">
      <path
   d="m 28193,30240 h 7219 v 5816 h -7219 z"
   id="path33" />
     </clipPath>
 </defs>
 <g
   id="Camada_x0020_1"
   inkscape:label="Camada 1"
   inkscape:groupmode="layer">
  <metadata
   id="CorelCorpID_0Corel-Layer" />
  <g
   id="_1660824352032"
   transform="translate(-740.92592,-635.07936)">
   
   
   
   
   
   
   
   
   
   
   
   
   
   
   
   
   
   
   
   
   
   
   
   
   
   
   
   
   
   
   
   
   
   
   
   
   
   
   
   
   
   
   
   
   
   
   
   
   
   
   
   
   
   
   
   
   
   
   
   
   
   
   
   
   
   
   
   
   
   
   
   
   
   
   
   
   
   
   
   
   
   
   
   
   
   
   
   
   
   
   
   
   
   
   
   
   
   
   
   
   
   
   
   
   
   
   
   
   
   
   
   
   
   
   
   
   
   
   
   
   
   
   
   
   
   
   
   
   
   
   
   
   
   
   
   
   
   
   
   
   
   
   
   
   
   
   
   
   
   
   
   
   
   
   
   
   
   
   
   
   
   
   
   
   
   
   
   
   
   
   
   
   
   
   
   
   
   
   
   
   
   
   
   
   
   
   
   
   
   
   
   
   
   
   
   
   
   
   
   
   
   
   
   
   
   
   
   
   
   
   
   
   
   
   
   
   
   
   
   
   
   
   
   
   
   
   
   
   
   
   
   
   
   
   
   
   
   
   
   
   
   
   
   
   
   
   
   
   
   
   
   
   
   
   
   
   
   
   
   
   
   
   
   
   
   
   
   
   
   
   
   
   
   
   
   
   
   
   
   
   
   
   
   
   
   
   
   
   
   
   
   
   
   
   
   
   
   
   
   
   
   
   
   
   
   
   
   
   
   
   
   
   
   
   
   
   
   
   
   
   
   
   
   
   
   
   
   
   
   
   
   
   
   
   
   
   
   
   
   
   
   
   
   
   
   
   
   
   
   
   
   
   
   
   
   
   
   
   
   
   
   
   
   
   
   
   
   
   
   
   
   
   
   
   
   
   
   
   
   
   
   
   
   
   
   
   
   
   
   
   
   
   
   
   
   
   
   
   
   
   
   
   
   
   
   
   
   
   
   
   
   
   
   
   
   
   
   
   
   
   
   
   
   
   
   
   
   
   
   
   
   
   
   
   
   
   
   
   
   
   
   
   
   
   
   
   
   
   
   
   
   
   
   
   
   
   
   
   
   
   
   
   
   
   
   
   
   
   
   
   
   
   
   
   
   
   
   
   
   
   
   
   
   
   
   
   
   
   
   
   
   
   
   
   
   
   
   
   
   
   
   
   
   
   
   
   
   
   
   
   
   
   
   
   
   
   
   
   
   
   
   
   
   
   
   
   
   
   
   
   
   
   
   
   
   
   
   
   
   
   
   
   
   
   
   
   
   
   
   
   
   
   
   
   
   
   
   
   
   
   
   
   
   
   
   
   
   
   
   
   
   
   
   
   
   
   
   
   
   
   
   
   
   
   
   
   
   
   
   
   
   
   
   
   
   
   
   
   
   
   
   
   
   
   
   
   
   
   
   
   
   
   
   
   
   
   
   
   
   
   
   
   
   
   
   
   
   
   
   
   
   
   
   
   
   
   
   
   
   
   
   
   
   
   
   
   
   
   
   
   
   
   
   
   
   
   
   
   
   
   
   
   
   
   
   
   
   
   
   
   
   
   
   
   
   
   
   
   
   
   
   
   
   
   
   
   
   
   
   
   
   
   
   
   
   
   
   
   
   
   
   
   
   
   
   
   
   
   
   
   
   
   
   
   
   
   
   
   
   
   
   
   
   
   
   
   
   
   
   
   
   
   
   
   
   
   
   
   
   
   
   
   
   
   
   
   
   
   
   
   
   
   
   
   
   
   
   
   
   
   
   
   
   
   
   
   
   
   
   
   
   
   
   
   
   
   
   
   
   
   
   
   
   
   
   
   
   
   
   
   
   
   
   
   
   
   
   
   
   
   
   
   
   
   
   
   
   
   
   
   
   
   
   
   
   
   
   
   
   
   
   
   
   
   
   
   
   
   
   
   
   
   
   
   
   
   
   
   
   
   
   
   
   
   
   
   
   
   
   
   
   
   
   
   
   
   
   
   
   
   
   
   
   
   
   
   
   
   
   
   
   
   
   
   
   
   
   
   
   
   
   
   
   
   
   
   
   
   
   
   
   
   
   
   
   
   
   
   
   
   
   
   
   
   
   
   
   
   
   
   
   
   
   
   
   
   
   
   
   
   
   
   
   
   
   
   
   
   
   
   
   
   
   
   
   
   
   
   
   
   
   
   
   
   
   
   
   
   
   
   
   
   
   
   
   
   
   
   
   
   
   
   
   
   
   
   
   
   
   
   
   
   
   
   
   
   
   
   
   
   
   
   
   
   
   
   
   
   
   
   
   
   
   
   
   
   
   
   
   
   
   
   
   
   
   
   
   
   
   
   
   
   
   
   
   
   
   
   
   
   
   
   
   
   
   
   
   
   
   
   
   
   
   
   
   
   
   
   
   
   
   
   
   
   
   
   
   
   
   
   
   
   
   
   
   
   
   
   
   
   
   
   
   
   
   
   
   
   
   
   
   
   
   
   
   
   
   
   
   
   
   
   
   
   
   
   
   
   
   
   
   
   
   
   
   
   
   
   
   
   
   
   
   
   
   
   
   
   
   
   
   
   
   
   
   
   
   
   
   
   
   
   
   
   
   
   
   
   
   
   
   
   
   
   
   
   
   
   
   
   
   
   
   
   
   
   
   
   
   
   
   
   
   
   
   
   
   
   
   
   
   
   
   
   
   
   
   
   
   
   
   
   
   
   
   
   
   
   
   
   
   
   
   
   
   
   
   
   
   
   
   
   
   
   
   
   
   
   
   
   
   
   
   
   
   
   
   
   
   
   
   
   
   
   
   
   
   
   
   
   
   
   
   
   
   
   
   
   
   
   
   
   
   
   
   
   
   
   
   
   
   
   
   
   
   
   
   
   
   
   
   
   
   
   
   
   
   
   
   
   
   
   
   
   
   
   
   
   
   
   
   
   
   
   
   
   
   
   
   
   
   
   
   
   
   
   
   
   
   
   
   
   
   
   
   
   
   
   
   
   
   
   
   
   
   
   
   
   
   
   
   
   
   
   
   
   
   
   
   
   
   
   
   
   
   
   
   
   
   
   
   
   
   
   
   
   
   
   
   
   
   
   
   
   
   
   
   
   
   
   
   
   
   
   
   
   
   
   
   
   
   
   
   
   
   
   
   
   
   
   
   
   
   
   
   
   
   
   
   
   
   
   
   
   
   
   
   
   
   
   
   
   
   
   
   
   
   
   
   
   
   
   
   
   
   
   
   
   
   
   
   
   
   
   
   
   
   
   
   
   
   
   
   
   
   
   
   
   
   
   
   
   
   
   
   
   
   
   
   
   
   
   
   
   
   
   
   
   
   
   
   
   
   
   
   
   
   
   
   
   
   
   
   
   
   
   
   
   
   
   
   
   
   
   
   
   
   
   
   
   
   
   
   
   
   
   
   
   
   
   
   
   
   
   
   
   
   
   
   
   
   
   
   
   
   
   
   
   
   
   
   
   
   
   
   
   
   
   
   
   
   
   
   
   
   
   
   
   
   
   
   
   
   
   
   
   
   
   
   
   
   
   
   
   
   
   
   
   
   
   
   
   
   
   
   
   
   
   
   
   
   
   
   
   
   
   
   
   
   
   
   
   
   
   
   
   
   
   
   
   
   
   
   
   
   
   
   
   
   
   
   
   
   
   
   
   
   
   
   
   
   
   
   
   
   
   
   
   
   
   
   
   
   
   
   
   
   
   
   
   
   
   
   
   
   
   
   
   
   
   
   
   
   
   
   
   
   
   
   
   
   
   
   
   
   
   
   
   
   
   
   
   
   
   
   
   
   
   
   
   
   
   
   
   
   
   
   
   
   
   
   
   
   
   
   
   
   
   
   
   
   
   
   
   
   
   
   
   
   
   
   
   
   
   
   
   
   
   
   
   
   
   
   
   
   
   
   
   
   
   
   
   
   
   
   
   
   
   
   
   
   
   
   
   
   
   
   
   
   
   
   
   
   
   
   
   
   
   
   
   
   
   
   
   
   
   
   
   
   
   
   
   
   
   
   
   
   
   
   
   
   
   
   
   
   
   
   
   
   
   
   
   
   
   
   
   
   
   
   
   
   
   
   
   
   
   
   
   
   
   
   
   
   
   
   
   
   
   
   
   
   
   
   
   
   
   
   
   
   
   
   
   
   
   
   
   
   
   
   
   
   
   
   
   
   
   
   
   
   
   
   
   
   
   
   
   
   
   
   
   
   
   
   
   
   
   
   
   
   
   
   
   
   
   
   
   
   
   
   
   
   
   
   
   
   
   
   
   
   
   
   
   
   
   
   
   
   
   
   
   
   
   
   
   
   
   
   
   
   
   
   
   
   
   
   
   
   
   
   
   
   
   
   
   
   
   
   
   
   
   
   
   
   
   
   
   
   
   
   
   
   
   
   
   
   
   
   
   
   
   
   
   
   
   
   
   
   
   
   
   
   
   
   
   
   
   
   
   
   
   
   
   
   
   
   
   
   
   
   
   
   
   
   
   
   
   
   
   
   
   
   
   
   
   
   
   
   
   
   
   
   
   
   
   
   
   
   
   
   
   
   
   
   
   
   
   
   
   
   
   
   
   
   
   
   
   
   
   
   
   
   
   
   
   
   
   
   
   
   
   
   
   
   
   
   
   
   
   
   
   
   
   
   
   
   
   
   
   
   
   
   
   
   
   
   
   
   
   
   
   
   
   
   
   
   
   
   
   
   
   
   
   
   
   
   
   
   
   
   
   
   
   
   
   
   
   
   
   
   
   
   
   
   
   
   
   
   
   
   
   
   
   
   
   
   
   
   
   
   
   
   
   
   
   
   
   
   
   
   
   
   
   
   
   
   
   
   
   
   
   
   
   
   
   
   
   
   
   
   
   
   
   
   
   
   
   
   
   
   
   
   
   
   
   
   
   
   
   
   
   
   
   
   
   
   
   
   
   
   
   
   
   
   
   
   
   
   
   
   
   
   
   
   
   
   
   
   
   
   
   
   
   
   
   
   
   
   
   
   
   
   
   
   
   
   
   
   
   
   
   
   
   
   
   
   
   
   
   
   
   
   
   
   
   
   
   
   
   
   
   
   
   
   
   
   
   
   
   
   
   
   
   
   
   
   
   
   
   
   
   
   
   
   
   
   
   
   
   
   
   
   
   
   
   
   
   
   
   
   
   
   
   
   
   
   
   
   
   
   
   
   
   
   
   
   
   
   
   
   
   
   
   
   
   
   
   
   
   
   
   
   
   
   
   
   
   
   
   
   
   
   
   
   
   <path
   class="fil14"
   d="m 990.79083,1082.6761 h 46.99997 l 16,-42 h 76 l 17,42 h 49 l -85,-195.99972 h -36 z m 124.99997,-78 h -48 l 24,-60.99972 z"
   id="path4320" />
   <path
   id="path4322"
   class="fil14"
   d="m 1235.7908,1144.6761 h 41 v -77 h 1 c 9,13 25,18 42,18 39,0 62,-34 62,-72 0,-39.99972 -26,-68.99972 -66,-68.99972 -19,0 -35,12 -41,21 h -1 v -18 h -38 z m 38,-129 c 0,-20.99972 13,-33.99972 33,-33.99972 21,0 33,13 33,33.99972 0,20 -12,33 -33,33 -20,0 -33,-13 -33,-33 z" />
   <path
   id="path4324"
   class="fil14"
   d="m 1422.7908,1015.6761 c 0,42 33,70 74.9997,70 41,0 74,-28 74,-70 0,-42.99972 -33,-70.99972 -74,-70.99972 -41.9997,0 -74.9997,28 -74.9997,70.99972 z m 42,0 c 0,-20.99972 12,-33.99972 32.9997,-33.99972 21,0 33,13 33,33.99972 0,20 -12,33 -33,33 -20.9997,0 -32.9997,-13 -32.9997,-33 z" />
   <path
   id="path4326"
   class="fil14"
   d="m 1618.7905,1082.6761 h 42 V 947.67638 h -42 z m -3,-176.99972 c 0,14 11,24 24,24 13,0 24,-10 24,-24 0,-13 -11,-24 -24,-24 -13,0 -24,11 -24,24 z" />
   <path
   id="path4328"
   class="fil14"
   d="m 1707.7905,1015.6761 c 0,42 33,70 74,70 42,0 75,-28 75,-70 0,-42.99972 -33,-70.99972 -75,-70.99972 -41,0 -74,28 -74,70.99972 z m 41,0 c 0,-20.99972 13,-33.99972 33,-33.99972 21,0 34,13 34,33.99972 0,20 -13,33 -34,33 -20,0 -33,-13 -33,-33 z" />
   <path
   id="path4330"
   class="fil14"
   d="m 1903.7905,1058.6761 c 0,14 12,25 26,25 14,0 25,-11 25,-25 0,-14 -11,-26 -25,-26 -14,0 -26,12 -26,26 z m 0,-87.99972 c 0,14 12,25 26,25 14,0 25,-11 25,-25 0,-14 -11,-26 -25,-26 -14,0 -26,12 -26,26 z" />
   <path
   class="fil23 str7"
   d="m 1048.7908,3010.6752 h 468.9997 v -468.9997 h -468.9997 z m 562.9997,0 h 468.9997 v -468.9997 h -468.9997 z m 562.9997,0 h 468.9997 v -468.9997 h -468.9997 z m 562.9997,0 h 468.9997 v -468.9997 h -468.9997 z m 1031.9994,122.9997 v -468.9997 l -468.9997,-125.9997 v 468.9997 z"
   id="path4332" />
   <path
   class="fil23 str8"
   d="m 4129.789,3297.6749 v -473.9997 l 205,-189 v 473 z m -265.9997,-662.9997 v 473 l 191,189.9997 v -473.9997 z"
   id="path4334" />
   <path
   class="fil23 str7"
   d="m 4055.7893,2824.6752 c 19,0 54,0 73.9997,0 m -74.9997,474.9997 c 18,0 53,0 74.9997,0 m 372,-197.9997 v -527.9997 l 249.9997,-79 v 468.9997 z m -75,5 c 56,0 9,0 67,0"
   id="path4336" />
   <path
   class="fil24 str9"
   d="m 4417.789,2572.6755 c 3,0 8,0 13,0 22,0 55,-2 71,-2 l 255.9997,-85 c -20,4 -97,4 -109.9997,-24 z"
   id="path4338" />
   <line
   class="fil23 str7"
   x1="4423.7974"
   y1="3111.6235"
   x2="4423.7974"
   y2="2572.6233"
   id="line4340" />
   <path
   class="fil24 str10"
   d="m 1427.7908,2926.6752 c -9,0 -16,-1 -23,-1 -9,0 -16,1 -24,1 -12,-36 -28,-79 -46,-119 h -112 c -16,39 -32,78 -44,119 -6,0 -11,-1 -16,-1 -6,0 -11,1 -16,1 l 138,-309 h 10 z m -149,-251 -48,113 h 97 z"
   id="path4342" />
   <path
   class="fil24 str10"
   d="m 1758.7905,2624.6752 h 87 c 64,0 98,15 98,61 0,42 -31,69 -70,78 35,2 81,18 81,70 0,31 -14,57 -40,74 -26,18 -62,18 -93,18 h -63 z m 39,133 c 25,0 50,2 74,-9 21,-10 34,-30 34,-54 0,-42 -29,-54 -76,-54 h -32 z m 0,152 h 42 c 43,0 74,-29 74,-69 0,-52 -38,-67 -91,-67 h -25 z"
   id="path4344" />
   <path
   class="fil24 str10"
   d="m 2365.7902,2756.6752 h 68 c 14,0 26,-2 40,-2 -1,3 -2,7 -2,11 0,4 1,8 2,12 -14,0 -26,-2 -40,-2 h -68 v 129 c 27,1 53,-1 80,-2 13,0 27,-1 40,-3 0,4 -1,8 -1,13 0,4 1,9 1,13 h -159 v -301 h 157 c -1,5 -2,9 -2,13 0,5 1,9 2,13 -13,-2 -27,-4 -40,-4 l -44,-1 h -34 z"
   id="path4346" />
   <path
   class="fil24 str10"
   d="m 3087.7896,2906.6752 c -27.9997,19 -64.9997,26 -97.9997,26 -97,0 -156,-62 -156,-159 0,-99 74,-156 167,-156 32,0 65,8 94.9997,21 -5,11 -7,22 -9,34 h -3 c -7,-8 -38.9997,-38 -84.9997,-38 -81,0 -122,66 -122,141 0,85 49,139 119,139 48,0 84.9997,-28 93.9997,-35 z"
   id="path4348" />
   <path
   class="fil14"
   d="m 1146.7908,1765.6758 c -14,8 -32,11 -53,11 -27,0 -49,-8 -66,-26 -17,-18 -25,-41 -25,-70 0,-31 10,-56 28,-75 19,-19 42,-28 71,-28 18,0 33,2 45,8 v 24 c -13,-8 -29,-12 -45,-12 -23,0 -41,8 -54,23 -14,14 -21,34 -21,59 0,23 6,42 19,56 13,14 30,21 51,21 19,0 36,-4 50,-13 z"
   id="path4350" />
   <path
   id="path4352"
   class="fil14"
   d="m 1291.7908,1773.6758 h -22 v -21 h -1 c -9,16 -24,24 -42,24 -14,0 -25,-3 -33,-10 -7,-8 -11,-17 -11,-29 0,-26 15,-41 45,-45 l 42,-6 c 0,-24 -10,-35 -29,-35 -16,0 -31,5 -45,17 v -23 c 14,-9 29,-13 47,-13 33,0 49,17 49,52 z m -22,-70 -34,5 c -10,1 -18,4 -23,8 -5,3 -8,10 -8,19 0,7 3,12 8,16 4,5 11,7 19,7 11,0 20,-4 27,-12 7,-7 11,-17 11,-29 z" />
   <path
   id="path4354"
   class="fil14"
   d="m 1459.7908,1773.6758 h -22 v -23 0 c -10,18 -26,26 -48,26 -17,0 -31,-6 -41,-18 -11,-12 -16,-29 -16,-51 0,-22 6,-41 18,-54 11,-14 26,-21 45,-21 19,0 33,8 42,22 v 0 -85 h 22 z m -22,-62 v -20 c 0,-12 -3,-21 -11,-29 -7,-7 -16,-11 -28,-11 -13,0 -24,5 -31,14 -8,10 -12,24 -12,41 0,16 4,29 11,38 7,9 17,14 30,14 12,0 22,-5 30,-13 8,-9 11,-21 11,-34 z" />
   <path
   id="path4356"
   class="fil14"
   d="m 1624.7905,1710.6758 h -97 c 0,15 4,27 12,35 8,9 19,13 33,13 15,0 30,-5 43,-16 v 21 c -12,9 -28,13 -48,13 -20,0 -35,-6 -46,-18 -11,-13 -17,-30 -17,-53 0,-22 6,-39 18,-53 12,-13 28,-20 46,-20 18,0 32,6 42,18 9,11 14,27 14,48 z m -22,-19 c 0,-13 -3,-23 -9,-30 -7,-7 -15,-10 -26,-10 -10,0 -19,3 -26,11 -8,7 -12,17 -14,29 z" />
   <path
   id="path4358"
   class="fil14"
   d="m 1739.7905,1658.6758 c -4,-3 -9,-5 -17,-5 -9,0 -17,5 -23,14 -7,8 -10,21 -10,36 v 70 h -22 v -138 h 22 v 29 h 1 c 3,-10 8,-18 14,-23 7,-5 14,-8 22,-8 6,0 10,1 13,2 z" />
   <path
   id="path4360"
   class="fil14"
   d="m 1887.7905,1773.6758 h -22 v -78 c 0,-30 -11,-44 -32,-44 -11,0 -21,4 -28,12 -7,8 -11,19 -11,32 v 78 h -22 v -138 h 22 v 23 h 1 c 10,-17 25,-26 45,-26 15,0 27,5 35,15 8,9 12,24 12,42 z" />
   <path
   id="path4362"
   class="fil14"
   d="m 1995.7905,1776.6758 c -20,0 -36,-6 -48,-19 -13,-13 -19,-30 -19,-51 0,-23 7,-41 19,-54 13,-13 30,-20 52,-20 19.9997,0 35.9997,6 47.9997,19 11,13 17,30 17,53 0,22 -6,39 -19,53 -12,13 -29,19 -49.9997,19 z m 2,-125 c -14,0 -25,4 -34,14 -8,10 -12,23 -12,40 0,16 4,29 12,39 9,9 20,14 34,14 13.9997,0 24.9997,-5 32.9997,-14 8,-9 11,-22 11,-39 0,-18 -3,-31 -11,-40 -8,-10 -19,-14 -32.9997,-14 z" />
   <path
   id="path4364"
   class="fil14"
   d="m 2100.7902,1768.6758 v -23 c 12,8 26,13 40,13 20,0 29,-7 29,-20 0,-3 -1,-6 -2,-9 -2,-2 -4,-5 -7,-7 -3,-2 -6,-3 -10,-5 -4,-2 -8,-3 -12,-5 -6,-2 -12,-5 -16,-7 -5,-3 -9,-6 -12,-9 -3,-3 -5,-6 -7,-10 -2,-4 -2,-9 -2,-14 0,-7 1,-12 4,-17 3,-5 7,-9 12,-13 5,-3 11,-6 17,-7 6,-2 13,-3 19,-3 12,0 23,2 32,6 v 23 c -10,-7 -21,-10 -34,-10 -5,0 -8,0 -12,1 -3,1 -6,2 -8,4 -3,2 -4,4 -6,6 -1,3 -2,5 -2,8 0,4 1,7 2,9 2,3 3,5 6,7 2,1 6,3 9,5 4,1 8,3 12,5 6,2 12,4 17,7 5,2 9,5 12,8 4,3 6,7 8,11 2,4 3,9 3,14 0,7 -2,13 -5,18 -3,5 -7,9 -12,13 -5,3 -11,5 -17,7 -7,2 -14,2 -21,2 -14,0 -26,-2 -37,-8 z" />
   <path
   id="path4366"
   class="fil14"
   d="m 2428.7902,1773.6758 h -22 v -23 0 c -10,18 -26,26 -48,26 -17,0 -31,-6 -41,-18 -11,-12 -16,-29 -16,-51 0,-22 6,-41 17,-54 12,-14 27,-21 46,-21 19,0 33,8 42,22 v 0 -85 h 22 z m -22,-62 v -20 c 0,-12 -3,-21 -11,-29 -7,-7 -16,-11 -28,-11 -13,0 -24,5 -32,14 -7,10 -11,24 -11,41 0,16 4,29 11,38 7,9 17,14 30,14 12,0 22,-5 30,-13 7,-9 11,-21 11,-34 z" />
   <path
   id="path4368"
   class="fil14"
   d="m 2593.7899,1710.6758 h -96.9997 c 0,15 4,27 12,35 8,9 19,13 32.9997,13 15,0 30,-5 43,-16 v 21 c -12,9 -28,13 -47.9997,13 -20,0 -35,-6 -46,-18 -11,-13 -17,-30 -17,-53 0,-22 6,-39 18,-53 12,-13 28,-20 46,-20 17.9997,0 31.9997,6 40.9997,18 10,11 15,27 15,48 z m -22,-19 c 0,-13 -4,-23 -10,-30 -6,-7 -14,-10 -24.9997,-10 -10,0 -19,3 -26,11 -8,7 -12,17 -14,29 z" />
   <path
   id="path4370"
   class="fil14"
   d="m 2706.7899,1765.6758 v -26 c 3,2 6,5 11,7 4,2 8,4 13,5 5,2 9,3 14,4 5,1 9,1 13,1 14,0 25,-2 32,-8 6,-5 10,-12 10,-22 0,-5 -1,-10 -4,-14 -2,-3 -5,-7 -9,-10 -4,-3 -9,-6 -14,-9 -6,-3 -12,-6 -18,-9 -7,-4 -13,-7 -19,-11 -6,-3 -11,-7 -15,-11 -5,-5 -8,-9 -10,-15 -3,-5 -4,-11 -4,-19 0,-8 2,-16 6,-23 3,-6 9,-11 15,-16 6,-4 13,-7 21,-9 8,-2 17,-3 25,-3 19,0 33,2 42,7 v 25 c -12,-8 -27,-12 -44,-12 -5,0 -10,1 -15,2 -5,1 -10,3 -13,5 -4,2 -7,5 -10,9 -2,4 -3,8 -3,13 0,5 0,10 2,13 2,4 5,7 8,10 4,3 8,6 14,9 5,2 11,5 17,9 7,3 14,7 20,11 6,3 12,8 16,12 5,5 9,10 11,15 3,6 5,12 5,19 0,10 -2,18 -6,25 -4,6 -9,12 -15,16 -6,4 -14,7 -22,9 -8,2 -17,2 -26,2 -3,0 -7,0 -11,0 -5,-1 -9,-1 -14,-2 -5,-1 -9,-3 -13,-4 -5,-1 -8,-3 -10,-5 z" />
   <path
   id="path4372"
   class="fil14"
   d="m 2966.7899,1773.6758 h -22 v -21 0 c -10,16 -24,24 -43,24 -14,0 -24,-3 -32,-10 -8,-8 -12,-17 -12,-29 0,-26 15,-41 46,-45 l 41,-6 c 0,-24 -9,-35 -28,-35 -17,0 -32,5 -45,17 v -23 c 13,-9 29,-13 47,-13 32,0 48,17 48,52 z m -22,-70 -33,5 c -10,1 -18,4 -23,8 -5,3 -8,10 -8,19 0,7 2,12 7,16 5,5 11,7 19,7 11,0 20,-4 27,-12 8,-7 11,-17 11,-29 z" />
   <path
   id="path4374"
   class="fil14"
   d="m 3129.7896,1773.6758 h -22 v -22 h -1 c -9,17 -23,25 -41.9997,25 -33,0 -50,-19 -50,-58 v -83 h 22 v 79 c 0,29 11,44 33.9997,44 10,0 19,-4 26,-12 7,-8 11,-18 11,-31 v -80 h 22 z m -21,-208 -35,44 h -16.9997 l 29.9997,-44 z" />
   <path
   id="path4376"
   class="fil14"
   d="m 3300.7896,1773.6758 h -22 v -23 0 c -11,18 -26,26 -48,26 -17,0 -31,-6 -41,-18 -11,-12 -16,-29 -16,-51 0,-22 6,-41 17,-54 12,-14 27,-21 46,-21 19,0 33,8 42,22 v 0 -85 h 22 z m -22,-62 v -20 c 0,-12 -3,-21 -11,-29 -7,-7 -16,-11 -28,-11 -13,0 -24,5 -32,14 -7,10 -11,24 -11,41 0,16 4,29 11,38 7,9 17,14 30,14 12,0 22,-5 30,-13 7,-9 11,-21 11,-34 z" />
   <path
   id="path4378"
   class="fil14"
   d="m 3465.7896,1710.6758 h -97 c 0,15 4,27 12,35 8,9 19,13 33,13 15,0 30,-5 43,-16 v 21 c -12,9 -28,13 -48,13 -20,0 -35,-6 -46,-18 -11,-13 -17,-30 -17,-53 0,-22 6,-39 18,-53 12,-13 28,-20 46,-20 18,0 32,6 41,18 10,11 15,27 15,48 z m -22,-19 c 0,-13 -4,-23 -10,-30 -6,-7 -14,-10 -25,-10 -10,0 -19,3 -26,11 -8,7 -12,17 -14,29 z" />
   <path
   id="path4380"
   class="fil14"
   d="m 3609.7893,1700.6758 v 73 h -21.9997 v -193 h 52.9997 c 20,0 36,5 48,15 11,10 17,24 17,43 0,18 -7,33 -19,45 -13,11 -30,17 -51,17 z m 0,-99 v 79 h 24 c 15,0 27,-4 36,-11 8,-7 12,-17 12,-30 0,-26 -15,-38 -45,-38 z" />
   <path
   id="path4382"
   class="fil14"
   d="m 3859.7893,1773.6758 h -22 v -22 h -1 c -9,17 -23,25 -42,25 -33,0 -50,-19 -50,-58 v -83 h 22 v 79 c 0,29 11,44 34,44 11,0 19,-4 26,-12 7,-8 11,-18 11,-31 v -80 h 22 z m -21,-208 -35,44 h -17 l 30,-44 z" />
   <path
   id="path4384"
   class="fil14"
   d="m 3935.7893,1753.6758 v 0 20 h -22 v -204 h 22 v 91 0 c 11,-19 27,-28 48,-28 18,0 32,6 42,19 10,12 15,28 15,49 0,23 -6,42 -17,56 -11,13 -27,20 -46,20 -18,0 -32,-7 -42,-23 z m 0,-55 v 19 c 0,11 4,21 11,29 7,8 17,12 28,12 14,0 24,-5 32,-16 7,-10 11,-24 11,-42 0,-16 -3,-28 -11,-36 -7,-9 -16,-13 -28,-13 -13,0 -24,4 -31,13 -8,9 -12,20 -12,34 z" />
   <polygon
   id="polygon4386"
   class="fil14"
   points="18449,61577 18427,61577 18427,61373 18449,61373 "
   transform="translate(-14342.208,-59803.323)" />
   <path
   id="path4388"
   class="fil14"
   d="m 4172.789,1600.6758 c -4,0 -8,-1 -10,-4 -3,-2 -5,-6 -5,-10 0,-4 2,-8 5,-10 2,-3 6,-4 10,-4 4,0 7,1 10,4 3,2 4,6 4,10 0,4 -1,7 -4,10 -3,3 -6,4 -10,4 z m 11,173 h -23 v -138 h 23 z" />
   <path
   id="path4390"
   class="fil14"
   d="m 4331.789,1767.6758 c -11,6 -24,9 -38,9 -20,0 -36,-6 -48,-19 -12,-13 -18,-29 -18,-50 0,-22 7,-40 20,-54 13,-14 30,-21 52,-21 12,0 23,2 32,7 v 22 c -10,-7 -21,-10 -33,-10 -14,0 -26,5 -35,15 -9,10 -13,23 -13,40 0,16 4,29 12,38 9,9 20,14 35,14 12,0 23,-4 34,-12 z" />
   <path
   id="path4392"
   class="fil14"
   d="m 4472.789,1773.6758 h -22 v -21 h -1 c -9,16 -23,24 -42,24 -14,0 -25,-3 -32,-10 -8,-8 -12,-17 -12,-29 0,-26 15,-41 46,-45 l 41,-6 c 0,-24 -10,-35 -29,-35 -16,0 -31,5 -44,17 v -23 c 13,-9 29,-13 46,-13 33,0 49,17 49,52 z m -22,-70 -33,5 c -11,1 -18,4 -24,8 -5,3 -7,10 -7,19 0,7 2,12 7,16 5,5 11,7 19,7 11,0 20,-4 27,-12 7,-7 11,-17 11,-29 z" />
   <path
   id="path4394"
   class="fil14"
   d="m 4709.7887,1710.6758 h -96.9997 c 0,15 4,27 12,35 8,9 19,13 32.9997,13 16,0 30,-5 43,-16 v 21 c -12,9 -28,13 -47.9997,13 -20,0 -35,-6 -46,-18 -11,-13 -17,-30 -17,-53 0,-22 6,-39 18,-53 13,-13 28,-20 46,-20 17.9997,0 31.9997,6 41.9997,18 9,11 14,27 14,48 z m -22,-19 c 0,-13 -3,-23 -9,-30 -7,-7 -15,-10 -25.9997,-10 -10,0 -19,3 -26,11 -8,7 -12,17 -14,29 z m -4,-126 -34.9997,44 h -17 l 29.9997,-44 z" />
   <path
   id="path4396"
   class="fil14"
   d="m 4926.7887,1773.6758 h -22 v -21 0 c -10,16 -24,24 -43,24 -13,0 -24,-3 -32,-10 -8,-8 -12,-17 -12,-29 0,-26 16,-41 46,-45 l 41,-6 c 0,-24 -9,-35 -28,-35 -17,0 -32,5 -45,17 v -23 c 14,-9 29,-13 47,-13 32,0 48,17 48,52 z m -22,-70 -33,5 c -10,1 -18,4 -23,8 -5,3 -8,10 -8,19 0,7 2,12 7,16 5,5 11,7 19,7 11,0 20,-4 28,-12 7,-7 10,-17 10,-29 z" />
   <path
   id="path4398"
   class="fil14"
   d="m 4969.7887,1768.6758 v -23 c 12,8 25,13 40,13 19,0 29,-7 29,-20 0,-3 -1,-6 -3,-9 -1,-2 -4,-5 -6,-7 -3,-2 -7,-3 -10,-5 -4,-2 -8,-3 -13,-5 -6,-2 -11,-5 -16,-7 -4,-3 -8,-6 -11,-9 -3,-3 -6,-6 -7,-10 -2,-4 -3,-9 -3,-14 0,-7 2,-12 5,-17 3,-5 7,-9 12,-13 5,-3 10,-6 17,-7 6,-2 12,-3 19,-3 12,0 23,2 32,6 v 23 c -10,-7 -22,-10 -35,-10 -4,0 -8,0 -11,1 -3,1 -6,2 -9,4 -2,2 -4,4 -5,6 -1,3 -2,5 -2,8 0,4 1,7 2,9 1,3 3,5 6,7 2,1 5,3 9,5 3,1 7,3 12,5 6,2 12,4 16,7 5,2 9,5 13,8 3,3 6,7 8,11 2,4 2,9 2,14 0,7 -1,13 -4,18 -3,5 -7,9 -12,13 -5,3 -11,5 -17,7 -7,2 -14,2 -21,2 -14,0 -27,-2 -37,-8 z" />
   <path
   id="path4400"
   class="fil14"
   d="m 5095.7887,1768.6758 v -23 c 12,8 26,13 40,13 20,0 29,-7 29,-20 0,-3 -1,-6 -2,-9 -2,-2 -4,-5 -7,-7 -3,-2 -6,-3 -10,-5 -4,-2 -8,-3 -12,-5 -6,-2 -12,-5 -16,-7 -5,-3 -9,-6 -12,-9 -3,-3 -5,-6 -7,-10 -2,-4 -2,-9 -2,-14 0,-7 1,-12 4,-17 3,-5 7,-9 12,-13 5,-3 11,-6 17,-7 6,-2 13,-3 19,-3 12,0 23,2 33,6 v 23 c -11,-7 -22,-10 -35,-10 -5,0 -8,0 -12,1 -3,1 -6,2 -8,4 -3,2 -4,4 -6,6 -1,3 -2,5 -2,8 0,4 1,7 2,9 2,3 3,5 6,7 2,1 6,3 9,5 4,1 8,3 12,5 6,2 12,4 17,7 5,2 9,5 12,8 4,3 6,7 7.9997,11 2,4 3,9 3,14 0,7 -2,13 -4.9997,18 -3,5 -7,9 -12,13 -5,3 -11,5 -17,7 -7,2 -13,2 -21,2 -14,0 -26,-2 -37,-8 z" />
   <path
   id="path4402"
   class="fil14"
   d="m 5288.7884,1776.6758 c -21,0 -37,-6 -49,-19 -12,-13 -18,-30 -18,-51 0,-23 6,-41 19,-54 12,-13 29,-20 51,-20 21,0 37,6 48,19 12,13 17,30 17,53 0,22 -6,39 -18,53 -13,13 -29,19 -50,19 z m 1,-125 c -14,0 -25,4 -33,14 -9,10 -13,23 -13,40 0,16 5,29 13,39 8,9 19,14 33,14 15,0 26,-5 33,-14 8,-9 12,-22 12,-39 0,-18 -4,-31 -12,-40 -7,-10 -18,-14 -33,-14 z" />
   <path
   id="path4404"
   class="fil14"
   d="m 5495.7884,1767.6758 c -10,6 -23,9 -38,9 -19,0 -35,-6 -47,-19 -12,-13 -18,-29 -18,-50 0,-22 6,-40 19,-54 13,-14 31,-21 52,-21 12,0 23,2 32,7 v 22 c -10,-7 -21,-10 -32,-10 -15,0 -26,5 -35,15 -9,10 -14,23 -14,40 0,16 5,29 13,38 9,9 20,14 34,14 12,0 24,-4 34,-12 z" />
   <path
   id="path4406"
   class="fil14"
   d="m 5549.7884,1600.6758 c -4,0 -7,-1 -10,-4 -3,-2 -4,-6 -4,-10 0,-4 1,-8 4,-10 3,-3 6,-4 10,-4 4,0 8,1 10,4 3,2 5,6 5,10 0,4 -2,7 -5,10 -2,3 -6,4 -10,4 z m 11,173 h -22 v -138 h 22 z" />
   <path
   id="path4408"
   class="fil14"
   d="m 5713.7881,1773.6758 h -21.9997 v -21 h -1 c -10,16 -24,24 -42,24 -14,0 -25,-3 -33,-10 -7,-8 -11,-17 -11,-29 0,-26 15,-41 45,-45 l 42,-6 c 0,-24 -10,-35 -29,-35 -16,0 -31,5 -45,17 v -23 c 14,-9 29,-13 47,-13 32,0 48.9997,17 48.9997,52 z m -21.9997,-70 -34,5 c -10,1 -18,4 -23,8 -5,3 -8,10 -8,19 0,7 3,12 8,16 4,5 11,7 19,7 11,0 20,-4 27,-12 7,-7 11,-17 11,-29 z" />
   <path
   id="path4410"
   class="fil14"
   d="m 5881.7881,1773.6758 h -22 v -23 0 c -11,18 -26,26 -48,26 -17,0 -31,-6 -41,-18 -11,-12 -16,-29 -16,-51 0,-22 6,-41 17,-54 12,-14 27,-21 46,-21 19,0 33,8 42,22 v 0 -85 h 22 z m -22,-62 v -20 c 0,-12 -3,-21 -11,-29 -7,-7 -16,-11 -28,-11 -13,0 -24,5 -32,14 -7,10 -11,24 -11,41 0,16 4,29 11,38 7,9 17,14 30,14 12,0 22,-5 30,-13 7,-9 11,-21 11,-34 z" />
   <path
   id="path4412"
   class="fil14"
   d="m 5993.7881,1776.6758 c -20,0 -37,-6 -49,-19 -12,-13 -18,-30 -18,-51 0,-23 6,-41 19,-54 13,-13 30,-20 51,-20 21,0 37,6 48,19 12,13 18,30 18,53 0,22 -6,39 -19,53 -12,13 -29,19 -50,19 z m 2,-125 c -15,0 -26,4 -34,14 -8,10 -12,23 -12,40 0,16 4,29 12,39 8,9 20,14 34,14 14,0 25,-5 33,-14 7,-9 11,-22 11,-39 0,-18 -4,-31 -11,-40 -8,-10 -19,-14 -33,-14 z" />
   <path
   id="path4414"
   class="fil14"
   d="m 6281.7878,1773.6758 h -22 v -21 h -1 c -10,16 -23.9997,24 -41.9997,24 -14,0 -25,-3 -33,-10 -7,-8 -11,-17 -11,-29 0,-26 15,-41 45,-45 l 41.9997,-6 c 0,-24 -10,-35 -28.9997,-35 -16,0 -31,5 -45,17 v -23 c 14,-9 29,-13 47,-13 31.9997,0 48.9997,17 48.9997,52 z m -22,-70 -33.9997,5 c -10,1 -18,4 -23,8 -5,3 -8,10 -8,19 0,7 3,12 8,16 4,5 11,7 19,7 11,0 20,-4 26.9997,-12 7,-7 11,-17 11,-29 z m -9,-94 h -16.9997 l -35,-44 h 23 z" />
   <path
   id="path4416"
   class="fil14"
   d="m 1164.7908,2140.6755 h -25 l -20,-54 h -82 l -19,54 h -24.99997 l 73.99997,-192.9997 h 23 z m -53,-74 -30,-82.9997 c -1,-2 -2,-7 -3,-13 v 0 c -1,6 -2,10 -3,13 l -30,82.9997 z" />
   <path
   id="path4418"
   class="fil14"
   d="m 1191.7908,2135.6755 v -24 c 12,9 25,14 40,14 19,0 29,-7 29,-20 0,-3 -1,-6 -3,-9 -2,-3 -4,-5 -7,-7 -2,-2 -6,-4 -10,-5 -3,-2 -7,-3 -12,-5 -6,-2 -11,-5 -16,-7 -5,-3 -8,-6 -12,-9 -3,-2.9997 -5,-5.9997 -7,-9.9997 -1,-4 -2,-9 -2,-14 0,-7 2,-12 5,-17 3,-5 6,-9 11,-13 5,-3 11,-6 17,-7 7,-2 13,-3 20,-3 12,0 23,2 32,6 v 23 c -10,-7 -22,-10 -35,-10 -4,0 -8,0 -11,1 -4,1 -6,2 -9,4 -2,2 -4,4 -5,6 -2,2 -2,5 -2,8 0,4 0,7 2,9 1,2 3,5 5,6 3,2 6,4 10,6 3,1 7,2.9997 12,4.9997 6,2 11,4 16,7 5,2 9,5 13,8 3,3 6,7 8,11 1,4 2,9 2,14 0,7 -1,13 -4,18 -3,5 -7,9 -12,12 -5,4 -11,6 -18,8 -6,2 -13,2 -20,2 -14,0 -27,-2 -37,-8 z" />
   <path
   id="path4420"
   class="fil14"
   d="m 1317.7908,2135.6755 v -24 c 12,9 25,14 40,14 19,0 29,-7 29,-20 0,-3 -1,-6 -2,-9 -2,-3 -4,-5 -7,-7 -3,-2 -6,-4 -10,-5 -4,-2 -8,-3 -12,-5 -7,-2 -12,-5 -17,-7 -4,-3 -8,-6 -11,-9 -3,-2.9997 -6,-5.9997 -7,-9.9997 -2,-4 -3,-9 -3,-14 0,-7 2,-12 5,-17 3,-5 7,-9 12,-13 5,-3 10,-6 17,-7 6,-2 13,-3 19,-3 12,0 23,2 32,6 v 23 c -10,-7 -21,-10 -35,-10 -4,0 -8,0 -11,1 -3,1 -6,2 -8,4 -3,2 -5,4 -6,6 -1,2 -2,5 -2,8 0,4 1,7 2,9 1,2 3,5 6,6 2,2 5,4 9,6 4,1 8,2.9997 12,4.9997 6,2 12,4 17,7 4,2 9,5 12,8 3,3 6,7 8,11 2,4 3,9 3,14 0,7 -2,13 -5,18 -3,5 -7,9 -12,12 -5,4 -11,6 -17,8 -7,2 -14,2 -21,2 -14,0 -26,-2 -37,-8 z" />
   <path
   id="path4422"
   class="fil14"
   d="m 1510.7905,2143.6755 c -21,0 -36.9997,-6 -48.9997,-19 -12,-13 -19,-30 -19,-51 0,-22.9997 7,-40.9997 19,-54.9997 13,-13 29.9997,-19 51.9997,-19 20,0 36,6 48,19 11,13 17,30 17,52.9997 0,22 -6,39 -18,52 -13,14 -30,20 -50,20 z m 1,-124.9997 c -14,0 -25,4 -32.9997,14 -9,10 -13,23 -13,39.9997 0,16 4,29 13,39 7.9997,9 18.9997,14 32.9997,14 14,0 25,-5 33,-14 8,-9 12,-23 12,-40 0,-16.9997 -4,-29.9997 -12,-38.9997 -8,-10 -19,-14 -33,-14 z" />
   <path
   id="path4424"
   class="fil14"
   d="m 1717.7905,2134.6755 c -11,6 -23,9 -38,9 -19,0 -35,-6 -47,-19 -12,-13 -19,-29 -19,-50 0,-21.9997 7,-40.9997 20,-53.9997 13,-14 30,-21 52,-21 12,0 23,2 32,7 v 22 c -10,-7 -21,-10 -33,-10 -14,0 -25,5 -34,15 -9,10 -14,23 -14,38.9997 0,17 4,29 13,39 8,9 20,14 34,14 12,0 23,-4 34,-12 z" />
   <path
   id="path4426"
   class="fil14"
   d="m 1771.7905,1967.6758 c -4,0 -7,-1 -10,-4 -3,-3 -4,-6 -4,-10 0,-4 1,-8 4,-10 3,-3 6,-5 10,-5 4,0 7,2 10,5 3,2 4,6 4,10 0,4 -1,7 -4,10 -3,3 -6,4 -10,4 z m 11,172.9997 h -22 v -137.9997 h 22 z" />
   <path
   id="path4428"
   class="fil14"
   d="m 1934.7905,2140.6755 h -22 v -21 0 c -10,16 -24,24 -43,24 -13,0 -24,-3 -32,-11 -8,-7 -11,-16 -11,-29 0,-25 15,-40 45,-43.9997 l 41,-6 c 0,-24 -9,-35 -28,-35 -17,0 -32,5 -45,17 v -23 c 14,-9 29,-13 47,-13 32,0 48,17 48,51 z m -22,-70 -33,5 c -10,1 -18,4 -23,8 -5,3 -8,10 -8,19 0,7 3,12 7,16 5,5 12,7 20,7 10,0 20,-4 27,-12 7,-7 10,-17 10,-29 z" />
   <path
   id="path4430"
   class="fil14"
   d="m 2079.7902,2134.6755 c -10,6 -23,9 -37,9 -20,0 -35.9997,-6 -47.9997,-19 -12,-13 -18,-29 -18,-50 0,-21.9997 7,-40.9997 20,-53.9997 12.9997,-14 29.9997,-21 51.9997,-21 12,0 22,2 32,7 v 22 c -11,-7 -21,-10 -33,-10 -14,0 -26,5 -35,15 -8.9997,10 -12.9997,23 -12.9997,38.9997 0,17 4,29 11.9997,39 9,9 20,14 35,14 12,0 23,-4 33,-12 z m -11,41 c 0,15 -12,23 -37,23 -4,0 -7,0 -9,0 v -12 c 4,0 7,1 9,1 13,0 20,-4 20,-12 0,-7 -6,-11 -18,-11 -1,0 -3,0 -5,1 v -25 h 14 v 14 c 8,0 14,2 19,6 5,3 7,8 7,15 z" />
   <path
   id="path4432"
   class="fil14"
   d="m 2221.7902,2140.6755 h -22 v -21 h -1 c -9,16 -23,24 -42,24 -14,0 -25,-3 -32,-11 -8,-7 -12,-16 -12,-29 0,-25 15,-40 45,-43.9997 l 42,-6 c 0,-24 -10,-35 -29,-35 -16,0 -31,5 -45,17 v -23 c 14,-9 30,-13 47,-13 33,0 49,17 49,51 z m -22,-70 -33,5 c -11,1 -18,4 -24,8 -5,3 -7,10 -7,19 0,7 2,12 7,16 5,5 11,7 19,7 11,0 20,-4 27,-12 7,-7 11,-17 11,-29 z m 14,-125.9997 c 0,9 -2,17 -6,23 -4,6 -10,9 -18,9 -6,0 -13,-3 -21,-7 -7,-4 -13,-6 -16,-6 -8,0 -12,5 -12,15 h -13 c 0,-9 2,-17 7,-23 4,-6 10,-9 18,-9 5,0 12,3 20,7 6,4 12,6 17,6 7,0 11,-5 11,-15 z" />
   <path
   id="path4434"
   class="fil14"
   d="m 2329.7902,2143.6755 c -20,0 -36,-6 -48,-19 -12,-13 -19,-30 -19,-51 0,-22.9997 7,-40.9997 19,-54.9997 13,-13 30,-19 52,-19 20,0 36,6 48,19 11,13 17,30 17,52.9997 0,22 -6,39 -18,52 -13,14 -30,20 -51,20 z m 2,-124.9997 c -14,0 -25,4 -34,14 -8,10 -12,23 -12,39.9997 0,16 4,29 13,39 8,9 19,14 33,14 14,0 25,-5 33,-14 8,-9 12,-23 12,-40 0,-16.9997 -4,-29.9997 -12,-38.9997 -8,-10 -19,-14 -33,-14 z" />
   <path
   id="path4436"
   class="fil14"
   d="m 2521.7902,2140.6755 v -192.9997 h 54.9997 c 17,0 30,4 40,12 10,8 15,19 15,32 0,11 -3,21 -9,29 -6,8 -14,14 -25,17 v 1 c 13,1 24,6 32,14 7,8.9997 11,18.9997 11,32.9997 0,16 -6,30 -18,40 -11,10 -26,15 -44,15 z m 22.9997,-172.9997 v 63 h 23 c 13,0 22,-3 29,-9 7,-6 11,-15 11,-25 0,-19 -12,-29 -37,-29 z m 0,83 v 69.9997 h 31 c 13,0 23,-4 31,-10 7,-6 11,-15 11,-26 0,-22 -16,-33.9997 -47,-33.9997 z" />
   <path
   id="path4438"
   class="fil14"
   d="m 2758.7899,2025.6758 c -4,-3 -10,-5 -17,-5 -9,0 -17,5 -24,13 -6,9 -9,21 -9,36.9997 v 70 h -22 v -137.9997 h 22 v 29 0 c 4,-10 8,-18 15,-23 6,-6 14,-8 22,-8 5,0 10,0 13,2 z" />
   <path
   id="path4440"
   class="fil14"
   d="m 2890.7899,2140.6755 h -22 v -21 h -1 c -9,16 -24,24 -42,24 -14,0 -25,-3 -33,-11 -7,-7 -11,-16 -11,-29 0,-25 15,-40 45,-43.9997 l 42,-6 c 0,-24 -10,-35 -29,-35 -16,0 -31,5 -45,17 v -23 c 14,-9 29,-13 47,-13 33,0 49,17 49,51 z m -22,-70 -34,5 c -10,1 -18,4 -23,8 -5,3 -8,10 -8,19 0,7 3,12 8,16 4,5 11,7 19,7 11,0 20,-4 27,-12 7,-7 11,-17 11,-29 z" />
   <path
   id="path4442"
   class="fil14"
   d="m 2932.7899,2135.6755 v -24 c 12,9 26,14 40,14 20,0 29,-7 29,-20 0,-3 -1,-6 -2,-9 -2,-3 -4,-5 -7,-7 -3,-2 -6,-4 -10,-5 -4,-2 -8,-3 -12,-5 -6,-2 -12,-5 -16,-7 -5,-3 -9,-6 -12,-9 -3,-2.9997 -5,-5.9997 -7,-9.9997 -2,-4 -2,-9 -2,-14 0,-7 1,-12 4,-17 3,-5 7,-9 12,-13 5,-3 11,-6 17,-7 6,-2 13,-3 19,-3 12,0 23,2 32,6 v 23 c -10,-7 -21,-10 -34,-10 -5,0 -8,0 -12,1 -3,1 -6,2 -8,4 -3,2 -4,4 -6,6 -1,2 -2,5 -2,8 0,4 1,7 2,9 2,2 3,5 6,6 2,2 6,4 9,6 4,1 8,2.9997 12,4.9997 6,2 12,4 17,7 5,2 9,5 12,8 4,3 6,7 8,11 2,4 3,9 3,14 0,7 -2,13 -5,18 -3,5 -7,9 -12,12 -5,4 -11,6 -17,8 -7,2 -14,2 -21,2 -14,0 -26,-2 -37,-8 z" />
   <path
   id="path4444"
   class="fil14"
   d="m 3078.7896,1967.6758 c -3,0 -7,-1 -10,-4 -1.9997,-3 -3.9997,-6 -3.9997,-10 0,-4 2,-8 3.9997,-10 3,-3 7,-5 10,-5 4,0 8,2 11,5 3,2 4,6 4,10 0,4 -1,7 -4,10 -3,3 -7,4 -11,4 z m 11,172.9997 h -22 v -137.9997 h 22 z" />
   <polygon
   id="polygon4446"
   class="fil14"
   points="17508,61944 17486,61944 17486,61740 17508,61740 "
   transform="translate(-14342.208,-59803.323)" />
   <path
   id="path4448"
   class="fil14"
   d="m 3330.7896,2077.6755 h -97 c 0,15 4,27 12,35 8,9 19,13 33,13 15,0 30,-5 43,-16 v 21 c -12,9 -29,13 -48,13 -20,0 -35,-6 -46,-18 -11,-13 -17,-31 -17,-53 0,-21.9997 6,-38.9997 18,-52.9997 12,-13 27,-20 46,-20 18,0 32,6 41,18 10,11 15,27 15,47.9997 z m -22,-18.9997 c -1,-13 -4,-23 -10,-30 -6,-7 -14,-10 -25,-10 -10,0 -19,3 -26,11 -8,7 -12,17 -14,29 z" />
   <path
   id="path4450"
   class="fil14"
   d="m 3384.7896,1967.6758 c -4,0 -7,-1 -10,-4 -3,-3 -4,-6 -4,-10 0,-4 1,-8 4,-10 3,-3 6,-5 10,-5 4,0 8,2 11,5 2,2 4,6 4,10 0,4 -2,7 -4,10 -3,3 -7,4 -11,4 z m 11,172.9997 h -22 v -137.9997 h 22 z" />
   <path
   id="path4452"
   class="fil14"
   d="m 3521.7896,2025.6758 c -4,-3 -9,-5 -17,-5 -9,0 -17,5 -23,13 -7,9 -10,21 -10,36.9997 v 70 h -22 v -137.9997 h 22 v 29 h 1 c 3,-10 8,-18 14,-23 7,-6 14,-8 22,-8 6,0 10,0 13,2 z" />
   <path
   id="path4454"
   class="fil14"
   d="m 3653.7893,2140.6755 h -22 v -21 h -1 c -9,16 -23,24 -41.9997,24 -14,0 -24,-3 -32,-11 -8,-7 -12,-16 -12,-29 0,-25 15,-40 46,-43.9997 l 40.9997,-6 c 0,-24 -10,-35 -28,-35 -16.9997,0 -31.9997,5 -44.9997,17 v -23 c 13,-9 29,-13 45.9997,-13 33,0 49,17 49,51 z m -22,-70 -33,5 c -10.9997,1 -17.9997,4 -22.9997,8 -6,3 -8,10 -8,19 0,7 2,12 7,16 5,5 11,7 19,7 10.9997,0 19.9997,-4 26.9997,-12 7,-7 11,-17 11,-29 z" />
   <path
   id="path4456"
   class="fil14"
   d="m 3897.7893,2140.6755 h -22 v -23 0 c -11,17 -26,26 -48,26 -17,0 -31,-6 -41,-18 -11,-13 -16,-29 -16,-51 0,-21.9997 6,-40.9997 17,-53.9997 12,-14 27,-21 46,-21 19,0 33,7 42,22 v 0 -85 h 22 z m -22,-62 v -20.9997 c 0,-11 -3,-20 -11,-28 -7,-8 -17,-11 -28,-11 -13,0 -24,4 -32,14 -7,10 -11,24 -11,40.9997 0,16 4,29 11,38 7,9 17,14 30,14 12,0 22,-5 30,-14 7,-8 11,-20 11,-33 z" />
   <path
   id="path4458"
   class="fil14"
   d="m 4062.7893,2077.6755 h -97 c 0,15 4,27 12,35 8,9 19,13 33,13 15,0 30,-5 43,-16 v 21 c -12,9 -29,13 -48,13 -20,0 -35,-6 -46,-18 -12,-13 -17,-31 -17,-53 0,-21.9997 6,-38.9997 18,-52.9997 12,-13 27,-20 45,-20 19,0 32,6 42,18 10,11 15,27 15,47.9997 z m -22,-18.9997 c -1,-13 -4,-23 -10,-30 -6,-7 -14,-10 -25,-10 -10,0 -19,3 -26,11 -8,7 -12,17 -14,29 z" />
   <polygon
   id="polygon4460"
   class="fil14"
   points="18619,61856 18549,61856 18549,61924 18629,61924 18629,61944 18526,61944 18526,61751 18625,61751 18625,61771 18549,61771 18549,61836 18619,61836 "
   transform="translate(-14342.208,-59803.323)" />
   <path
   id="path4462"
   class="fil14"
   d="m 4447.789,2140.6755 h -22 v -23 h -1 c -10,17 -26,26 -47,26 -17,0 -31,-6 -41,-18 -11,-13 -16,-29 -16,-51 0,-21.9997 6,-40.9997 17,-53.9997 12,-14 27,-21 46,-21 19,0 33,7 41,22 h 1 v -85 h 22 z m -22,-62 v -20.9997 c 0,-11 -4,-20 -11,-28 -7,-8 -17,-11 -28,-11 -14,0 -24,4 -32,14 -8,10 -11,24 -11,40.9997 0,16 3,29 11,38 7,9 17,14 30,14 12,0 22,-5 29,-14 8,-8 12,-20 12,-33 z" />
   <path
   id="path4464"
   class="fil14"
   d="m 4512.789,1967.6758 c -3,0 -7,-1 -10,-4 -2,-3 -4,-6 -4,-10 0,-4 2,-8 4,-10 3,-3 7,-5 10,-5 4,0 8,2 11,5 3,2 4,6 4,10 0,4 -1,7 -4,10 -3,3 -7,4 -11,4 z m 11,172.9997 h -22 v -137.9997 h 22 z" />
   <path
   id="path4466"
   class="fil14"
   d="m 4641.789,2139.6755 c -5,3 -12,4 -20,4 -25,0 -37,-13 -37,-40 v -81.9997 h -23 v -19 h 23 v -33 l 22,-8 v 41 h 35 v 19 h -35 v 77.9997 c 0,9 2,16 5,20 3,4 9,5 16,5 5,0 10,-1 14,-4 z" />
   <path
   id="path4468"
   class="fil14"
   d="m 4738.7887,2143.6755 c -21,0 -37,-6 -49,-19 -12,-13 -18,-30 -18,-51 0,-22.9997 6,-40.9997 19,-54.9997 12,-13 29,-19 51,-19 20,0 37,6 48,19 12,13 17,30 17,52.9997 0,22 -6,39 -18,52 -13,14 -29,20 -50,20 z m 1,-124.9997 c -14,0 -25,4 -33,14 -9,10 -13,23 -13,39.9997 0,16 4,29 13,39 8,9 19,14 33,14 15,0 26,-5 33,-14 8,-9 12,-23 12,-40 0,-16.9997 -4,-29.9997 -12,-38.9997 -7,-10 -18,-14 -33,-14 z" />
   <path
   id="path4470"
   class="fil14"
   d="m 4923.7887,2025.6758 c -4,-3 -9,-5 -17,-5 -9,0 -17,5 -23,13 -7,9 -10,21 -10,36.9997 v 70 h -22 v -137.9997 h 22 v 29 h 1 c 3,-10 8,-18 14,-23 7,-6 14,-8 22,-8 6,0 10,0 13,2 z" />
   <path
   id="path4472"
   class="fil14"
   d="m 5067.7887,2077.6755 h -97 c 0,15 4,27 12,35 8,9 19,13 33,13 15,0 30,-5 43,-16 v 21 c -13,9 -29,13 -49,13 -19,0 -34,-6 -45,-18 -12,-13 -17,-31 -17,-53 0,-21.9997 6,-38.9997 18,-52.9997 12,-13 27,-20 45,-20 18,0 32,6 42,18 10,11 15,27 15,47.9997 z m -23,-18.9997 c 0,-13 -3,-23 -9,-30 -6,-7 -14,-10 -25,-10 -10,0 -19,3 -27,11 -7,7 -11,17 -13,29 z" />
   <path
   id="path4474"
   class="fil14"
   d="m 5102.7887,2135.6755 v -24 c 12,9 25,14 39,14 20,0 29,-7 29,-20 0,-3 -1,-6 -2,-9 -2,-3 -4,-5 -7,-7 -3,-2 -6,-4 -10,-5 -4,-2 -8,-3 -12,-5 -6,-2 -12,-5 -16,-7 -5,-3 -9,-6 -12,-9 -3,-2.9997 -5,-5.9997 -7,-9.9997 -1,-4 -2,-9 -2,-14 0,-7 1,-12 4,-17 3,-5 7,-9 12,-13 5,-3 11,-6 17,-7 6,-2 13,-3 20,-3 12,0 22,2 31.9997,6 v 23 c -10.9997,-7 -21.9997,-10 -34.9997,-10 -5,0 -8,0 -12,1 -3,1 -6,2 -8,4 -3,2 -4,4 -6,6 -1,2 -2,5 -2,8 0,4 1,7 2,9 2,2 4,5 6,6 3,2 6,4 9,6 4,1 8,2.9997 12,4.9997 7,2 12,4 17,7 5,2 9,5 12,8 3.9997,3 5.9997,7 7.9997,11 2,4 3,9 3,14 0,7 -2,13 -5,18 -3,5 -6.9997,9 -11.9997,12 -5,4 -10,6 -17,8 -7,2 -13,2 -21,2 -14,0 -26,-2 -36,-8 z" />
   <path
   id="path4476"
   class="fil14"
   d="m 5446.7884,2132.6755 c -14,8 -32,11 -53,11 -28,0 -50,-8 -66,-26 -17,-18 -25,-41 -25,-69.9997 0,-31 9,-56 28,-75 19,-19 42,-28 71,-28 18,0 33,2 45,8 v 24 c -14,-8 -29,-12 -46,-12 -22,0 -40,8 -54,22 -13,15 -20,35 -20,60 0,22.9997 6,41.9997 19,55.9997 13,14 30,21 51,21 19,0 36,-4 50,-13 z" />
   <path
   id="path4478"
   class="fil14"
   d="m 5503.7884,1967.6758 c -4,0 -7,-1 -10,-4 -3,-3 -4,-6 -4,-10 0,-4 1,-8 4,-10 3,-3 6,-5 10,-5 4,0 8,2 11,5 2,2 4,6 4,10 0,4 -2,7 -4,10 -3,3 -7,4 -11,4 z m 11,172.9997 h -22 v -137.9997 h 22 z" />
   <path
   id="path4480"
   class="fil14"
   d="m 5679.7884,2077.6755 h -97 c 0,15 4,27 12,35 8,9 19,13 33,13 15,0 29,-5 42,-16 v 21 c -12,9 -28,13 -48,13 -19,0 -35,-6 -46,-18 -11,-13 -16,-31 -16,-53 0,-21.9997 6,-38.9997 18,-52.9997 12,-13 27,-20 45,-20 18,0 32,6 42,18 10,11 15,27 15,47.9997 z m -23,-18.9997 c 0,-13 -3,-23 -9,-30 -6,-7 -14,-10 -25,-10 -11,0 -19,3 -27,11 -7,7 -12,17 -13,29 z" />
   <path
   id="path4482"
   class="fil14"
   d="m 5836.7881,2140.6755 h -22 v -79 c 0,-28.9997 -11,-42.9997 -32,-42.9997 -11,0 -20,4 -27,12 -8,8 -11,19 -11,30.9997 v 79 h -22 v -137.9997 h 22 v 23 0 c 11,-17 26,-26 46,-26 15,0 26,5 34,15 8,9 12,23 12,42 z" />
   <path
   id="path4484"
   class="fil14"
   d="m 5951.7881,2139.6755 c -5,3 -12,4 -21,4 -24,0 -36,-13 -36,-40 v -81.9997 h -23 v -19 h 23 v -33 l 22,-8 v 41 h 35 v 19 h -35 v 77.9997 c 0,9 2,16 5,20 3,4 8,5 16,5 5,0 10,-1 14,-4 z" />
   <path
   id="path4486"
   class="fil14"
   d="m 6012.7881,2140.6755 h -22 v -137.9997 h 22 z m 20,-207.9997 -36,44 h -17 l 30,-44 z" />
   <path
   id="path4488"
   class="fil14"
   d="m 6134.7881,1955.6758 c -4,-2 -9,-3 -15,-3 -15,0 -23,9 -23,29 v 21 h 33 v 19 h -33 v 118.9997 h -22 v -118.9997 h -23 v -19 h 23 v -22 c 0,-15 5,-26 13,-34 8,-9 19,-13 31,-13 7,0 12,1 16,2 z" />
   <path
   id="path4490"
   class="fil14"
   d="m 6173.7881,1967.6758 c -4,0 -7,-1 -10,-4 -3,-3 -4,-6 -4,-10 0,-4 1,-8 4,-10 3,-3 6,-5 10,-5 4,0 7,2 10,5 3,2 5,6 5,10 0,4 -2,7 -5,10 -3,3 -6,4 -10,4 z m 11,172.9997 h -22 v -137.9997 h 22 z" />
   <path
   id="path4492"
   class="fil14"
   d="m 6332.7878,2134.6755 c -11,6 -23,9 -38,9 -20,0 -35,-6 -48,-19 -11.9997,-13 -17.9997,-29 -17.9997,-50 0,-21.9997 7,-40.9997 19.9997,-53.9997 13,-14 30,-21 52,-21 12,0 23,2 32,7 v 22 c -10,-7 -21,-10 -33,-10 -14,0 -25,5 -34,15 -9,10 -14,23 -14,38.9997 0,17 4,29 13,39 8,9 20,14 34,14 12,0 23,-4 34,-12 z" />
   <path
   id="path4494"
   class="fil14"
   d="m 6432.7878,2143.6755 c -20,0 -36,-6 -49,-19 -12,-13 -18,-30 -18,-51 0,-22.9997 6,-40.9997 19,-54.9997 13,-13 30,-19 51,-19 21,0 37,6 49,19 11,13 17,30 17,52.9997 0,22 -6,39 -19,52 -12,14 -29,20 -50,20 z m 2,-124.9997 c -14,0 -26,4 -34,14 -8,10 -12,23 -12,39.9997 0,16 4,29 12,39 9,9 20,14 34,14 14,0 25,-5 33,-14 7,-9 11,-23 11,-40 0,-16.9997 -4,-29.9997 -11,-38.9997 -8,-10 -19,-14 -33,-14 z" />
   <path
   id="path4496"
   class="fil14"
   d="m 6537.7878,2135.6755 v -24 c 12,9 25,14 40,14 19,0 29,-7 29,-20 0,-3 -1,-6 -3,-9 -1,-3 -3,-5 -6,-7 -3,-2 -6,-4 -10,-5 -4,-2 -8,-3 -13,-5 -6,-2 -11,-5 -16,-7 -4,-3 -8,-6 -11,-9 -3,-2.9997 -6,-5.9997 -7,-9.9997 -2,-4 -3,-9 -3,-14 0,-7 2,-12 5,-17 3,-5 7,-9 12,-13 5,-3 10,-6 17,-7 6,-2 12,-3 19,-3 12,0 23,2 32,6 v 23 c -10,-7 -22,-10 -35,-10 -4,0 -8,0 -11,1 -3,1 -6,2 -8,4 -3,2 -5,4 -6,6 -1,2 -2,5 -2,8 0,4 1,7 2,9 1,2 3,5 6,6 2,2 5,4 9,6 3,1 8,2.9997 12,4.9997 6,2 12,4 17,7 4,2 9,5 12,8 3,3 6,7 8,11 2,4 3,9 3,14 0,7 -2,13 -5,18 -3,5 -7,9 -12,12 -5,4 -11,6 -17,8 -7,2 -14,2 -21,2 -14,0 -26,-2 -37,-8 z" />
   
   
   
   
   
   
   
   
   
   
   
   
   
   
   
   
   
   
   
   
   
   
   
   
   
   
   
   
   
   
   
   
   
   
   
   
   
   
   
   
   
   
   
   
   
   
   
   
   
   
   
   
   
   
   
   
   
   
   
   
   
   
   
   
   
   
   
   
   
   
   
   
   
   
   
   
   
   
   
   
   
   
   
   
   
   
   
   
   
   
   
   
   
   
   
   
   
   
   
   
   
   
   
   
   
   
   
   
   
   
   
   
   
   
   
   
   
   
   
   
   
   
   
   
   
   
   
   
   
   
   
   
   
   
   
   
   
   
   
   
   
   
   
   
   
   
   
   
   
   
   
   
   
   
   
   
   
   
   
   
   
   
   
   
   
   
   
   
   
   
   
   
   
   
   
   
   
   
   
   
   
   
   
   
   
   
   
   
   
   
   
   
   
   
   
   
   
   
   
   
   
   
   
   
   
   
   
   
   
   
   
   
   
   
   
   
   
   
   
   
   
   
   
   
   
   
   
   
   
   
   
   
   
   
   
   
   
   
   
   
   
   
   
   
   
   
   
   
   
   
   
   
   
   
   
   
   
   
   
   
   
   
   
   
   
   
   
   
   
   
   
   
   
   
   
   
   
   
   
   
   
   
   
   
   
   
   
   
   
   
   
   
   
   
   
   
   
   
   
   
   
   
   
   
   
   
   
   
   
   
   
   
   
   
   
   
   
   
   
   
   
   
   
   
   
   
   
   
   
   
   
   
   
   
   
   
   
   
   
   
   
   
   
   
   
   
   
   
   
   
   
   
   
   
   
   
  </g>
 </g>
</svg>
