<?xml version="1.0" encoding="UTF-8"?>
<!DOCTYPE svg PUBLIC "-//W3C//DTD SVG 1.1//EN" "http://www.w3.org/Graphics/SVG/1.1/DTD/svg11.dtd">
<!-- Creator: CorelDRAW X7 -->
<svg xmlns="http://www.w3.org/2000/svg" xml:space="preserve" width="3.53907cm" height="1.23613cm" version="1.1" style="shape-rendering:geometricPrecision; text-rendering:geometricPrecision; image-rendering:optimizeQuality; fill-rule:evenodd; clip-rule:evenodd"
viewBox="0 0 264 93"
 xmlns:xlink="http://www.w3.org/1999/xlink">
 <defs>
  <style type="text/css">
   <![CDATA[
    .fil2 {fill:#FEFEFE;fill-rule:nonzero}
    .fil0 {fill:#ACB4AD;fill-rule:nonzero}
    .fil1 {fill:#282828;fill-rule:nonzero}
   ]]>
  </style>
 </defs>
 <g id="Camada_x0020_1">
  <metadata id="CorelCorpID_0Corel-Layer"/>
  <path class="fil0" d="M7 1l250 1c3,0 6,-1 6,7l0 82 -262 0 0 -83c0,-3 0,-7 6,-7z"/>
  <path class="fil1" d="M259 0l-254 0c-3,0 -5,2 -5,5l0 86 0 0c0,1 0,1 1,2l262 0c1,-1 1,-1 1,-2l0 0 0 -86c0,-3 -2,-5 -5,-5zm-254 2l254 0c2,0 3,1 3,3l0 60 -182 0c-7,12 -20,20 -35,20 -14,0 -27,-8 -34,-20l-9 0 0 -60c0,-2 1,-3 3,-3z"/>
  <path class="fil2" d="M163 72c0,0 1,0 1,0 1,0 2,1 2,1 0,0 1,1 1,1 0,0 0,1 0,2 0,0 0,1 0,2 -1,0 -1,0 -2,1 1,0 2,0 2,1 1,1 1,2 1,2 0,1 0,2 -1,2 0,1 0,1 -1,2 0,0 -1,0 -1,0 -1,1 -2,1 -2,1l-7 0 0 -15 7 0zm-1 6c1,0 1,0 2,0 0,-1 0,-1 0,-2 0,0 0,0 0,-1 0,0 0,0 -1,0 0,0 0,0 0,0 -1,0 -1,0 -1,0l-3 0 0 3 3 0zm0 6c1,0 1,0 1,0 1,0 1,0 1,0 0,0 0,-1 1,-1 0,0 0,0 0,-1 0,0 -1,-1 -1,-1 0,-1 -1,-1 -2,-1l-3 0 0 4 3 0z"/>
  <polygon class="fil2" points="168,72 172,72 176,78 179,72 182,72 177,81 177,87 174,87 174,81 "/>
  <path class="fil2" d="M75 43c0,17 -13,30 -30,30 -16,0 -30,-13 -30,-30l0 0c0,-16 14,-30 30,-30 17,0 30,14 30,30l0 0z"/>
  <path class="fil1" d="M70 19c6,6 10,15 10,24 0,10 -3,18 -10,24 -7,7 -15,11 -25,11 -9,0 -17,-4 -24,-11 -7,-6 -10,-14 -10,-24 0,-9 3,-17 10,-24 7,-7 15,-10 24,-10 10,0 18,3 25,10zm-44 4c-6,6 -9,13 -9,20 0,8 3,14 9,20 5,6 12,8 19,8 8,0 15,-2 21,-8 5,-5 8,-12 8,-20 0,-8 -3,-14 -9,-20 -5,-5 -12,-8 -20,-8 -7,0 -14,3 -19,8zm14 17c0,-2 -2,-3 -3,-3 -3,0 -5,2 -5,6 0,4 2,6 5,6 2,0 3,-1 4,-3l4 3c-2,3 -5,5 -9,5 -3,0 -5,-1 -7,-3 -2,-2 -3,-4 -3,-8 0,-3 1,-6 3,-8 2,-2 4,-3 7,-3 4,0 7,2 9,6l-5 2zm20 0c-1,-2 -2,-3 -4,-3 -3,0 -4,2 -4,6 0,4 1,6 4,6 2,0 4,-1 5,-3l4 3c-2,3 -5,5 -9,5 -3,0 -6,-1 -7,-3 -2,-2 -3,-4 -3,-8 0,-3 1,-6 3,-8 1,-2 4,-3 7,-3 4,0 7,2 9,6l-5 2z"/>
  <path class="fil2" d="M168 10c13,0 24,10 24,24 0,13 -11,23 -24,23 -13,0 -24,-10 -24,-23 0,-14 11,-24 24,-24z"/>
  <path class="fil1" d="M175 27c0,-1 -1,-2 -2,-2l-10 0c-1,0 -2,1 -2,2l0 10 3 0 0 12 8 0 0 -12 3 0 0 -10z"/>
  <path class="fil1" d="M168 17c2,0 4,1 4,3 0,2 -2,4 -4,4 -2,0 -4,-2 -4,-4 0,-2 2,-3 4,-3z"/>
  <path class="fil1" d="M168 7c-7,0 -13,3 -18,8 -5,5 -8,11 -8,18 0,7 3,13 8,18 5,5 11,8 18,8 7,0 13,-3 18,-8 5,-5 7,-11 7,-18 0,-7 -2,-13 -7,-18 -5,-5 -11,-8 -18,-8zm0 5c6,0 11,2 15,6 4,4 6,9 6,15 0,6 -2,11 -6,15 -4,4 -9,6 -15,6 -6,0 -11,-2 -15,-6 -4,-4 -6,-9 -6,-15 0,-6 2,-11 6,-15 4,-4 9,-6 15,-6z"/>
 </g>
</svg>
