<?xml version="1.0" encoding="UTF-8" standalone="no"?>
<!-- Creator: CorelDRAW X7 -->

<svg
   xml:space="preserve"
   width="28mm"
   height="14mm"
   version="1.1"
   style="clip-rule:evenodd;fill-rule:evenodd;image-rendering:optimizeQuality;shape-rendering:geometricPrecision;text-rendering:geometricPrecision"
   viewBox="0 0 2800.3486 1400.1757"
   id="svg5546"
   sodipodi:docname="cnpq.svg"
   inkscape:version="1.1 (1:1.1+202105261517+ce6663b3b7)"
   xmlns:inkscape="http://www.inkscape.org/namespaces/inkscape"
   xmlns:sodipodi="http://sodipodi.sourceforge.net/DTD/sodipodi-0.dtd"
   xmlns="http://www.w3.org/2000/svg"
   xmlns:svg="http://www.w3.org/2000/svg"><sodipodi:namedview
   id="namedview5548"
   pagecolor="#ffffff"
   bordercolor="#666666"
   borderopacity="1.0"
   inkscape:pageshadow="2"
   inkscape:pageopacity="0.0"
   inkscape:pagecheckerboard="0"
   inkscape:document-units="mm"
   showgrid="false"
   inkscape:zoom="1.8838653"
   inkscape:cx="121.02776"
   inkscape:cy="98.467762"
   inkscape:window-width="1680"
   inkscape:window-height="986"
   inkscape:window-x="0"
   inkscape:window-y="27"
   inkscape:window-maximized="1"
   inkscape:current-layer="_1660824352032" />
 <defs
   id="defs36">
  <style
   type="text/css"
   id="style2">
   <![CDATA[
    .str2 {stroke:#E88734;stroke-width:141.127}
    .str4 {stroke:#A6CE53;stroke-width:123.485}
    .str26 {stroke:#373435;stroke-width:21.1726}
    .str18 {stroke:#96989A;stroke-width:26.4533}
    .str3 {stroke:#FEFEFE;stroke-width:105.843}
    .str7 {stroke:black;stroke-width:11.1514}
    .str10 {stroke:black;stroke-width:8.9311}
    .str21 {stroke:#E6E7E8;stroke-width:35.2744}
    .str5 {stroke:#201E1E;stroke-width:35.2744}
    .str22 {stroke:#D2D3D5;stroke-width:20.0025}
    .str27 {stroke:#A9ABAE;stroke-width:20.0025}
    .str25 {stroke:#373435;stroke-width:20.0025}
    .str1 {stroke:#E88734;stroke-width:20.0025}
    .str0 {stroke:#BDBFC1;stroke-width:17.6322}
    .str19 {stroke:#4B4B4D;stroke-width:17.6322}
    .str23 {stroke:#FEFEFE;stroke-width:7.62094}
    .str17 {stroke:#96989A;stroke-width:7.62094}
    .str20 {stroke:#4B4B4D;stroke-width:7.62094}
    .str8 {stroke:black;stroke-width:11.1514;stroke-linejoin:round}
    .str9 {stroke:black;stroke-width:0.0400049;stroke-linecap:round;stroke-linejoin:round}
    .str6 {stroke:#282828;stroke-width:44.2055}
    .str11 {stroke:#373435;stroke-width:18.7423}
    .str13 {stroke:#373435;stroke-width:3.50043}
    .str14 {stroke:#373435;stroke-width:3.51043}
    .str12 {stroke:#373435;stroke-width:1.01012}
    .str15 {stroke:#373435;stroke-width:34.6143}
    .str16 {stroke:#373435;stroke-width:34.6143}
    .str24 {stroke:#FEFEFE;stroke-width:53.0566}
    .fil3 {fill:none}
    .fil23 {fill:none;fill-rule:nonzero}
    .fil20 {fill:#FEFEFE}
    .fil6 {fill:#FEFEFE}
    .fil0 {fill:#E6E7E8}
    .fil30 {fill:#848688}
    .fil34 {fill:#606062}
    .fil31 {fill:#4B4B4D}
    .fil27 {fill:#373435}
    .fil32 {fill:#373435}
    .fil22 {fill:#ACB3AC}
    .fil21 {fill:#282828}
    .fil26 {fill:#201E1E}
    .fil25 {fill:#201E1E}
    .fil11 {fill:#004B92}
    .fil41 {fill:#12AED7}
    .fil38 {fill:#2B5492}
    .fil39 {fill:#2F691D}
    .fil7 {fill:#367372}
    .fil18 {fill:#709D21}
    .fil37 {fill:#8FC73E}
    .fil40 {fill:#A34963}
    .fil43 {fill:#D91F2C}
    .fil19 {fill:#E3F1E0}
    .fil29 {fill:#E88734}
    .fil16 {fill:#EF9E57}
    .fil15 {fill:#EF9E57}
    .fil35 {fill:#F19317}
    .fil9 {fill:#F1F1F1}
    .fil36 {fill:#F3BF07}
    .fil13 {fill:#FDFDFD}
    .fil12 {fill:#FEFEFE}
    .fil5 {fill:#FEFEFE;fill-rule:nonzero}
    .fil17 {fill:#96989A;fill-rule:nonzero}
    .fil2 {fill:#4B4B4D;fill-rule:nonzero}
    .fil14 {fill:#373435;fill-rule:nonzero}
    .fil4 {fill:#373435;fill-rule:nonzero}
    .fil33 {fill:#201E1E;fill-rule:nonzero}
    .fil42 {fill:#D91F2C;fill-rule:nonzero}
    .fil10 {fill:#DADCE0;fill-rule:nonzero}
    .fil1 {fill:#E88734;fill-rule:nonzero}
    .fil24 {fill:black;fill-rule:nonzero}
    .fil28 {fill:white;fill-rule:nonzero}
    .fil8 {fill:#D2D3D5;fill-opacity:0.458824}
   ]]>
  </style>
    <clipPath
   id="id0">
     <path
   d="M 24,2683 H 36167 V 23577 H 24 Z"
   id="path4" />
    </clipPath>
    <mask
   id="id1">
  <linearGradient
   id="id2"
   gradientUnits="userSpaceOnUse"
   x1="-33.794201"
   y1="5327.6299"
   x2="36205.602"
   y2="4090.3">
   <stop
   offset="0"
   style="stop-opacity:1; stop-color:white"
   id="stop7" />
   <stop
   offset="0.980392"
   style="stop-opacity:-95.8784; stop-color:white"
   id="stop9" />
   <stop
   offset="1"
   style="stop-opacity:0; stop-color:white"
   id="stop11" />
  </linearGradient>
     <rect
   style="fill:url(#id2)"
   x="15"
   y="2671"
   width="36142"
   height="4077"
   id="rect14" />
    </mask>
    <mask
   id="id3">
  <linearGradient
   id="id4"
   gradientUnits="userSpaceOnUse"
   x1="15052.7"
   y1="16018.4"
   x2="36353.301"
   y2="15291.1">
   <stop
   offset="0"
   style="stop-opacity:1; stop-color:white"
   id="stop17" />
   <stop
   offset="0.988235"
   style="stop-opacity:-95.8784; stop-color:white"
   id="stop19" />
   <stop
   offset="1"
   style="stop-opacity:0; stop-color:white"
   id="stop21" />
  </linearGradient>
     <rect
   style="fill:url(#id4)"
   x="15244"
   y="9384"
   width="20918"
   height="12542"
   id="rect24" />
    </mask>
    <clipPath
   id="id5">
     <rect
   x="4123"
   y="215"
   width="771"
   height="535"
   id="rect27" />
    </clipPath>
     <clipPath
   id="id6">
      <rect
   x="4123"
   y="215"
   width="771"
   height="535"
   id="rect30" />
     </clipPath>
     <clipPath
   id="id7">
      <path
   d="m 28193,30240 h 7219 v 5816 h -7219 z"
   id="path33" />
     </clipPath>
 </defs>
 <g
   id="Camada_x0020_1"
   inkscape:label="Camada 1"
   inkscape:groupmode="layer">
  <metadata
   id="CorelCorpID_0Corel-Layer" />
  <g
   id="_1660824352032">
   
   
   
   
   
   
   
   
   
   
   
   
   
   
   
   
   
   
   
   
   
   
   
   
   
   
   
   
   
   
   
   
   
   
   
   
   
   
   
   
   
   
   
   
   
   
   
   
   
   
   
   
   
   
   
   
   
   
   
   
   
   
   
   
   
   
   
   
   
   
   
   
   
   
   
   
   
   
   
   
   
   
   
   
   
   
   
   
   
   
   
   
   
   
   
   
   
   
   
   
   
   
   
   
   
   
   
   
   
   
   
   
   
   
   
   
   
   
   
   
   
   
   
   
   
   
   
   
   
   
   
   
   
   
   
   
   
   
   
   
   
   
   
   
   
   
   
   
   
   
   
   
   
   
   
   
   
   
   
   
   
   
   
   
   
   
   
   
   
   
   
   
   
   
   
   
   
   
   
   
   
   
   
   
   
   
   
   
   
   
   
   
   
   
   
   
   
   
   
   
   
   
   
   
   
   
   
   
   
   
   
   
   
   
   
   
   
   
   
   
   
   
   
   
   
   
   
   
   
   
   
   
   
   
   
   
   
   
   
   
   
   
   
   
   
   
   
   
   
   
   
   
   
   
   
   
   
   
   
   
   
   
   
   
   
   
   
   
   
   
   
   
   
   
   
   
   
   
   
   
   
   
   
   
   
   
   
   
   
   
   
   
   
   
   
   
   
   
   
   
   
   
   
   
   
   
   
   
   
   
   
   
   
   
   
   
   
   
   
   
   
   
   
   
   
   
   
   
   
   
   
   
   
   
   
   
   
   
   
   
   
   
   
   
   
   
   
   
   
   
   
   
   
   
   
   
   
   
   
   
   
   
   
   
   
   
   
   
   
   
   
   
   
   
   
   
   
   
   
   
   
   
   
   
   
   
   
   
   
   
   
   
   
   
   
   
   
   
   
   
   
   
   
   
   
   
   
   
   
   
   
   
   
   
   
   
   
   
   
   
   
   
   
   
   
   
   
   
   
   
   
   
   
   
   
   
   
   
   
   
   
   
   
   
   
   
   
   
   
   
   
   
   
   
   
   
   
   
   
   
   
   
   
   
   
   
   
   
   
   
   
   
   
   
   
   
   
   
   
   
   
   
   
   
   
   
   
   
   
   
   
   
   
   
   
   
   
   
   
   
   
   
   
   
   
   
   
   
   
   
   
   
   
   
   
   
   
   
   
   
   
   
   
   
   
   
   
   
   
   
   
   
   
   
   
   
   
   
   
   
   
   
   
   
   
   
   
   
   
   
   
   
   
   
   
   
   
   
   
   
   
   
   
   
   
   
   
   
   
   
   
   
   
   
   
   
   
   
   
   
   
   
   
   
   
   
   
   
   
   
   
   
   
   
   
   
   
   
   
   
   
   
   
   
   
   
   
   
   
   
   
   
   
   
   
   
   
   
   
   
   
   
   
   
   
   
   
   
   
   
   
   
   
   
   
   
   
   
   
   
   
   
   
   
   
   
   
   
   
   
   
   
   
   
   
   
   
   
   
   
   
   
   
   
   
   
   
   
   
   
   
   
   
   
   
   
   
   
   
   
   
   
   
   
   
   
   
   
   
   
   
   
   
   
   
   
   
   
   
   
   
   
   
   
   
   
   
   
   
   
   
   
   
   
   
   
   
   
   
   
   
   
   
   
   
   
   
   
   
   
   
   
   
   
   
   
   
   
   
   
   
   
   
   
   
   
   
   
   
   
   
   
   
   
   
   
   
   
   
   
   
   
   
   
   
   
   
   
   
   
   
   
   
   
   
   
   
   
   
   
   
   
   
   
   
   
   
   
   
   
   
   
   
   
   
   
   
   
   
   
   
   
   
   
   
   
   
   
   
   
   
   
   
   
   
   
   
   
   
   
   
   
   
   
   
   
   
   
   
   
   
   
   
   
   
   
   
   
   
   
   
   
   
   
   
   
   
   
   
   
   
   
   
   
   
   
   
   
   
   
   
   
   
   
   
   
   
   
   
   
   
   
   
   
   
   
   
   
   
   
   
   
   
   
   
   
   
   
   
   
   
   
   
   
   
   
   
   
   
   
   
   
   
   
   
   
   
   
   
   
   
   
   
   
   
   
   
   
   
   
   
   
   
   
   
   
   
   
   
   
   
   
   
   
   
   
   
   
   
   
   
   
   
   
   
   
   
   
   
   
   
   
   
   
   
   
   
   
   
   
   
   
   
   
   
   
   
   
   
   
   
   
   
   
   
   
   
   
   
   
   
   
   
   
   
   
   
   
   
   
   
   
   
   
   
   
   
   
   
   
   
   
   
   
   
   
   
   
   
   
   
   
   
   
   
   
   
   
   
   
   
   
   
   
   
   
   
   
   
   
   
   
   
   
   
   
   
   
   
   
   
   
   
   
   
   
   
   
   
   
   
   
   
   
   
   
   
   
   
   
   
   
   
   
   
   
   
   
   
   
   
   
   
   
   
   
   
   
   
   
   
   
   
   
   
   
   
   
   
   
   
   
   
   
   
   
   
   
   
   
   
   
   
   
   
   
   
   
   
   
   
   
   
   
   
   
   
   
   
   
   
   
   
   
   
   
   
   
   
   
   
   
   
   
   
   
   
   
   
   
   
   
   
   
   
   
   
   
   
   
   
   
   
   
   
   
   
   
   
   
   
   
   
   
   
   
   
   
   
   
   
   
   
   
   
   
   
   
   
   
   
   
   
   
   
   
   
   
   
   
   
   
   
   
   
   
   
   
   
   
   
   
   
   
   
   
   
   
   
   
   
   
   
   
   
   
   
   
   
   
   
   
   
   
   
   
   
   
   
   
   
   
   
   
   
   
   
   
   
   
   
   
   
   
   
   
   
   
   
   
   
   
   
   
   
   
   
   
   
   
   
   
   
   
   
   
   
   
   
   
   
   
   
   
   
   
   
   
   
   
   
   
   
   
   
   
   
   
   
   
   
   
   
   
   
   
   
   
   
   
   
   
   
   
   
   
   
   
   
   
   
   
   
   
   
   
   
   
   
   
   
   
   
   
   
   
   
   
   
   
   
   
   
   
   
   
   
   
   
   
   
   
   
   
   
   
   
   
   
   
   
   
   
   
   
   
   
   
   
   
   
   
   
   
   
   
   
   
   
   
   
   
   
   
   
   
   
   
   
   
   
   
   
   
   
   
   
   
   
   
   
   
   
   
   
   
   
   
   
   
   
   
   
   
   
   
   
   
   
   
   
   
   
   
   
   
   
   
   
   
   
   
   
   
   
   
   
   
   
   
   
   
   
   
   
   
   
   
   
   
   
   
   
   
   
   
   
   
   
   
   
   
   
   
   
   
   
   
   
   
   
   
   
   
   
   
   
   
   
   
   
   
   
   
   
   
   
   
   
   
   
   
   
   
   
   
   
   
   
   
   
   
   
   
   
   
   
   
   
   
   
   
   
   
   
   
   
   
   
   
   
   
   
   
   
   
   
   
   
   
   
   
   
   
   
   
   
   
   
   
   
   
   
   
   
   
   
   
   
   
   
   
   
   
   
   
   
   
   
   
   
   
   
   
   
   
   
   
   
   
   
   
   
   
   
   
   
   
   
   
   
   
   
   
   
   
   
   
   
   
   
   
   
   
   
   
   
   
   
   
   
   
   
   
   
   
   
   
   
   
   
   
   
   
   
   
   
   
   
   
   
   
   
   
   
   
   
   
   
   
   
   
   
   
   
   
   
   
   
   
   
   
   
   
   
   
   
   
   
   
   
   
   
   
   
   
   
   
   
   
   
   
   
   
   
   
   
   
   
   
   
   
   
   
   
   
   
   
   
   
   
   
   
   
   
   
   
   
   
   
   
   
   
   
   
   
   
   
   
   
   
   
   
   
   
   
   
   
   
   
   
   
   
   
   
   
   
   
   
   
   
   
   
   
   
   
   
   
   
   
   
   
   
   
   
   
   
   
   
   
   
   
   
   
   
   
   
   
   
   
   
   
   
   
   
   
   
   
   
   
   
   
   
   
   
   
   
   
   
   
   
   
   
   
   
   
   
   
   
   
   
   
   
   
   
   
   
   
   
   
   
   
   
   
   
   
   
   
   
   
   
   
   
   
   
   
   
   
   
   
   
   
   
   
   
   
   
   
   
   
   
   
   
   
   
   
   
   
   
   
   
   
   
   
   
   
   
   
   
   
   
   
   
   
   
   
   
   
   
   
   
   
   
   
   
   
   
   
   
   
   
   
   
   
   
   
   
   
   
   
   
   
   
   
   
   
   
   
   
   
   
   
   
   
   
   
   
   
   
   
   
   
   
   
   
   
   
   
   
   
   
   
   
   
   
   
   
   
   
   
   
   
   
   
   
   
   
   
   
   
   
   
   
   
   
   
   
   
   
   
   
   
   
   
   
   
   
   
   
   
   
   
   
   
   
   
   
   
   
   
   
   
   
   
   
   
   
   
   
   
   
   
   
   
   
   
   
   
   
   
   
   
   
   
   
   
   
   
   
   
   
   
   
   
   
   
   
   
   
   
   
   
   
   
   
   
   
   
   
   
   
   
   
   
   
   
   
   
   
   
   
   
   
   
   
   
   
   
   
   
   
   
   
   
   
   
   
   
   
   
   
   
   
   
   
   
   
   
   
   
   
   
   
   
   
   
   
   
   
   
   
   
   
   
   
   
   
   
   
   
   
   
   
   
   
   
   
   
   
   
   
   
   
   
   
   
   
   
   
   
   
   
   
   
   
   
   
   
   
   
   
   
   
   
   
   
   
   
   
   
   
   
   
   
   
   
   
   
   
   
   
   
   
   
   
   
   
   
   
   
   
   
   
   
   
   
   
   
   
   
   
   
   
   
   
   
   
   
   
   
   
   
   
   
   
   
   
   
   
   
   
   
   
   
   
   
   
   
   
   
   
   
   
   
   
   
   
   
   
   
   
   
   
   
   
   
   
   
   
   
   
   
   
   
   
   
   
   
   
   
   
   
   
   
   
   
   
   
   
   
   
   
   
   
   
   
   
   
   
   
   
   
   
   
   
   
   
   
   
   
   
   
   
   
   
   
   
   
   
   
   
   
   
   
   
   
   
   
   
   
   
   
   
   
   
   
   
   
   
   
   
   
   
   
   
   
   
   
   
   
   
   
   
   
   
   
   
   
   
   
   
   
   
   
   
   
   
   
   
   
   
   
   
   
   
   
   
   
   
   
   
   
   
   
   
   
   
   
   
   
   
   
   
   
   
   
   
   
   
   
   
   
   
   
   
   
   
   
   
   
   
   
   
   
   
   
   
   
   
   
   
   
   
   
   
   
   
   
   
   
   
   
   
   
   
   
   
   
   
   
   
   
   
   
   
   
   
   
   
   
   
   
   
   
   
   
   
   
   
   
   
   
   
   
   
   
   
   
   
   
   
   
   
   
   
   
   
   
   
   
   
   
   
   
   
   
   
   
   
   
   
   
   
   
   
   
   
   
   
   
   
   
   
   
   
   
   
   
   
   
   
   <path
   class="fil27"
   d="m 755.89155,405.05356 c 13,51.99967 12,79.99964 3,121.99961 -12,46 -37.99997,80.99997 -61.99997,101.99997 l 85.99997,294.99982 H 697.89158 C 668.89161,816.05302 633.89161,697.05308 603.89194,589.05314 c 18,-9 66.99967,-36.99997 73.99967,-101.99994 7.99997,-60.99997 -30,-107.99964 -55.99967,-124.99961 -23,-15 -55.99997,-25 -87.99997,-19 -59.99997,7 -101.99994,53.99997 -110.99994,105.99964 -1,7 -1,11 -2,20 0,0 -23.99997,66.99994 -31.99997,87.99994 h 18 v 172.99991 h 204.99988 l 23.99967,83.99994 H 320.89209 V 621.05314 l -42.99997,-1 c 16,-46.99997 55.99997,-150.99991 55.99997,-150.99991 5,-37 7,-108.99964 83.99994,-167.99961 36,-30 90.99997,-50.99997 150.99994,-45.99997 98.99964,11.99997 164.99961,79.99994 186.99958,149.99991 z"
   id="path4534" />
   <path
   class="fil27"
   d="m 842.89149,328.05359 c 62.99997,137.99964 22,267.99955 -23.99997,328.99952 l 70.99997,264.99985 H 805.89152 L 723.89158,637.05311 c 50.99997,-48.99997 81.99994,-147.99991 57.99997,-229.99955 -23,-81.99997 -90.99997,-151.99991 -188.99961,-171.99991 -104.99994,-21 -202.99988,31.99997 -245.99985,106.99994 -26,39.99997 -31,79.99964 -35.99997,126.99964 0,0 -51.99997,126.99991 -69.99997,172.99988 h 55.99997 v 194.99991 h 344.99949 l 24,85.99994 H 211.89215 V 718.05308 h -97.99994 c 0,0 105.99994,-241.99988 105.99994,-248.99985 5,-83.99967 43.99997,-188.99961 123.99994,-251.99958 40.99997,-31.99997 95.99994,-62.99997 169.99991,-69.99994 79.99994,-8 113.99994,6 166.99961,23.99997 88.99994,37.99997 148.99991,123.99994 161.99988,156.99991 z"
   id="path4536" />
   <path
   class="fil27"
   d="m 464.89203,472.0532 c 0,-46.99997 38.99997,-84.99964 84.99994,-84.99964 46.99997,0 84.99964,37.99967 84.99964,84.99964 0,47 -37.99967,83.99997 -84.99964,83.99997 -45.99997,0 -84.99994,-36.99997 -84.99994,-83.99997 z"
   id="path4538" />
   <path
   class="fil27"
   d="m 320.89209,1007.0526 h -19.99997 c 0,-1 0,-2 0,-3 0,-1 0,-2 -1,-4 0,-1.99997 -2,-3.99997 -4,-5.99997 -3,-2 -7,-3 -12,-3 -2,0 -4,0 -6,0 -2,1 -4,2 -7,3 -3,2 -7,5 -10,9.99997 -2.99997,5 -5.99997,11 -7.99997,20 0,1 0,3 -1,5 0,2 0,4 0,6 0,6 1,11 4,15 3,4 7.99997,6 13.99997,6 5,0 10,-2 15,-5 4,-3 7,-7 10,-13 h 18.99997 c -3.99997,10 -9.99997,19 -17.99997,25 -8,7 -18,10 -30,10 -10.99997,0 -18.99997,-3 -24.99997,-9 -6,-6 -10,-14 -9,-26 0,-2 0,-4 0,-7 0,-2 1,-5 1,-8 4,-16 11,-28.99997 21,-36.99997 9.99997,-8 20.99997,-13 32.99997,-13 11,0 19,3 24,8 5.99997,5 8.99997,10 9.99997,16 0,1 0,2 0,2.99997 0,1 0,2 0,3 0,0 0,1 0,2 0,0 0,1 0,2 z m 74.99997,28 c -2,12 -8,22 -16,27 -8,6 -15.99997,10 -24.99997,10 -1,0 -1,0 -1,0 -1,0 -1,0 -2,0 -8,0 -15,-2 -20,-6 -6,-5 -9,-11 -9,-21 0,-1 0,-3 1,-4 0,-2 0,-4 0,-6 3,-12 8,-21 16,-27 8,-6 17,-8.99997 25.99997,-8.99997 0,0 0,0 1,0 0,0 1,0 1,0 8,0 15,1.99997 21,5.99997 5,5 8,11 8,21 0,1 0,3 0,4 0,2 0,4 -1,5 z m -19,0 c 0,0 0,-1 1,-2 0,-1 0,-2 0,-3 0,0 0,0 0,-1 0,0 0,-1 0,-1 0,-4 -1,-7 -3,-10 -2,-3 -5,-4 -9.99997,-4 -6,0 -10,2 -13,5 -3,3 -5,6 -7,10 0,1 -1,2 -1,3 0,1 0,2 -1,3 0,2 0,3 0,4 0,2 0,3 0,4 0,4 0,7 2,10 2,2 6,4 11,4 5,0 9.99997,-2 12.99997,-5 3,-3 5,-7 6,-10 1,-1 1,-3 1,-4 1,-1 1,-2 1,-3 z m 97.99994,-13 -9.99997,48 h -19 l 9,-42 c 1,-1 1,-1 1,-2 0,-1 0,-2 0,-3 0,0 0,0 0,0 0,0 0,-1 0,-1 0,-2 -1,-4 -2,-5 -1,-2 -4,-3 -8,-3 -4,0 -7,1 -11,4 -3,3 -5,7 -7,12 l -8,40 h -18.99997 l 15,-70 h 17.99997 l -2,11 v 0 c 1,-1 1,-2 2,-3 1,0 2,-1 3,-2 2,-2 4,-4 7,-5 3,-1.99997 7,-1.99997 12,-1.99997 6,0 11,0.99997 14,3.99997 3.99997,3 5.99997,7 5.99997,13 0,1 0,2 0,3 -1,1 -1,2 -1,3 z m 74.99997,0 h -18 c 0,-1 0,-1 0,-1 0,0 0,0 0,0 0,-2 -1,-4 -2,-6 -1,-2 -4,-2 -7.99997,-2 -5,0 -8,0 -9,1 -2,1 -3,2 -4,4 0,0 0,0 0,1 0,0 0,0 0,0 0,0 0,1 0,1 0,0 0,0 0,0 0,0 0,0 0,0 0,0 0,0 0,0 0,2 1,3 3,4 2,1 5,2 8,2 1,1 3,1 3.99997,1 1,0 3,1 4,1 5,1 9,3 13,5 4,2 6,6 6,11 0,1 0,1 0,2 0,1 0,1 -1,2 -1,7 -4,11 -8,15 -4,3 -8,6 -13,7 -1.99997,1 -4.99997,1 -6.99997,2 -3,0 -5,0 -7,0 0,0 -1,0 -1,0 0,0 0,0 0,0 -7,0 -14,-1 -20,-4 -5,-3 -8,-8 -8,-15 0,-1 0,-2 0,-2 0,-1 0,-2 0,-3 h 19 c 0,0 0,1 0,1 0,1 0,1 0,1 0,3 1,5 3,6 2,2 5,2 10,2 4,0 6,0 8,-1 1.99997,-1 2.99997,-2 3.99997,-3 0,-1 1,-1 1,-2 0,0 0,-1 0,-1 0,0 0,0 0,0 0,0 0,0 0,0 0,-1 0,-1 0,-1 0,-2 -1,-3 -3,-4 -1.99997,-1 -4.99997,-2 -8.99997,-2 -1,-1 -2,-1 -3,-1 -1,0 -2,0 -3,-1 -5,-1 -10,-3 -14,-5 -3,-2 -5,-6 -5,-11 0,-1 0,-1 0,-2 0,-1 0,-1 0,-2 0,-1 1,-2 1,-3 0,-1 1,-2 1,-3 2,-4 6,-8 11,-12 4,-4 11,-4.99997 20,-4.99997 0.99997,0 1.99997,0 1.99997,0 1,0 2,0 2,0 6,0 11,0.99997 16,3.99997 5,2 7,7 7,14 0,1 0,2 0,2 0,1 0,2 0,3 z m 50.99997,28 h 19 c -3,6 -7,10 -11,13 -4,4 -8,6 -13,7 -2,1 -4,1 -6,2 -2,0 -4,0 -6,0 -7.99997,0 -14.99997,-2 -19.99997,-5 -6,-4 -8,-11 -8,-20 0,-2 0,-4 0,-6 0,-2 1,-5 1,-7 1,-2 1,-4 2,-7 1,-3 3,-6 5,-9 3,-5 7,-10 12.99997,-14 5,-3 12,-4.99997 21,-4.99997 1,0 2,0 3,0 1,0 2,0 3,0 5,0.99997 10,2.99997 14,6.99997 4,3 7,9 7,18 0,2 0,4 -1,6 0,2 0,5 -1,7 l -1,3 h -47.99997 c 0,1 0,2 0,3 0,0 0,1 0,2 0,0 0,1 0,1 0,1 0,1 0,2 1,2 2,4 2.99997,6 2,2 5,4 10,4 1,0 1,-1 2,-1 0,0 0,0 1,0 2,0 4,-1 6,-2 2,-1 4,-3 5,-5 z m 5,-22 c 0,0 0,-1 0,-1 0,-1 0,-1 0,-1 0,-5 -1,-8 -3,-9 -2,-2 -4,-3 -7,-3 0,0 0,0 0,0 -1,0 -1,0 -1,0 -4,0 -8,1 -11,4 -3,2 -5,6 -7,10 z m 40.99967,42 h -17.99967 l 19.99967,-93.99997 h 18 z m 90.99994,-48 -9.99997,48 h -18 l 9,-42 c 0,-1 0,-1 0,-2 0,-1 1,-2 1,-3 0,0 0,0 0,0 0,0 0,-1 0,-1 0,-2 -1,-4 -2,-5 -2,-2 -4,-3 -8,-3 -4,0 -8,1 -11,4 -4,3 -6,7 -7,12 l -9,40 h -17.99997 l 19.99997,-93.99997 h 18 l -7,32.99997 v 0 c 2,-2 5,-5 9,-7 5,-2 9,-2.99997 14,-2.99997 6,0 11,0.99997 15,3.99997 2.99997,3 4.99997,7 4.99997,13 0,1 0,2 0,3 0,1 0,2 -1,3 z m 81.99997,13 c -2,12 -7,22 -15,27 -8,6 -16.99997,10 -25.99997,10 0,0 -1,0 -1,0 0,0 -1,0 -1,0 -8,0 -15,-2 -21,-6 -6,-5 -8,-11 -8,-21 0,-1 0,-3 0,-4 0,-2 0,-4 1,-6 2,-12 8,-21 15,-27 8,-6 17,-8.99997 25.99997,-8.99997 0,0 1,0 1,0 0,0 1,0 1,0 8,0 15,1.99997 21,5.99997 6,5 8,11 8,21 0,1 0,3 0,4 0,2 0,4 -1,5 z m -19,0 c 1,0 1,-1 1,-2 0,-1 0,-2 0,-3 0,0 0,0 0,-1 0,0 0,-1 0,-1 0,-4 -1,-7 -2,-10 -2,-3 -6,-4 -11,-4 -4.99997,0 -9.99997,2 -12.99997,5 -3,3 -5,6 -7,10 0,1 0,2 -1,3 0,1 0,2 0,3 -1,2 -1,3 -1,4 0,2 0,3 0,4 0,4 1,7 3,10 1,2 5,4 10,4 5,0 9.99997,-2 12.99997,-5 3,-3 5,-7 7,-10 0,-1 0,-3 1,-4 0,-1 0,-2 0,-3 z m 140.99994,-58.99997 h 17.99997 l -19.99997,93.99997 h -20 l -24,-67 v 0 l -14.99997,67 h -18 l 20,-93.99997 h 20.99997 l 23,65.99997 h 1 z m 82.99994,42.99997 -8,38 c 0,1 0,2 -1,3 0,1 0,2 0,3 0,1 1,3 1,3 1,1 1,1 2,2 l -1,2 h -19.99997 c 0,0 0,-1 0,-1 0,-1 0,-1 0,-2 0,0 0,0 0,0 0,0 0,0 0,-1 0,0 0,-1 0,-1 0,-1 0,-2 0,-3 0,1 -1,1 -1,1 -1,1 -1,1 -2,2 -2,2 -5,3 -9,5 -3,1 -7,2 -12,2 -5,0 -9,-1 -13,-3 -3,-3 -5,-7 -5,-12 0,-1 0,-2 0,-3 0,0 0,-1 1,-2 1,-7 4,-12 9,-16 4,-3 10,-6 16,-7 l 17,-2 c 0,0 1,0 1,0 0,0 0,0 0.99997,0 1,-1 2,-1 3,-2 1,-1 2,-2 3,-4 0,0 0,0 0,-1 0,0 0,0 0,-1 0,-2 -1,-3 -2,-4 -2,-1 -4,-1 -4.99997,-2 -1,0 -2,0 -2,0 -1,0 -1,0 -2,0 -3,0 -6,1 -8,2 -2,2 -3,4 -4,5 0,1 0,1 -1,2 0,0 0,1 0,1 h -18 c 3,-9 7,-16 13,-19 6,-3 12,-4.99997 18,-4.99997 1,0 2,0 3,0 1,0 1.99997,0 2.99997,0 1,0 2,0 4,0 1,0 3,0 4,0 4,0.99997 8,2.99997 11,4.99997 3,2 5,6 5,10 0,1 0,2 -1,3 0,0 0,1 0,2 z m -23,26 1,-9 c -1,1 -2,2 -3.99997,2 -2,1 -5,2 -9,2 -3,1 -7,2 -9,3 -3,1 -5,4 -6,8 0,0 0,0 0,0 0,1 0,1 0,1 0,0 0,1 0,1 0,0 0,0 0,0 0,2 1,3 2,4 1,1 2,2 3,2 1,0 1,0 1,0 0,0 1,0 1,0 1,0 1,0 2,0 0,0 1,0 2,0 3,-1 7,-2 10,-5 3,-2 4.99997,-5 5.99997,-9 z m 76,0 h 18 c 0,1 -1,3 -2,5 -1,3 -2,5 -4,7 -3,4 -7,7 -12,11 -5,3 -12,4 -19,4 -11,0 -18,-2 -21,-8 -4,-5 -6,-10 -6,-16 0,-2 1,-4 1,-6 0,-1 0,-3 0,-5 3,-11 8,-20 14,-28 7,-7 17,-9.99997 28,-9.99997 2,0 3,0 4,0 2,0 3,0 5,0 4,1.99997 8,3.99997 12,6.99997 3,3 5,8 5,15 0,1 0,1 0,2 0,1 0,2 0,2 h -19 c 0,0 0,0 0,0 0,0 0,0 0,0 0,-1 0,-1 0,-2 0,0 0,-1 0,-1 -1,-2 -1,-4 -3,-6 -1,-1 -3,-2 -6,-2 0,0 0,0 0,0 -1,0 -1,0 -1,0 -5,0 -8,2 -11,5 -3,3 -5,6 -6,10 -1,1 -1,2 -1,3 0,1 -1,1 -1,2 0,1 0,1 0,1 0,0 0,0 0,1 0,1 -1,2 -1,3 0,1 0,3 0,4 0,0 0,1 0,1 0,0 0,1 0,1 0,3 0,6 2,8 1,3 4,4 8,4 3,0 6,-1 8,-2 2,-1 4,-3 5,-5 1,-1 1,-2 2,-3 0,-1 0,-2 1,-2 z m 60,-45 -15,70 h -19 l 15,-70 z m 1,-7.99997 h -18 l 4,-17 h 18 z m 75.9997,42.99997 c -2,12 -7,22 -15,27 -8,6 -17,10 -26,10 0,0 -1,0 -1,0 0,0 -1,0 -1,0 -8,0 -14.9997,-2 -20.9997,-6 -6,-5 -8,-11 -8,-21 0,-1 0,-3 0,-4 0,-2 0,-4 1,-6 2,-12 8,-21 15,-27 7.9997,-6 16.9997,-8.99997 25.9997,-8.99997 0,0 1,0 1,0 1,0 1,0 1,0 8,0 15,1.99997 21,5.99997 6,5 8,11 8,21 0,1 0,3 0,4 0,2 0,4 -1,5 z m -19,0 c 1,0 1,-1 1,-2 0,-1 0,-2 0,-3 0,0 0,0 0,-1 0,0 0,-1 0,-1 0,-4 -1,-7 -2,-10 -2,-3 -6,-4 -11,-4 -5,0 -10,2 -13,5 -3,3 -5,6 -7,10 0,1 0,2 -1,3 0,1 0,2 0,3 0,2 -1,3 -1,4 0,2 0,3 0,4 0,4 1,7 3,10 1,2 5,4 10,4 6,0 10,-2 13,-5 3,-3 5,-7 7,-10 0,-1 0,-3 1,-4 0,-1 0,-2 0,-3 z m 98,-13 -10,48 h -18 l 9,-42 c 0,-1 0,-1 0,-2 0,-1 0,-2 0,-3 0,0 0,0 0,0 0,0 0,-1 0,-1 0,-2 0,-4 -1,-5 -2,-2 -4,-3 -8,-3 -4,0 -8,1 -11,4 -4,3 -6,7 -7,12 l -9,40 h -18 l 15,-70 h 17 l -2,11 v 0 c 1,-1 2,-2 2,-3 1,0 2,-1 3,-2 2,-2 4,-4 8,-5 3,-1.99997 6,-1.99997 11,-1.99997 6,0 11,0.99997 15,3.99997 3,3 5,7 5,13 0,1 0,2 0,3 0,1 0,2 -1,3 z m 75,-3 -8,38 c 0,1 -1,2 -1,3 0,1 0,2 0,3 0,1 0,3 1,3 0,1 1,1 2,2 l -1,2 h -20 c 0,0 0,-1 0,-1 0,-1 0,-1 0,-2 0,0 0,0 0,0 0,0 0,0 0,-1 0,0 0,-1 0,-1 0,-1 0,-2 0,-3 0,1 -1,1 -1,1 -1,1 -2,1 -2,2 -3,2 -6,3 -9,5 -3,1 -8,2 -13,2 -4,0 -8,-1 -12,-3 -3,-3 -5,-7 -5,-12 0,-1 0,-2 0,-3 0,0 0,-1 0,-2 2,-7 5,-12 10,-16 4,-3 10,-6 16,-7 l 17,-2 c 0,0 0,0 1,0 0,0 0,0 1,0 1,-1 2,-1 3,-2 1,-1 2,-2 2,-4 0,0 1,0 1,-1 0,0 0,0 0,-1 0,-2 -1,-3 -3,-4 -1,-1 -3,-1 -4,-2 -1,0 -2,0 -2,0 -1,0 -2,0 -2,0 -4,0 -6,1 -8,2 -2,2 -3,4 -4,5 0,1 -1,1 -1,2 0,0 0,1 0,1 h -18 c 3,-9 7,-16 13,-19 6,-3 12,-4.99997 18,-4.99997 1,0 2,0 3,0 1,0 1,0 2,0 2,0 3,0 5,0 1,0 3,0 4,0 4,0.99997 8,2.99997 11,4.99997 3,2 4,6 4,10 0,1 0,2 0,3 0,0 0,1 0,2 z m -24,26 2,-9 c -1,1 -2,2 -4,2 -2,1 -5,2 -9,2 -4,1 -7,2 -10,3 -2,1 -4,4 -5,8 0,0 0,0 0,0 0,1 0,1 0,1 0,0 0,1 0,1 0,0 0,0 0,0 0,2 0,3 2,4 1,1 2,2 3,2 0,0 1,0 1,0 0,0 1,0 1,0 0,0 1,0 2,0 0,0 1,0 2,0 3,-1 6,-2 9,-5 4,-2 6,-5 6,-9 z m 48,25 h -18 l 20,-93.99997 h 19 z m 119,0 h -18 l 1,-9 v 0 c -2,3 -4,6 -7,7 -3,2 -6,3 -8,3 -2,1 -3,1 -4,1 -1,0 -2,0 -3,0 -9,0 -14,-2 -18,-7 -3,-5 -5,-11 -5,-19 0,-1 0,-3 0,-5 0,-2 1,-4 1,-6 3,-12 7,-20 13,-26 7,-6 14,-9.99997 21,-9.99997 0,0 1,0 1,0 1,0 1,0 2,0 4,0 8,0 11,1.99997 2,1 4,3 5,5 0,1 1,1 1,2 0,0 1,1 1,1 v 0 l 7,-32.99997 h 19 z m -42,-34 c 0,1 -1,2 -1,3 0,2 0,3 0,4 0,4 1,7 3,10 1,3 4,4 8,4 6,0 11,-2 14,-6 4,-4 6,-9 7,-14 0,0 0,-1 0,-1 0,-1 0,-1 0,-1 1,-1 1,-3 1,-4 0,-1 0,-2 0,-3 0,-4 -1,-7 -2,-10 -2,-2 -5,-4 -10,-4 -6,0 -10,3 -14,7 -3,4 -5,9 -6,15 z"
   id="path4540" />
   <path
   class="fil27"
   d="m 1573.8911,1050.0526 h 19 c -3,6 -7,10 -11,13 -4,4 -8,6 -13,7 -2,1 -4,1 -6,2 -2,0 -4,0 -6,0 -8,0 -15,-2 -20,-5 -6,-4 -8,-11 -8,-20 0,-2 0,-4 0,-6 0,-2 1,-5 1,-7 1,-2 1,-4 2,-7 1,-3 3,-6 5,-9 3,-5 7,-10 12,-14 6,-3 13,-4.99997 22,-4.99997 1,0 2,0 3,0 1,0 2,0 3,0 5,0.99997 10,2.99997 14,6.99997 4,3 7,9 7,18 0,2 -1,4 -1,6 0,2 0,5 -1,7 l -1,3 h -48 c 0,1 0,2 0,3 0,0 0,1 0,2 0,0 0,1 0,1 0,1 0,1 0,2 0,2 2,4 3,6 2,2 5,4 10,4 1,0 1,-1 1,-1 1,0 1,0 2,0 2,0 4,-1 6,-2 2,-1 4,-3 5,-5 z m 5,-22 c 0,0 0,-1 0,-1 0,-1 0,-1 0,-1 0,-5 -1,-8 -3,-9 -2,-2 -4,-3 -7,-3 0,0 0,0 -1,0 0,0 0,0 0,0 -4,0 -8,1 -11,4 -3,2 -5,6 -7,10 z m 80,-51.99997 h 41.9997 c 12,0 20,3 24,9 4,7 6,14 7,20.99997 0,1 0,1 0,1 0,0 0,0 0,0 0,2 -1,5 -1,7 0,2 -1,5 -1,7 -1,2 -1,5 -2,7 -1,3 -2,6 -3,8 -3,9 -9,17 -16,24 -7,7 -17,10 -28.9997,10 h -41 z m 3,77.99997 h 19 c 8,0 13.9997,-3 18.9997,-9 4,-7 7,-13 9,-21 0,0 0,-1 0,-1 0,0 0,0 1,-1 0,-2 0,-5 1,-7 0,-2 0,-4 0,-5 0,-7 -1,-10.99997 -4,-12.99997 -2,-3 -5,-4 -8,-5 -1,0 -2,0 -2,0 -1,0 -2,0 -3,0 h -18.9997 z m 115.9997,-4 h 19 c -3,6 -6,10 -10,13 -4,4 -9,6 -13,7 -2,1 -4,1 -6,2 -2,0 -4,0 -6,0 -8,0 -15,-2 -20,-5 -6,-4 -8,-11 -8,-20 0,-2 0,-4 0,-6 0,-2 1,-5 1,-7 0,-2 1,-4 2,-7 1,-3 3,-6 5,-9 3,-5 7,-10 12,-14 6,-3 13,-4.99997 22,-4.99997 1,0 2,0 3,0 1,0 2,0 3,0 5,0.99997 10,2.99997 14,6.99997 4,3 6,9 6,18 0,2 0,4 0,6 0,2 -1,5 -1,7 l -1,3 h -48 c 0,1 0,2 0,3 0,0 0,1 0,2 0,0 0,1 0,1 0,1 0,1 0,2 0,2 1,4 3,6 2,2 5,4 10,4 0,0 1,-1 1,-1 1,0 1,0 2,0 2,0 4,-1 6,-2 2,-1 3,-3 4,-5 z m 6,-22 c 0,0 0,-1 0,-1 0,-1 0,-1 0,-1 0,-5 -1,-8 -3,-9 -2,-2 -5,-3 -7,-3 0,0 -1,0 -1,0 0,0 0,0 0,0 -5,0 -8,1 -11,4 -3,2 -5,6 -7,10 z m 90,-6 h -18 c 0,-1 0,-1 0,-1 0,0 0,0 0,0 0,-2 0,-4 -2,-6 -1,-2 -4,-2 -8,-2 -4,0 -7,0 -9,1 -2,1 -3,2 -4,4 0,0 0,0 0,1 0,0 0,0 0,0 0,0 0,1 0,1 0,0 0,0 0,0 0,0 0,0 0,0 0,0 0,0 0,0 0,2 1,3 3,4 3,1 5,2 8,2 2,1 3,1 4,1 1,0 3,1 4,1 5,1 9,3 13,5 4,2 6,6 6,11 0,1 0,1 0,2 0,1 0,1 0,2 -2,7 -5,11 -9,15 -4,3 -8,6 -12,7 -3,1 -6,1 -8,2 -3,0 -5,0 -7,0 0,0 0,0 0,0 0,0 -1,0 -1,0 -7,0 -13,-1 -19,-4 -6,-3 -9,-8 -9,-15 0,-1 0,-2 0,-2 0,-1 0,-2 0,-3 h 19 c 0,0 0,1 0,1 0,1 0,1 0,1 0,3 1,5 3,6 2,2 5,2 10,2 4,0 6,0 8,-1 2,-1 3,-2 4,-3 1,-1 1,-1 1,-2 0,0 0,-1 0,-1 0,0 1,0 1,0 0,0 0,0 0,0 0,-1 0,-1 0,-1 0,-2 -2,-3 -4,-4 -2,-1 -5,-2 -8,-2 -1,-1 -3,-1 -4,-1 -1,0 -2,0 -3,-1 -5,-1 -9,-3 -13,-5 -4,-2 -6,-6 -6,-11 0,-1 0,-1 0,-2 0,-1 0,-1 0,-2 0,-1 1,-2 1,-3 0,-1 1,-2 1,-3 2,-4 6,-8 11,-12 5,-4 12,-4.99997 21,-4.99997 0,0 1,0 1,0 1,0 2,0 2,0 6,0 11,0.99997 16,3.99997 5,2 7,7 7,14 0,1 0,2 0,2 0,1 0,2 0,3 z m 51,28 h 19 c -3,6 -7,10 -11,13 -4,4 -8,6 -13,7 -2,1 -4,1 -6,2 -2,0 -4,0 -6,0 -8,0 -15,-2 -20,-5 -5,-4 -8,-11 -8,-20 0,-2 0,-4 0,-6 1,-2 1,-5 2,-7 0,-2 1,-4 2,-7 1,-3 2,-6 4,-9 3,-5 7,-10 13,-14 5,-3 12,-4.99997 22,-4.99997 1,0 2,0 2,0 1,0 2,0 3,0 5,0.99997 10,2.99997 14,6.99997 5,3 7,9 7,18 0,2 0,4 -1,6 0,2 0,5 -1,7 v 3 h -49 c 0,1 0,2 0,3 0,0 0,1 0,2 0,0 0,1 0,1 0,1 0,1 0,2 1,2 2,4 4,6 1,2 5,4 9,4 1,0 1,-1 2,-1 0,0 1,0 1,0 2,0 4,-1 6,-2 2,-1 4,-3 5,-5 z m 5,-22 c 0,0 0,-1 0,-1 0,-1 0,-1 0,-1 0,-5 -1,-8 -3,-9 -2,-2 -4,-3 -7,-3 0,0 0,0 0,0 0,0 -1,0 -1,0 -4,0 -8,1 -11,4 -3,2 -5,6 -6,10 z m 96,-6 -10,48 h -19 l 9,-42 c 1,-1 1,-1 1,-2 0,-1 0,-2 0,-3 0,0 0,0 0,0 0,0 0,-1 0,-1 0,-2 -1,-4 -2,-5 -1,-2 -4,-3 -8,-3 -4,0 -7,1 -11,4 -3,3 -5,7 -7,12 l -8,40 h -19 l 15,-70 h 18 l -2,11 v 0 c 1,-1 1,-2 2,-3 1,0 2,-1 2,-2 3,-2 5,-4 8,-5 3,-1.99997 7,-1.99997 12,-1.99997 6,0 10,0.99997 14,3.99997 4,3 6,7 6,13 0,1 0,2 0,3 -1,1 -1,2 -1,3 z m 39,48 h -19 l -10,-70 h 20 l 4,52 v 0 l 26,-52 h 19 z m 107,-35 c -3,12 -8,22 -16,27 -8,6 -16,10 -25,10 -1,0 -1,0 -2,0 0,0 0,0 -1,0 -8,0 -15,-2 -20,-6 -6,-5 -9,-11 -9,-21 0,-1 0,-3 0,-4 1,-2 1,-4 1,-6 3,-12 8,-21 16,-27 8,-6 16,-8.99997 25,-8.99997 1,0 1,0 2,0 0,0 0,0 1,0 8,0 15,1.99997 20,5.99997 6,5 9,11 9,21 0,1 0,3 0,4 0,2 -1,4 -1,5 z m -19,0 c 0,0 0,-1 0,-2 1,-1 1,-2 1,-3 0,0 0,0 0,-1 0,0 0,-1 0,-1 0,-4 -1,-7 -3,-10 -2,-3 -5,-4 -10,-4 -6,0 -10,2 -13,5 -3,3 -6,6 -7,10 0,1 -1,2 -1,3 0,1 -1,2 -1,3 0,2 0,3 0,4 -1,2 -1,3 -1,4 0,4 1,7 3,10 2,2 5,4 10,4 6,0 10,-2 13,-5 3,-3 6,-7 7,-10 1,-1 1,-3 1,-4 1,-1 1,-2 1,-3 z m 43,35 h -18 l 20,-93.99997 h 18 z m 55.9997,0 h -20 l -10,-70 h 20 l 4,52 v 0 l 26,-52 h 20 z m 69,-70 -15,70 h -18 l 14,-70 z m 2,-7.99997 h -19 l 4,-17 h 18 z m 111,29.99997 -10,48 h -19 l 10,-42 c 0,-1 0,-2 0,-3 0,-1 0,-2 0,-2 0,-4 -1,-6 -2,-7 -2,-1 -3,-2 -6,-2 -4,0 -8,1 -10,4 -3,3 -4,6 -5,10 l -9,42 h -19 l 9,-42 c 1,0 1,-1 1,-2 0,-1 0,-1 0,-2 0,-1 0,-1 0,-1 0,-1 0,-1 0,-1 0,-2 0,-4 -1,-6 -2,-1 -4,-2 -8,-2 -4,0 -7,1 -9,4 -3,3 -4,6 -5,10 l -9,42 h -18 l 14,-70 h 18 l -2,11 v 0 c 1,-1 1,-2 2,-2 0,-1 1,-2 2,-3 2,-2 4,-3 7,-5 3,-1.99997 7,-1.99997 12,-1.99997 5,0 8,0 11,1.99997 2,2 4,5 6,9 0,-1 1,-2 2,-2 1,-1 2,-2 3,-3 1,-2 4,-3 6,-4 3,-1.99997 6,-1.99997 10,-1.99997 6,0 11,0.99997 14,3.99997 4,3 6,7 6,13 0,1 0,2 0,3 -1,1 -1,2 -1,3 z m 52,28 h 19 c -3,6 -6,10 -10,13 -4,4 -9,6 -13,7 -2,1 -4,1 -6,2 -2,0 -4,0 -6,0 -9,0 -15,-2 -21,-5 -5,-4 -8,-11 -8,-20 0,-2 1,-4 1,-6 0,-2 0,-5 1,-7 0,-2 1,-4 2,-7 1,-3 3,-6 5,-9 2,-5 7,-10 12,-14 6,-3 13,-4.99997 22,-4.99997 1,0 2,0 3,0 1,0 2,0 3,0 5,0.99997 10,2.99997 14,6.99997 4,3 6,9 6,18 0,2 0,4 0,6 0,2 -1,5 -1,7 l -1,3 h -48 c 0,1 0,2 0,3 0,0 0,1 0,2 0,0 0,1 0,1 0,1 0,1 0,2 0,2 1,4 3,6 2,2 5,4 10,4 0,0 1,-1 1,-1 1,0 1,0 1,0 3,0 5,-1 7,-2 2,-1 3,-3 4,-5 z m 6,-22 c 0,0 0,-1 0,-1 0,-1 0,-1 0,-1 0,-5 -1,-8 -3,-9 -2,-2 -5,-3 -7,-3 -1,0 -1,0 -1,0 0,0 0,0 0,0 -5,0 -8,1 -11,4 -3,2 -5,6 -7,10 z m 95,-6 -10,48 h -18 l 9,-42 c 0,-1 0,-1 0,-2 0,-1 1,-2 1,-3 0,0 0,0 0,0 0,0 0,-1 0,-1 0,-2 -1,-4 -2,-5 -2,-2 -4,-3 -8,-3 -4,0 -8,1 -11,4 -4,3 -6,7 -7,12 l -9,40 h -18 l 15,-70 h 17 l -2,11 h 1 c 0,-1 1,-2 1,-3 1,0 2,-1 3,-2 2,-2 5,-4 8,-5 3,-1.99997 7,-1.99997 11,-1.99997 6,0 11,0.99997 15,3.99997 3,3 5,7 5,13 0,1 0,2 0,3 0,1 0,2 -1,3 z m 43,-22 h 11 l -2,13 h -12 l -8,38 c 0,1 0,2 0,2 0,0 0,1 0,1 0,1 0,2 1,3 1,0 3,0 5,0 1,0 2,0 2,0 1,0 2,0 2,0 l -3,14 c -1,0 -3,0 -4,0 -1,0 -3,0 -4,0 h -3 c -6,0 -10,-1 -13,-3 -2,-1 -3,-4 -3,-7 0,-1 0,-1 0,-2 0,-1 0,-2 1,-3 l 9,-43 h -10 l 3,-13 h 9 l 5,-18.99997 h 18 z m 83,35 c -2,12 -8,22 -16,27 -7,6 -16,10 -25,10 0,0 -1,0 -1,0 -1,0 -1,0 -2,0 -8,0 -14,-2 -20,-6 -6,-5 -9,-11 -9,-21 0,-1 1,-3 1,-4 0,-2 0,-4 1,-6 2,-12 7,-21 15,-27 8,-6 17,-8.99997 26,-8.99997 0,0 1,0 1,0 0,0 1,0 1,0 8,0 15,1.99997 21,5.99997 5,5 8,11 8,21 0,1 0,3 0,4 0,2 0,4 -1,5 z m -19,0 c 0,0 1,-1 1,-2 0,-1 0,-2 0,-3 0,0 0,0 0,-1 0,0 0,-1 0,-1 0,-4 -1,-7 -3,-10 -1,-3 -5,-4 -10,-4 -6,0 -10,2 -13,5 -3,3 -5,6 -7,10 0,1 0,2 -1,3 0,1 0,2 0,3 -1,2 -1,3 -1,4 0,2 0,3 0,4 0,4 1,7 2,10 2,2 6,4 11,4 5,0 10,-2 13,-5 3,-3 5,-7 6,-10 1,-1 1,-3 2,-4 0,-1 0,-2 0,-3 z m -2372.99841,128 h -19.99997 c 0,0 0,-1 0,-3 0,-1 0,-2 -1,-3 0,-2 -2,-5 -4,-7 -3,-2 -7,-3 -12,-3 -2,0 -4,0 -6,1 -2,0 -4,1 -7,3 -3,2 -7,5 -10,10 -2.99997,4 -5.99997,11 -7.99997,19 0,2 0,4 -1,6 0,2 0,4 0,6 0,6 1,10 4,14 3,4 7.99997,6 13.99997,6 5,0 10,-1 15,-4 4,-3 7,-8 10,-13 h 18.99997 c -3.99997,10 -9.99997,18 -17.99997,25 -8,6 -18,9 -30,9 -10.99997,0 -18.99997,-2 -24.99997,-8 -6,-6 -10,-15 -9,-26 0,-2 0,-5 0,-7 0,-3 1,-5 1,-8 4,-17 11,-29 21,-37 9.99997,-9 20.99997,-13 32.99997,-13 11,0 19,2 24,7 5.99997,5 8.99997,11 9.99997,16 0,1 0,2 0,3 0,1 0,2 0,3 0,1 0,2 0,2 0,1 0,2 0,2 z m 34,-6 -15,70 h -18 l 14,-70 z m 2,-8 h -19 l 4,-18 h 18 z m 45.99997,57 h 18.99997 c -3,6 -5.99997,11 -9.99997,14 -4,3 -9,6 -13,7 -2,1 -4,1 -6,1 -2,1 -4,1 -6,1 -9,0 -15,-2 -21,-6 -4.99997,-4 -7.99997,-10 -7.99997,-19 0,-2 0,-4 1,-7 0,-2 0,-4 1,-6 0,-2 1,-5 2,-8 1,-2 2,-6 3.99997,-9 3,-5 8,-9 13,-13 6,-4 13,-6 22,-6 1,0 2,0 3,0 1,0 2,0 3,1 5,0 10,3 13.99997,6 4,4 6,10 6,19 0,2 0,4 0,6 0,2 -1,4 -1,7 l -1,3 h -47.99997 c 0,1 0,1 0,2 0,1 0,2 0,3 0,0 0,1 0,1 0,0 0,1 0,1 0,3 1,5 3,7 2,2 5,3 10,3 0,0 1,0 1,0 1,0 1,0 1,0 3,0 5,-1 7,-2 2,-2 3,-3 4,-5 z m 6,-21 c 0,0 0,-1 0,-1 0,-1 0,-1 0,-2 0,-4 -1,-7 -3,-9 -3,-2 -5,-2 -7,-3 -1,0 -1,0 -1,0 0,0 0,0 0,0 -5,0 -8,2 -11,4 -3,3 -5,6 -7,11 z m 94.99994,-7 -10,49 h -18 l 9,-43 c 0,0 0,-1 0,-2 0,0 0,-1 0,-2 0,0 0,0 0,-1 0,0 0,0 0,0 0,-2 0,-4 -1,-6 -2,-1 -4,-2 -8,-2 -4,0 -7.99997,1 -10.99997,4 -4,3 -6,7 -7,12 l -9,40 h -18 l 15,-70 h 17 l -2,10 h 1 c 0,0 1,-1 1,-2 1,-1 2,-2 3,-2 2,-2 4,-4 7.99997,-6 3,-1 7,-2 11,-2 6,0 11,2 15,5 3,3 5,7 5,13 0,1 0,2 0,3 0,1 0,2 -1,3 z m 42.99997,-21 h 11 l -2,13 h -12 l -8,38 c 0,1 0,1 0,2 0,0 0,1 0,1 0,1 0,2 1,2 1,1 3,1 5,1 1,0 2,0 2,0 1,0 2,0 2,0 l -3,13 c -1,1 -3,1 -4,1 -1,0 -3,0 -4,0 h -3 c -6,0 -10.99997,-1 -12.99997,-3 -2,-2 -3,-4 -3,-7 0,-1 0,-2 0,-3 0,-1 0,-1 1,-2 l 8.99997,-43 H 515.892 l 3,-13 h 8.99997 l 4,-19 h 19 z m 41.99997,0 -14.99997,70 h -18 l 15,-70 z m -2,-10 h -12.99997 l 16.99997,-19 h 20 z m 26,80 h -18 l 12,-57 h -10 l 2,-13 h 10 l 2,-6 c 1,-7 4,-12 9,-15 4,-3 9,-5 15.99967,-5 2,0 4,0 6,0 1,0 2,1 3,1 l -3,14 h -5 c -3,0 -4.9997,1 -5.9997,2 -1,1 -1.99997,2 -1.99997,5 0,0 0,0 0,0 0,1 0,1 0,1 l -1,3 h 11.99967 l -3,13 h -11.99967 z m 55.99967,-70 -14,70 h -19 l 15,-70 z m 2,-8 h -18 l 3,-18 h 19 z"
   id="path4542" />
   <path
   class="fil27"
   d="m 718.89158,1201.0526 h 18.99997 c -1,2 -1,4 -2,6 -0.99997,2 -2.99997,5 -4.99997,7 -3,4 -7,7 -12,10 -5,3 -11,5 -19,5 -10,0 -17,-3 -20.99997,-8 -3,-5 -5,-11 -5,-17 0,-2 0,-3 0,-5 0,-2 1,-3 1,-5 3,-11 7,-21 13.99997,-28 7,-7 16,-11 28,-11 1,0 3,0 4,0 1,1 3,1 4,1 4,1 8,3 11.99997,6 4,4 6,9 5,15 0,1 0,2 0,3 0,0 0,1 0,2 h -18.99997 c 0,0 0,0 0,0 0,0 0,-1 0,-1 0,0 0,-1 0,-1 0,-1 0,-1 0,-2 0,-2 -1,-3 -2,-5 -1,-2 -4,-2 -7,-2 0,0 0,0 0,0 0,0 0,0 0,0 -5,0 -9,1 -12,4 -2,3 -4,7 -6,11 0,0 0,1 -1,2 0,1 0,2 0,3 0,0 0,0 -1,1 0,0 0,0 0,0 0,1 0,3 0,4 0,1 -1,2 -1,4 0,0 0,0 0,1 0,0 0,0 0,1 0,3 1,6 2,8 2,3 5,4 9,4 3,0 5,-1 7,-2 2,-2 4,-3 5,-5 1,-1 2,-2 2,-3 1,-1 1,-2 1,-2 z m 100.99994,-9 c -2,12 -7,21 -15,27 -8,6 -16.99997,9 -25.99997,10 0,0 -1,0 -1,0 0,0 -1,0 -1,0 -8,0 -15,-2 -21,-7 -6,-4 -8,-11 -8,-20 0,-1 0,-3 0,-5 0,-1 0,-3 1,-5 2,-12 8,-21 15,-27 8,-6 17,-9 25.99997,-10 0,0 1,0 1,0 0,0 1,0 1,0 8,0 15,2 21,7 6,4 8,11 8,20 0,2 0,3 0,5 0,2 0,3 -1,5 z m -19,0 c 1,-1 1,-2 1,-2 0,-1 0,-2 0,-3 0,0 0,-1 0,-1 0,-1 0,-1 0,-1 0,-4 -1,-7 -2,-10 -2,-3 -6,-4 -11,-4 -4.99997,0 -9.99997,1 -12.99997,4 -3,4 -5,7 -7,11 0,1 0,2 -1,3 0,1 0,2 0,3 -1,1 -1,3 -1,4 0,1 0,3 0,4 0,3 1,6 3,9 1,3 5,4 10,4 5,0 9.99997,-1 12.99997,-4 3,-4 5,-7 7,-11 0,-1 0,-2 1,-3 0,-1 0,-2 0,-3 z m 106.99994,14 h 19 c -3,6 -7,11 -11,14 -4,3 -8,6 -13,7 -2,1 -4,1 -6,1 -2,1 -3.99997,1 -5.99997,1 -8,0 -15,-2 -20,-6 -5,-4 -8,-10 -8,-19 0,-2 0,-4 0,-7 1,-2 1,-4 2,-6 0,-2 1,-5 2,-8 1,-2 2,-6 4,-9 3,-5 7,-9 13,-13 5,-4 12.99997,-6 21.99997,-6 1,0 2,0 3,0 1,0 1,0 2,1 6,0 10,3 14,6 5,4 7,10 7,19 0,2 0,4 0,6 -1,2 -1,4 -2,7 v 3 h -47.99997 c -1,1 -1,1 -1,2 0,1 0,2 0,3 0,0 0,1 0,1 0,0 0,1 0,1 1,3 2,5 4,7 1,2 5,3 9,3 0.99997,0 0.99997,0 1.99997,0 0,0 1,0 1,0 2,0 4,-1 6,-2 2,-2 4,-3 5,-5 z m 5,-21 c 0,0 0,-1 0,-1 0,-1 0,-1 0,-2 0,-4 -1,-7 -3,-9 -2,-2 -4,-2 -7,-3 0,0 0,0 0,0 0,0 -1,0 -1,0 -4,0 -7.99997,2 -10.99997,4 -3,3 -5,6 -6,11 z m 100.99994,42 h -19.99997 l 16.99997,-78 h -28.99997 l 4,-17 h 75.99997 l -3,17 h -29 z m 76,-21 h 19 c -3,6 -6,11 -10,14 -4,3 -9,6 -13,7 -2,1 -4,1 -6,1 -2,1 -4,1 -6,1 -9,0 -15,-2 -21,-6 -5,-4 -8,-10 -8,-19 0,-2 0,-4 1,-7 0,-2 0,-4 1,-6 0,-2 1,-5 2,-8 1,-2 2,-6 5,-9 2,-5 7,-9 12,-13 6,-4 13,-6 22,-6 1,0 2,0 3,0 1,0 2,0 3,1 5,0 10,3 14,6 4,4 6,10 6,19 0,2 0,4 0,6 0,2 -1,4 -1,7 l -1,3 h -48 c 0,1 0,1 0,2 0,1 0,2 0,3 0,0 0,1 0,1 0,0 0,1 0,1 0,3 1,5 3,7 2,2 5,3 10,3 0,0 1,0 1,0 1,0 1,0 1,0 3,0 5,-1 7,-2 2,-2 3,-3 4,-5 z m 6,-21 c 0,0 0,-1 0,-1 0,-1 0,-1 0,-2 0,-4 -1,-7 -3,-9 -3,-2 -5,-2 -7,-3 -1,0 -1,0 -1,0 0,0 0,0 0,0 -5,0 -8,2 -11,4 -3,3 -5,6 -7,11 z m 68.9997,16 h 19 c -1,2 -2,4 -3,6 -1,2 -2,5 -4,7 -3,4 -7,7 -12,10 -4.9997,3 -10.9997,5 -18.9997,5 -11,0 -18,-3 -21,-8 -4,-5 -5,-11 -5,-17 0,-2 0,-3 0,-5 0,-2 0,-3 1,-5 2,-11 7,-21 14,-28 6,-7 16,-11 27.9997,-11 1,0 2,0 4,0 1,1 3,1 4,1 4,1 8,3 12,6 3,4 5,9 5,15 0,1 0,2 0,3 0,0 0,1 0,2 h -19 c 0,0 0,0 0,0 0,0 0,-1 0,-1 0,0 0,-1 0,-1 0,-1 0,-1 0,-2 0,-2 -1,-3 -2,-5 -2,-2 -4,-2 -6.9997,-2 0,0 0,0 0,0 0,0 0,0 -1,0 -4,0 -8,1 -11,4 -3,3 -5,7 -6,11 0,0 -1,1 -1,2 0,1 0,2 -1,3 0,0 0,0 0,1 0,0 0,0 0,0 0,1 0,3 -1,4 0,1 0,2 0,4 0,0 0,0 0,1 0,0 0,0 0,1 0,3 1,6 2,8 2,3 4,4 9,4 3,0 5,-1 7,-2 2,-2 4,-3 4.9997,-5 1,-1 2,-2 2,-3 0,-1 1,-2 1,-2 z m 100,-23 -11,49 h -18 l 9,-43 c 0,0 0,-1 0,-2 1,0 1,-1 1,-2 0,0 0,0 0,-1 0,0 0,0 0,0 0,-2 -1,-4 -2,-6 -1,-1 -4,-2 -8,-2 -4,0 -8,1 -11,4 -4,3 -6,7 -7,12 l -9,40 h -18 l 15,-70 h 18 l -3,10 h 1 c 0,0 1,-1 2,-2 0,-1 1,-2 2,-2 2,-2 5,-4 8,-6 3,-1 7,-2 11,-2 6,0 11,2 15,5 3,3 5,7 5,13 0,1 0,2 0,3 0,1 0,2 0,3 z m 82,14 c -3,12 -8,21 -16,27 -8,6 -17,9 -26,10 0,0 -1,0 -1,0 0,0 -1,0 -1,0 -8,0 -15,-2 -21,-7 -5,-4 -8,-11 -8,-20 0,-1 0,-3 0,-5 0,-1 1,-3 1,-5 2,-12 8,-21 16,-27 7,-6 16,-9 25,-10 0,0 1,0 1,0 1,0 1,0 1,0 9,0 15,2 21,7 6,4 9,11 9,20 0,2 0,3 -1,5 0,2 0,3 0,5 z m -19,0 c 0,-1 0,-2 0,-2 0,-1 0,-2 0,-3 0,0 0,-1 0,-1 0,-1 0,-1 0,-1 0,-4 -1,-7 -2,-10 -2,-3 -6,-4 -11,-4 -5,0 -10,1 -13,4 -3,4 -5,7 -6,11 -1,1 -1,2 -1,3 -1,1 -1,2 -1,3 0,1 -1,3 -1,4 0,1 0,3 0,4 0,3 1,6 3,9 2,3 5,4 10,4 6,0 10,-1 13,-4 3,-4 5,-7 7,-11 0,-1 1,-2 1,-3 0,-1 0,-2 1,-3 z m 43,35 h -19 l 21,-95 h 18 z m 93,-35 c -3,12 -8,21 -16,27 -8,6 -17,9 -26,10 0,0 -1,0 -1,0 0,0 -1,0 -1,0 -8,0 -15,-2 -21,-7 -5,-4 -8,-11 -8,-20 0,-1 0,-3 0,-5 0,-1 1,-3 1,-5 2,-12 8,-21 16,-27 8,-6 16,-9 25,-10 0,0 1,0 1,0 1,0 1,0 2,0 8,0 14,2 20,7 6,4 9,11 9,20 0,2 0,3 -1,5 0,2 0,3 0,5 z m -19,0 c 0,-1 0,-2 0,-2 0,-1 0,-2 0,-3 0,0 0,-1 0,-1 0,-1 0,-1 0,-1 0,-4 -1,-7 -2,-10 -2,-3 -6,-4 -11,-4 -5,0 -10,1 -13,4 -3,4 -5,7 -6,11 -1,1 -1,2 -1,3 -1,1 -1,2 -1,3 0,1 -1,3 -1,4 0,1 0,3 0,4 0,3 1,6 3,9 2,3 5,4 10,4 6,0 10,-1 13,-4 3,-4 5,-7 7,-11 0,-1 1,-2 1,-3 0,-1 0,-2 1,-3 z m -2,-45 h -14 l 17,-19 h 20 z m 105,10 -14,66 c 0,2 -1,4 -1,6 -1,2 -2,4 -2,6 -3,5 -7,10 -12,14 -6,4 -15,7 -27,7 -7,0 -13,-2 -18,-5 -6,-3 -9,-7 -9,-13 0,-1 0,-1 0,-2 1,-1 1,-1 1,-2 h 20 c 0,2 0,4 1,5 1,2 5,3 10,3 5,0 9,-2 12,-4 3,-3 5,-7 6,-12 l 2,-9 v 0 c -2,3 -5,5 -8,7 -3,2 -8,3 -13,3 -7,0 -13,-2 -17,-6 -5,-4 -7,-10 -7,-18 0,-2 0,-4 0,-6 1,-2 1,-4 1,-6 3,-11 7,-20 13,-26 7,-6 14,-9 21,-10 0,0 1,0 1,0 1,0 1,0 2,0 5,0 8,1 11,3 2,1 4,3 5,5 1,1 1,2 1,2 1,1 1,2 1,2 v 0 l 2,-10 z m -56,35 c 0,1 0,2 0,2 0,1 -1,1 -1,2 0,0 0,1 0,1 0,1 0,2 0,2 0,3 1,6 3,9 1,3 4,4 8,4 6,0 10,-2 13,-6 4,-3 6,-7 7,-12 0,0 0,-1 0,-1 0,0 0,-1 0,-1 1,-1 1,-3 1,-4 0,-1 0,-2 0,-3 0,-4 -1,-7 -3,-10 -2,-3 -5,-4 -9,-4 -1,0 -2,0 -3,0 -1,1 -2,1 -3,1 -2,1 -5,3 -7,7 -3,3 -5,7 -6,13 z m 91,-35 -15,70 h -18 l 15,-70 z m 2,-8 h -18 l 3,-18 h 19 z m 48,52 h 19 c -1,2 -2,4 -3,6 -1,2 -2,5 -4,7 -3,4 -7,7 -12,10 -5,3 -11,5 -19,5 -10,0 -17,-3 -21,-8 -4,-5 -5,-11 -5,-17 0,-2 0,-3 0,-5 0,-2 1,-3 1,-5 2,-11 7,-21 14,-28 7,-7 16,-11 28,-11 1,0 2,0 4,0 1,1 3,1 4,1 4,1 8,3 12,6 4,4 5,9 5,15 0,1 0,2 0,3 0,0 0,1 0,2 h -19 c 0,0 0,0 0,0 0,0 0,-1 0,-1 0,0 0,-1 0,-1 0,-1 0,-1 0,-2 0,-2 -1,-3 -2,-5 -2,-2 -4,-2 -7,-2 0,0 0,0 0,0 0,0 0,0 -1,0 -4,0 -8,1 -11,4 -3,3 -5,7 -6,11 0,0 -1,1 -1,2 0,1 0,2 -1,3 0,0 0,0 0,1 0,0 0,0 0,0 0,1 0,3 0,4 -1,1 -1,2 -1,4 0,0 0,0 0,1 0,0 0,0 0,1 0,3 1,6 2,8 2,3 5,4 9,4 3,0 5,-1 7,-2 2,-2 4,-3 5,-5 1,-1 2,-2 2,-3 1,-1 1,-2 1,-2 z m 100.9997,-9 c -2,12 -8,21 -16,27 -7,6 -16,9 -25,10 0,0 -1,0 -1,0 -0.9997,0 -0.9997,0 -0.9997,0 -9,0 -15,-2 -21,-7 -6,-4 -9,-11 -9,-20 0,-1 1,-3 1,-5 0,-1 0,-3 1,-5 2,-12 7,-21 15,-27 8,-6 16.9997,-9 25.9997,-10 0,0 1,0 1,0 0,0 1,0 1,0 8,0 15,2 21,7 5,4 8,11 8,20 0,2 0,3 0,5 0,2 0,3 -1,5 z m -19,0 c 0,-1 1,-2 1,-2 0,-1 0,-2 0,-3 0,0 0,-1 0,-1 0,-1 0,-1 0,-1 0,-4 -1,-7 -3,-10 -1,-3 -5,-4 -10,-4 -6,0 -10,1 -12.9997,4 -3,4 -5,7 -7,11 0,1 0,2 -1,3 0,1 0,2 0,3 -1,1 -1,3 -1,4 0,1 0,3 0,4 0,3 1,6 2,9 2,3 6,4 10.9997,4 5,0 10,-1 13,-4 3,-4 5,-7 6,-11 1,-1 1,-2 2,-3 0,-1 0,-2 0,-3 z"
   id="path4544" />
   <path
   class="fil27"
   d="m 949.89143,601.05314 c 0,-16 1,-32.99997 3,-51.99997 3,-20 7,-38.99997 13,-58.99997 14,-43.99997 39.99997,-83.99964 77.99997,-121.99964 38,-36.99997 96,-55.99997 172.9997,-57.99994 10,0 19,1 30,1 10,0.99997 21,1.99997 31,2.99997 31,5 58,15 84,30 25,15 38,38.99997 38,73.99994 0,4.9997 0,9.9997 -1,15.9997 0,5 -2,11 -3,17 l -131,-1 c 0,-2 0,-4 1,-6 0,-2 0,-4 0,-5 0,-15 -4,-24.99967 -12,-31.99967 -9,-7 -17,-11 -27,-14 -5,-1 -10,-2 -15,-2 -5,-1 -9,-1 -13,-1 -4,0 -7,1 -11,1 -3,1 -7,1 -10,2 -17.9997,6 -35.9997,19 -51.9997,40.99967 -17,22 -30,53.99997 -40,96.99994 -1,4 -1,7 -2,11 0,3 -1,7 -1,10 -2,8 -2,15 -3,23 -1,6.99997 -1,13.99997 -1,19.99997 0,23 5,41.99997 14,57.99997 8,16 25,24 50,24 2,0 4,0 6,0 3,0 5,0 8,0 4,0 7.9997,-1 11.9997,-2 4,-1 9,-2 13,-4 12,-6 23,-13 32,-24 10,-11 16,-22.99997 18,-35.99997 l 126,-1 c 1,2 1,3 1,4 0,1 0,2 0,3 0,7 -2,16.99997 -7,29.99997 -5,12 -14,26 -25,39.99997 -17,20 -41,38 -72,53.99997 -31,16 -72,24 -120.9997,24 -2,0 -3,0 -5,0 -1,0 -3,0 -5,0 -67,0 -112,-13 -133.99997,-40.99997 -23,-27 -36,-57.99997 -39,-90.99997 -1,-4.99997 -1,-9.99997 -1,-15.99997 0,-5 0,-10 0,-16 z M 1475.8911,324.05359 h 174 l 74.9997,309.99952 70,-309.99952 h 113 l -93,431.99946 h -169.9997 l -80,-328.99982 -65,328.99982 h -113 z m 502.9997,0 h 202 c 5,0 10,1 15,1 5,0 11,0 16,1 30.9997,2 58.9997,10 84.9997,24 26,14 39,39.99997 39,77.99964 0,62.99997 -20,108.99994 -60,135.99994 -41,27.99997 -87.9997,41.99997 -141.9997,41.99997 h -89 l -33,149.99991 h -122 z m 150,196.99961 c 18,0 34,-5 47,-17 14,-11 22,-23 26,-36.99997 0,-2 1,-5 1,-7 1,-2 1,-5 1,-7 0,-11 -4,-20 -13,-28 -8,-7.99967 -23,-11.99967 -43,-11.99967 h -61 l -24,107.99964 z m 206.9997,121.99991 c 0,-8 1,-16.99997 2,-25.99997 1,-9 3,-19 5,-28 8,-35.99997 25,-68.99994 50,-98.99994 25,-29.99997 64,-46.99997 116,-47.99997 16,0 30,4 42,12 13,9 23,17.99997 31,27.99997 1,2 3,4 4,6 1,2 2,3 3,5 l 10,-37.99997 h 113 l -90,417.99976 h -113 l 33,-159.99991 c -8,10 -15,18 -22,23.99997 -7,6 -14,11 -21,15 -9,5 -18,8 -28,10 -9,2 -20,3 -32,3 -36,0 -61,-8 -75,-24 -14,-16.99997 -22,-34.99997 -25,-54.99997 -1,-6.99997 -2,-13.99997 -3,-21.99997 0,-7 0,-14 0,-20 z m 122,-32.99997 c -1,3 -2,7 -3,10 0,3 -1,6 -1,9 0,2.99997 -1,5.99997 -1,8.99997 0,3 0,6 0,9 0,13 2,25 8,34 5,9.99997 15,14.99997 29,14.99997 17,0 31,-6 44,-16.99997 12,-10 22,-33 31,-67.99997 2,-6 4,-12 5,-19 1,-8 1,-15 1,-22.99997 0,-14 -3,-27 -9,-39 -5,-11.99997 -17,-17.99997 -34,-17.99997 -16,0 -28,7 -38,18.99997 -10,12 -17,25 -22,40 -3,6.99997 -5,13.99997 -7,20.99997 -2,7 -3,13 -3,19 z"
   id="path4546" />
   
   
   
   
   
   
   
   
   
   
   
   
   
   
   
   
   
   
   
   
   
   
   
   
   
   
   
   
   
   
   
   
   
   
   
   
   
   
   
   
   
   
   
   
   
   
   
   
   
   
   
   
   
   
   
   
   
   
   
   
   
   
   
   
   
   
   
   
   
   
   
   
   
   
   
   
   
   
   
   
   
   
   
   
   
   
   
   
   
   
   
   
   
   
   
   
   
   
   
   
   
   
   
   
   
   
   
   
   
   
   
   
   
   
   
   
   
   
   
   
   
   
   
   
   
   
   
   
   
   
   
   
   
   
   
   
   
   
   
   
   
   
   
   
   
   
   
   
   
   
   
   
   
   
   
   
   
   
   
   
   
   
   
   
   
   
   
   
   
   
   
   
   
   
   
   
   
   
   
   
   
   
   
   
   
   
   
   
   
   
   
   
   
   
   
   
   
   
   
   
   
   
   
   
   
   
   
   
   
   
   
   
   
   
   
   
   
   
   
   
   
   
   
   
   
   
   
   
   
   
   
   
   
   
   
   
   
   
   
   
   
   
   
   
   
   
   
   
   
   
   
   
   
   
   
   
   
   
   
   
   
   
   
   
   
   
   
   
   
   
   
   
   
   
   
   
   
   
   
   
   
   
   
   
   
   
   
   
   
   
   
   
   
   
   
   
   
   
   
   
   
   
   
   
   
   
   
   
   
   
   
   
   
   
   
   
   
   
   
   
   
   
   
   
   
   
   
   
   
   
   
  </g>
 </g>
</svg>
