<?xml version="1.0" encoding="UTF-8" standalone="no"?>
<!-- Creator: CorelDRAW X7 -->

<svg
   xml:space="preserve"
   width="37mm"
   height="23mm"
   version="1.1"
   style="clip-rule:evenodd;fill-rule:evenodd;image-rendering:optimizeQuality;shape-rendering:geometricPrecision;text-rendering:geometricPrecision"
   viewBox="0 0 3700.4607 2300.2886"
   id="svg5546"
   sodipodi:docname="creativecommons.svg"
   inkscape:version="1.1 (1:1.1+202105261517+ce6663b3b7)"
   xmlns:inkscape="http://www.inkscape.org/namespaces/inkscape"
   xmlns:sodipodi="http://sodipodi.sourceforge.net/DTD/sodipodi-0.dtd"
   xmlns="http://www.w3.org/2000/svg"
   xmlns:svg="http://www.w3.org/2000/svg"><sodipodi:namedview
   id="namedview5548"
   pagecolor="#ffffff"
   bordercolor="#666666"
   borderopacity="1.0"
   inkscape:pageshadow="2"
   inkscape:pageopacity="0.0"
   inkscape:pagecheckerboard="0"
   inkscape:document-units="mm"
   showgrid="false"
   inkscape:zoom="1.6497335"
   inkscape:cx="73.951338"
   inkscape:cy="135.47643"
   inkscape:window-width="1680"
   inkscape:window-height="986"
   inkscape:window-x="0"
   inkscape:window-y="27"
   inkscape:window-maximized="1"
   inkscape:current-layer="_1660824352032" />
 <defs
   id="defs36">
  <style
   type="text/css"
   id="style2">
   <![CDATA[
    .str2 {stroke:#E88734;stroke-width:141.127}
    .str4 {stroke:#A6CE53;stroke-width:123.485}
    .str26 {stroke:#373435;stroke-width:21.1726}
    .str18 {stroke:#96989A;stroke-width:26.4533}
    .str3 {stroke:#FEFEFE;stroke-width:105.843}
    .str7 {stroke:black;stroke-width:11.1514}
    .str10 {stroke:black;stroke-width:8.9311}
    .str21 {stroke:#E6E7E8;stroke-width:35.2744}
    .str5 {stroke:#201E1E;stroke-width:35.2744}
    .str22 {stroke:#D2D3D5;stroke-width:20.0025}
    .str27 {stroke:#A9ABAE;stroke-width:20.0025}
    .str25 {stroke:#373435;stroke-width:20.0025}
    .str1 {stroke:#E88734;stroke-width:20.0025}
    .str0 {stroke:#BDBFC1;stroke-width:17.6322}
    .str19 {stroke:#4B4B4D;stroke-width:17.6322}
    .str23 {stroke:#FEFEFE;stroke-width:7.62094}
    .str17 {stroke:#96989A;stroke-width:7.62094}
    .str20 {stroke:#4B4B4D;stroke-width:7.62094}
    .str8 {stroke:black;stroke-width:11.1514;stroke-linejoin:round}
    .str9 {stroke:black;stroke-width:0.0400049;stroke-linecap:round;stroke-linejoin:round}
    .str6 {stroke:#282828;stroke-width:44.2055}
    .str11 {stroke:#373435;stroke-width:18.7423}
    .str13 {stroke:#373435;stroke-width:3.50043}
    .str14 {stroke:#373435;stroke-width:3.51043}
    .str12 {stroke:#373435;stroke-width:1.01012}
    .str15 {stroke:#373435;stroke-width:34.6143}
    .str16 {stroke:#373435;stroke-width:34.6143}
    .str24 {stroke:#FEFEFE;stroke-width:53.0566}
    .fil3 {fill:none}
    .fil23 {fill:none;fill-rule:nonzero}
    .fil20 {fill:#FEFEFE}
    .fil6 {fill:#FEFEFE}
    .fil0 {fill:#E6E7E8}
    .fil30 {fill:#848688}
    .fil34 {fill:#606062}
    .fil31 {fill:#4B4B4D}
    .fil27 {fill:#373435}
    .fil32 {fill:#373435}
    .fil22 {fill:#ACB3AC}
    .fil21 {fill:#282828}
    .fil26 {fill:#201E1E}
    .fil25 {fill:#201E1E}
    .fil11 {fill:#004B92}
    .fil41 {fill:#12AED7}
    .fil38 {fill:#2B5492}
    .fil39 {fill:#2F691D}
    .fil7 {fill:#367372}
    .fil18 {fill:#709D21}
    .fil37 {fill:#8FC73E}
    .fil40 {fill:#A34963}
    .fil43 {fill:#D91F2C}
    .fil19 {fill:#E3F1E0}
    .fil29 {fill:#E88734}
    .fil16 {fill:#EF9E57}
    .fil15 {fill:#EF9E57}
    .fil35 {fill:#F19317}
    .fil9 {fill:#F1F1F1}
    .fil36 {fill:#F3BF07}
    .fil13 {fill:#FDFDFD}
    .fil12 {fill:#FEFEFE}
    .fil5 {fill:#FEFEFE;fill-rule:nonzero}
    .fil17 {fill:#96989A;fill-rule:nonzero}
    .fil2 {fill:#4B4B4D;fill-rule:nonzero}
    .fil14 {fill:#373435;fill-rule:nonzero}
    .fil4 {fill:#373435;fill-rule:nonzero}
    .fil33 {fill:#201E1E;fill-rule:nonzero}
    .fil42 {fill:#D91F2C;fill-rule:nonzero}
    .fil10 {fill:#DADCE0;fill-rule:nonzero}
    .fil1 {fill:#E88734;fill-rule:nonzero}
    .fil24 {fill:black;fill-rule:nonzero}
    .fil28 {fill:white;fill-rule:nonzero}
    .fil8 {fill:#D2D3D5;fill-opacity:0.458824}
   ]]>
  </style>
    <clipPath
   id="id0">
     <path
   d="M 24,2683 H 36167 V 23577 H 24 Z"
   id="path4" />
    </clipPath>
    <mask
   id="id1">
  <linearGradient
   id="id2"
   gradientUnits="userSpaceOnUse"
   x1="-33.794201"
   y1="5327.6299"
   x2="36205.602"
   y2="4090.3">
   <stop
   offset="0"
   style="stop-opacity:1; stop-color:white"
   id="stop7" />
   <stop
   offset="0.980392"
   style="stop-opacity:-95.8784; stop-color:white"
   id="stop9" />
   <stop
   offset="1"
   style="stop-opacity:0; stop-color:white"
   id="stop11" />
  </linearGradient>
     <rect
   style="fill:url(#id2)"
   x="15"
   y="2671"
   width="36142"
   height="4077"
   id="rect14" />
    </mask>
    <mask
   id="id3">
  <linearGradient
   id="id4"
   gradientUnits="userSpaceOnUse"
   x1="15052.7"
   y1="16018.4"
   x2="36353.301"
   y2="15291.1">
   <stop
   offset="0"
   style="stop-opacity:1; stop-color:white"
   id="stop17" />
   <stop
   offset="0.988235"
   style="stop-opacity:-95.8784; stop-color:white"
   id="stop19" />
   <stop
   offset="1"
   style="stop-opacity:0; stop-color:white"
   id="stop21" />
  </linearGradient>
     <rect
   style="fill:url(#id4)"
   x="15244"
   y="9384"
   width="20918"
   height="12542"
   id="rect24" />
    </mask>
    <clipPath
   id="id5">
     <rect
   x="4123"
   y="215"
   width="771"
   height="535"
   id="rect27" />
    </clipPath>
     <clipPath
   id="id6">
      <rect
   x="4123"
   y="215"
   width="771"
   height="535"
   id="rect30" />
     </clipPath>
     <clipPath
   id="id7">
      <path
   d="m 28193,30240 h 7219 v 5816 h -7219 z"
   id="path33" />
     </clipPath>
 </defs>
 <g
   id="Camada_x0020_1"
   inkscape:label="Camada 1"
   inkscape:groupmode="layer">
  <metadata
   id="CorelCorpID_0Corel-Layer" />
  <g
   id="_1660824352032">
   
   
   
   
   
   
   
   
   
   
   
   
   
   
   
   
   
   
   
   
   
   
   
   
   
   
   
   
   
   
   
   
   
   
   
   
   
   
   
   
   
   
   
   
   
   
   
   
   
   
   
   
   
   
   
   
   
   
   
   
   
   
   
   
   
   
   
   
   
   
   
   
   
   
   
   
   
   
   
   
   
   
   
   
   
   
   
   
   
   
   
   
   
   
   
   
   
   
   
   
   
   
   
   
   
   
   
   
   
   
   
   
   
   
   
   
   
   
   
   
   
   
   
   
   
   
   
   
   
   
   
   
   
   
   
   
   
   
   
   
   
   
   
   
   
   
   
   
   
   
   
   
   
   
   
   
   
   
   
   
   
   
   
   
   
   
   
   
   
   
   
   
   
   
   
   
   
   
   
   
   
   
   
   
   
   
   
   
   
   
   
   
   
   
   
   
   
   
   
   
   
   
   
   
   
   
   
   
   
   
   
   
   
   
   
   
   
   
   
   
   
   
   
   
   
   
   
   
   
   
   
   
   
   
   
   
   
   
   
   
   
   
   
   
   
   
   
   
   
   
   
   
   
   
   
   
   
   
   
   
   
   
   
   
   
   
   
   
   
   
   
   
   
   
   
   
   
   
   
   
   
   
   
   
   
   
   
   
   
   
   
   
   
   
   
   
   
   
   
   
   
   
   
   
   
   
   
   
   
   
   
   
   
   
   
   
   
   
   
   
   
   
   
   
   
   
   
   
   
   
   
   
   
   
   
   
   
   
   
   
   
   
   
   
   
   
   
   
   
   
   
   
   
   
   
   
   
   
   
   
   
   
   
   
   
   
   
   
   
   
   
   
   
   
   
   
   
   
   
   
   
   
   
   
   
   
   
   
   
   
   
   
   
   
   
   
   
   
   
   
   
   
   
   
   
   
   
   
   
   
   
   
   
   
   
   
   
   
   
   
   
   
   
   
   
   
   
   
   
   
   
   
   
   
   
   
   
   
   
   
   
   
   
   
   
   
   
   
   
   
   
   
   
   
   
   
   
   
   
   
   
   
   
   
   
   
   
   
   
   
   
   
   
   
   
   
   
   
   
   
   
   
   
   
   
   
   
   
   
   
   
   
   
   
   
   
   
   
   
   
   
   
   
   
   
   
   
   
   
   
   
   
   
   
   
   
   
   
   
   
   
   
   
   
   
   
   
   
   
   
   
   
   
   
   
   
   
   
   
   
   
   
   
   
   
   
   
   
   
   
   
   
   
   
   
   
   
   
   
   
   
   
   
   
   
   
   
   
   
   
   
   
   
   
   
   
   
   
   
   
   
   
   
   
   
   
   
   
   
   
   
   
   
   
   
   
   
   
   
   
   
   
   
   
   
   
   
   
   
   
   
   
   
   
   
   
   
   
   
   
   
   
   
   
   
   
   
   
   
   
   
   
   
   
   
   
   
   
   
   
   
   
   
   
   
   
   
   
   
   
   
   
   
   
   
   
   
   
   
   
   
   
   
   
   
   
   
   
   
   
   
   
   
   
   
   
   
   
   
   
   
   
   
   
   
   
   
   
   
   
   
   
   
   
   
   
   
   
   
   
   
   
   
   
   
   
   
   
   
   
   
   
   
   
   
   
   
   
   
   
   
   
   
   
   
   
   
   
   
   
   
   
   
   
   
   
   
   
   
   
   
   
   
   
   
   
   
   
   
   
   
   
   
   
   
   
   
   
   
   
   
   
   
   
   
   
   
   
   
   
   
   
   
   
   
   
   
   
   
   
   
   
   
   
   
   
   
   
   
   
   
   
   
   
   
   
   
   
   
   
   
   
   
   
   
   
   
   
   
   
   
   
   
   
   
   
   
   
   
   
   
   
   
   
   
   
   
   
   
   
   
   
   
   
   
   
   
   
   
   
   
   
   
   
   
   
   
   
   
   
   
   
   
   
   
   
   
   
   
   
   
   
   
   
   
   
   
   
   
   
   
   
   
   
   
   
   
   
   
   
   
   
   
   
   
   
   
   
   
   
   
   
   
   
   
   
   
   
   
   
   
   
   
   
   
   
   
   
   
   
   
   
   
   
   
   
   
   
   
   
   
   
   
   
   
   
   
   
   
   
   
   
   
   
   
   
   
   
   
   
   
   
   
   
   
   
   
   
   
   
   
   
   
   
   
   
   
   
   
   
   
   
   
   
   
   
   
   
   
   
   
   
   
   
   
   
   
   
   
   
   
   
   
   
   
   
   
   
   
   
   
   
   
   
   
   
   
   
   
   
   
   
   
   
   
   
   
   
   
   
   
   
   
   
   
   
   
   
   
   
   
   
   
   
   
   
   
   
   
   
   
   
   
   
   
   
   
   
   
   
   
   
   
   
   
   
   
   
   
   
   
   
   
   
   
   
   
   
   
   
   
   
   
   
   
   
   
   
   
   
   
   
   
   
   
   
   
   
   
   
   
   
   
   
   
   
   
   
   
   
   
   
   
   
   
   
   
   
   
   
   
   
   
   
   
   
   
   
   
   
   
   
   
   
   
   
   
   
   
   
   
   
   
   
   
   
   
   
   
   
   
   
   
   
   
   
   
   
   
   
   
   
   
   
   
   
   
   
   
   
   
   
   
   
   
   
   
   
   
   
   
   
   
   
   
   
   
   
   
   
   
   
   
   
   
   
   
   
   
   
   
   
   
   
   
   
   
   
   
   
   
   
   
   
   
   
   
   
   
   
   
   
   
   
   
   
   
   
   
   
   
   
   
   
   
   
   
   
   
   
   
   
   
   
   
   
   
   
   
   
   
   
   
   
   
   
   
   
   
   
   
   
   
   
   
   
   
   
   
   
   
   
   
   
   
   
   
   
   
   
   
   
   
   
   
   
   
   
   
   
   
   
   
   
   
   
   
   
   
   
   
   
   
   
   
   
   
   
   
   
   
   
   
   
   
   
   
   
   
   
   
   
   
   
   
   
   
   
   
   
   
   
   
   
   
   
   
   
   
   
   
   
   
   
   
   
   
   
   
   
   
   
   
   
   
   
   
   
   
   
   
   
   
   
   
   
   
   
   
   
   
   
   
   
   
   
   
   
   
   
   
   
   
   
   
   
   
   
   
   
   
   
   
   
   
   
   
   
   
   
   
   
   
   
   
   
   
   
   
   
   
   
   
   
   
   
   
   
   
   
   
   
   
   
   
   
   
   
   
   
   
   
   
   
   
   
   
   
   
   
   
   
   
   
   
   
   
   
   
   
   
   
   
   
   
   
   
   
   
   
   
   
   
   
   
   
   
   
   
   
   
   
   
   
   
   
   
   
   
   
   
   
   
   
   
   
   
   
   
   
   
   
   
   
   
   
   
   
   
   
   
   
   
   
   
   
   
   
   
   
   
   
   
   
   
   
   
   
   
   
   
   
   
   
   
   
   
   
   
   
   
   
   
   
   
   
   
   
   
   
   
   
   
   
   
   
   
   
   
   
   
   
   
   
   
   
   
   
   
   
   
   
   
   
   
   
   
   
   
   
   
   
   
   
   
   
   
   
   
   
   
   
   
   
   
   
   
   
   
   
   
   
   
   
   
   
   
   
   
   
   
   
   
   
   
   
   
   
   
   
   
   
   
   
   
   
   
   
   
   
   
   
   
   
   
   
   
   
   
   
   
   
   
   
   
   
   
   
   
   
   
   
   
   
   
   
   
   
   
   
   
   
   
   
   
   
   
   
   
   
   
   
   
   
   
   
   
   
   
   
   
   
   
   
   
   
   
   
   
   
   
   
   
   
   
   
   
   
   
   
   
   
   
   
   
   
   
   
   
   
   
   
   
   
   
   
   
   
   
   
   
   
   
   
   
   
   
   
   
   
   
   
   
   
   
   
   
   
   
   
   
   
   
   
   
   
   
   
   
   
   
   
   
   
   
   
   
   
   
   
   
   
   
   
   
   
   
   
   
   
   
   
   
   
   
   
   
   
   
   
   
   
   
   
   
   
   
   
   
   
   
   
   
   
   
   
   
   
   
   
   
   
   
   
   
   
   
   
   
   
   
   
   
   
   
   
   
   
   
   
   
   
   
   
   
   
   
   
   
   
   
   
   
   
   
   
   
   
   
   
   
   
   
   
   
   
   
   
   
   
   
   
   
   
   
   
   
   
   
   
   
   
   
   
   
   
   
   
   
   
   
   
   
   
   
   
   
   
   
   
   
   
   
   
   
   
   
   
   
   
   
   
   
   
   
   
   
   
   
   
   
   
   
   
   
   
   
   
   
   
   
   
   
   
   
   
   
   
   
   
   
   
   
   
   
   
   
   
   
   
   
   
   
   
   
   
   
   
   
   
   
   
   
   
   
   
   
   
   
   
   
   
   
   
   
   
   
   
   
   
   
   
   
   
   
   
   
   
   
   
   
   
   
   
   
   
   
   
   
   
   
   
   
   
   
   
   
   
   
   
   
   
   
   
   
   
   
   
   
   
   
   
   
   
   
   
   
   
   
   
   
   
   
   
   
   
   
   
   
   
   
   
   
   
   
   
   
   
   
   
   
   
   
   
   
   
   
   
   
   
   
   
   
   
   
   
   
   
   
   
   
   
   
   
   
   
   
   
   
   
   
   
   
   
   
   
   
   
   
   
   
   
   
   
   
   
   
   
   
   
   
   
   
   
   
   
   
   
   
   
   
   
   
   
   
   
   
   
   
   
   
   
   
   
   
   
   
   
   
   
   
   
   
   
   
   
   
   
   
   
   
   
   
   
   
   
   
   
   
   
   
   
   
   
   
   
   
   
   
   
   
   
   
   
   
   
   
   
   
   
   
   
   
   
   
   
   
   
   
   
   
   
   
   
   
   
   
   
   
   
   
   
   
   
   
   
   
   
   
   
   
   
   
   
   
   
   
   
   
   
   
   
   
   
   
   
   
   
   
   
   
   
   
   
   
   
   
   
   
   
   
   
   
   
   
   
   
   
   
   
   
   
   
   
   
   
   
   
   
   
   
   
   
   
   
   
   
   
   
   
   
   
   
   
   
   
   
   
   
   
   
   
   
   
   
   
   
   
   
   
   
   
   
   
   
   
   
   
   
   
   
   
   
   
   
   
   
   
   
   
   
   
   
   
   
   
   
   
   
   
   
   
   
   
   
   
   
   
   
   
   
   
   
   
   
   
   
   
   
   
   
   
   
   
   
   
   
   
   
   
   
   
   
   
   
   
   
   
   <polygon
   class="fil20 str6"
   points="813,60685 4166,60685 4166,61280 813,61280 "
   id="polygon4308"
   transform="translate(-635.07924,-60491.322)" />
   <polygon
   class="fil21"
   points="876,60745 4103,60745 4103,61220 876,61220 "
   id="polygon4310"
   transform="translate(-635.07924,-60491.322)" />
   <path
   class="fil22"
   d="m 240.92076,253.67387 v 475.99951 h 851.99964 c 55,-69.99997 92,-149.99994 92,-237.99988 0,-86.99994 -37,-168.99991 -91,-237.99963 z"
   id="path4312" />
   <path
   class="fil20"
   d="m 975.92043,490.6735 c 0,103.99994 -61.99997,192.99988 -151.99991,237.99988 H 558.92067 c -89.99994,-45 -150.99991,-133.99994 -150.99991,-236.99988 0,0 0,0 0,-1 0,-102.99994 60.99997,-191.99963 150.99991,-236.99963 h 264.99985 c 89.99994,45 151.99991,133.99969 151.99991,236.99963 0,0 0,0 0,0 z"
   id="path4314" />
   <path
   class="fil21"
   d="m 921.92046,272.67387 c 62.99997,58.99972 94.99994,131.99969 94.99994,217.99963 0,86.99994 -30.99997,158.99991 -92.99994,216.99988 -8,7 -16,14 -25,21 H 780.92055 c 36.99997,-12 70.99994,-33 100.99994,-60.99997 50.99997,-46.99997 76.99994,-105.99994 76.99994,-175.99991 0,-70.99997 -25.99997,-129.99991 -77.99994,-179.99963 -29,-27 -60.99997,-46 -95.99994,-58 h 114.99991 c 8,6 15,12 22,19 z M 485.9207,728.67338 c -8,-6 -15.99997,-13 -23.99997,-21 -63.99997,-59.99997 -95.99997,-131.99991 -95.99997,-216.99988 0,-83.99994 32,-156.99991 95.99997,-217.99963 8,-7 14.99997,-13 21.99997,-19 h 115.99994 c -34.99997,12 -66.99997,32 -94.99994,59.00002 -52.99997,50.9997 -79.99997,109.99964 -79.99997,178.99961 0,67.99997 26,126.99994 78.99997,176.99991 29.99997,27.99997 62.99997,47.99997 98.99994,59.99997 z M 644.92061,460.67353 c -8,-16 -19.99997,-25 -36.99997,-25 -28,0 -42.99997,19 -42.99997,54.99997 0,36.99997 14.99997,54.99997 42.99997,54.99997 19,0 32.99997,-9 40.99997,-26.99997 l 39.99997,19.99997 c -18.99997,32 -47.99997,47.99997 -85.99994,47.99997 -28.99997,0 -51.99997,-8 -69.99997,-24.99997 -17.99997,-17 -25.99997,-40.99997 -25.99997,-70.99997 0,-28.99997 9,-51.99997 26.99997,-68.99997 18,-17.99997 41,-25.99997 67.99997,-25.99997 39.99997,0 68.99997,15 85.99994,44.99997 z m 186.99991,0 c -8,-16 -20,-25 -36,-25 -28.99997,0 -43.99997,19 -43.99997,54.99997 0,36.99997 15,54.99997 43.99997,54.99997 19,0 33,-9 40,-26.99997 l 40.99997,19.99997 c -19,32 -46.99997,47.99997 -84.99997,47.99997 -29.99997,0 -52.99997,-8 -70.99994,-24.99997 -17,-17 -26,-40.99997 -26,-70.99997 0,-28.99997 9,-51.99997 27,-68.99997 17.99997,-17.99997 39.99997,-25.99997 67.99994,-25.99997 40,0 68.99997,15 85.99997,44.99997 z"
   id="path4316" />
   <path
   class="fil20"
   d="m 1389.9204,464.67353 c 10,0 18,-3 23,-7 6,-4 8,-10 8,-19 0,-8 -2,-14 -8,-18 -5,-4.99997 -13,-6.99997 -23,-6.99997 h -36 v 50.99997 z m 2,103.99994 c 13,0 23,-3 30,-8 6,-5 10,-13 10,-24 0,-10 -4,-17.99997 -10,-22.99997 -7,-5 -17,-8 -30,-8 h -38 v 62.99997 z m 61,-85.99997 c 14,4 25,11 32,21 8,11 12,22.99997 12,37.99997 0,23 -8,39.99997 -25,50.99997 -16,12 -41,17 -75,17 h -108 V 372.67356 h 98 c 35,0 60,5 76,15 16,9 24,25 24,46.99997 0,12 -3,22 -9,30 -6,7.99997 -14,13.99997 -25,17.99997 z m 38,-109.99994 h 72 l 57,83.99997 58,-83.99997 h 72 l -97,136.99994 v 99.99994 h -65 V 509.6735 Z"
   id="path4318" />
   
   
   
   
   
   
   
   
   
   
   
   
   
   
   
   
   
   
   
   
   
   
   
   
   
   
   
   
   
   
   
   
   
   
   
   
   
   
   
   
   
   
   
   
   
   
   
   
   
   
   
   
   
   
   
   
   
   
   
   
   
   
   
   
   
   
   
   
   
   
   
   
   
   
   
   
   
   
   
   
   
   
   
   
   
   
   
   
   
   
   
   
   
   
   
   
   
   
   
   
   
   
   
   
   
   
   
   
   
   
   
   
   
   
   
   
   
   
   
   
   
   
   
   
   
   
   
   
   
   
   
   
   
   
   
   
   
   
   
   
   
   
   
   
   
   <path
   class="fil14"
   d="m 256.92076,1221.6729 c -21,0 -38,-7 -50,-21 -13,-13 -19,-31 -19,-54 0,-23 6,-42 19,-57 13,-14 30,-21 53,-21 20,0 37,7 49,21 13,14 19,32 19,54 0,24 -7,43 -19,57 -13,14 -30,21 -52,21 z m 1,-137 c -15,0 -28,5 -38,17 -9,11 -14,26 -14,44 0,18 5,33 14,44 10,11 22,17 37,17 16,0 29,-6 39,-16 9,-11 14,-26 14,-45 0,-19 -5,-34 -14,-45 -9,-11 -22,-16 -38,-16 z"
   id="path4628" />
   <path
   id="path4630"
   class="fil14"
   d="m 366.92076,1215.6729 v -18 c 10,7 20,10 31,10 15,0 21.99997,-5 21.99997,-15 0,-3 0,-5 -2,-7 -0.99997,-2 -2.99997,-4 -4.99997,-5 -2,-2 -5,-3 -8,-4 -3,-2 -6,-3 -9,-4 -5,-2 -9,-4 -12,-6 -4,-2 -7,-4 -9,-6 -3,-3 -4,-5 -6,-8 -1,-3 -1,-7 -1,-11 0,-5 1,-9 3,-13 2,-4 5,-7 9,-10 4,-2 8,-4 13,-6 5,-1 10,-2 15,-2 9,0 16.99997,2 24.99997,5 v 17 c -8,-5 -16.99997,-7 -26.99997,-7 -3,0 -6,0 -9,1 -2,1 -5,2 -6,3 -2,1 -4,3 -5,5 -1,1 -1,3 -1,6 0,2 0,5 1,7 1,1 3,3 5,4 2,2 4,3 7,4 3,2 6,3 9,4 5,2 9,4 12.99997,6 4,2 7,4 9,6 3,3 5,5 6,8 2,4 3,7 3,11 0,6 -2,10 -4,14 -2,4 -5,7 -9,10 -4,2 -7.99997,4 -13.99997,5 -5,2 -10,2 -15,2 -11,0 -21,-2 -29,-6 z" />
   <path
   id="path4632"
   class="fil14"
   d="m 679.92061,1219.6729 h -17 v -17 0 c -8,13 -18,19 -33,19 -9.99997,0 -18.99997,-3 -24.99997,-8 -5,-6 -8,-13 -8,-22 0,-20 11,-32 33.99997,-35 l 32,-4 c 0,-18 -7,-27 -22,-27 -11.99997,0 -23.99997,4 -33.99997,13 v -18 c 10,-6 22,-10 35.99997,-10 25,0 37,14 37,40 z m -17,-54 -25,4 c -8,1 -13.99997,3 -17.99997,6 -4,2 -6,7 -6,14 0,6 2,10 5,13 4,3 9,5 14.99997,5 9,0 16,-3 21,-9 5,-6 8,-13 8,-22 z" />
   <path
   id="path4634"
   class="fil14"
   d="m 816.92052,1219.6729 h -17 v -17 h -1 c -7,13 -17.99997,19 -31.99997,19 -26,0 -37.99997,-15 -37.99997,-45 v -63 h 16.99997 v 61 c 0,22 8,33 25,33 9,0 15,-3 20.99997,-9 5,-6 8,-14 8,-24 v -61 h 17 z" />
   <path
   id="path4636"
   class="fil14"
   d="m 918.92046,1218.6729 c -4,2 -9,3 -16,3 -17.99997,0 -26.99997,-10 -26.99997,-31 v -63 h -19 v -14 h 19 v -26 l 16,-5 v 31 h 26.99997 v 14 h -26.99997 v 60 c 0,7 2,12 3.99997,15 2,3 6,5 12,5 4,0 8,-1 11,-4 z" />
   <path
   id="path4638"
   class="fil14"
   d="m 1004.9204,1221.6729 c -15.99997,0 -27.99997,-5 -36.99997,-15 -10,-9 -14,-23 -14,-39 0,-18 4,-32 14,-42 10,-10 23,-15 39.99997,-15 15,0 28,5 36,15 9,10 14,23 14,40 0,17 -5,31 -15,41 -9,10 -22,15 -38,15 z m 1,-96 c -10.99997,0 -18.99997,3 -25.99997,11 -6,7 -9,17 -9,30 0,13 3,23 10,30 6,7 15,11 24.99997,11 11,0 20,-4 26,-11 5,-7 8,-17 8,-30 0,-13 -3,-23 -8,-31 -6,-7 -15,-10 -26,-10 z" />
   <path
   id="path4640"
   class="fil14"
   d="m 1158.9204,1130.6729 c -3,-2 -7,-3 -13,-3 -7,0 -13,3 -18,10 -5,7 -7,16 -7,28 v 54 h -17 v -106 h 17 v 22 0 c 3,-8 6,-13 11,-18 5,-4 11,-6 17,-6 4,0 8,1 10,2 z" />
   <path
   id="path4642"
   class="fil14"
   d="m 1281.9204,1170.6729 h -75 c 0,12 3,21 9,27 6,7 15,10 25,10 12,0 23,-4 33,-12 v 16 c -9,7 -21,10 -37,10 -15,0 -26,-5 -35,-14 -8,-10 -13,-23 -13,-41 0,-16 5,-30 14,-40 10,-10 21,-16 35,-16 14,0 25,5 32,14 8,9 12,21 12,37 z m -18,-14 c 0,-10 -2,-18 -7,-23 -4,-6 -11,-8 -19,-8 -8,0 -15,3 -21,8 -5,6 -9,13 -10,23 z" />
   <path
   id="path4644"
   class="fil14"
   d="m 1319.9204,1215.6729 v -18 c 9,7 19,10 30,10 15,0 23,-5 23,-15 0,-3 -1,-5 -2,-7 -2,-2 -3,-4 -5,-5 -3,-2 -5,-3 -8,-4 -3,-2 -6,-3 -10,-4 -4,-2 -8,-4 -12,-6 -3,-2 -6,-4 -9,-6 -2,-3 -4,-5 -5,-8 -1,-3 -2,-7 -2,-11 0,-5 1,-9 3,-13 3,-4 6,-7 10,-10 3,-2 8,-4 13,-6 4,-1 9,-2 15,-2 9,0 17,2 24,5 v 17 c -8,-5 -17,-7 -27,-7 -3,0 -6,0 -8,1 -3,1 -5,2 -7,3 -2,1 -3,3 -4,5 -1,1 -2,3 -2,6 0,2 1,5 2,7 1,1 2,3 4,4 2,2 5,3 7,4 3,2 6,3 10,4 4,2 9,4 12,6 4,2 7,4 10,6 3,3 5,5 6,8 1,4 2,7 2,11 0,6 -1,10 -3,14 -3,4 -6,7 -10,10 -4,2 -8,4 -13,5 -5,2 -10,2 -16,2 -11,0 -20,-2 -28,-6 z" />
   <path
   id="path4646"
   class="fil14"
   d="m 1646.9204,1219.6729 h -17 v -18 0 c -8,13 -20,20 -36,20 -14,0 -24,-4 -32,-14 -8,-9 -12,-22 -12,-39 0,-17 4,-31 13,-42 9,-10 20,-16 35,-16 15,0 25,6 32,18 v 0 -66 h 17 z m -17,-48 v -16 c 0,-8 -3,-15 -8,-21 -6,-6 -13,-9 -22,-9 -10,0 -18,3 -24,11 -6,8 -9,18 -9,32 0,12 3,21 9,28 5,7 13,11 22,11 10,0 18,-3 23,-10 6,-7 9,-16 9,-26 z" />
   <path
   id="path4648"
   class="fil14"
   d="m 1785.9204,1170.6729 h -75 c 0,12 3,21 9,27 7,7 15,10 25,10 12,0 23,-4 33,-12 v 16 c -9,7 -21,10 -37,10 -14,0 -26,-5 -35,-14 -8,-10 -13,-23 -13,-41 0,-16 5,-30 14,-40 10,-10 21,-16 35,-16 14,0 25,5 32,14 8,9 12,21 12,37 z m -18,-14 c 0,-10 -2,-18 -7,-23 -4,-6 -11,-8 -19,-8 -8,0 -15,3 -21,8 -5,6 -9,13 -10,23 z" />
   <path
   id="path4650"
   class="fil14"
   d="m 1878.9204,1218.6729 c -4,2 -9,3 -15,3 -19,0 -28,-10 -28,-31 v -63 h -18 v -14 h 18 v -26 l 17,-5 v 31 h 26 v 14 h -26 v 60 c 0,7 1,12 3,15 3,3 7,5 12,5 5,0 8,-1 11,-4 z" />
   <path
   id="path4652"
   class="fil14"
   d="m 2005.9204,1170.6729 h -75 c 1,12 4,21 10,27 6,7 14,10 25,10 12,0 23,-4 33,-12 v 16 c -9,7 -22,10 -37,10 -15,0 -27,-5 -35,-14 -9,-10 -13,-23 -13,-41 0,-16 5,-30 14,-40 9,-10 21,-16 35,-16 14,0 24,5 32,14 7,9 11,21 11,37 z m -17,-14 c 0,-10 -3,-18 -7,-23 -5,-6 -11,-8 -20,-8 -8,0 -14,3 -20,8 -6,6 -9,13 -10,23 z m -3,-97 -27,34 h -13 l 23,-34 z" />
   <path
   id="path4654"
   class="fil14"
   d="m 2200.9204,1219.6729 h -17 v -61 c 0,-12 -2,-20 -5,-25 -4,-6 -10,-8 -18,-8 -8,0 -14,3 -19,10 -5,6 -7,14 -7,23 v 61 h -17 v -63 c 0,-21 -8,-31 -25,-31 -7,0 -13,3 -18,9 -5,6 -7,14 -7,24 v 61 h -17 v -106 h 17 v 17 0 c 8,-13 19,-20 33,-20 7,0 14,2 19,6 5,5 9,10 11,16 8,-14 20,-22 35,-22 24,0 35,15 35,44 z" />
   <path
   id="path4656"
   class="fil14"
   d="m 2417.9204,1221.6729 c -15,0 -28,-5 -37,-15 -9,-9 -14,-23 -14,-39 0,-18 5,-32 14,-42 10,-10 23,-15 40,-15 16,0 28,5 37,15 9,10 13,23 13,40 0,17 -5,31 -14,41 -10,10 -23,15 -39,15 z m 2,-96 c -11,0 -20,3 -26,11 -7,7 -10,17 -10,30 0,13 3,23 10,30 6,7 15,11 26,11 10,0 19,-4 25,-11 6,-7 9,-17 9,-30 0,-13 -3,-23 -9,-31 -6,-7 -15,-10 -25,-10 z" />
   <path
   id="path4658"
   class="fil14"
   d="m 2510.9204,1215.6729 v -18 c 9,7 19,10 30,10 15,0 23,-5 23,-15 0,-3 -1,-5 -2,-7 -2,-2 -3,-4 -6,-5 -2,-2 -4,-3 -7,-4 -3,-2 -6,-3 -10,-4 -4,-2 -8,-4 -12,-6 -4,-2 -6,-4 -9,-6 -2,-3 -4,-5 -5,-8 -1,-3 -2,-7 -2,-11 0,-5 1,-9 3,-13 3,-4 6,-7 9,-10 4,-2 9,-4 13,-6 5,-1 10,-2 15,-2 10,0 18,2 25,5 v 17 c -8,-5 -17,-7 -27,-7 -3,0 -6,0 -8,1 -3,1 -5,2 -7,3 -2,1 -3,3 -4,5 -1,1 -2,3 -2,6 0,2 1,5 2,7 1,1 2,3 4,4 2,2 4,3 7,4 3,2 6,3 10,4 4,2 9,4 12,6 4,2 7,4 10,6 2,3 4,5 6,8 1,4 2,7 2,11 0,6 -1,10 -4,14 -2,4 -5,7 -9,10 -4,2 -8,4 -13,5 -5,2 -10,2 -16,2 -11,0 -20,-2 -28,-6 z" />
   <path
   id="path4660"
   class="fil14"
   d="m 2837.9204,1219.6729 h -17 v -18 0 c -8,13 -20,20 -37,20 -13,0 -24,-4 -31,-14 -8,-9 -12,-22 -12,-39 0,-17 4,-31 13,-42 9,-10 20,-16 35,-16 15,0 25,6 32,18 v 0 -66 h 17 z m -17,-48 v -16 c 0,-8 -3,-15 -8,-21 -6,-6 -13,-9 -22,-9 -10,0 -18,3 -24,11 -6,8 -9,18 -9,32 0,12 3,21 8,28 6,7 14,11 23,11 10,0 17,-3 23,-10 6,-7 9,-16 9,-26 z" />
   <path
   id="path4662"
   class="fil14"
   d="m 2899.9204,1086.6729 c -3,0 -5,-1 -8,-3 -2,-2 -3,-5 -3,-8 0,-3 1,-6 3,-8 3,-2 5,-3 8,-3 3,0 6,1 8,3 2,2 3,5 3,8 0,3 -1,6 -3,8 -2,2 -5,3 -8,3 z m 8,133 h -17 v -106 h 17 z" />
   <path
   id="path4664"
   class="fil14"
   d="m 3016.9204,1130.6729 c -3,-2 -7,-3 -13,-3 -7,0 -13,3 -18,10 -5,7 -7,16 -7,28 v 54 h -17 v -106 h 17 v 22 0 c 3,-8 6,-13 11,-18 5,-4 11,-6 17,-6 4,0 8,1 10,2 z" />
   <path
   id="path4666"
   class="fil14"
   d="m 3138.9204,1170.6729 h -74 c 0,12 3,21 9,27 6,7 15,10 25,10 12,0 23,-4 33,-12 v 16 c -9,7 -21,10 -37,10 -15,0 -26,-5 -35,-14 -9,-10 -13,-23 -13,-41 0,-16 5,-30 14,-40 10,-10 21,-16 35,-16 14,0 25,5 32,14 8,9 11,21 11,37 z m -17,-14 c 0,-10 -2,-18 -7,-23 -5,-6 -11,-8 -19,-8 -8,0 -15,3 -21,8 -5,6 -9,13 -10,23 z" />
   <path
   id="path4668"
   class="fil14"
   d="m 3192.9204,1086.6729 c -3,0 -6,-1 -8,-3 -2,-2 -3,-5 -3,-8 0,-3 1,-6 3,-8 2,-2 5,-3 8,-3 3,0 6,1 8,3 2,2 3,5 3,8 0,3 -1,6 -3,8 -2,2 -5,3 -8,3 z m 8,133 h -17 v -106 h 17 z" />
   <path
   id="path4670"
   class="fil14"
   d="m 3303.9204,1218.6729 c -4,2 -10,3 -16,3 -19,0 -28,-10 -28,-31 v -63 h -18 v -14 h 18 v -26 l 17,-5 v 31 h 27 v 14 h -27 v 60 c 0,7 1,12 4,15 2,3 6,5 12,5 4,0 7,-1 11,-4 z" />
   <path
   id="path4672"
   class="fil14"
   d="m 3388.9204,1221.6729 c -15,0 -28,-5 -37,-15 -9,-9 -14,-23 -14,-39 0,-18 5,-32 15,-42 9,-10 22,-15 39,-15 16,0 28,5 37,15 9,10 13,23 13,40 0,17 -5,31 -14,41 -10,10 -22,15 -39,15 z m 2,-96 c -11,0 -20,3 -26,11 -6,7 -10,17 -10,30 0,13 4,23 10,30 6,7 15,11 26,11 11,0 19,-4 25,-11 6,-7 9,-17 9,-30 0,-13 -3,-23 -9,-31 -6,-7 -14,-10 -25,-10 z" />
   <path
   id="path4674"
   class="fil14"
   d="m 3481.9204,1215.6729 v -18 c 9,7 19,10 30,10 15,0 23,-5 23,-15 0,-3 -1,-5 -2,-7 -1,-2 -3,-4 -5,-5 -2,-2 -5,-3 -8,-4 -3,-2 -6,-3 -9,-4 -5,-2 -9,-4 -13,-6 -3,-2 -6,-4 -9,-6 -2,-3 -4,-5 -5,-8 -1,-3 -2,-7 -2,-11 0,-5 1,-9 4,-13 2,-4 5,-7 9,-10 3,-2 8,-4 13,-6 4,-1 10,-2 15,-2 9,0 17,2 24,5 v 17 c -7,-5 -16,-7 -27,-7 -3,0 -6,0 -8,1 -3,1 -5,2 -7,3 -2,1 -3,3 -4,5 -1,1 -1,3 -1,6 0,2 0,5 1,7 1,1 2,3 4,4 2,2 5,3 7,4 3,2 6,3 10,4 5,2 9,4 12,6 4,2 7,4 10,6 3,3 5,5 6,8 1,4 2,7 2,11 0,6 -1,10 -3,14 -3,4 -6,7 -10,10 -3,2 -8,4 -13,5 -5,2 -10,2 -16,2 -11,0 -20,-2 -28,-6 z" />
   <path
   id="path4676"
   class="fil14"
   d="m 270.92076,1500.6726 h -17 v -16 0 c -8,13 -19,19 -33,19 -11,0 -19,-3 -25,-9 -6,-5 -9,-13 -9,-22 0,-20 12,-31 35,-34 l 32,-5 c 0,-18 -7,-27 -22,-27 -13,0 -24,5 -34,13 v -17 c 10,-7 22,-10 36,-10 24,0 37,13 37,40 z m -17,-53 -26,3 c -7,1 -13,3 -17,6 -4,3 -6,8 -6,15 0,5 1,9 5,13 4,3 9,5 15,5 8,0 15,-3 21,-9 5,-6 8,-14 8,-23 z" />
   <path
   id="path4678"
   class="fil14"
   d="m 387.92076,1500.6726 h -17 v -16 0 c -7,12 -18,19 -33,19 -25,0 -37,-15 -37,-45 v -63 h 16 v 60 c 0,22 9,34 26,34 8,0 15,-3 20,-10 6,-6 8,-14 8,-24 v -60 h 17 z" />
   <path
   id="path4680"
   class="fil14"
   d="m 471.9207,1499.6726 c -3.99997,3 -9.99997,4 -15.99997,4 -19,0 -28,-11 -28,-31 v -63 h -17.99997 v -14 h 17.99997 v -25.9997 l 17,-6 v 31.9997 h 26.99997 v 14 h -26.99997 v 60 c 0,7 1,12 4,15 2,3 6,4 12,4 4,0 8,-1 10.99997,-3 z" />
   <path
   id="path4682"
   class="fil14"
   d="m 538.92067,1503.6726 c -15.99997,0 -27.99997,-5 -37.99997,-15 -9,-10 -14,-23 -14,-39 0,-18 5,-32 15,-42 9,-10 22.99997,-15 38.99997,-15 16,0 28,5 36.99997,15 9,9 13,23 13,40 0,17 -4,30 -14,41 -9.99997,10 -21.99997,15 -37.99997,15 z m 1,-97 c -11,0 -19.99997,4 -25.99997,11 -6,8 -9,18 -9,31 0,13 3,22 9,30 7,7 14.99997,11 25.99997,11 11,0 19,-4 25,-11 6,-7 9,-17 9,-30 0,-14 -3,-24 -9,-31 -6,-7 -14,-11 -25,-11 z" />
   <path
   id="path4684"
   class="fil14"
   d="m 673.92061,1412.6726 c -3,-3 -8,-4 -13,-4 -7,0 -13,4 -18,11 -5,6 -8,16 -8,27 v 54 h -16.99997 v -105 h 16.99997 v 21 h 1 c 2,-7 6,-13 11,-17 5,-4 10,-6 17,-6 4,0 7,0 10,1 z" />
   <path
   id="path4686"
   class="fil14"
   d="m 767.92055,1500.6726 h -17 v -16 h -1 c -7,13 -17.99997,19 -31.99997,19 -11,0 -19,-3 -25,-9 -6,-5 -9,-13 -9,-22 0,-20 12,-31 35,-34 l 31.99997,-5 c 0,-18 -7,-27 -21.99997,-27 -13,0 -24,5 -34,13 v -17 c 10,-7 22,-10 35,-10 24.99997,0 37.99997,13 37.99997,40 z m -17,-53 -25.99997,3 c -8,1 -13,3 -17,6 -4,3 -6,8 -6,15 0,5 1,9 5,13 4,3 9,5 15,5 8,0 14.99997,-3 20.99997,-9 5,-6 8,-14 8,-23 z" />
   <path
   id="path4688"
   class="fil14"
   d="m 807.92052,1368.6729 c -3,0 -5,-1 -7,-3 -2,-3 -4,-5 -4,-8 0,-3 2,-6 4,-8 2,-2 4,-3 7,-3 4,0 6,1 8,3 3,2 4,5 4,8 0,3 -1,5 -4,7 -2,3 -4,4 -8,4 z m 9,131.9997 h -17 v -105 h 17 z" />
   <path
   id="path4690"
   class="fil14"
   d="m 844.92049,1497.6726 v -19 c 9,7 19,11 30,11 15,0 21.99997,-5 21.99997,-15 0,-3 0,-6 -1,-7 -1.99997,-2 -2.99997,-4 -5.99997,-6 -2,-1 -4,-3 -7,-4 -3,-1 -6,-2 -10,-4 -4,-1 -9,-3 -12,-5 -4,-2 -7,-4 -9,-7 -2,-2 -4,-5 -5,-8 -2,-3 -2,-6 -2,-10 0,-5 1,-10 3,-14 3,-3 6,-7 9,-9 4,-3 8,-5 13,-6 5,-1 10,-2 15,-2 9.99997,0 17.99997,2 24.99997,5 v 17 c -8,-5 -16.99997,-8 -26.99997,-8 -3,0 -6,1 -9,1 -2,1 -4,2 -6,3 -2,2 -3,3 -4,5 -1,2 -2,4 -2,6 0,3 1,5 2,7 1,2 2,4 4,5 2,2 4,3 7,4 3,1 6,2 10,4 4,2 8,3 11.99997,5 4,2 7,4 10,7 2,2 4,5 6,8 1,3 2,7 2,11 0,5 -1,10 -4,14 -2,4 -5,7 -9,9 -4,3 -7.99997,5 -12.99997,6 -5,1 -11,2 -16,2 -11,0 -20,-2 -28,-6 z" />
   <polygon
   id="polygon4692"
   class="fil14"
   points="1591,61969 1575,62020 1563,62020 1575,61969 "
   transform="translate(-635.07924,-60491.322)" />
   <path
   id="path4694"
   class="fil14"
   d="m 1087.9204,1497.6726 v -19 c 9,7 19,11 30,11 15,0 23,-5 23,-15 0,-3 -1,-6 -2,-7 -1,-2 -3,-4 -5,-6 -2,-1 -5,-3 -8,-4 -3,-1 -6,-2 -9,-4 -5,-1 -9,-3 -13,-5 -3,-2 -6,-4 -9,-7 -2,-2 -4,-5 -5,-8 -1,-3 -2,-6 -2,-10 0,-5 1,-10 4,-14 2,-3 5,-7 9,-9 3,-3 8,-5 13,-6 4,-1 10,-2 15,-2 9,0 17,2 24,5 v 17 c -7,-5 -16,-8 -27,-8 -3,0 -6,1 -8,1 -3,1 -5,2 -7,3 -2,2 -3,3 -4,5 -1,2 -1,4 -1,6 0,3 0,5 1,7 1,2 2,4 4,5 2,2 5,3 7,4 3,1 6,2 10,4 5,2 9,3 12,5 4,2 7,4 10,7 3,2 5,5 6,8 1,3 2,7 2,11 0,5 -1,10 -3,14 -3,4 -6,7 -10,9 -3,3 -8,5 -13,6 -5,1 -10,2 -16,2 -11,0 -20,-2 -28,-6 z" />
   <path
   id="path4696"
   class="fil14"
   d="m 1268.9204,1452.6726 h -74 c 0,11 3,21 9,27 6,6 14,10 25,10 12,0 23,-4 33,-12 v 16 c -9,6 -22,10 -37,10 -15,0 -27,-5 -35,-15 -9,-9 -13,-23 -13,-40 0,-17 5,-30 14,-40 9,-11 21,-16 35,-16 14,0 24,5 32,13 7,9 11,22 11,38 z m -17,-15 c 0,-9 -3,-17 -7,-23 -5,-5 -11,-8 -20,-8 -8,0 -14,3 -20,9 -6,6 -9,13 -10,22 z" />
   <path
   id="path4698"
   class="fil14"
   d="m 1382.9204,1500.6726 h -17 v -60 c 0,-22 -8,-34 -25,-34 -8,0 -15,3 -21,10 -5,6 -8,14 -8,24 v 60 h -17 v -105 h 17 v 17 0 c 8,-13 20,-20 35,-20 12,0 20,4 27,11 6,8 9,19 9,33 z" />
   <path
   id="path4700"
   class="fil14"
   d="m 1504.9204,1500.6726 h -17 v -18 0 c -8,14 -20,21 -37,21 -13,0 -24,-5 -32,-14 -8,-10 -12,-23 -12,-39 0,-18 5,-32 14,-42 9,-11 20,-16 35,-16 14,0 25,6 32,17 v 0 -64.9997 h 17 z m -17,-47 v -16 c 0,-9 -3,-16 -8,-22 -6,-6 -13,-9 -22,-9 -10,0 -18,4 -24,12 -6,7 -9,18 -9,31 0,12 3,22 8,29 6,7 14,11 23,11 10,0 17,-4 23,-11 6,-6 9,-15 9,-25 z" />
   <path
   id="path4702"
   class="fil14"
   d="m 1583.9204,1503.6726 c -16,0 -29,-5 -38,-15 -9,-10 -14,-23 -14,-39 0,-18 5,-32 15,-42 9,-10 23,-15 39,-15 16,0 28,5 37,15 9,9 13,23 13,40 0,17 -4,30 -14,41 -10,10 -22,15 -38,15 z m 1,-97 c -11,0 -20,4 -26,11 -6,8 -10,18 -10,31 0,13 4,22 10,30 7,7 15,11 26,11 11,0 19,-4 25,-11 6,-7 9,-17 9,-30 0,-14 -3,-24 -9,-31 -6,-7 -14,-11 -25,-11 z" />
   <path
   id="path4704"
   class="fil14"
   d="m 1814.9204,1503.6726 c -15,0 -28,-5 -37,-15 -10,-10 -14,-23 -14,-39 0,-18 5,-32 14,-42 10,-10 23,-15 40,-15 16,0 28,5 37,15 9,9 13,23 13,40 0,17 -5,30 -14,41 -10,10 -23,15 -39,15 z m 1,-97 c -10,0 -19,4 -25,11 -7,8 -10,18 -10,31 0,13 3,22 10,30 6,7 15,11 25,11 11,0 20,-4 26,-11 6,-7 9,-17 9,-30 0,-14 -3,-24 -9,-31 -6,-7 -15,-11 -26,-11 z" />
   <path
   id="path4706"
   class="fil14"
   d="m 2019.9204,1485.6726 v 0 64 h -17 v -154 h 17 v 18 0 c 8,-14 21,-21 37,-21 13,0 24,5 32,14 7,10 11,22 11,38 0,18 -4,32 -13,43 -8,11 -20,16 -35,16 -14,0 -24,-6 -32,-18 z m 0,-43 v 15 c 0,9 2,16 8,22 6,7 13,10 22,10 10,0 18,-4 24,-12 6,-8 9,-19 9,-33 0,-12 -3,-21 -8,-28 -6,-6 -13,-10 -23,-10 -9,0 -17,4 -23,11 -6,6 -9,15 -9,25 z" />
   <path
   id="path4708"
   class="fil14"
   d="m 2181.9204,1412.6726 c -3,-3 -7,-4 -12,-4 -8,0 -14,4 -19,11 -4,6 -7,16 -7,27 v 54 h -17 v -105 h 17 v 21 h 1 c 2,-7 6,-13 11,-17 5,-4 10,-6 16,-6 5,0 8,0 10,1 z" />
   <path
   id="path4710"
   class="fil14"
   d="m 2208.9204,1368.6729 c -3,0 -5,-1 -7,-3 -2,-3 -4,-5 -4,-8 0,-3 2,-6 4,-8 2,-2 4,-3 7,-3 4,0 6,1 8,3 2,2 4,5 4,8 0,3 -2,5 -4,7 -2,3 -4,4 -8,4 z m 9,131.9997 h -17 v -105 h 17 z" />
   <path
   id="path4712"
   class="fil14"
   d="m 2401.9204,1500.6726 h -17 v -60 c 0,-12 -1,-21 -5,-26 -4,-5 -10,-8 -18,-8 -8,0 -14,4 -19,10 -5,7 -7,15 -7,24 v 60 h -17 v -62 c 0,-21 -8,-32 -24,-32 -8,0 -14,3 -19,10 -5,6 -7,14 -7,24 v 60 h -17 v -105 h 17 v 16 0 c 8,-13 19,-19 33,-19 7,0 14,2 19,6 6,4 9,9 11,16 8,-15 20,-22 35,-22 24,0 35,14 35,43 z" />
   <path
   id="path4714"
   class="fil14"
   d="m 2518.9204,1452.6726 h -74 c 0,11 3,21 9,27 6,6 15,10 25,10 12,0 23,-4 33,-12 v 16 c -9,6 -22,10 -37,10 -15,0 -27,-5 -35,-15 -9,-9 -13,-23 -13,-40 0,-17 5,-30 14,-40 9,-11 21,-16 35,-16 14,0 24,5 32,13 8,9 11,22 11,38 z m -17,-15 c 0,-9 -2,-17 -7,-23 -5,-5 -11,-8 -19,-8 -8,0 -15,3 -21,9 -5,6 -9,13 -10,22 z" />
   <path
   id="path4716"
   class="fil14"
   d="m 2553.9204,1368.6729 c -3,0 -6,-1 -8,-3 -2,-3 -3,-5 -3,-8 0,-3 1,-6 3,-8 2,-2 5,-3 8,-3 3,0 5,1 8,3 2,2 3,5 3,8 0,3 -1,5 -3,7 -3,3 -5,4 -8,4 z m 8,131.9997 h -17 v -105 h 17 z" />
   <path
   id="path4718"
   class="fil14"
   d="m 2651.9204,1412.6726 c -3,-3 -8,-4 -13,-4 -8,0 -14,4 -18,11 -5,6 -8,16 -8,27 v 54 h -17 v -105 h 17 v 21 h 1 c 2,-7 6,-13 11,-17 5,-4 10,-6 16,-6 5,0 8,0 11,1 z" />
   <path
   id="path4720"
   class="fil14"
   d="m 2713.9204,1503.6726 c -15,0 -28,-5 -37,-15 -10,-10 -14,-23 -14,-39 0,-18 5,-32 14,-42 10,-10 23,-15 40,-15 15,0 28,5 37,15 8,9 13,23 13,40 0,17 -5,30 -14,41 -10,10 -23,15 -39,15 z m 1,-97 c -10,0 -19,4 -25,11 -7,8 -10,18 -10,31 0,13 3,22 10,30 6,7 15,11 25,11 11,0 20,-4 26,-11 6,-7 8,-17 8,-30 0,-14 -2,-24 -8,-31 -6,-7 -15,-11 -26,-11 z" />
   <path
   id="path4722"
   class="fil14"
   d="m 2991.9204,1500.6726 h -17 v -18 0 c -8,14 -20,21 -37,21 -13,0 -24,-5 -32,-14 -8,-10 -12,-23 -12,-39 0,-18 5,-32 14,-42 8,-11 20,-16 35,-16 14,0 25,6 32,17 v 0 -64.9997 h 17 z m -17,-47 v -16 c 0,-9 -3,-16 -9,-22 -5,-6 -12,-9 -21,-9 -10,0 -18,4 -24,12 -6,7 -9,18 -9,31 0,12 3,22 8,29 6,7 14,11 23,11 10,0 17,-4 23,-11 6,-6 9,-15 9,-25 z" />
   <path
   id="path4724"
   class="fil14"
   d="m 3069.9204,1503.6726 c -15,0 -28,-5 -37,-15 -9,-10 -14,-23 -14,-39 0,-18 5,-32 15,-42 9,-10 22,-15 39,-15 16,0 28,5 37,15 9,9 13,23 13,40 0,17 -5,30 -14,41 -10,10 -22,15 -39,15 z m 2,-97 c -11,0 -20,4 -26,11 -6,8 -10,18 -10,31 0,13 4,22 10,30 6,7 15,11 26,11 11,0 19,-4 25,-11 6,-7 9,-17 9,-30 0,-14 -3,-24 -9,-31 -6,-7 -14,-11 -25,-11 z" />
   <path
   id="path4726"
   class="fil14"
   d="m 3250.9204,1497.6726 v -19 c 10,7 20,11 31,11 15,0 22,-5 22,-15 0,-3 0,-6 -2,-7 -1,-2 -3,-4 -5,-6 -2,-1 -5,-3 -7,-4 -3,-1 -7,-2 -10,-4 -5,-1 -9,-3 -12,-5 -4,-2 -7,-4 -9,-7 -2,-2 -4,-5 -5,-8 -2,-3 -2,-6 -2,-10 0,-5 1,-10 3,-14 2,-3 5,-7 9,-9 4,-3 8,-5 13,-6 5,-1 10,-2 15,-2 9,0 18,2 25,5 v 17 c -8,-5 -17,-8 -27,-8 -3,0 -6,1 -9,1 -2,1 -4,2 -6,3 -2,2 -3,3 -4,5 -1,2 -2,4 -2,6 0,3 1,5 2,7 1,2 2,4 4,5 2,2 4,3 7,4 3,1 6,2 9,4 5,2 9,3 13,5 4,2 7,4 10,7 2,2 4,5 6,8 1,3 2,7 2,11 0,5 -2,10 -4,14 -2,4 -5,7 -9,9 -4,3 -8,5 -13,6 -5,1 -11,2 -16,2 -11,0 -21,-2 -29,-6 z" />
   <path
   id="path4728"
   class="fil14"
   d="m 3432.9204,1452.6726 h -75 c 0,11 3,21 10,27 6,6 14,10 25,10 11,0 22,-4 32,-12 v 16 c -9,6 -21,10 -36,10 -15,0 -27,-5 -36,-15 -8,-9 -13,-23 -13,-40 0,-17 5,-30 14,-40 10,-11 21,-16 35,-16 14,0 25,5 32,13 8,9 12,22 12,38 z m -18,-15 c 0,-9 -2,-17 -7,-23 -4,-5 -11,-8 -19,-8 -8,0 -15,3 -20,9 -6,6 -9,13 -11,22 z" />
   <path
   id="path4730"
   class="fil14"
   d="m 3543.9204,1500.6726 h -17 v -16 0 c -7,12 -18,19 -33,19 -25,0 -38,-15 -38,-45 v -63 h 17 v 60 c 0,22 9,34 26,34 8,0 15,-3 20,-10 5,-6 8,-14 8,-24 v -60 h 17 z" />
   <path
   id="path4732"
   class="fil14"
   d="m 243.92076,1781.6726 c -4,2 -9,3 -16,3 -18,0 -27,-10 -27,-31 v -62 h -19 v -15 h 19 v -26 l 17,-5 v 31 h 26 v 15 h -26 v 59 c 0,7 1,12 3,15 3,3 7,5 12,5 4,0 8,-1 11,-4 z" />
   <path
   id="path4734"
   class="fil14"
   d="m 322.92076,1693.6726 c -3,-2 -7,-3 -13,-3 -7,0 -13,3 -18,10 -5,7 -7,16 -7,28 v 54 h -17 v -106 h 17 v 22 0 c 2,-8 6,-13 11,-18 5,-4 11,-6 17,-6 4,0 8,1 10,2 z" />
   <path
   id="path4736"
   class="fil14"
   d="m 417.92073,1782.6726 h -16.99997 v -17 0 c -8,13 -19,19 -33,19 -11,0 -19,-2 -25,-8 -6,-6 -9,-13 -9,-22 0,-20 12,-31 35,-35 l 32,-4 c 0,-18 -7,-27 -22,-27 -13,0 -24,4 -34,13 v -17 c 10,-7 22,-10 36,-10 24,0 36.99997,13 36.99997,39 z m -16.99997,-54 -26,4 c -7,1 -13,3 -17,6 -4,3 -6,8 -6,15 0,5 2,9 5,12 4,4 9,5 15,5 8,0 15,-3 21,-9 5,-6 8,-13 8,-22 z" />
   <path
   id="path4738"
   class="fil14"
   d="m 467.92073,1767.6726 v 0 15 h -17 v -157 h 17 v 70 0 c 7.99997,-14 20.99997,-21 36.99997,-21 13,0 23.99997,4 31.99997,14 7,9 11,22 11,38 0,18 -4,32 -13,42 -8,11 -19.99997,16 -34.99997,16 -14,0 -25,-6 -31.99997,-17 z m 0,-43 v 15 c 0,8 2.99997,16 7.99997,22 6,6 13,9 22,9 10,0 18,-4 24,-12 5.99997,-7 8.99997,-18 8.99997,-32 0,-12 -3,-21 -7.99997,-28 -6,-7 -13,-10 -23,-10 -9,0 -17,3 -23,10 -6,7 -8.99997,16 -8.99997,26 z" />
   <path
   id="path4740"
   class="fil14"
   d="m 651.92061,1782.6726 h -17 v -17 h -1 c -6.99997,13 -17.99997,19 -31.99997,19 -11,0 -19,-2 -25,-8 -5.99997,-6 -8.99997,-13 -8.99997,-22 0,-20 11.99997,-31 34.99997,-35 l 31.99997,-4 c 0,-18 -6.99997,-27 -21.99997,-27 -13,0 -24,4 -34,13 v -17 c 10,-7 22,-10 35,-10 24.99997,0 37.99997,13 37.99997,39 z m -17,-54 -25.99997,4 c -8,1 -13,3 -17,6 -4,3 -6,8 -6,15 0,5 1,9 5,12 4,4 9,5 15,5 8,0 15,-3 21,-9 4.99997,-6 7.99997,-13 7.99997,-22 z" />
   <polygon
   id="polygon4742"
   class="fil14"
   points="1337,62274 1320,62274 1320,62117 1337,62117 "
   transform="translate(-635.07924,-60491.322)" />
   <path
   id="path4744"
   class="fil14"
   d="m 824.92052,1782.6726 h -17 v -61 c 0,-22 -9,-33 -24.99997,-33 -8,0 -15,3 -21,9 -6,7 -8,15 -8,25 v 60 h -17 v -157 h 17 v 69 0 c 8,-14 20,-20 34.99997,-20 24,0 36,14 36,43 z" />
   <path
   id="path4746"
   class="fil14"
   d="m 901.92046,1784.6726 c -15.99997,0 -28.99997,-5 -37.99997,-14 -9,-10 -14,-23 -14,-40 0,-18 5,-31 15,-41 9,-10 23,-15 38.99997,-15 16,0 28,4 37,14 8.99997,10 12.99997,23 12.99997,41 0,17 -4,30 -13.99997,40 -10,10 -22,15 -38,15 z m 1,-96 c -10.99997,0 -19.99997,4 -25.99997,11 -6,7 -10,18 -10,31 0,12 4,22 10,29 7,8 15,11 25.99997,11 11,0 19,-3 25,-10 6,-8 9,-18 9,-31 0,-13 -3,-23 -9,-30 -6,-8 -14,-11 -25,-11 z" />
   <path
   id="path4748"
   class="fil14"
   d="m 987.92043,1784.6726 c -3,0 -6,-1 -8,-3 -2,-2 -3,-5 -3,-8 0,-4 1,-6 3,-9 2,-2 5,-3 8,-3 3,0 6,1 8,3 3,3 4,5 4,9 0,3 -1,6 -4,8 -2,2 -5,3 -8,3 z" />
   <path
   id="path4750"
   class="fil14"
   d="m 1253.9204,1776.6726 c -11,6 -25,8 -41,8 -21,0 -38,-6 -51,-20 -12,-14 -19,-31 -19,-53 0,-24 7,-43 22,-58 14,-14 32,-22 54,-22 14,0 26,2 35,6 v 19 c -11,-6 -22,-9 -35,-9 -17,0 -31,6 -42,17 -10,11 -15,27 -15,46 0,18 4,32 14,43 10,10 23,16 39,16 15,0 28,-3 39,-10 z" />
   <path
   id="path4752"
   class="fil14"
   d="m 1277.9204,1776.6726 v -21 c 2,3 5,4 8,6 4,2 7,3 11,4 3,1 7,2 11,3 3,1 7,1 10,1 11,0 18,-2 24,-6 5,-4 8,-10 8,-17 0,-4 -1,-8 -3,-11 -2,-3 -4,-5 -7,-8 -3,-2 -7,-5 -11,-7 -4,-2 -9,-4 -14,-7 -5,-3 -10,-5 -14,-8 -5,-3 -9,-6 -12,-9 -3,-3 -6,-7 -8,-11 -2,-4 -3,-9 -3,-14 0,-7 2,-13 5,-18 3,-5 7,-9 11,-12 5,-3 11,-6 17,-7 6,-2 12,-3 19,-3 14,0 25,2 32,6 v 19 c -9,-6 -20,-9 -34,-9 -4,0 -8,0 -11,1 -4,1 -8,2 -11,4 -2,2 -5,4 -7,7 -2,3 -3,6 -3,10 0,4 1,7 3,10 1,3 3,5 6,8 3,2 6,4 10,6 4,2 8,5 14,7 5,3 10,6 15,9 4,2 9,6 12,9 4,4 7,8 9,12 2,4 3,9 3,15 0,7 -2,13 -4,18 -3,5 -7,9 -12,12 -5,4 -10,6 -17,7 -6,2 -13,2 -20,2 -2,0 -5,0 -9,0 -3,-1 -6,-1 -10,-2 -4,-1 -7,-1 -10,-2 -3,-2 -6,-3 -8,-4 z" />
   <path
   id="path4754"
   class="fil14"
   d="m 1415.9204,1726.6726 v 56 h -18 v -148 h 41 c 16,0 28,4 37,11 9,8 13,19 13,33 0,14 -5,26 -15,34 -9,9 -22,14 -39,14 z m 0,-77 v 61 h 18 c 12,0 21,-3 27,-8 7,-5 10,-13 10,-23 0,-20 -12,-30 -35,-30 z" />
   <path
   id="path4756"
   class="fil14"
   d="m 1727.9204,1782.6726 h -17 v -18 h -1 c -8,14 -20,20 -36,20 -13,0 -24,-4 -32,-14 -8,-9 -12,-22 -12,-39 0,-17 4,-31 13,-42 9,-10 21,-15 35,-15 15,0 26,5 32,17 h 1 v -66 h 17 z m -17,-48 v -16 c 0,-8 -3,-15 -9,-21 -6,-6 -13,-9 -21,-9 -11,0 -19,4 -25,11 -6,8 -9,18 -9,32 0,12 3,21 9,29 6,7 13,10 23,10 9,0 17,-3 23,-10 6,-7 9,-16 9,-26 z" />
   <path
   id="path4758"
   class="fil14"
   d="m 1847.9204,1733.6726 h -75 c 0,12 3,21 10,28 6,6 14,9 25,9 11,0 22,-4 32,-12 v 16 c -9,7 -21,10 -36,10 -15,0 -27,-4 -36,-14 -8,-10 -13,-23 -13,-41 0,-16 5,-29 14,-40 10,-10 21,-15 35,-15 14,0 25,4 32,13 8,9 12,21 12,37 z m -18,-14 c 0,-10 -2,-17 -7,-23 -4,-5 -11,-8 -19,-8 -8,0 -15,3 -20,8 -6,6 -9,14 -11,23 z" />
   <path
   id="path4760"
   class="fil14"
   d="m 1922.9204,1781.6726 c -4,2 -9,3 -15,3 -19,0 -28,-10 -28,-31 v -62 h -18 v -15 h 18 v -26 l 17,-5 v 31 h 26 v 15 h -26 v 59 c 0,7 1,12 3,15 3,3 7,5 12,5 5,0 8,-1 11,-4 z" />
   <path
   id="path4762"
   class="fil14"
   d="m 2031.9204,1733.6726 h -75 c 0,12 4,21 10,28 6,6 14,9 25,9 12,0 23,-4 33,-12 v 16 c -10,7 -22,10 -37,10 -15,0 -27,-4 -36,-14 -8,-10 -12,-23 -12,-41 0,-16 4,-29 14,-40 9,-10 21,-15 34,-15 14,0 25,4 33,13 7,9 11,21 11,37 z m -17,-14 c -1,-10 -3,-17 -8,-23 -4,-5 -11,-8 -19,-8 -8,0 -15,3 -20,8 -6,6 -9,14 -11,23 z m -3,-97 -27,34 h -13 l 23,-34 z" />
   <path
   id="path4764"
   class="fil14"
   d="m 2208.9204,1782.6726 h -17 v -61 c 0,-12 -2,-20 -6,-25 -3,-6 -9,-8 -18,-8 -7,0 -13,3 -18,10 -5,6 -8,14 -8,24 v 60 h -17 v -63 c 0,-21 -8,-31 -24,-31 -7,0 -14,3 -18,9 -5,6 -8,15 -8,25 v 60 h -17 v -106 h 17 v 17 h 1 c 7,-13 18,-19 33,-19 7,0 13,2 19,6 5,4 9,9 11,16 7,-15 19,-22 35,-22 23,0 35,14 35,43 z" />
   <path
   id="path4766"
   class="fil14"
   d="m 2407.9204,1784.6726 c -16,0 -29,-5 -38,-14 -9,-10 -14,-23 -14,-40 0,-18 5,-31 15,-41 9,-10 23,-15 39,-15 16,0 28,4 37,14 9,10 13,23 13,41 0,17 -4,30 -14,40 -10,10 -22,15 -38,15 z m 1,-96 c -11,0 -20,4 -26,11 -6,7 -10,18 -10,31 0,12 4,22 10,29 7,8 15,11 26,11 11,0 19,-3 25,-10 6,-8 9,-18 9,-31 0,-13 -3,-23 -9,-30 -6,-8 -14,-11 -25,-11 z" />
   <path
   id="path4768"
   class="fil14"
   d="m 2699.9204,1782.6726 h -17 v -18 0 c -8,14 -20,20 -36,20 -14,0 -24,-4 -32,-14 -8,-9 -12,-22 -12,-39 0,-17 4,-31 13,-42 9,-10 21,-15 35,-15 15,0 25,5 32,17 v 0 -66 h 17 z m -17,-48 v -16 c 0,-8 -2,-15 -8,-21 -6,-6 -13,-9 -22,-9 -10,0 -18,4 -24,11 -6,8 -9,18 -9,32 0,12 3,21 9,29 5,7 13,10 23,10 9,0 17,-3 23,-10 5,-7 8,-16 8,-26 z" />
   <path
   id="path4770"
   class="fil14"
   d="m 2743.9204,1649.6726 c -3,0 -5,-1 -8,-3 -2,-2 -3,-5 -3,-8 0,-3 1,-6 3,-8 3,-2 5,-3 8,-3 3,0 6,1 8,3 2,2 3,5 3,8 0,3 -1,6 -3,8 -2,2 -5,3 -8,3 z m 9,133 h -17 v -106 h 17 z" />
   <path
   id="path4772"
   class="fil14"
   d="m 2842.9204,1693.6726 c -3,-2 -7,-3 -13,-3 -7,0 -13,3 -18,10 -5,7 -7,16 -7,28 v 54 h -17 v -106 h 17 v 22 0 c 2,-8 6,-13 11,-18 5,-4 11,-6 17,-6 4,0 8,1 10,2 z" />
   <path
   id="path4774"
   class="fil14"
   d="m 2946.9204,1733.6726 h -75 c 1,12 4,21 10,28 6,6 14,9 25,9 12,0 23,-4 33,-12 v 16 c -9,7 -22,10 -37,10 -15,0 -27,-4 -35,-14 -9,-10 -13,-23 -13,-41 0,-16 5,-29 14,-40 9,-10 21,-15 35,-15 14,0 24,4 32,13 7,9 11,21 11,37 z m -17,-14 c 0,-10 -3,-17 -7,-23 -5,-5 -11,-8 -20,-8 -8,0 -14,3 -20,8 -6,6 -9,14 -10,23 z" />
   <path
   id="path4776"
   class="fil14"
   d="m 2981.9204,1649.6726 c -3,0 -5,-1 -7,-3 -3,-2 -4,-5 -4,-8 0,-3 1,-6 4,-8 2,-2 4,-3 7,-3 3,0 6,1 8,3 2,2 4,5 4,8 0,3 -2,6 -4,8 -2,2 -5,3 -8,3 z m 9,133 h -17 v -106 h 17 z" />
   <path
   id="path4778"
   class="fil14"
   d="m 3074.9204,1781.6726 c -4,2 -9,3 -16,3 -18,0 -28,-10 -28,-31 v -62 h -18 v -15 h 18 v -26 l 17,-5 v 31 h 27 v 15 h -27 v 59 c 0,7 1,12 4,15 2,3 6,5 12,5 4,0 8,-1 11,-4 z" />
   <path
   id="path4780"
   class="fil14"
   d="m 3142.9204,1784.6726 c -16,0 -29,-5 -38,-14 -9,-10 -14,-23 -14,-40 0,-18 5,-31 15,-41 9,-10 23,-15 39,-15 16,0 28,4 37,14 9,10 13,23 13,41 0,17 -4,30 -14,40 -10,10 -22,15 -38,15 z m 1,-96 c -11,0 -20,4 -26,11 -6,7 -10,18 -10,31 0,12 4,22 10,29 7,8 15,11 26,11 11,0 19,-3 25,-10 6,-8 9,-18 9,-31 0,-13 -3,-23 -9,-30 -6,-8 -14,-11 -25,-11 z" />
   <path
   id="path4782"
   class="fil14"
   d="m 3434.9204,1782.6726 h -17 v -18 0 c -8,14 -20,20 -36,20 -14,0 -24,-4 -32,-14 -8,-9 -12,-22 -12,-39 0,-17 4,-31 13,-42 9,-10 21,-15 35,-15 15,0 25,5 32,17 v 0 -66 h 17 z m -17,-48 v -16 c 0,-8 -2,-15 -8,-21 -6,-6 -13,-9 -22,-9 -10,0 -18,4 -24,11 -6,8 -9,18 -9,32 0,12 3,21 9,29 5,7 13,10 23,10 9,0 17,-3 23,-10 6,-7 8,-16 8,-26 z" />
   <path
   id="path4784"
   class="fil14"
   d="m 3545.9204,1782.6726 h -17 v -17 0 c -7,13 -18,19 -33,19 -10,0 -18,-2 -24,-8 -6,-6 -9,-13 -9,-22 0,-20 11,-31 35,-35 l 31,-4 c 0,-18 -7,-27 -21,-27 -13,0 -25,4 -35,13 v -17 c 10,-7 22,-10 36,-10 25,0 37,13 37,39 z m -17,-54 -25,4 c -8,1 -14,3 -18,6 -4,3 -6,8 -6,15 0,5 2,9 6,12 3,4 8,5 14,5 9,0 16,-3 21,-9 6,-6 8,-13 8,-22 z" />
   <path
   id="path4786"
   class="fil14"
   d="m 212.92076,2048.6723 h -1 v 64 h -17 v -154 h 17 v 18 h 1 c 8,-14 20,-21 36,-21 14,0 24,5 32,14 8,10 12,23 12,39 0,17 -5,31 -13,42 -9,11 -21,16 -36,16 -13,0 -24,-6 -31,-18 z m -1,-42 v 14 c 0,9 3,17 9,23 5,6 13,9 21,9 11,0 19,-4 24,-12 6,-8 9,-19 9,-33 0,-12 -3,-21 -8,-28 -5,-6 -13,-10 -22,-10 -10,0 -18,4 -24,11 -6,7 -9,15 -9,26 z" />
   <path
   id="path4788"
   class="fil14"
   d="m 374.92076,1975.6723 c -3,-2 -7,-4 -13,-4 -7,0 -13,4 -18,11 -5,6 -7,16 -7,28 v 54 h -17 v -106 h 17 v 21 0 c 2,-7 6,-13 11,-17 5,-4 11,-6 17,-6 4,0 7,0 10,1 z" />
   <path
   id="path4790"
   class="fil14"
   d="m 401.92076,1931.6723 c -3,0 -6,-1 -8,-3 -2,-2 -3,-5 -3,-8 0,-3 1,-6 3,-8 2,-2 5,-3 8,-3 3,0 6,1 8,3 2,2 3,5 3,8 0,3 -1,5 -3,8 -2,2 -5,3 -8,3 z m 8,133 h -17 v -106 h 17 z" />
   <path
   id="path4792"
   class="fil14"
   d="m 594.92064,2064.6723 h -17 v -61 c 0,-12 -1.99997,-20 -5.99997,-26 -3,-5 -9,-8 -18,-8 -7,0 -13,4 -18,10 -5,7 -8,15 -8,24 v 61 H 510.9207 v -63 c 0,-21 -8,-32 -24,-32 -7,0 -14,4 -17.99997,10 -5,6 -8,14 -8,24 v 61 h -17 v -106 h 17 v 16 h 1 c 7,-12 17.99997,-19 32.99997,-19 7,0 13,2 19,6 5,4 9,10 10.99997,16 7,-14 19,-22 35,-22 22.99997,0 34.99997,15 34.99997,43 z" />
   <path
   id="path4794"
   class="fil14"
   d="m 711.92058,2015.6723 h -74.99997 c 0,12 4,21 10,27 6,7 14,10 25,10 11.99997,0 22.99997,-4 32.99997,-12 v 16 c -10,7 -22,10 -36.99997,10 -15,0 -27,-5 -36,-14 -7.99997,-10 -11.99997,-24 -11.99997,-41 0,-16 4,-30 13.99997,-40 9,-11 20,-16 34,-16 14,0 24.99997,5 31.99997,14 8,9 12,21 12,37 z m -18,-15 c 0,-9 -2,-17 -7,-22 -4,-6 -10.99997,-9 -18.99997,-9 -8,0 -15,3 -20,9 -6,6 -9,13 -11,22 z" />
   <path
   id="path4796"
   class="fil14"
   d="m 745.92055,1931.6723 c -3,0 -5,-1 -8,-3 -2,-2 -2.99997,-5 -2.99997,-8 0,-3 0.99997,-6 2.99997,-8 3,-2 5,-3 8,-3 3,0 6,1 8,3 2,2 3,5 3,8 0,3 -1,5 -3,8 -2,2 -5,3 -8,3 z m 8,133 h -17 v -106 h 17 z" />
   <path
   id="path4798"
   class="fil14"
   d="m 843.92049,1975.6723 c -2.99997,-2 -6.99997,-4 -12.99997,-4 -7,0 -13,4 -18,11 -5,6 -7,16 -7,28 v 54 h -17 v -106 h 17 v 21 0 c 3,-7 6,-13 11,-17 5,-4 11,-6 17,-6 4,0 7.99997,0 9.99997,1 z" />
   <path
   id="path4800"
   class="fil14"
   d="m 937.92046,2064.6723 h -17 v -17 0 c -8,13 -18,19 -32.99997,19 -10,0 -19,-3 -25,-8 -6,-6 -8,-13 -8,-23 0,-19 11,-31 34,-34 l 31.99997,-5 c 0,-18 -7,-27 -22,-27 -11.99997,0 -23.99997,5 -33.99997,13 v -17 c 10,-7 22,-10 35.99997,-10 25,0 37,13 37,40 z m -17,-54 -25,4 c -7.99997,1 -13.99997,3 -17.99997,5 -4,3 -6,8 -6,15 0,5 2,10 5,13 4,3 9,5 15,5 8.99997,0 14.99997,-3 20.99997,-9 5,-6 8,-13 8,-22 z" />
   <path
   id="path4802"
   class="fil14"
   d="m 1021.9204,2048.6723 v 0 64 h -17 v -154 h 17 v 18 0 c 9,-14 21,-21 37,-21 13,0 24,5 32,14 7,10 11,23 11,39 0,17 -4,31 -13,42 -8,11 -20,16 -35,16 -14,0 -24,-6 -32,-18 z m 0,-42 v 14 c 0,9 3,17 8,23 6,6 13,9 22,9 10,0 18,-4 24,-12 6,-8 9,-19 9,-33 0,-12 -3,-21 -8,-28 -6,-6 -13,-10 -22,-10 -10,0 -18,4 -24,11 -6,7 -9,15 -9,26 z" />
   <path
   id="path4804"
   class="fil14"
   d="m 1214.9204,2064.6723 h -17 v -17 0 c -8,13 -18,19 -33,19 -25,0 -38,-15 -38,-45 v -63 h 17 v 60 c 0,23 8,34 26,34 8,0 15,-3 20,-9 5,-6 8,-14 8,-24 v -61 h 17 z" />
   <path
   id="path4806"
   class="fil14"
   d="m 1265.9204,2048.6723 v 0 16 h -17 v -157 h 17 v 69 0 c 9,-14 21,-21 37,-21 14,0 24,5 32,14 8,10 11,23 11,39 0,17 -4,31 -12,42 -9,11 -21,16 -36,16 -14,0 -24,-6 -32,-18 z m 0,-42 v 14 c 0,9 3,17 9,23 5,6 12,9 21,9 10,0 19,-4 24,-12 6,-8 9,-19 9,-33 0,-12 -3,-21 -8,-28 -5,-6 -13,-10 -22,-10 -10,0 -18,4 -24,11 -6,7 -9,15 -9,26 z" />
   <polygon
   id="polygon4808"
   class="fil14"
   points="2026,62556 2009,62556 2009,62399 2026,62399 "
   transform="translate(-635.07924,-60491.322)" />
   <path
   id="path4810"
   class="fil14"
   d="m 1432.9204,1931.6723 c -3,0 -5,-1 -7,-3 -2,-2 -3,-5 -3,-8 0,-3 1,-6 3,-8 2,-2 4,-3 7,-3 4,0 6,1 8,3 3,2 4,5 4,8 0,3 -1,5 -4,8 -2,2 -4,3 -8,3 z m 9,133 h -17 v -106 h 17 z" />
   <path
   id="path4812"
   class="fil14"
   d="m 1547.9204,2059.6723 c -8,5 -18,7 -29,7 -15,0 -27,-5 -36,-15 -10,-10 -14,-22 -14,-38 0,-17 5,-31 15,-42 10,-10 23,-16 40,-16 9,0 17,2 24,5 v 18 c -7,-6 -16,-9 -25,-9 -11,0 -19,4 -26,12 -7,8 -11,18 -11,31 0,12 3,22 10,29 6,7 15,11 26,11 9,0 18,-3 26,-9 z" />
   <path
   id="path4814"
   class="fil14"
   d="m 1649.9204,2064.6723 h -17 v -17 h -1 c -7,13 -18,19 -32,19 -11,0 -19,-3 -25,-8 -6,-6 -9,-13 -9,-23 0,-19 12,-31 35,-34 l 32,-5 c 0,-18 -8,-27 -22,-27 -13,0 -24,5 -35,13 v -17 c 11,-7 23,-10 36,-10 25,0 38,13 38,40 z m -17,-54 -26,4 c -8,1 -14,3 -18,5 -4,3 -6,8 -6,15 0,5 2,10 6,13 4,3 8,5 15,5 8,0 15,-3 20,-9 6,-6 9,-13 9,-22 z" />
   <path
   id="path4816"
   class="fil14"
   d="m 1753.9204,2059.6723 c -8,5 -18,7 -29,7 -15,0 -28,-5 -37,-15 -9,-10 -14,-22 -14,-38 0,-17 5,-31 15,-42 10,-10 24,-16 40,-16 10,0 18,2 25,5 v 18 c -8,-6 -16,-9 -25,-9 -11,0 -20,4 -27,12 -7,8 -10,18 -10,31 0,12 3,22 9,29 7,7 16,11 27,11 9,0 18,-3 26,-9 z m -9,31 c 0,12 -10,18 -29,18 -2,0 -4,0 -6,0 v -9 c 3,0 5,0 7,0 10,0 15,-3 15,-9 0,-5 -5,-8 -14,-8 -1,0 -2,0 -4,0 v -18 h 11 v 10 c 6,0 11,2 15,4 3,3 5,7 5,12 z" />
   <path
   id="path4818"
   class="fil14"
   d="m 1854.9204,2064.6723 h -17 v -17 0 c -8,13 -19,19 -33,19 -10,0 -19,-3 -25,-8 -6,-6 -9,-13 -9,-23 0,-19 12,-31 35,-34 l 32,-5 c 0,-18 -7,-27 -22,-27 -12,0 -24,5 -34,13 v -17 c 10,-7 22,-10 36,-10 25,0 37,13 37,40 z m -17,-54 -25,4 c -8,1 -14,3 -18,5 -4,3 -6,8 -6,15 0,5 2,10 5,13 4,3 9,5 15,5 8,0 15,-3 21,-9 5,-6 8,-13 8,-22 z m 11,-97 c 0,7 -1,13 -5,18 -3,4 -7,6 -13,6 -5,0 -10,-1 -17,-5 -5,-3 -9,-4 -12,-4 -6,0 -9,4 -9,11 h -10 c 0,-7 2,-13 5,-17 3,-5 8,-7 14,-7 4,0 10,2 15,5 5,3 10,5 14,5 5,0 8,-4 8,-12 z" />
   <path
   id="path4820"
   class="fil14"
   d="m 1930.9204,2066.6723 c -15,0 -28,-5 -37,-15 -10,-10 -14,-23 -14,-39 0,-18 5,-32 14,-42 10,-10 23,-15 40,-15 16,0 28,5 37,15 9,9 13,23 13,40 0,17 -5,31 -14,41 -10,10 -23,15 -39,15 z m 1,-97 c -10,0 -19,4 -25,12 -7,7 -10,17 -10,30 0,13 3,23 10,30 6,7 15,11 25,11 11,0 20,-4 26,-11 6,-7 9,-17 9,-30 0,-13 -3,-24 -9,-31 -6,-7 -15,-11 -26,-11 z" />
   
   
   
   
   
   
   
   
   
   
   
   
   
   
   
   
   
   
   
   
   
   
   
   
   
   
   
   
   
   
   
   
   
   
   
   
   
   
   
   
   
   
   
   
   
   
   
   
   
   
   
   
   
   
   
   
   
   
   
   
   
   
   
   
   
   
   
   
   
   
   
   
   
   
   
   
   
   
   
   
   
   
   
   
   
   
   
   
   
   
   
   
   
   
   
   
   
   
   
   
   
   
   
   
   
   
   
   
   
   
   
   
   
   
   
   
   
   
   
   
   
   
   
   
   
   
   
   
   
   
   
   
   
   
   
   
   
   
   
   
   
   
   
   
   
   
   
   
   
   
   
   
   
   
   
   
   
   
   
   
   
   
   
   
   
   
   
   
   
   
   
   
   
   
   
   
   
   
   
   
   
   
   
   
   
   
   
   
   
   
   
   
   
   
   
   
   
   
   
   
   
   
   
  </g>
 </g>
</svg>
