<?xml version="1.0" encoding="UTF-8"?>
<!DOCTYPE svg PUBLIC "-//W3C//DTD SVG 1.1//EN" "http://www.w3.org/Graphics/SVG/1.1/DTD/svg11.dtd">
<!-- Creator: CorelDRAW X7 -->
<svg xmlns="http://www.w3.org/2000/svg" xml:space="preserve" width="33.9705mm" height="6.3837mm" version="1.1" style="shape-rendering:geometricPrecision; text-rendering:geometricPrecision; image-rendering:optimizeQuality; fill-rule:evenodd; clip-rule:evenodd"
viewBox="0 0 1300 244"
 xmlns:xlink="http://www.w3.org/1999/xlink">
 <defs>
  <style type="text/css">
   <![CDATA[
    .str0 {stroke:#282828;stroke-width:16.9104}
    .fil0 {fill:#FEFEFE}
    .fil2 {fill:#ACB3AC}
    .fil1 {fill:#282828}
   ]]>
  </style>
 </defs>
 <g id="Camada_x0020_1">
  <metadata id="CorelCorpID_0Corel-Layer"/>
  <g id="_2033893655424">
   <polygon class="fil0 str0" points="8,8 1291,8 1291,236 8,236 "/>
   <polygon class="fil1" points="33,31 1267,31 1267,213 33,213 "/>
   <path class="fil2" d="M33 31l0 182 326 0c21,-26 35,-57 35,-91 0,-33 -14,-64 -35,-91l-326 0z"/>
   <path class="fil0" d="M314 122c0,40 -24,74 -58,91l-102 0c-34,-17 -58,-51 -58,-91 0,0 0,0 0,0 0,-39 24,-74 58,-91l102 0c34,17 58,52 58,91 0,0 0,0 0,0z"/>
   <path class="fil1" d="M293 39c24,22 36,50 36,83 0,33 -11,61 -35,83 -3,3 -6,5 -10,8l-45 0c14,-5 27,-13 39,-23 19,-18 29,-41 29,-68 0,-27 -10,-50 -30,-68 -11,-11 -23,-18 -36,-23l44 0c3,2 6,5 8,8zm-167 174c-3,-2 -6,-5 -9,-8 -24,-23 -36,-51 -36,-83 0,-32 12,-60 36,-83 3,-3 6,-6 9,-8l44 0c-13,5 -26,12 -36,23 -21,19 -31,42 -31,68 0,26 10,49 30,68 12,11 24,18 38,23l-45 0zm61 -102c-3,-7 -8,-10 -14,-10 -11,0 -16,7 -16,21 0,14 5,21 16,21 7,0 13,-3 16,-10l15 7c-7,13 -18,19 -33,19 -11,0 -20,-4 -27,-10 -6,-7 -10,-15 -10,-27 0,-11 4,-20 11,-27 7,-6 15,-9 26,-9 15,0 26,5 33,17l-17 8zm72 0c-3,-7 -8,-10 -14,-10 -11,0 -17,7 -17,21 0,14 6,21 17,21 7,0 12,-3 15,-10l16 7c-7,13 -18,19 -33,19 -11,0 -20,-4 -27,-10 -6,-7 -10,-15 -10,-27 0,-11 4,-20 11,-27 6,-6 15,-9 26,-9 15,0 26,5 33,17l-17 8z"/>
   <path class="fil0" d="M472 112c4,0 7,-1 9,-3 2,-1 3,-4 3,-7 0,-3 -1,-5 -3,-7 -2,-2 -5,-2 -9,-2l-14 0 0 19 14 0zm1 40c5,0 9,-1 11,-3 3,-2 4,-5 4,-9 0,-4 -1,-7 -4,-9 -2,-2 -6,-3 -11,-3l-15 0 0 24 15 0zm23 -33c6,1 10,4 13,8 3,4 4,9 4,15 0,8 -3,15 -9,19 -7,4 -16,7 -29,7l-42 0 0 -91 38 0c13,0 23,2 29,5 6,4 9,10 9,19 0,4 -1,8 -3,11 -2,3 -6,5 -10,7zm15 -42l27 0 22 32 22 -32 28 0 -37 52 0 39 -25 0 0 -39 -37 -52z"/>
  </g>
 </g>
</svg>
