<?xml version="1.0" encoding="UTF-8" standalone="no"?>
<!-- Creator: CorelDRAW X7 -->

<svg
   xml:space="preserve"
   width="17mm"
   height="18mm"
   version="1.1"
   style="clip-rule:evenodd;fill-rule:evenodd;image-rendering:optimizeQuality;shape-rendering:geometricPrecision;text-rendering:geometricPrecision"
   viewBox="0 0 1700.2116 1800.2259"
   id="svg5546"
   sodipodi:docname="ensp.svg"
   inkscape:version="1.1 (1:1.1+202105261517+ce6663b3b7)"
   xmlns:inkscape="http://www.inkscape.org/namespaces/inkscape"
   xmlns:sodipodi="http://sodipodi.sourceforge.net/DTD/sodipodi-0.dtd"
   xmlns="http://www.w3.org/2000/svg"
   xmlns:svg="http://www.w3.org/2000/svg"><sodipodi:namedview
   id="namedview5548"
   pagecolor="#ffffff"
   bordercolor="#666666"
   borderopacity="1.0"
   inkscape:pageshadow="2"
   inkscape:pageopacity="0.0"
   inkscape:pagecheckerboard="0"
   inkscape:document-units="mm"
   showgrid="false"
   inkscape:zoom="2.1496046"
   inkscape:cx="111.18324"
   inkscape:cy="100.25099"
   inkscape:window-width="1680"
   inkscape:window-height="986"
   inkscape:window-x="0"
   inkscape:window-y="27"
   inkscape:window-maximized="1"
   inkscape:current-layer="_1660824352032" />
 <defs
   id="defs36">
  <style
   type="text/css"
   id="style2">
   <![CDATA[
    .str2 {stroke:#E88734;stroke-width:141.127}
    .str4 {stroke:#A6CE53;stroke-width:123.485}
    .str26 {stroke:#373435;stroke-width:21.1726}
    .str18 {stroke:#96989A;stroke-width:26.4533}
    .str3 {stroke:#FEFEFE;stroke-width:105.843}
    .str7 {stroke:black;stroke-width:11.1514}
    .str10 {stroke:black;stroke-width:8.9311}
    .str21 {stroke:#E6E7E8;stroke-width:35.2744}
    .str5 {stroke:#201E1E;stroke-width:35.2744}
    .str22 {stroke:#D2D3D5;stroke-width:20.0025}
    .str27 {stroke:#A9ABAE;stroke-width:20.0025}
    .str25 {stroke:#373435;stroke-width:20.0025}
    .str1 {stroke:#E88734;stroke-width:20.0025}
    .str0 {stroke:#BDBFC1;stroke-width:17.6322}
    .str19 {stroke:#4B4B4D;stroke-width:17.6322}
    .str23 {stroke:#FEFEFE;stroke-width:7.62094}
    .str17 {stroke:#96989A;stroke-width:7.62094}
    .str20 {stroke:#4B4B4D;stroke-width:7.62094}
    .str8 {stroke:black;stroke-width:11.1514;stroke-linejoin:round}
    .str9 {stroke:black;stroke-width:0.0400049;stroke-linecap:round;stroke-linejoin:round}
    .str6 {stroke:#282828;stroke-width:44.2055}
    .str11 {stroke:#373435;stroke-width:18.7423}
    .str13 {stroke:#373435;stroke-width:3.50043}
    .str14 {stroke:#373435;stroke-width:3.51043}
    .str12 {stroke:#373435;stroke-width:1.01012}
    .str15 {stroke:#373435;stroke-width:34.6143}
    .str16 {stroke:#373435;stroke-width:34.6143}
    .str24 {stroke:#FEFEFE;stroke-width:53.0566}
    .fil3 {fill:none}
    .fil23 {fill:none;fill-rule:nonzero}
    .fil20 {fill:#FEFEFE}
    .fil6 {fill:#FEFEFE}
    .fil0 {fill:#E6E7E8}
    .fil30 {fill:#848688}
    .fil34 {fill:#606062}
    .fil31 {fill:#4B4B4D}
    .fil27 {fill:#373435}
    .fil32 {fill:#373435}
    .fil22 {fill:#ACB3AC}
    .fil21 {fill:#282828}
    .fil26 {fill:#201E1E}
    .fil25 {fill:#201E1E}
    .fil11 {fill:#004B92}
    .fil41 {fill:#12AED7}
    .fil38 {fill:#2B5492}
    .fil39 {fill:#2F691D}
    .fil7 {fill:#367372}
    .fil18 {fill:#709D21}
    .fil37 {fill:#8FC73E}
    .fil40 {fill:#A34963}
    .fil43 {fill:#D91F2C}
    .fil19 {fill:#E3F1E0}
    .fil29 {fill:#E88734}
    .fil16 {fill:#EF9E57}
    .fil15 {fill:#EF9E57}
    .fil35 {fill:#F19317}
    .fil9 {fill:#F1F1F1}
    .fil36 {fill:#F3BF07}
    .fil13 {fill:#FDFDFD}
    .fil12 {fill:#FEFEFE}
    .fil5 {fill:#FEFEFE;fill-rule:nonzero}
    .fil17 {fill:#96989A;fill-rule:nonzero}
    .fil2 {fill:#4B4B4D;fill-rule:nonzero}
    .fil14 {fill:#373435;fill-rule:nonzero}
    .fil4 {fill:#373435;fill-rule:nonzero}
    .fil33 {fill:#201E1E;fill-rule:nonzero}
    .fil42 {fill:#D91F2C;fill-rule:nonzero}
    .fil10 {fill:#DADCE0;fill-rule:nonzero}
    .fil1 {fill:#E88734;fill-rule:nonzero}
    .fil24 {fill:black;fill-rule:nonzero}
    .fil28 {fill:white;fill-rule:nonzero}
    .fil8 {fill:#D2D3D5;fill-opacity:0.458824}
   ]]>
  </style>
    <clipPath
   id="id0">
     <path
   d="M 24,2683 H 36167 V 23577 H 24 Z"
   id="path4" />
    </clipPath>
    <mask
   id="id1">
  <linearGradient
   id="id2"
   gradientUnits="userSpaceOnUse"
   x1="-33.794201"
   y1="5327.6299"
   x2="36205.602"
   y2="4090.3">
   <stop
   offset="0"
   style="stop-opacity:1; stop-color:white"
   id="stop7" />
   <stop
   offset="0.980392"
   style="stop-opacity:-95.8784; stop-color:white"
   id="stop9" />
   <stop
   offset="1"
   style="stop-opacity:0; stop-color:white"
   id="stop11" />
  </linearGradient>
     <rect
   style="fill:url(#id2)"
   x="15"
   y="2671"
   width="36142"
   height="4077"
   id="rect14" />
    </mask>
    <mask
   id="id3">
  <linearGradient
   id="id4"
   gradientUnits="userSpaceOnUse"
   x1="15052.7"
   y1="16018.4"
   x2="36353.301"
   y2="15291.1">
   <stop
   offset="0"
   style="stop-opacity:1; stop-color:white"
   id="stop17" />
   <stop
   offset="0.988235"
   style="stop-opacity:-95.8784; stop-color:white"
   id="stop19" />
   <stop
   offset="1"
   style="stop-opacity:0; stop-color:white"
   id="stop21" />
  </linearGradient>
     <rect
   style="fill:url(#id4)"
   x="15244"
   y="9384"
   width="20918"
   height="12542"
   id="rect24" />
    </mask>
    <clipPath
   id="id5">
     <rect
   x="4123"
   y="215"
   width="771"
   height="535"
   id="rect27" />
    </clipPath>
     <clipPath
   id="id6">
      <rect
   x="4123"
   y="215"
   width="771"
   height="535"
   id="rect30" />
     </clipPath>
     <clipPath
   id="id7">
      <path
   d="m 28193,30240 h 7219 v 5816 h -7219 z"
   id="path33" />
     </clipPath>
 </defs>
 <g
   id="Camada_x0020_1"
   inkscape:label="Camada 1"
   inkscape:groupmode="layer">
  <metadata
   id="CorelCorpID_0Corel-Layer" />
  <g
   id="_1660824352032">
   
   
   
   
   
   
   
   
   
   
   
   
   
   
   
   
   
   
   
   
   
   
   
   
   
   
   
   
   
   
   
   
   
   
   
   
   
   
   
   
   
   
   
   
   
   
   
   
   
   
   
   
   
   
   
   
   
   
   
   
   
   
   
   
   
   
   
   
   
   
   
   
   
   
   
   
   
   
   
   
   
   
   
   
   
   
   
   
   
   
   
   
   
   
   
   
   
   
   
   
   
   
   
   
   
   
   
   
   
   
   
   
   
   
   
   
   
   
   
   
   
   
   
   
   
   
   
   
   
   
   
   
   
   
   
   
   
   
   
   
   
   
   
   
   
   
   
   
   
   
   
   
   
   
   
   
   
   
   
   
   
   
   
   
   
   
   
   
   
   
   
   
   
   
   
   
   
   
   
   
   
   
   
   
   
   
   
   
   
   
   
   
   
   
   
   
   
   
   
   
   
   
   
   
   
   
   
   
   
   
   
   
   
   
   
   
   
   
   
   
   
   
   
   
   
   
   
   
   
   
   
   
   
   
   
   
   
   
   
   
   
   
   
   
   
   
   
   
   
   
   
   
   
   
   
   
   
   
   
   
   
   
   
   
   
   
   
   
   
   
   
   
   
   
   
   
   
   
   
   
   
   
   
   
   
   
   
   
   
   
   
   
   
   
   
   
   
   
   
   
   
   
   
   
   
   
   
   
   
   
   
   
   
   
   
   
   
   
   
   
   
   
   
   
   
   
   
   
   
   
   
   
   
   
   
   
   
   
   
   
   
   
   
   
   
   
   
   
   
   
   
   
   
   
   
   
   
   
   
   
   
   
   
   
   
   
   
   
   
   
   
   
   
   
   
   
   
   
   
   
   
   
   
   
   
   
   
   
   
   
   
   
   
   
   
   
   
   
   
   
   
   
   
   
   
   
   
   
   
   
   
   
   
   
   
   
   
   
   
   
   
   
   
   
   
   
   
   
   
   
   
   
   
   
   
   
   
   
   
   
   
   
   
   
   
   
   
   
   
   
   
   
   
   
   
   
   
   
   
   
   
   
   
   
   
   
   
   
   
   
   
   
   
   
   
   
   
   
   
   
   
   
   
   
   
   
   
   
   
   
   
   
   
   
   
   
   
   
   
   
   
   
   
   
   
   
   
   
   
   
   
   
   
   
   
   
   
   
   
   
   
   
   
   
   
   
   
   
   
   
   
   
   
   
   
   
   
   
   
   
   
   
   
   
   
   
   
   
   
   
   
   
   
   
   
   
   
   
   
   
   
   
   
   
   
   
   
   
   
   
   
   
   
   
   
   
   
   
   
   
   
   
   
   
   
   
   
   
   
   
   
   
   
   
   
   
   
   
   
   
   
   
   
   
   
   
   
   
   
   
   
   
   
   
   
   
   
   
   
   
   
   
   
   
   
   
   
   
   
   
   
   
   
   
   
   
   
   
   
   
   
   
   
   
   
   
   
   
   
   
   
   
   
   
   
   
   
   
   
   
   
   
   
   
   
   
   
   
   
   
   
   
   
   
   
   
   
   
   
   
   
   
   
   
   
   
   
   
   
   
   
   
   
   
   
   
   
   
   
   
   
   
   
   
   
   
   
   
   
   
   
   
   
   
   
   
   
   
   
   
   
   
   
   
   
   
   
   
   
   
   
   
   
   
   
   
   
   
   
   
   
   
   
   
   
   
   
   
   
   
   
   
   
   
   
   
   
   
   
   
   
   
   
   
   
   
   
   
   
   
   
   
   
   
   
   
   
   
   
   
   
   
   
   
   
   
   
   
   
   
   
   
   
   
   
   
   
   
   
   
   
   
   
   
   
   
   
   
   
   
   
   
   
   
   
   
   
   
   
   
   
   
   
   
   
   
   
   
   
   
   
   
   
   
   
   
   
   
   
   
   
   
   
   
   
   
   
   
   
   
   
   
   
   
   
   
   
   
   
   
   
   
   
   
   
   
   
   
   
   
   
   
   
   
   
   
   
   
   
   
   
   
   
   
   
   
   
   
   
   
   
   
   
   
   
   
   
   
   
   
   
   
   
   
   
   
   
   
   
   
   
   
   
   
   
   
   
   
   
   
   
   
   
   
   
   
   
   
   
   
   
   
   
   
   
   
   
   
   
   
   
   
   
   
   
   
   
   
   
   
   
   
   
   
   
   
   
   
   
   
   
   
   
   
   
   
   
   
   
   
   
   
   
   
   
   
   
   
   
   
   
   
   
   
   
   
   
   
   
   
   
   
   
   
   
   
   
   
   
   
   
   
   
   
   
   
   
   
   
   
   
   
   
   
   
   
   
   
   
   
   
   
   
   
   
   
   
   
   
   
   
   
   
   
   
   
   
   
   
   
   
   
   
   
   
   
   
   
   
   
   
   
   
   
   
   
   
   
   
   
   
   
   
   
   
   
   
   
   
   
   
   
   
   
   
   
   
   
   
   
   
   
   
   
   
   
   
   
   
   
   
   
   
   
   
   
   
   
   
   
   
   
   
   
   
   
   
   
   
   
   
   
   
   
   
   
   
   
   
   
   
   
   
   
   
   
   
   
   
   
   
   
   
   
   
   
   
   
   
   
   
   
   
   
   
   
   
   
   
   
   
   
   
   
   
   
   
   
   
   
   
   
   
   
   
   
   
   
   
   
   
   
   
   
   
   
   
   
   
   
   
   
   
   
   
   
   
   
   
   
   
   
   
   
   
   
   
   
   
   
   
   
   
   
   
   
   
   
   
   
   
   
   
   
   
   
   
   
   
   
   
   
   
   
   
   
   
   
   
   
   
   
   
   
   
   
   
   
   
   
   
   
   
   
   
   
   
   
   
   
   
   
   
   
   
   
   
   
   
   
   
   
   
   
   
   
   
   
   
   
   
   
   
   
   
   
   
   
   
   
   
   
   
   
   
   
   
   
   
   
   
   
   
   
   
   
   
   
   
   
   
   
   
   
   
   
   
   
   
   
   
   
   
   
   
   
   
   
   
   
   
   
   
   
   
   
   
   
   
   
   
   
   
   
   
   
   
   
   
   
   
   
   
   
   
   
   
   
   
   
   
   
   
   
   
   
   
   
   
   
   
   
   
   
   
   
   
   
   
   
   
   
   
   
   
   
   
   
   
   
   
   
   
   
   
   
   
   
   
   
   
   
   
   
   
   
   
   
   
   
   
   
   
   
   
   
   
   
   
   
   
   
   
   
   
   
   
   
   
   
   
   
   
   
   
   
   
   
   
   
   
   
   
   
   
   
   
   
   
   
   
   
   
   
   
   
   
   
   
   
   
   
   
   
   
   
   
   
   
   
   
   
   
   
   
   
   
   
   
   
   
   
   
   
   
   
   
   
   
   
   
   
   
   
   
   
   
   
   
   
   
   
   
   
   
   
   
   
   
   
   
   
   
   
   
   
   
   
   
   
   
   
   
   
   
   
   
   
   
   
   
   
   
   
   
   
   
   
   
   
   
   
   
   
   
   
   
   
   
   
   
   
   
   
   
   
   
   
   
   
   
   
   
   
   
   
   
   
   
   
   
   
   
   
   
   
   
   
   
   
   
   
   
   
   
   
   
   
   
   
   
   
   
   
   
   
   
   
   
   
   
   
   
   
   
   
   
   
   
   
   
   
   
   
   
   
   
   
   
   
   
   
   
   
   
   
   
   
   
   
   
   
   
   
   
   
   
   
   
   
   
   
   
   
   
   
   
   
   
   
   
   
   
   
   
   
   
   
   
   
   
   
   
   
   
   
   
   
   
   
   
   
   
   
   
   
   
   
   
   
   
   
   
   
   
   
   
   
   
   
   
   
   
   
   
   
   
   
   
   
   
   
   
   
   
   
   
   
   
   
   
   
   
   
   
   
   
   
   
   
   
   
   
   
   
   
   
   
   
   
   
   
   
   
   
   
   
   
   
   
   
   
   
   
   
   
   
   
   
   
   
   
   
   
   
   
   
   
   
   
   
   
   
   
   
   
   
   
   
   
   
   
   
   
   
   
   
   
   
   
   
   
   
   
   
   
   
   
   
   
   
   
   
   
   
   
   
   
   
   
   
   
   
   
   
   
   
   
   
   
   
   
   
   
   
   
   
   
   
   
   
   
   
   
   
   
   
   
   
   
   
   
   
   
   
   
   
   
   
   
   
   
   
   
   
   
   
   
   
   
   
   
   
   
   
   
   
   
   
   
   
   
   
   
   
   
   
   
   
   
   
   
   
   
   
   
   
   
   
   
   
   
   
   
   
   
   
   
   
   
   
   
   
   
   
   
   
   
   
   
   
   
   
   
   
   
   
   
   
   
   
   
   
   
   
   
   
   
   
   
   
   
   
   
   
   
   
   
   
   
   
   
   
   
   
   
   
   
   
   
   
   
   
   
   
   
   
   
   
   
   
   
   
   
   
   
   
   
   
   
   
   
   
   
   
   
   
   
   
   
   
   
   
   
   
   
   
   
   
   
   
   
   
   
   
   
   
   
   
   
   
   
   
   
   
   
   
   
   
   
   
   
   
   
   
   
   
   
   
   
   
   
   
   
   
   
   
   
   
   
   
   
   
   
   
   
   
   
   
   
   
   
   
   
   
   
   
   
   
   
   
   
   
   
   
   
   
   
   
   
   
   
   
   
   
   
   
   
   
   
   
   
   
   
   
   
   
   
   
   
   
   
   
   
   
   
   
   
   
   
   
   
   
   
   
   
   
   
   
   
   
   
   
   
   
   
   
   
   
   
   
   
   
   
   
   
   
   
   
   
   
   
   
   
   
   
   
   
   
   
   
   
   
   
   
   
   
   
   
   
   
   
   
   
   
   
   
   
   
   
   
   
   
   
   
   
   
   
   
   
   
   
   
   
   
   
   
   
   
   
   
   
   
   
   
   
   
   
   
   
   
   
   
   
   
   
   
   
   
   
   
   
   
   
   
   
   
   
   
   
   
   
   
   
   
   
   
   
   
   
   
   
   
   
   
   
   
   
   
   
   
   
   
   
   
   
   
   
   
   
   
   
   
   
   
   
   
   
   
   
   
   
   
   
   
   
   
   
   
   
   
   
   
   
   
   
   
   
   
   
   
   
   
   
   
   
   
   
   
   
   
   
   
   
   
   
   
   
   
   
   
   
   
   
   
   
   
   
   
   
   
   
   
   
   
   
   
   
   
   
   
   
   
   
   
   
   
   
   
   
   
   
   
   
   
   
   
   
   
   
   
   
   
   
   
   
   
   
   
   
   
   
   
   
   
   
   
   
   
   
   
   
   
   
   
   
   
   
   
   
   
   
   
   
   
   
   
   
   
   
   
   
   
   
   
   
   
   
   
   
   
   
   
   
   
   
   
   
   
   
   
   
   
   
   
   
   
   
   
   
   
   
   
   
   
   
   
   
   
   
   
   
   
   
   
   
   
   
   
   
   
   
   
   
   
   
   
   
   
   
   
   
   
   
   
   
   
   
   
   <path
   class="fil26"
   d="m 482.5175,1670.5168 c 5,0 8,-1 10,-2 1,-2 2,-5 3,-10 h 6 v 72 h -6 c -1,-5 -2,-8 -4,-10 -1,-2 -4,-2 -9,-2 H 276.51787 v -7 c 4,-1 7,-3 8,-5 2,-2 2,-5 2,-10 v -222 c 0,-5 0,-8 -2,-10 -1,-2 -4,-3 -8,-4 v -7 H 480.5175 c 4,0 7,-1 9,-2 1,-2 2,-5 3,-10 h 6 v 72 h -6 c 0,-5 -2,-8 -3,-10 -2,-2 -4,-2 -7,-2 h -2 -143.99991 v 58 h 91.99994 c 4,0 7,-1 9,-3 1,-1 2,-4 4,-10 h 5 v 67 h -5 c -1,-4 -3,-8 -4,-9 -2,-2 -5,-3 -9,-3 h -91.99994 v 69 z m 143.99994,-132 v 158 c 0,6 1,9 2,11 1.99997,1 3.99997,3 8.99997,4 v 7 h -64.99994 v -7 c 4,-1 6.99997,-3 7.99997,-5 2,-2 2,-5 2,-10 v -222 c 0,-5 0,-8 -2,-10 -1,-2 -3.99997,-3 -7.99997,-4 v -7 h 80.99994 v 7 c -2,0 -4,1 -5,2 -1,2 -2,3 -2,5 0,2 0,4 1,6 1,2 3,4 5,6 l 123.99994,146 v -151 c 0,-5 -1,-8 -2,-10 -2,-1 -5,-3 -9,-4 v -7 h 64.99997 v 7 c -5,1 -7,3 -9,5 -1,2 -2,5 -2,9 v 222 c 0,5 1,9 2,11 2,2 5,3 9,4 v 7 h -74.99997 v -7 c 2,-1 4,-1 5,-3 1,-1 2,-3 2,-4 0,-2 0,-4 -1,-6 -1,-2 -3,-4 -5,-6 z m 270.99952,159 24,-63 7,3 c 0,1 0,1 0,2 0,1 -1,3 -1,4 0,6 10,13 27.99993,21 19,8 38,12 57.00001,12 18,0 33,-4 44,-10 11,-7 17,-16 17,-26 0,-17 -19,-26 -57,-28 -14,0 -26.00001,-1 -33.00001,-2 -28,-3 -47.99993,-10 -61.99993,-23 -13,-12 -20,-28 -20,-50 0,-26 10,-47 29,-63 19.99993,-16 44.99993,-24 76.99994,-24 26,0 55,8 86,23 8,4 13,6 14,6 1,0 2,0 4,-1 1,0 2,-2 5,-4 l 5,3 -28,63 -7,-5 c 0,0 0,0 0,-1 0,0 0,0 0,-1 0,-8 -8,-16 -26,-25 -17,-9 -35,-13 -54,-13 -17.00001,0 -30.00001,3 -40.00001,9 -11,6 -16,14 -16,23 0,14 17,23 49,25 17.00001,1 31.00001,3 41.00001,4 27,4 48,13 63,26 14,14 21,31 21,53 0,25 -10,46 -31,62 -22,17 -49,25 -82,25 -32.00001,0 -62.00001,-8 -90.99994,-24 -6,-3 -9,-4 -10,-4 -2,0 -3,0 -4,1 -1,1 -1,2 -2,4 z m 292.99994,21 v -7 c 5,-1 7,-2 9,-4 1,-2 2,-6 2,-11 v -222 c 0,-4 -1,-7 -2,-9 -1,-2 -4,-4 -9,-5 v -7 h 141 c 29,0 51.9997,7 68.9997,20 16,14 24,33 24,57 0,24 -8,44 -23,58 -16,14 -36.9997,21 -64.9997,21 h -85 v 87 c 0,5 1,9 2,11 1,1 4,3 9,4 v 7 z m 126,-220 h -65 v 66 h 67 c 20,0 35,-2 44,-8 9,-5 13.9997,-14 13.9997,-26 0,-11 -3.9997,-20 -13.9997,-25 -9,-5 -24,-7 -46,-7 z"
   id="path4530" />
   <path
   class="fil26"
   d="m 758.51735,830.51722 1,-10 2,-11 2,-11 3,-10.99967 3,-11 4,-11 4,-12 4,-11 5,-10.99997 4.99997,-11 5,-11 6,-11 6,-10 6,-9.99997 6,-10 6,-9 7,-8 6,-8 5.99967,-7 7,-6.99997 6,-6 7,-5 7,-4 6,-3 7,-2 6,-1 h 5.99997 l 6,2 6,2 6,4 5,5 5,7 -1,9.99997 -2,11 -2,10 -1,11 -2,10 -2,10.99997 -2,10 -3,11 -2,10 -3,10 -2,9.99997 -3,10 -3,11 -3,9 -2.99997,10 -4,9.99967 -3,9 -4,10 -3,9 -4,9 -4,9 -4,8.99997 -4,9 -5,8 -5,9 -4,8 -4.9997,8 -4.99997,7.99997 -5,7 -5,7 -6,8 -5,7 -4,-3 -3,-4 -5,-5 -4,-5 -5,-6 -4,-6 -4.99997,-6.99997 -4,-7 -5,-7 -4,-8 -4,-7 -3,-7 -3,-7 -3,-6 -1,-5.99997 z m -465.99948,54.99997 2,-14 3,-15 5,-15 5,-14.99997 7.00002,-15 6.9997,-15 8,-13.99967 8,-12 9,-11 9,-10 9,-7 8.99997,-5 9,-2.99997 9,0.99997 7,4 7,8 -2,14 -2,14 -3,13.99997 -3,13.9997 -4,14 -4,13 -4,13.99997 -4,13 -5,13 -6,12 -4.99997,11.99997 -6,12 -7,11 -6,11 -7,11 -7,9.99997 -5,-5.99997 -5,-8 -5.9997,-9 -6.00002,-9 -6,-10 -5,-9 -3,-6.99997 z m 884.99903,316.99991 1,-9 v -9 l 1,-9 1,-10 1,-8 1,-9 1,-9 2,-9 1,-8 2,-9 2,-9 1,-8 2,-9 2,-8 2,-8 2,-9 2,-8 3,-8 2,-8 2,-8 3,-8 3,-9 2,-8 3,-6.99997 3,-9 3,-8 3,-8 3,-8 3,-8 3,-7 3,-8.99997 4,-8 4,8 4,7.99997 4,8 4,8 6,8 6,7 7,8 8,7 4,-1 4,-1 5,-1 4,-1 4,-1 4,-1 4,-1 4,-1 4,-1 4,-1 4,-1 4,-1 4,-1 4,-1 5,-1 4,-1 1,-13 3,-11 3,-11.99997 3,-11 4,-11 4,-10 3.9997,-11 5,-10.99997 5,-12 5,-12 5,-13 5,-13.99997 5,-15 5,-16 4,-16.9997 5,-18.99997 6,11 5,11.99967 5,12 5,12 4,12 5,11.99997 4,12 4,13 4,13 3,13 4,12.99997 3,13 3,14 3,13 3,13.99997 3,14 2,13 3,13.99997 2,13 2,14 2,14 2,14 2,14 2,14 2,13 1,14 2,14 2,13 1,13 2,14 1,13 2,13 2,15 7,10 9,7 11,2 10,-2 10,-4 6,-8 3,-10 -2,-16 -2,-15 -2,-16 -2,-15 -2,-16 -3,-15 -2,-15 -3,-16 -3,-15 -3,-16 -3,-15 -3,-15 -4,-16 -3,-14.99997 -4,-15 -4,-15 -4,-14.99997 -4,-15 -4,-15 -5,-15 -5,-14.99997 -4,-14 -5,-15 -5,-14.99997 -6,-14 -5,-14 -6,-15 -6,-13.99967 -5,-14 -7,-14 -6,-14 -6,-12.99997 v -16 -15 l 1,-16.99997 2,-16 1,-18 2,-16.99997 2,-17 2,-17 2,-16.99997 3,-17 2,-15 3,-16 3,-14.99997 3,-13 3,-13 3,-12 1,-3.99997 v -4 l 1,-4 v -4 -3 -4 l 1,-3 v -3 l -30,93.99994 -7,-8 7,-24.99997 14,-87.99994 -3,8.99997 -3,9 -2,9 -3,9 -2,9 -3,8.99997 -2,9 -3,10 -2,9 -2,9 -2,9 -3,8.99997 -2,10 -2,9 -2,9 -1,10 -3,9 -2,8.99997 -1,9 -2,10 -2,9 -2,9 -2,10 -1,8.99997 -2,10 -2,9 -2,10 -1,9 -2,9.99997 -2,9 -2,10 -1,9 -9,-4 -8,-4 -8.9997,-1 -8,-1 -9,1 -8,3 -10,3 -9,4 -9,6 -9,6 -10,7.99997 -9,8 -10,9 -10,9 -11,11 -11,10 -3,-9 -3,-9 -4,-9 -3,-9 -2,-9 -3,-7.99997 -3,-9 -2,-8 -3,-9 -3,-10 -3,-9 -3,-9.99997 -3,-11 -3,-11 -4,-11 -3,-12.99997 -7,-7 -7,-4 -7,-1 -6,1 -6,2 -5,4 -4,6 -3,5.99997 2,15 2,15 3,16 3,15.99997 3,16 4,16 4,16.99997 4,16 4,15 5,15.99967 4,14 5,14 4,14 4,11.99997 5,10 4,10 -5,11 -4,11 -5,10.99997 -5,10 -4,11 -5,11 -4,10 -4,10.99997 -5,10 -4,11 -4,10 -4,11 -4,9.99997 -5,10 -3,11 -4,10 -3,-14 -3,-14 -3,-14.99997 -3,-14 -4,-14 -3,-14 -4,-13.99997 -3,-14 -4,-14 -4,-14 -4,-14.99997 -4,-14 -4,-14 -4,-13.99997 -4,-13 -5,-14 -4,-15 -5,-12.99967 -4,-14 -5,-14 -5,-14 -5,-12.99997 -5,-13 -5,-14 -6,-13 -5,-13.99997 -6,-13 -6,-13 -5,-13 -6,-13.99997 -6,-12 -6,-13 v -11 -10.99997 -11 -12 l 1,-12 1,-12 V 514.5177 l 1,-12 1,-13 1,-13 1,-12.99997 2,-13 1,-13 2,-13 1,-12.99997 2,-12 1,-13 2,-13 2,-12.99997 2,-12 2,-12 2,-12 1,-12 2,-10.99997 2,-11 3,-11 2,-10 1,-9.9997 2,-9.99997 2,-8 2,-9 2,-8 2,-8 1,-7 1,-6.99997 -1,-5 v -5 -4 -4 l 1,-3 -43,133.99961 -9.00001,-12.99997 5.00001,-37 26,-128.99961 -4,14 -4,13.99997 -4,13 -4,13 -4,14 -4,13.99997 -3,13 -4.00001,14 -3,13.99997 -4,12.9997 -3,14 -3,14 -3,13.99997 -3,13 -3,14 -3,14 -3,13.99997 -3,14 -3,13 -2,15 -3,13.99997 -3,13 -2,14 -3,14 -3,13.99997 -1.99993,15 -3,14 -2,14 -3,13.99997 -2,14 -3,14 -3,13.99997 -13,-6.99997 -14,-5 -12.99997,-2 h -13 l -13,1 -13,4 -12.99967,6 -13,6.99997 -14,8 -13,10 -13.99997,11 -15,13 -15,12.99997 -15,14 -16.99997,15 -17,15.99997 -5,-14.99997 -4,-13 -4,-14 -5,-12.99997 -4,-13 -3.99997,-13 -4,-13 -4,-12.99997 -4,-13 -4,-14 -4,-15 -5,-14.99997 -5,-16 -5,-17 -6,-17.99997 -6,-20 -7.99997,-9 -10,-5 -9,-2 -10,2 -9,4 -8,7 -5.99997,8 -5,10 2,10.99997 1,11 2,11 2,11 2,12 1.99997,10.99997 2,12 2,12 3,12 2,11.99997 3,12 3,12 2,12 3,12 4,11.99997 3,12 3,11 3,12 3,10.99997 3,11 4,11 3,11 4,10 2.99997,9.99997 4,10 3,10 4,9 3,9 4,9 3,7.99967 4,7 3,7 -7,17 -7,16 -7,15.99997 -7,16 -5.99997,16 -7,15.99997 -6,16 -7,16 -6,14.99997 -6,17 -6,15 -6,16 -5.99997,15.99997 -5,15 -6,17 -5,15 -2,-11 -2,-11 -2,-11 -2,-11 -3,-11 -2,-10.99997 -2,-11 -3,-10 -2,-11 -3,-11 -3,-10.99997 -3,-10 -3,-11 -3,-11 -2.99997,-11 -3,-9.99997 -3,-11 -4,-10 -3,-11 -4,-10 -3,-10.99997 -4,-10 -4,-10 -4,-11 -4,-10 -4,-9.99967 -4,-10 -5,-10 -3.99997,-11 -4,-9 -5,-9.99997 -5,-10 v -16 l 1,-16 1,-15.99997 1,-17 1,-17 2,-17.99997 2,-17 2,-17 2,-16.99997 3,-17 1.99997,-16 3,-15 3,-14.99997 3,-13 2,-13 3,-11 1,-3.99997 1,-4 v -4 l 1,-4 -1,-3 v -4 -3 -3 l -27.99997,93.99994 -7,-8 4,-24.99997 18.99997,-87.99994 -3,8.99997 -2.99997,9 -3,9 -3,9 -3,9 -3,8.99997 -2,9 -3,10 -2,9 -3,9 -2,9 -2,8.99997 -2,10 -2,9 -2,9 -2,10 -2,9 -2,8.99997 -2,9 -2,10 -2,9 -1,9 -2,10 -2,8.99997 -2,10 -0.99997,9 -2,10 -2,9 -2,9.99997 -2,9 -1,10 -3,9 -9,-4 -8,-4 -9,-1 -9,-1 -7.99997,1 -8,3 -9,3 -9,4 -9,6 -9,6 -8.99972,7.99997 -10,8 -9,9 -10,9 -11,11 -10,10 -4,-9 -4,-9 -3,-9 -3,-9 -3,-9 -4,-7.99997 -2,-9 -3,-8 -3,-9 -3,-10 -3,-9 -3,-9.99997 -3,-11 -3,-11 -4,-11 -4,-12.99997 -6,-7 -6,-4 -6,-1 -7,1 -5,2 -6,4 -4,6 -3,5.99997 2,15 2,15 2,16 3,15.99997 4,16 4,16 4,16.99997 4,16 5,15 4,15.99967 5,14 5,14 5,14 4,11.99997 5,10 5,10 -5,11 -4,9 -4,9.99997 -5,11 -4,10 -4,9 -4,10 -4,9.99997 -4,10 -4,10 -4,9 -4,10 -4,10 -3,9.99997 -4,10 -3,10 -3,10 -4,10 -2,10 -4,10 -2,10 -3,10 -2,11 -3,10 -2,11 -2,11 -1,11 -2,11 -1,11 -2,11 v 12 l -1,12 2,14 4,11 5,8 8,5 8,1 10,-3 11,-7 11,-11 v -9 l 1,-10 v -9 l 1,-10 1,-9 2,-10 1,-9 1,-9 1,-9 2,-9 2,-9 2,-9 1,-9 3,-9 2,-9 2,-8 2,-9 3,-9 2,-8 3,-9 2,-8 2,-9 3,-8 3,-9 3,-7.99997 3,-9 3,-8 3,-8 3,-9 3,-8 3,-7.99997 3,-9 4,8 4,7.99997 4,8 5,8 5,8 6,7 6,8 6,7 5,-1 5,-1 5,-1 5.00002,-1 3.9997,-1 5,-1 5,-1 4,-1 4,-1 4,-1 4,-1 5,-1 4,-1 5,-1 4,-1 4.99997,-1 1,-13 2,-11 2,-11.99997 3,-11 3,-11 4,-10 4,-11 5,-10.99997 4,-12 5,-12 5,-13 5,-13.99997 4,-15 4.99997,-16 5,-16.9997 4,-18.99997 5,11 6,11.99967 6,12 5,12 5,12 4,11.99997 4,12 4,13 3.99997,13 4,13 3,12.99997 4,13 3,14 3,13 3,13.99997 3,14 2,13 2,13.99997 3,13 2,14 2,14 1,14 3,14 1,14 2,13 1,14 2,14 1,13 2,13 1,14 1,13 1,13 v 2 2 2 l 1,2 v 2 l 1,2 0.99997,1 1,2 -1,5 -0.99997,7 -1,5 -1,6 -1,6 v 5 l -1,6 -1,6 v 6 l -1,6 v 5 l -1,6 v 6 7 6 6 11 l 2,9.9997 3,9 3.99997,8 4,6 5,6 5,4 7,3 6,1 7,1 7,-2 7,-2 7.99997,-5 7,-5 7,-7 7,-10 1,-13.9997 1,-15 1,-14 1,-14 2,-15 2,-14 1,-14 2,-13 2,-14 2,-14 3,-13 3,-13 3,-14 2,-13 2.99997,-13 4,-13 3,-13 4,-13 3,-12 4,-13 4,-13 4,-13 4,-12 4,-12 4,-12.99997 4,-12 5,-12 3.99997,-13 5,-11.99997 5,-12 4,-12 5,-12 3,5 4,5 3,6 3,6 3,5 3,6 4,5.99997 3,6 4,6 3.99997,6 5,6 4,6 5,5 5,6 6,5 5,5.99997 7,-1.99997 7,-2 7,-1 6.99997,-2 7,-1 6,-2 7,-2 6,-1 7,-1 7,-2 6,-1 5.99967,-2 6,-1 7,-2 6,-2 7,-1 1,-9 1,-9 1,-9 1,-7.99997 2,-9 2,-8 2,-8 3,-8 2,-8 3,-8.99997 2,-7 2.99997,-9 3,-8 4,-8 3,-9 3,-8 3,-8.99997 4,-9 4,-9 3,-9 4,-10 4,-9.99967 3,-10 4,-11 4,-12 3,-11 3.99993,-11.99997 3,-13 4,-13 3,-14 3,-14.99997 4,-14 8,17 8,16.99997 8,19 7,18 7.00001,17.99997 7,19 6,19 6,18.99967 6,19 5,19.99997 5,20 5,20 5,19.99997 4,21 5,20 4,20.99997 3,20 4,19.99997 3,21 3,21 3,21 3,20 3,21 2,21 3,20 2,21 3,20 2,20 2,20 2,21 2,19 3,20 v 12 l 2,10 5,8.9997 5,6 7,6 7,4 9,2 8,1 h 8 l 9,-2 8,-3 7,-4 5,-6 5,-6 3,-7.9997 1,-9 -1,-6 -1,-7 -1,-6 -1,-6 -1,-7 v -6 l -2,-6 v -7 l -1,-6 -1,-7 -1,-6 -1,-7 -1,-6 -1,-6 -1,-7 z m 105,-316.99991 2,-14 3,-15 4,-15 5,-14.99997 6,-15 8,-15 8,-13.99967 8,-12 8,-11 9,-10 9,-7 9,-5 8,-2.99997 7.9997,0.99997 8,4 6,8 -2,14 -2,14 -2,13.99997 -3,13.9997 -3,14 -4,13 -3.9997,13.99997 -4,13 -4,13 -5,12 -6,11.99997 -5,12 -7,11 -7,11 -7,11 -7,9.99997 -5,-5.99997 -5,-8 -6,-9 -5,-9 -6,-10 -5,-9 -3,-6.99997 z m -971.99903,-429.99946 10.99972,3 10,4 9,6 8,6.99997 6,8 4,8 2,9 v 10 l -2,8 -4,7.99997 -6,6 -8,6 -9,4 -10,3 -10.99972,2 -12,1 -11,-2 -10,-4 -9,-6 -8,-7 -6,-7.99997 -4,-8 -2,-9 v -10 l 2,-9 4,-7 6,-7 8,-5.99997 9,-5 10,-3 11,-2 z m 474.99948,-261.99955 7.99997,1 8,2 8,3 7,3 7,3.99997 6,4 6,5 5.99997,5 4.9997,6 4,6 3,6 3,7 2,6 1,7 1,6.99967 -1,7 -1,6 -2,6 -3,6 -3,6 -5,5 -4.99967,5 -5,5 -6,3.99997 -7,4 -7,3 -8,2 -7,3 -9,1 -7.99997,1 h -9 -9 l -8,-2 -8,-2 -7,-2 -7.99997,-3 -6,-4 -7,-4 -6,-4.99997 -5,-5 -5,-5 -4,-6 -4,-6 -3,-6 -2,-7 v -6 l -1,-6.9997 1,-6.99997 1,-7 2,-6 2,-6 4,-6 4,-5 4,-5 6,-5 6,-4 6,-2.99997 7,-4 7.99997,-2 8,-3 8,-1 9,-2 h 9 z m 512.99955,261.99955 11,3 10,4 9,6 8,6.99997 7,8 4,8 3,9 1,10 -2,8 -5,7.99997 -6,6 -8,6 -10,4 -10,3 -11,2 -12,1 -11,-2 -11,-4 -9,-6 -8,-7 -7,-7.99997 -4,-8 -2,-9 1,-10 2,-9 5,-7 6,-7 7,-5.99997 9,-5 10,-3 11,-2 z"
   id="path4532" />
   
   
   
   
   
   
   
   
   
   
   
   
   
   
   
   
   
   
   
   
   
   
   
   
   
   
   
   
   
   
   
   
   
   
   
   
   
   
   
   
   
   
   
   
   
   
   
   
   
   
   
   
   
   
   
   
   
   
   
   
   
   
   
   
   
   
   
   
   
   
   
   
   
   
   
   
   
   
   
   
   
   
   
   
   
   
   
   
   
   
   
   
   
   
   
   
   
   
   
   
   
   
   
   
   
   
   
   
   
   
   
   
   
   
   
   
   
   
   
   
   
   
   
   
   
   
   
   
   
   
   
   
   
   
   
   
   
   
   
   
   
   
   
   
   
   
   
   
   
   
   
   
   
   
   
   
   
   
   
   
   
   
   
   
   
   
   
   
   
   
   
   
   
   
   
   
   
   
   
   
   
   
   
   
   
   
   
   
   
   
   
   
   
   
   
   
   
   
   
   
   
   
   
   
   
   
   
   
   
   
   
   
   
   
   
   
   
   
   
   
   
   
   
   
   
   
   
   
   
   
   
   
   
   
   
   
   
   
   
   
   
   
   
   
   
   
   
   
   
   
   
   
   
   
   
   
   
   
   
   
   
   
   
   
   
   
   
   
   
   
   
   
   
   
   
   
   
   
   
   
   
   
   
   
   
   
   
   
   
   
   
   
   
   
   
   
   
   
   
   
   
   
   
   
   
   
   
   
   
   
   
   
   
   
   
   
   
   
   
   
   
   
   
   
   
   
   
   
   
   
   
   
   
   
   
   
   
   
  </g>
 </g>
</svg>
