<?xml version="1.0" encoding="UTF-8" standalone="no"?>
<!-- Creator: CorelDRAW X7 -->

<svg
   xml:space="preserve"
   width="89mm"
   height="19mm"
   version="1.1"
   style="clip-rule:evenodd;fill-rule:evenodd;image-rendering:optimizeQuality;shape-rendering:geometricPrecision;text-rendering:geometricPrecision"
   viewBox="0 0 8901.1076 1900.2384"
   id="svg5546"
   sodipodi:docname="ensp-header.svg"
   inkscape:version="1.1 (1:1.1+202105261517+ce6663b3b7)"
   xmlns:inkscape="http://www.inkscape.org/namespaces/inkscape"
   xmlns:sodipodi="http://sodipodi.sourceforge.net/DTD/sodipodi-0.dtd"
   xmlns="http://www.w3.org/2000/svg"
   xmlns:svg="http://www.w3.org/2000/svg"><sodipodi:namedview
   id="namedview5548"
   pagecolor="#ffffff"
   bordercolor="#666666"
   borderopacity="1.0"
   inkscape:pageshadow="2"
   inkscape:pageopacity="0.0"
   inkscape:pagecheckerboard="0"
   inkscape:document-units="mm"
   showgrid="false"
   width="100mm"
   inkscape:zoom="1.6569949"
   inkscape:cx="193.72419"
   inkscape:cy="186.78392"
   inkscape:window-width="1680"
   inkscape:window-height="986"
   inkscape:window-x="0"
   inkscape:window-y="27"
   inkscape:window-maximized="1"
   inkscape:current-layer="Camada_x0020_1" />
 <defs
   id="defs36">
  <style
   type="text/css"
   id="style2">
   <![CDATA[
    .str2 {stroke:#E88734;stroke-width:141.127}
    .str4 {stroke:#A6CE53;stroke-width:123.485}
    .str26 {stroke:#373435;stroke-width:21.1726}
    .str18 {stroke:#96989A;stroke-width:26.4533}
    .str3 {stroke:#FEFEFE;stroke-width:105.843}
    .str7 {stroke:black;stroke-width:11.1514}
    .str10 {stroke:black;stroke-width:8.9311}
    .str21 {stroke:#E6E7E8;stroke-width:35.2744}
    .str5 {stroke:#201E1E;stroke-width:35.2744}
    .str22 {stroke:#D2D3D5;stroke-width:20.0025}
    .str27 {stroke:#A9ABAE;stroke-width:20.0025}
    .str25 {stroke:#373435;stroke-width:20.0025}
    .str1 {stroke:#E88734;stroke-width:20.0025}
    .str0 {stroke:#BDBFC1;stroke-width:17.6322}
    .str19 {stroke:#4B4B4D;stroke-width:17.6322}
    .str23 {stroke:#FEFEFE;stroke-width:7.62094}
    .str17 {stroke:#96989A;stroke-width:7.62094}
    .str20 {stroke:#4B4B4D;stroke-width:7.62094}
    .str8 {stroke:black;stroke-width:11.1514;stroke-linejoin:round}
    .str9 {stroke:black;stroke-width:0.0400049;stroke-linecap:round;stroke-linejoin:round}
    .str6 {stroke:#282828;stroke-width:44.2055}
    .str11 {stroke:#373435;stroke-width:18.7423}
    .str13 {stroke:#373435;stroke-width:3.50043}
    .str14 {stroke:#373435;stroke-width:3.51043}
    .str12 {stroke:#373435;stroke-width:1.01012}
    .str15 {stroke:#373435;stroke-width:34.6143}
    .str16 {stroke:#373435;stroke-width:34.6143}
    .str24 {stroke:#FEFEFE;stroke-width:53.0566}
    .fil3 {fill:none}
    .fil23 {fill:none;fill-rule:nonzero}
    .fil20 {fill:#FEFEFE}
    .fil6 {fill:#FEFEFE}
    .fil0 {fill:#E6E7E8}
    .fil30 {fill:#848688}
    .fil34 {fill:#606062}
    .fil31 {fill:#4B4B4D}
    .fil27 {fill:#373435}
    .fil32 {fill:#373435}
    .fil22 {fill:#ACB3AC}
    .fil21 {fill:#282828}
    .fil26 {fill:#201E1E}
    .fil25 {fill:#201E1E}
    .fil11 {fill:#004B92}
    .fil41 {fill:#12AED7}
    .fil38 {fill:#2B5492}
    .fil39 {fill:#2F691D}
    .fil7 {fill:#367372}
    .fil18 {fill:#709D21}
    .fil37 {fill:#8FC73E}
    .fil40 {fill:#A34963}
    .fil43 {fill:#D91F2C}
    .fil19 {fill:#E3F1E0}
    .fil29 {fill:#E88734}
    .fil16 {fill:#EF9E57}
    .fil15 {fill:#EF9E57}
    .fil35 {fill:#F19317}
    .fil9 {fill:#F1F1F1}
    .fil36 {fill:#F3BF07}
    .fil13 {fill:#FDFDFD}
    .fil12 {fill:#FEFEFE}
    .fil5 {fill:#FEFEFE;fill-rule:nonzero}
    .fil17 {fill:#96989A;fill-rule:nonzero}
    .fil2 {fill:#4B4B4D;fill-rule:nonzero}
    .fil14 {fill:#373435;fill-rule:nonzero}
    .fil4 {fill:#373435;fill-rule:nonzero}
    .fil33 {fill:#201E1E;fill-rule:nonzero}
    .fil42 {fill:#D91F2C;fill-rule:nonzero}
    .fil10 {fill:#DADCE0;fill-rule:nonzero}
    .fil1 {fill:#E88734;fill-rule:nonzero}
    .fil24 {fill:black;fill-rule:nonzero}
    .fil28 {fill:white;fill-rule:nonzero}
    .fil8 {fill:#D2D3D5;fill-opacity:0.458824}
   ]]>
  </style>
    <clipPath
   id="id0">
     <path
   d="M 24,2683 H 36167 V 23577 H 24 Z"
   id="path4" />
    </clipPath>
    <mask
   id="id1">
  <linearGradient
   id="id2"
   gradientUnits="userSpaceOnUse"
   x1="-33.794201"
   y1="5327.6299"
   x2="36205.602"
   y2="4090.3">
   <stop
   offset="0"
   style="stop-opacity:1; stop-color:white"
   id="stop7" />
   <stop
   offset="0.980392"
   style="stop-opacity:-95.8784; stop-color:white"
   id="stop9" />
   <stop
   offset="1"
   style="stop-opacity:0; stop-color:white"
   id="stop11" />
  </linearGradient>
     <rect
   style="fill:url(#id2)"
   x="15"
   y="2671"
   width="36142"
   height="4077"
   id="rect14" />
    </mask>
    <mask
   id="id3">
  <linearGradient
   id="id4"
   gradientUnits="userSpaceOnUse"
   x1="15052.7"
   y1="16018.4"
   x2="36353.301"
   y2="15291.1">
   <stop
   offset="0"
   style="stop-opacity:1; stop-color:white"
   id="stop17" />
   <stop
   offset="0.988235"
   style="stop-opacity:-95.8784; stop-color:white"
   id="stop19" />
   <stop
   offset="1"
   style="stop-opacity:0; stop-color:white"
   id="stop21" />
  </linearGradient>
     <rect
   style="fill:url(#id4)"
   x="15244"
   y="9384"
   width="20918"
   height="12542"
   id="rect24" />
    </mask>
    <clipPath
   id="id5">
     <rect
   x="4123"
   y="215"
   width="771"
   height="535"
   id="rect27" />
    </clipPath>
     <clipPath
   id="id6">
      <rect
   x="4123"
   y="215"
   width="771"
   height="535"
   id="rect30" />
     </clipPath>
     <clipPath
   id="id7">
      <path
   d="m 28193,30240 h 7219 v 5816 h -7219 z"
   id="path33" />
     </clipPath>
 </defs>
 <g
   id="Camada_x0020_1"
   inkscape:label="Camada 1"
   inkscape:groupmode="layer">
  <metadata
   id="CorelCorpID_0Corel-Layer" />
  <g
   id="_1660824352032"
   transform="translate(-2.6057665e-7,-1005.5421)">
   
   
   
   
   
   
   
   
   
   
   
   
   
   
   
   
   
   
   
   
   
   
   
   
   
   
   
   
   
   
   
   
   
   
   
   
   
   
   
   
   
   
   
   
   
   
   
   
   
   
   
   
   
   
   
   
   
   
   
   
   
   
   
   
   
   
   
   
   
   
   
   
   
   
   
   
   
   
   
   
   
   
   
   
   
   
   
   
   
   
   
   
   
   
   
   
   
   
   
   
   
   
   
   
   
   
   
   
   
   
   
   
   
   
   
   
   
   
   
   
   
   
   
   
   
   
   
   
   
   
   
   
   
   
   
   
   
   
   
   
   
   
   
   
   
   
   
   
   
   
   
   
   
   
   
   
   
   
   
   
   
   
   
   
   
   
   
   
   
   
   
   
   
   
   
   
   
   
   
   
   
   
   
   
   
   
   
   
   
   
   
   
   
   
   
   
   
   
   
   
   
   
   
   
   
   
   
   
   
   
   
   
   
   
   
   
   
   
   
   
   
   
   
   
   
   
   
   
   
   
   
   
   
   
   
   
   
   
   
   
   
   
   
   
   
   
   
   
   
   
   
   
   
   
   
   
   
   
   
   
   
   
   
   
   
   
   
   
   
   
   
   
   
   
   
   
   
   
   
   
   
   
   
   
   
   
   
   
   
   
   
   
   
   
   
   
   
   
   
   
   
   
   
   
   
   
   
   
   
   
   
   
   
   
   
   
   
   
   
   
   
   
   
   
   
   
   
   
   
   
   
   
   
   
   
   
   
   
   
   
   
   
   
   
   
   
   
   
   
   
   
   
   
   
   
   
   
   
   
   
   
   
   
   
   
   
   
   
   
   
   
   
   
   
   
   
   
   
   
   
   
   
   
   
   
   
   
   
   
   
   
   
   
   
   
   
   
   
   
   
   
   
   
   
   
   
   
   
   
   
   
   
   
   
   
   
   
   
   
   
   
   
   
   
   
   
   
   
   
   
   
   
   
   
   
   
   
   
   
   
   
   
   
   
   
   
   
   
   
   
   
   
   
   
   
   
   
   
   
   
   
   
   
   
   
   
   
   
   
   
   
   
   
   
   
   
   
   
   
   
   
   
   
   
   
   
   
   
   
   
   
   
   
   
   
   
   
   
   
   
   
   
   
   
   
   
   
   
   
   
   
   
   
   
   
   
   
   
   
   
   
   
   
   
   
   
   
   
   
   
   
   
   
   
   
   
   
   
   
   
   
   
   
   
   
   
   
   
   
   
   
   
   
   
   
   
   
   
   
   
   
   
   
   
   
   
   
   
   
   
   
   
   
   
   
   
   
   
   
   
   
   
   
   
   
   
   
   
   
   
   
   
   
   
   
   
   
   
   
   
   
   
   
   
   
   
   
   
   
   
   
   
   
   
   
   
   
   
   
   
   
   
   
   
   
   
   
   
   
   
   
   
   
   
   
   
   
   
   
   
   
   
   
   
   
   
   
   
   
   
   
   
   
   
   
   
   
   
   
   
   
   
   
   
   
   
   
   
   
   
   
   
   
   
   
   
   
   
   
   
   
   
   
   
   
   
   
   
   
   
   
   
   
   
   
   
   
   
   
   
   
   
   
   
   
   
   
   
   
   
   
   
   
   
   
   
   
   
   
   
   
   
   
   
   
   
   
   
   
   
   
   
   
   
   
   
   
   
   
   
   
   
   
   
   
   
   
   
   
   
   
   
   
   
   
   
   
   
   
   
   
   
   
   
   
   
   
   
   
   
   
   
   
   
   
   
   
   
   
   
   
   
   
   
   
   
   
   
   
   
   
   
   
   
   
   
   
   
   
   
   
   
   
   
   
   
   
   
   
   
   
   
   
   
   
   
   
   
   
   
   
   
   
   
   
   
   
   
   
   
   
   
   
   
   
   
   
   
   
   
   
   
   
   
   
   
   
   
   
   
   
   
   
   
   
   
   
   
   
   
   
   
   
   
   
   
   
   
   
   
   
   
   
   
   
   
   
   
   
   
   
   
   
   
   
   
   
   
   
   
   
   
   
   
   
   
   
   
   
   
   
   
   
   
   
   
   
   
   
   
   
   
   
   
   
   
   
   
   
   
   
   
   
   
   
   
   
   
   
   
   
   
   
   
   
   
   
   
   
   
   
   
   
   
   
   
   
   
   
   
   
   
   
   
   
   
   
   
   
   
   
   
   
   
   
   
   
   
   
   
   
   
   
   
   
   
   
   
   
   
   
   
   
   
   
   
   
   
   
   
   
   
   
   
   
   
   
   
   
   
   
   
   
   
   
   
   
   
   
   
   
   
   
   
   
   
   
   
   
   
   
   
   
   
   
   
   
   
   
   
   
   
   
   
   
   
   
   
   
   
   
   
   
   
   
   
   
   
   
   
   
   
   
   
   
   
   
   
   
   
   
   
   
   
   
   
   
   
   
   
   
   
   
   
   
   
   
   
   
   
   
   
   
   
   
   
   
   
   
   
   
   
   
   
   
   
   
   
   
   
   
   
   
   
   
   
   
   
   
   
   
   
   
   
   
   
   
   
   
   
   
   
   
   
   
   
   
   
   
   
   
   
   
   
   
   
   
   
   
   
   
   
   
   
   
   
   
   
   
   
   
   
   
   
   
   
   
   
   
   
   
   
   
   
   
   
   
   
   
   
   
   
   
   
   
   
   
   
   
   
   
   
   
   
   
   
   
   
   
   
   
   
   
   
   
   
   
   
   
   
   
   
   
   
   
   
   
   
   
   
   
   
   
   
   
   
   
   
   
   
   
   
   
   
   
   
   
   
   
   
   
   
   
   
   
   
   
   
   
   
   
   
   
   
   
   
   
   
   
   
   
   
   
   
   
   
   
   
   
   
   
   
   
   
   
   
   
   
   
   
   
   
   
   
   
   
   
   
   
   
   
   
   
   
   
   
   
   
   
   
   
   
   
   
   
   
   
   
   
   
   
   
   
   
   
   
   
   
   
   
   
   
   
   
   
   
   
   
   
   
   
   
   
   
   
   
   
   
   
   
   
   
   
   
   
   
   
   
   
   
   
   
   
   
   
   
   
   
   
   
   
   
   
   
   
   
   
   
   
   
   
   
   
   
   
   
   
   
   
   
   
   
   
   
   
   
   
   
   
   
   
   
   
   
   
   
   
   
   
   
   
   
   
   
   
   
   
   
   
   
   
   
   
   
   
   
   
   
   
   
   
   
   
   
   
   
   
   
   
   
   
   
   
   
   
   
   
   
   
   
   
   
   
   
   
   
   
   
   
   
   
   
   
   
   
   
   
   
   
   
   
   
   
   
   
   
   
   
   
   
   
   
   
   
   
   
   
   
   
   
   
   
   
   
   
   
   
   
   
   
   
   
   
   
   
   
   
   
   
   
   
   
   
   
   
   
   
   
   
   
   
   
   
   
   
   
   
   
   
   
   
   
   
   
   
   
   
   
   
   
   
   
   
   
   
   
   
   
   
   
   
   
   
   
   
   
   
   
   
   
   
   
   
   
   
   
   
   
   
   
   
   
   
   
   
   
   
   
   
   
   
   
   
   
   
   
   
   
   
   
   
   
   
   
   
   
   
   
   
   
   
   
   
   
   
   
   
   
   
   
   
   
   
   
   
   
   
   
   
   
   
   
   
   
   
   
   
   
   
   
   
   
   
   
   
   
   
   
   
   
   
   
   
   
   
   
   
   
   
   
   
   
   
   
   
   
   
   
   
   
   
   
   
   
   
   
   
   
   
   
   
   
   
   
   
   
   
   
   
   
   
   
   
   
   
   
   
   
   
   
   
   
   
   
   
   
   
   
   
   
   
   
   
   
   
   
   
   
   
   
   
   
   
   
   
   
   
   
   
   
   
   
   
   
   
   
   
   
   
   
   
   
   
   
   
   
   
   
   
   
   
   
   
   
   
   
   
   
   
   
   
   
   
   
   
   
   
   
   
   
   
   
   
   
   
   
   
   
   
   
   
   
   
   
   
   
   
   
   
   
   
   
   
   
   
   
   
   
   
   
   
   
   
   
   
   
   
   
   
   
   
   
   
   
   
   
   
   
   
   
   
   
   
   
   
   
   
   
   
   
   
   
   
   
   
   
   
   
   
   
   
   
   
   
   
   
   
   
   
   
   
   
   
   
   
   
   
   
   
   
   
   
   
   
   
   
   
   
   
   
   
   
   
   
   
   
   
   
   
   
   
   
   
   
   
   
   
   
   
   
   
   
   
   
   
   
   
   
   
   
   
   
   
   
   
   
   
   
   
   
   
   
   
   
   
   
   
   
   
   
   
   
   
   
   
   
   
   
   
   
   
   
   
   
   
   
   
   
   
   
   
   
   
   
   
   
   
   
   
   
   
   
   
   
   
   
   
   
   
   
   
   
   
   
   
   
   
   
   
   
   
   
   
   
   
   
   
   
   
   
   
   
   
   
   
   
   
   
   
   
   
   
   
   
   
   
   
   
   
   
   
   
   
   
   
   
   
   
   
   
   
   
   
   
   
   
   
   
   
   
   
   
   
   
   
   
   
   
   
   
   
   
   
   
   
   
   
   
   
   
   
   
   
   
   
   
   
   
   
   
   
   
   
   
   
   
   
   
   
   
   
   
   
   
   
   
   
   
   
   
   
   
   
   
   
   
   
   
   
   
   
   
   
   
   
   
   
   
   
   
   
   
   
   
   
   
   
   
   
   
   
   
   
   
   
   
   
   
   
   
   
   
   
   
   
   
   
   
   
   
   
   
   
   
   
   
   
   
   
   
   
   
   
   
   
   
   
   <path
   class="fil17"
   d="m 2525,1375 v 118 h 66 c 17,0 28,-3 34,-8 8,-7 12,-18 13,-35 h 8 v 103 h -8 c -2,-14 -4,-24 -6,-28 -3,-5 -7,-9 -13,-12 -6,-3 -16,-4 -28,-4 h -66 v 98 c 0,13 1,21 2,24 1,3 3,5 6,7 3,1 9,2 17,2 h 50 c 17,0 29,-1 37,-3 8,-3 15,-7 22,-14 9,-9 18,-23 28,-41 h 9 l -26,74 h -230 v -8 h 11 c 7,0 14,-1 20,-5 5,-2 8,-6 10,-10 1,-5 2,-15 2,-29 v -193 c 0,-19 -2,-31 -6,-35 -5,-6 -14,-9 -26,-9 h -11 v -8 h 230 l 3,66 h -8 c -3,-16 -7,-27 -10,-33 -4,-6 -10,-10 -17,-13 -6,-2 -16,-4 -31,-4 z"
   id="path3926" />
   <path
   id="path3928"
   class="fil17"
   d="m 2850,1450 v 68 h -7 c -6,-21 -13,-36 -22,-44 -8,-7 -19,-11 -33,-11 -10,0 -18,2 -25,8 -6,5 -9,11 -9,18 0,8 2,15 7,21 4,6 14,12 28,19 l 32,15 c 29,15 44,34 44,57 0,19 -7,33 -21,44 -13,12 -29,17 -46,17 -12,0 -26,-2 -42,-6 -5,-2 -9,-2 -12,-2 -3,0 -6,1 -8,5 h -7 v -72 h 7 c 4,21 12,36 24,47 11,10 24,15 39,15 10,0 18,-3 24,-9 7,-6 10,-13 10,-21 0,-10 -4,-18 -11,-25 -7,-7 -21,-16 -43,-26 -21,-11 -35,-20 -41,-29 -7,-8 -10,-18 -10,-31 0,-17 6,-30 17,-42 11,-11 26,-16 44,-16 8,0 17,2 29,5 7,2 12,3 15,3 2,0 4,0 5,-1 1,-1 3,-4 5,-7 z" />
   <path
   id="path3930"
   class="fil17"
   d="m 3066,1580 c -5,27 -16,47 -32,61 -16,14 -33,21 -52,21 -23,0 -43,-9 -60,-29 -17,-19 -25,-44 -25,-77 0,-31 9,-57 28,-77 19,-19 41,-29 67,-29 20,0 36,5 49,15 13,11 19,22 19,33 0,5 -2,10 -5,13 -4,4 -9,6 -15,6 -9,0 -15,-3 -19,-9 -3,-3 -5,-9 -6,-17 0,-9 -3,-16 -8,-20 -6,-5 -13,-7 -22,-7 -14,0 -26,6 -35,16 -12,15 -18,34 -18,57 0,24 6,45 18,64 12,18 28,27 48,27 14,0 27,-5 38,-14 8,-7 16,-19 24,-37 z" />
   <path
   id="path3932"
   class="fil17"
   d="m 3193,1450 c 31,0 55,11 74,34 15,20 23,43 23,68 0,18 -4,36 -13,55 -8,18 -20,32 -35,41 -15,9 -32,14 -51,14 -30,0 -54,-12 -72,-36 -15,-20 -23,-43 -23,-68 0,-19 5,-37 14,-55 9,-18 21,-32 36,-40 15,-9 31,-13 47,-13 z m -6,14 c -8,0 -16,2 -24,7 -7,5 -14,13 -19,24 -5,12 -7,26 -7,44 0,30 6,55 18,76 11,21 26,31 46,31 14,0 25,-5 35,-17 9,-12 13,-32 13,-60 0,-36 -7,-64 -23,-84 -10,-14 -23,-21 -39,-21 z" />
   <path
   id="path3934"
   class="fil17"
   d="m 3389,1345 v 266 c 0,13 1,21 2,25 2,4 5,7 9,9 4,2 11,3 21,3 v 8 h -98 v -8 c 9,0 15,-1 19,-3 3,-1 6,-5 8,-9 1,-4 2,-13 2,-25 v -182 c 0,-23 0,-36 -1,-41 -1,-6 -3,-9 -5,-11 -2,-2 -5,-3 -9,-3 -3,0 -8,1 -14,4 l -4,-8 60,-25 z" />
   <path
   id="path3936"
   class="fil17"
   d="m 3558,1627 c -21,16 -34,25 -39,28 -8,3 -16,5 -25,5 -14,0 -26,-4 -35,-14 -9,-9 -13,-22 -13,-37 0,-10 2,-19 6,-26 6,-10 17,-19 32,-28 15,-9 39,-19 74,-32 v -8 c 0,-20 -3,-33 -10,-41 -6,-7 -15,-11 -28,-11 -9,0 -16,3 -21,8 -6,5 -9,10 -9,17 l 1,12 c 0,7 -2,12 -5,16 -4,4 -8,5 -14,5 -5,0 -10,-1 -13,-5 -4,-4 -6,-9 -6,-16 0,-12 7,-24 20,-34 13,-11 31,-16 54,-16 18,0 33,3 44,9 9,4 15,11 19,21 3,6 4,19 4,38 v 68 c 0,19 1,31 1,35 1,5 2,7 4,9 2,1 4,2 6,2 2,0 4,0 6,-1 3,-2 9,-8 18,-16 v 12 c -17,22 -32,33 -47,33 -8,0 -13,-3 -18,-8 -4,-5 -6,-13 -6,-25 z m 0,-14 v -76 c -23,8 -37,15 -43,18 -12,7 -20,13 -25,20 -5,7 -8,15 -8,23 0,11 3,19 10,26 6,7 13,11 22,11 11,0 25,-8 44,-22 z" />
   <path
   id="path3938"
   class="fil17"
   d="m 3736,1359 h 80 l 183,223 v -171 c 0,-18 -2,-30 -7,-34 -5,-7 -14,-10 -26,-10 h -10 v -8 h 105 v 8 h -11 c -13,0 -22,4 -27,12 -3,4 -5,15 -5,32 v 250 h -8 l -196,-239 v 183 c 0,18 2,29 6,34 5,6 14,9 26,9 h 11 v 8 h -105 v -8 h 10 c 13,0 22,-4 28,-11 3,-5 5,-16 5,-32 v -207 c -9,-10 -16,-16 -20,-20 -5,-3 -11,-6 -20,-9 -4,-1 -10,-2 -19,-2 z" />
   <path
   id="path3940"
   class="fil17"
   d="m 4194,1627 c -20,16 -33,25 -39,28 -8,3 -16,5 -25,5 -14,0 -25,-4 -34,-14 -9,-9 -14,-22 -14,-37 0,-10 2,-19 7,-26 6,-10 16,-19 31,-28 15,-9 40,-19 74,-32 v -8 c 0,-20 -3,-33 -9,-41 -7,-7 -16,-11 -28,-11 -9,0 -16,3 -22,8 -5,5 -8,10 -8,17 v 12 c 0,7 -1,12 -5,16 -3,4 -8,5 -13,5 -6,0 -10,-1 -14,-5 -3,-4 -5,-9 -5,-16 0,-12 6,-24 19,-34 13,-11 31,-16 55,-16 17,0 32,3 44,9 8,4 15,11 19,21 2,6 4,19 4,38 v 68 c 0,19 0,31 1,35 0,5 2,7 3,9 2,1 4,2 6,2 3,0 5,0 6,-1 3,-2 9,-8 18,-16 v 12 c -16,22 -32,33 -47,33 -7,0 -13,-3 -17,-8 -4,-5 -7,-13 -7,-25 z m 0,-14 v -76 c -22,8 -36,15 -43,18 -11,7 -20,13 -25,20 -5,7 -7,15 -7,23 0,11 3,19 9,26 7,7 14,11 22,11 11,0 26,-8 44,-22 z" />
   <path
   id="path3942"
   class="fil17"
   d="m 4451,1580 c -5,27 -16,47 -32,61 -15,14 -33,21 -52,21 -23,0 -43,-9 -60,-29 -17,-19 -25,-44 -25,-77 0,-31 9,-57 28,-77 19,-19 41,-29 68,-29 19,0 36,5 48,15 13,11 19,22 19,33 0,5 -1,10 -5,13 -4,4 -9,6 -15,6 -9,0 -15,-3 -19,-9 -3,-3 -5,-9 -5,-17 -1,-9 -4,-16 -9,-20 -5,-5 -13,-7 -22,-7 -14,0 -26,6 -35,16 -12,15 -18,34 -18,57 0,24 6,45 18,64 12,18 28,27 48,27 14,0 27,-5 38,-14 9,-7 16,-19 24,-37 z" />
   <path
   id="path3944"
   class="fil17"
   d="m 4531,1345 c 6,0 11,2 16,6 4,5 6,10 6,16 0,6 -2,11 -6,16 -5,4 -10,6 -16,6 -6,0 -11,-2 -16,-6 -4,-5 -6,-10 -6,-16 0,-6 2,-11 6,-16 4,-4 10,-6 16,-6 z m 18,105 v 161 c 0,13 1,21 3,25 2,4 4,7 8,9 4,2 10,3 20,3 v 8 h -98 v -8 c 10,0 17,-1 20,-3 3,-1 6,-5 8,-9 2,-4 3,-13 3,-25 v -77 c 0,-22 -1,-36 -2,-42 -1,-5 -3,-8 -5,-10 -2,-2 -5,-3 -9,-3 -4,0 -9,1 -15,3 l -3,-8 61,-24 z" />
   <path
   id="path3946"
   class="fil17"
   d="m 4704,1450 c 30,0 54,11 73,34 15,20 23,43 23,68 0,18 -4,36 -13,55 -8,18 -20,32 -35,41 -15,9 -32,14 -51,14 -30,0 -54,-12 -72,-36 -15,-20 -23,-43 -23,-68 0,-19 5,-37 14,-55 9,-18 21,-32 36,-40 15,-9 31,-13 48,-13 z m -7,14 c -8,0 -16,2 -24,7 -7,5 -14,13 -19,24 -5,12 -7,26 -7,44 0,30 6,55 18,76 11,21 26,31 46,31 14,0 25,-5 35,-17 9,-12 13,-32 13,-60 0,-36 -7,-64 -23,-84 -10,-14 -23,-21 -39,-21 z" />
   <path
   id="path3948"
   class="fil17"
   d="m 4888,1492 c 24,-28 46,-42 67,-42 11,0 21,3 28,8 8,5 15,14 19,27 4,9 5,22 5,40 v 86 c 0,13 1,21 3,26 2,3 4,6 8,8 4,2 10,3 20,3 v 8 h -100 v -8 h 5 c 9,0 15,-1 19,-4 4,-3 6,-7 8,-12 0,-3 1,-10 1,-21 v -82 c 0,-19 -3,-32 -7,-40 -5,-9 -13,-13 -24,-13 -18,0 -35,10 -52,29 v 106 c 0,14 1,22 2,25 3,4 5,7 9,9 4,2 11,3 22,3 v 8 h -100 v -8 h 4 c 11,0 18,-2 21,-7 4,-6 6,-15 6,-30 v -74 c 0,-24 -1,-39 -2,-44 -1,-6 -3,-9 -5,-11 -2,-2 -5,-3 -9,-3 -4,0 -9,1 -15,3 l -3,-8 61,-24 h 9 z" />
   <path
   id="path3950"
   class="fil17"
   d="m 5168,1627 c -21,16 -34,25 -39,28 -8,3 -17,5 -25,5 -14,0 -26,-4 -35,-14 -9,-9 -13,-22 -13,-37 0,-10 2,-19 6,-26 6,-10 17,-19 32,-28 14,-9 39,-19 74,-32 v -8 c 0,-20 -4,-33 -10,-41 -6,-7 -15,-11 -28,-11 -9,0 -16,3 -22,8 -5,5 -8,10 -8,17 l 1,12 c 0,7 -2,12 -6,16 -3,4 -8,5 -13,5 -6,0 -10,-1 -14,-5 -3,-4 -5,-9 -5,-16 0,-12 7,-24 20,-34 13,-11 31,-16 54,-16 18,0 32,3 44,9 9,4 15,11 19,21 3,6 4,19 4,38 v 68 c 0,19 0,31 1,35 1,5 2,7 4,9 1,1 3,2 6,2 2,0 4,0 6,-1 3,-2 9,-8 18,-16 v 12 c -17,22 -33,33 -48,33 -7,0 -13,-3 -17,-8 -4,-5 -6,-13 -6,-25 z m 0,-14 v -76 c -23,8 -37,15 -43,18 -12,7 -20,13 -25,20 -5,7 -8,15 -8,23 0,11 3,19 10,26 6,7 13,11 21,11 12,0 26,-8 45,-22 z" />
   <path
   id="path3952"
   class="fil17"
   d="m 5323,1345 v 266 c 0,13 1,21 3,25 2,4 4,7 8,9 4,2 11,3 21,3 v 8 h -98 v -8 c 9,0 15,-1 19,-3 3,-1 6,-5 8,-9 2,-4 3,-13 3,-25 v -182 c 0,-23 -1,-36 -2,-41 -1,-6 -3,-9 -5,-11 -2,-2 -5,-3 -8,-3 -4,0 -9,1 -15,4 l -4,-8 60,-25 z" />
   <path
   id="path3954"
   class="fil17"
   d="m 5633,1633 c -10,11 -20,18 -29,22 -9,5 -20,7 -30,7 -22,0 -41,-9 -58,-27 -16,-19 -24,-42 -24,-71 0,-28 9,-55 27,-79 18,-23 41,-35 70,-35 17,0 32,5 44,17 v -37 c 0,-23 -1,-37 -2,-42 -1,-6 -3,-9 -5,-11 -3,-2 -5,-3 -9,-3 -4,0 -9,1 -15,4 l -3,-8 60,-25 h 10 v 232 c 0,23 1,37 2,42 1,5 3,9 5,11 2,2 5,3 9,3 4,0 9,-1 15,-4 l 3,8 -60,25 h -10 z m 0,-15 v -103 c -1,-10 -4,-19 -8,-27 -5,-8 -10,-14 -18,-19 -7,-4 -14,-6 -21,-6 -13,0 -24,6 -34,17 -14,16 -20,38 -20,67 0,29 6,52 19,67 13,16 27,24 43,24 13,0 26,-7 39,-20 z" />
   <path
   id="path3956"
   class="fil17"
   d="m 5749,1531 c 0,30 7,53 22,70 14,17 32,25 51,25 14,0 25,-3 35,-10 9,-8 18,-20 24,-38 l 7,5 c -3,20 -12,38 -27,55 -15,16 -33,24 -55,24 -24,0 -45,-9 -62,-28 -17,-19 -26,-44 -26,-75 0,-35 9,-61 27,-80 17,-20 39,-29 66,-29 22,0 41,7 55,22 15,15 22,35 22,59 z m 0,-12 h 93 c -1,-13 -2,-22 -4,-27 -4,-8 -10,-15 -17,-20 -7,-4 -15,-7 -23,-7 -12,0 -23,5 -32,15 -10,9 -15,22 -17,39 z" />
   <path
   id="path3958"
   class="fil17"
   d="m 6220,1353 v 102 h -8 c -3,-20 -8,-35 -15,-47 -6,-12 -16,-21 -29,-28 -12,-7 -25,-10 -39,-10 -15,0 -28,5 -38,14 -10,9 -15,20 -15,32 0,9 3,17 10,24 9,11 30,26 65,44 27,15 46,26 57,34 10,8 18,18 23,29 6,10 8,22 8,34 0,22 -8,41 -26,58 -17,16 -40,24 -67,24 -9,0 -17,-1 -25,-2 -4,-1 -14,-3 -28,-8 -14,-5 -23,-7 -27,-7 -4,0 -7,1 -9,3 -2,3 -4,7 -5,14 h -8 v -102 h 8 c 4,22 9,38 16,48 6,11 16,20 29,26 14,7 28,11 44,11 18,0 33,-5 43,-14 11,-10 16,-22 16,-35 0,-7 -2,-14 -6,-22 -4,-7 -10,-14 -18,-21 -6,-4 -22,-13 -47,-28 -26,-14 -44,-25 -55,-34 -11,-8 -19,-17 -24,-28 -6,-10 -9,-21 -9,-33 0,-22 8,-40 25,-55 16,-16 37,-23 63,-23 15,0 32,3 50,11 8,4 14,6 17,6 4,0 7,-2 10,-4 2,-2 4,-7 6,-13 z" />
   <path
   id="path3960"
   class="fil17"
   d="m 6391,1627 c -21,16 -34,25 -39,28 -8,3 -16,5 -25,5 -14,0 -25,-4 -34,-14 -9,-9 -14,-22 -14,-37 0,-10 2,-19 7,-26 6,-10 16,-19 31,-28 15,-9 39,-19 74,-32 v -8 c 0,-20 -3,-33 -10,-41 -6,-7 -15,-11 -27,-11 -9,0 -17,3 -22,8 -6,5 -8,10 -8,17 v 12 c 0,7 -2,12 -5,16 -4,4 -8,5 -14,5 -5,0 -10,-1 -13,-5 -4,-4 -5,-9 -5,-16 0,-12 6,-24 19,-34 13,-11 31,-16 54,-16 18,0 33,3 44,9 9,4 15,11 19,21 3,6 4,19 4,38 v 68 c 0,19 1,31 2,35 0,5 1,7 3,9 2,1 4,2 6,2 2,0 4,0 6,-1 3,-2 9,-8 18,-16 v 12 c -16,22 -32,33 -47,33 -7,0 -13,-3 -17,-8 -5,-5 -7,-13 -7,-25 z m 0,-14 v -76 c -22,8 -37,15 -43,18 -12,7 -20,13 -25,20 -5,7 -8,15 -8,23 0,11 4,19 10,26 6,7 14,11 22,11 11,0 26,-8 44,-22 z" />
   <path
   id="path3962"
   class="fil17"
   d="m 6653,1456 v 121 c 0,23 1,37 2,42 1,5 3,9 5,11 3,2 6,3 9,3 4,0 9,-1 15,-4 l 3,8 -60,25 h -10 v -42 c -17,19 -30,30 -39,35 -10,5 -19,7 -29,7 -11,0 -21,-3 -30,-10 -8,-6 -14,-14 -17,-25 -3,-10 -5,-24 -5,-43 v -89 c 0,-10 -1,-16 -3,-20 -2,-4 -5,-7 -9,-9 -4,-2 -11,-2 -22,-2 v -8 h 71 v 134 c 0,19 3,31 10,37 6,6 14,9 23,9 6,0 14,-2 22,-6 8,-4 17,-12 28,-23 v -113 c 0,-12 -2,-20 -6,-24 -4,-4 -13,-6 -26,-6 v -8 z m -32,-103 -64,75 h -8 l 23,-75 z" />
   <path
   id="path3964"
   class="fil17"
   d="m 6844,1633 c -10,11 -20,18 -29,22 -10,5 -20,7 -30,7 -22,0 -42,-9 -58,-27 -16,-19 -25,-42 -25,-71 0,-28 9,-55 28,-79 18,-23 41,-35 70,-35 17,0 32,5 44,17 v -37 c 0,-23 -1,-37 -2,-42 -1,-6 -3,-9 -5,-11 -3,-2 -6,-3 -9,-3 -4,0 -9,1 -15,4 l -3,-8 60,-25 h 10 v 232 c 0,23 0,37 2,42 1,5 2,9 5,11 2,2 5,3 8,3 4,0 10,-1 16,-4 l 3,8 -60,25 h -10 z m 0,-15 v -103 c -1,-10 -4,-19 -8,-27 -5,-8 -11,-14 -18,-19 -7,-4 -14,-6 -21,-6 -13,0 -24,6 -35,17 -13,16 -20,38 -20,67 0,29 7,52 20,67 13,16 27,24 43,24 13,0 26,-7 39,-20 z" />
   <path
   id="path3966"
   class="fil17"
   d="m 6960,1531 c 0,30 7,53 22,70 14,17 32,25 51,25 13,0 25,-3 35,-10 9,-8 18,-20 24,-38 l 7,5 c -3,20 -12,38 -27,55 -15,16 -33,24 -55,24 -24,0 -45,-9 -62,-28 -17,-19 -26,-44 -26,-75 0,-35 9,-61 26,-80 18,-20 40,-29 67,-29 22,0 41,7 55,22 15,15 22,35 22,59 z m 0,-12 h 93 c -1,-13 -2,-22 -5,-27 -3,-8 -9,-15 -16,-20 -7,-4 -15,-7 -23,-7 -12,0 -23,5 -32,15 -10,9 -15,22 -17,39 z" />
   <path
   id="path3968"
   class="fil17"
   d="m 7316,1517 v 87 c 0,19 2,30 6,35 6,6 14,9 26,9 h 11 v 8 h -128 v -8 h 12 c 12,0 21,-4 27,-12 3,-4 4,-15 4,-32 v -192 c 0,-19 -2,-31 -6,-35 -6,-6 -14,-10 -25,-10 h -12 v -8 h 110 c 26,0 47,3 63,9 15,5 28,14 39,27 10,13 15,29 15,46 0,25 -8,44 -24,59 -16,16 -38,23 -68,23 -7,0 -15,0 -23,-1 -8,-1 -17,-3 -27,-5 z m 0,-12 c 8,1 15,2 21,3 6,1 11,1 15,1 15,0 28,-6 39,-18 12,-11 17,-27 17,-45 0,-13 -3,-25 -8,-36 -5,-11 -13,-19 -22,-25 -10,-5 -21,-8 -33,-8 -7,0 -17,2 -29,4 z" />
   <path
   id="path3970"
   class="fil17"
   d="m 7665,1456 v 121 c 0,23 0,37 1,42 2,5 3,9 6,11 2,2 5,3 8,3 5,0 10,-1 15,-4 l 4,8 -61,25 h -10 v -42 c -17,19 -30,30 -39,35 -9,5 -19,7 -29,7 -11,0 -21,-3 -29,-10 -8,-6 -14,-14 -17,-25 -4,-10 -5,-24 -5,-43 v -89 c 0,-10 -1,-16 -3,-20 -2,-4 -5,-7 -9,-9 -4,-2 -12,-2 -22,-2 v -8 h 70 v 134 c 0,19 3,31 10,37 6,6 14,9 24,9 6,0 13,-2 21,-6 8,-4 17,-12 28,-23 v -113 c 0,-12 -2,-20 -6,-24 -4,-4 -13,-6 -26,-6 v -8 z m -33,-103 -64,75 h -7 l 22,-75 z" />
   <path
   id="path3972"
   class="fil17"
   d="m 7768,1491 c 20,-28 41,-41 63,-41 21,0 39,9 54,26 15,18 23,42 23,72 0,36 -12,64 -36,86 -20,19 -43,28 -68,28 -11,0 -23,-2 -35,-6 -12,-4 -25,-11 -37,-19 v -207 c 0,-23 -1,-37 -2,-42 -1,-6 -3,-9 -5,-11 -2,-2 -5,-3 -9,-3 -4,0 -9,1 -15,4 l -3,-8 60,-25 h 10 z m 0,13 v 120 c 8,7 15,13 23,16 8,4 16,6 25,6 13,0 26,-7 37,-22 11,-14 17,-35 17,-63 0,-26 -6,-46 -17,-59 -11,-14 -25,-21 -39,-21 -8,0 -16,2 -23,6 -6,3 -14,9 -23,17 z" />
   <path
   id="path3974"
   class="fil17"
   d="m 8007,1345 v 266 c 0,13 1,21 3,25 2,4 5,7 8,9 4,2 11,3 22,3 v 8 h -99 v -8 c 9,0 16,-1 19,-3 3,-1 6,-5 8,-9 2,-4 3,-13 3,-25 v -182 c 0,-23 -1,-36 -2,-41 -1,-6 -2,-9 -5,-11 -2,-2 -5,-3 -8,-3 -4,0 -9,1 -15,4 l -3,-8 59,-25 z" />
   <path
   id="path3976"
   class="fil17"
   d="m 8114,1345 c 6,0 11,2 16,6 4,5 6,10 6,16 0,6 -2,11 -6,16 -5,4 -10,6 -16,6 -6,0 -11,-2 -16,-6 -4,-5 -6,-10 -6,-16 0,-6 2,-11 6,-16 5,-4 10,-6 16,-6 z m 18,105 v 161 c 0,13 1,21 3,25 2,4 4,7 8,9 4,2 10,3 20,3 v 8 h -98 v -8 c 10,0 17,-1 20,-3 3,-1 6,-5 8,-9 2,-4 3,-13 3,-25 v -77 c 0,-22 -1,-36 -2,-42 -1,-5 -3,-8 -5,-10 -2,-2 -5,-3 -9,-3 -4,0 -9,1 -15,3 l -3,-8 61,-24 z" />
   <path
   id="path3978"
   class="fil17"
   d="m 8359,1580 c -6,27 -16,47 -32,61 -16,14 -33,21 -53,21 -22,0 -42,-9 -59,-29 -17,-19 -26,-44 -26,-77 0,-31 10,-57 28,-77 19,-19 42,-29 68,-29 20,0 36,5 49,15 12,11 19,22 19,33 0,5 -2,10 -6,13 -3,4 -8,6 -15,6 -8,0 -15,-3 -19,-9 -3,-3 -4,-9 -5,-17 -1,-9 -4,-16 -9,-20 -5,-5 -12,-7 -21,-7 -15,0 -27,6 -36,16 -11,15 -17,34 -17,57 0,24 6,45 17,64 12,18 28,27 48,27 15,0 27,-5 39,-14 8,-7 16,-19 23,-37 z" />
   <path
   id="path3980"
   class="fil17"
   d="m 8501,1627 c -21,16 -34,25 -39,28 -8,3 -16,5 -25,5 -14,0 -26,-4 -35,-14 -9,-9 -13,-22 -13,-37 0,-10 2,-19 6,-26 6,-10 17,-19 32,-28 14,-9 39,-19 74,-32 v -8 c 0,-20 -3,-33 -10,-41 -6,-7 -15,-11 -28,-11 -9,0 -16,3 -21,8 -6,5 -9,10 -9,17 l 1,12 c 0,7 -2,12 -5,16 -4,4 -9,5 -14,5 -6,0 -10,-1 -13,-5 -4,-4 -6,-9 -6,-16 0,-12 7,-24 20,-34 13,-11 31,-16 54,-16 18,0 33,3 44,9 9,4 15,11 19,21 3,6 4,19 4,38 v 68 c 0,19 0,31 1,35 1,5 2,7 4,9 1,1 3,2 6,2 2,0 4,0 6,-1 3,-2 9,-8 18,-16 v 12 c -17,22 -33,33 -48,33 -7,0 -12,-3 -17,-8 -4,-5 -6,-13 -6,-25 z m 0,-14 v -76 c -23,8 -37,15 -43,18 -12,7 -20,13 -25,20 -5,7 -8,15 -8,23 0,11 3,19 10,26 6,7 13,11 22,11 11,0 25,-8 44,-22 z" />
   <path
   id="path3982"
   class="fil17"
   d="m 2638,1849 v 102 h -8 c -3,-19 -8,-35 -14,-47 -7,-11 -17,-21 -30,-28 -12,-6 -25,-10 -39,-10 -15,0 -28,5 -38,14 -10,9 -15,20 -15,32 0,9 3,17 10,24 9,11 31,26 65,44 28,15 47,27 57,35 10,7 18,17 23,28 6,10 9,22 9,34 0,22 -9,41 -27,58 -17,16 -40,24 -67,24 -9,0 -17,-1 -25,-2 -4,-1 -14,-3 -28,-8 -14,-5 -23,-7 -27,-7 -4,0 -7,1 -9,3 -2,3 -3,7 -4,14 h -9 v -102 h 9 c 3,22 8,38 15,48 6,11 16,20 29,27 14,7 28,10 44,10 18,0 33,-5 43,-14 11,-10 16,-22 16,-35 0,-7 -2,-14 -6,-22 -4,-7 -10,-14 -18,-21 -6,-4 -22,-13 -47,-28 -26,-14 -44,-25 -55,-33 -11,-9 -19,-18 -24,-28 -6,-11 -9,-22 -9,-34 0,-21 9,-40 25,-55 16,-16 37,-23 63,-23 16,0 32,4 50,11 8,4 14,6 17,6 4,0 7,-1 10,-4 2,-2 4,-6 6,-13 z" />
   <path
   id="path3984"
   class="fil17"
   d="m 2729,2027 c 0,30 7,53 22,70 14,17 32,25 51,25 14,0 25,-3 35,-10 9,-7 18,-20 24,-38 l 7,5 c -3,20 -12,38 -27,55 -15,16 -33,24 -55,24 -24,0 -45,-9 -62,-28 -17,-19 -26,-44 -26,-75 0,-35 9,-61 26,-80 18,-20 40,-29 67,-29 22,0 41,7 55,22 15,15 22,35 22,59 z m 0,-12 h 93 c -1,-13 -2,-22 -4,-27 -4,-8 -10,-15 -17,-19 -7,-5 -15,-7 -23,-7 -12,0 -23,4 -32,14 -10,9 -15,22 -17,39 z" />
   <path
   id="path3986"
   class="fil17"
   d="m 2954,1946 v 45 c 17,-30 34,-45 52,-45 8,0 14,2 19,7 6,5 8,11 8,17 0,6 -2,11 -5,15 -4,4 -9,6 -14,6 -5,0 -11,-3 -17,-8 -6,-5 -11,-8 -14,-8 -3,0 -5,2 -9,5 -6,6 -13,16 -20,30 v 95 c 0,11 2,20 4,26 2,4 6,7 10,9 5,3 12,4 21,4 v 8 h -103 v -8 c 11,0 18,-1 23,-4 4,-3 6,-6 8,-12 0,-2 1,-9 1,-21 v -77 c 0,-24 -1,-37 -2,-42 -1,-4 -2,-8 -5,-10 -2,-2 -6,-3 -9,-3 -5,0 -10,1 -16,4 l -2,-8 61,-25 z" />
   <path
   id="path3988"
   class="fil17"
   d="m 3090,2079 c -12,-6 -21,-14 -28,-25 -7,-11 -10,-23 -10,-36 0,-19 8,-36 23,-51 15,-14 34,-21 57,-21 19,0 36,5 50,14 h 42 c 7,0 10,0 11,0 1,1 2,1 2,2 1,2 2,4 2,7 0,4 -1,7 -1,8 -1,1 -2,1 -3,2 -1,0 -4,0 -11,0 h -26 c 8,11 12,24 12,41 0,18 -7,34 -21,48 -14,13 -33,19 -58,19 -10,0 -20,-1 -30,-4 -6,6 -11,10 -13,15 -2,4 -3,7 -3,10 0,3 1,5 3,8 3,2 7,4 14,5 4,0 15,1 31,1 30,1 50,2 59,4 13,1 24,6 32,15 8,8 12,18 12,30 0,16 -7,32 -23,46 -23,21 -52,32 -89,32 -28,0 -52,-6 -72,-19 -11,-7 -16,-15 -16,-23 0,-3 1,-7 2,-10 3,-6 8,-13 16,-23 1,-1 8,-9 22,-23 -7,-5 -13,-9 -16,-13 -3,-3 -5,-7 -5,-12 0,-5 2,-11 7,-18 4,-7 13,-17 28,-29 z m 38,-122 c -10,0 -19,4 -27,12 -7,9 -11,22 -11,40 0,23 5,41 15,53 8,10 17,15 29,15 11,0 20,-4 28,-13 7,-8 10,-21 10,-39 0,-23 -5,-41 -15,-54 -7,-10 -17,-14 -29,-14 z m -40,195 c -7,8 -12,15 -15,21 -4,7 -6,12 -6,18 0,7 5,13 13,18 15,9 36,14 63,14 27,0 46,-5 59,-14 12,-9 18,-19 18,-30 0,-7 -3,-13 -11,-16 -8,-3 -22,-5 -45,-6 -33,-1 -58,-2 -76,-5 z" />
   <path
   id="path3990"
   class="fil17"
   d="m 3313,1841 c 6,0 11,2 15,6 5,5 7,10 7,16 0,6 -2,12 -7,16 -4,4 -9,6 -15,6 -6,0 -12,-2 -16,-6 -4,-4 -7,-10 -7,-16 0,-6 3,-11 7,-16 4,-4 10,-6 16,-6 z m 18,105 v 161 c 0,13 1,21 3,25 1,4 4,7 8,9 3,2 10,3 19,3 v 8 h -97 v -8 c 10,0 16,-1 20,-2 3,-2 6,-5 8,-10 1,-4 2,-13 2,-25 v -77 c 0,-22 0,-36 -1,-42 -2,-5 -3,-8 -5,-10 -3,-2 -6,-3 -9,-3 -4,0 -9,1 -15,4 l -3,-8 60,-25 z" />
   <path
   id="path3992"
   class="fil17"
   d="m 3485,1946 c 31,0 55,11 74,34 15,20 23,43 23,68 0,18 -4,36 -13,55 -8,18 -20,32 -36,41 -15,10 -32,14 -50,14 -31,0 -55,-12 -72,-36 -16,-20 -23,-43 -23,-68 0,-18 4,-37 14,-55 9,-18 21,-31 36,-40 15,-9 30,-13 47,-13 z m -7,14 c -7,0 -15,3 -23,7 -8,5 -14,13 -19,24 -5,12 -7,26 -7,45 0,29 6,54 17,75 12,21 27,32 46,32 14,0 26,-6 35,-18 10,-12 14,-32 14,-60 0,-35 -8,-63 -23,-84 -10,-14 -24,-21 -40,-21 z" />
   <path
   id="path3994"
   class="fil17"
   d="m 3890,2053 h -115 l -20,47 c -5,11 -7,20 -7,26 0,4 2,8 6,12 4,3 14,5 28,6 v 8 h -94 v -8 c 13,-2 21,-5 24,-8 8,-7 16,-21 25,-43 l 105,-244 h 7 l 104,247 c 8,20 16,32 23,38 6,6 16,10 28,10 v 8 h -117 v -8 c 11,0 19,-2 24,-6 4,-3 6,-7 6,-12 0,-6 -3,-16 -9,-30 z m -6,-16 -50,-120 -52,120 z" />
   <path
   id="path3996"
   class="fil17"
   d="m 4082,1946 v 45 c 17,-30 34,-45 52,-45 8,0 14,2 20,7 5,5 7,11 7,17 0,6 -1,11 -5,15 -4,4 -8,6 -14,6 -5,0 -10,-3 -17,-8 -6,-5 -11,-8 -14,-8 -2,0 -5,2 -8,5 -7,6 -14,16 -21,30 v 95 c 0,11 2,20 5,26 1,4 5,7 10,9 4,3 11,4 20,4 v 8 h -103 v -8 c 11,0 18,-1 23,-4 4,-3 6,-6 8,-12 1,-2 1,-9 1,-21 v -77 c 0,-24 0,-37 -1,-42 -1,-4 -3,-8 -6,-10 -2,-2 -5,-3 -9,-3 -5,0 -10,1 -16,4 l -2,-8 61,-25 z" />
   <path
   id="path3998"
   class="fil17"
   d="m 4272,1946 c 30,0 55,11 73,34 16,20 24,43 24,68 0,18 -5,36 -13,55 -9,18 -21,32 -36,41 -15,10 -32,14 -51,14 -30,0 -54,-12 -72,-36 -15,-20 -22,-43 -22,-68 0,-18 4,-37 13,-55 9,-18 21,-31 36,-40 15,-9 31,-13 48,-13 z m -7,14 c -8,0 -15,3 -23,7 -8,5 -15,13 -19,24 -5,12 -8,26 -8,45 0,29 6,54 18,75 11,21 27,32 46,32 14,0 26,-6 35,-18 9,-12 14,-32 14,-60 0,-35 -8,-63 -23,-84 -11,-14 -24,-21 -40,-21 z" />
   <path
   id="path4000"
   class="fil17"
   d="m 4574,1952 v 122 c 0,22 1,36 2,42 1,5 3,8 5,10 2,2 5,3 8,3 5,0 10,-1 16,-3 l 3,8 -60,24 h -10 v -42 c -18,19 -31,30 -40,35 -9,5 -18,7 -29,7 -11,0 -21,-3 -29,-9 -8,-7 -14,-15 -17,-26 -3,-10 -5,-24 -5,-43 v -89 c 0,-10 -1,-16 -3,-20 -2,-4 -5,-7 -9,-8 -4,-2 -11,-3 -22,-3 v -8 h 71 v 134 c 0,19 3,31 9,37 7,6 15,9 24,9 6,0 13,-2 21,-6 8,-4 18,-12 29,-23 v -113 c 0,-12 -2,-20 -7,-24 -4,-4 -12,-6 -26,-6 v -8 z" />
   <path
   id="path4002"
   class="fil17"
   d="m 4793,2076 c -5,27 -16,47 -31,61 -16,14 -34,21 -53,21 -23,0 -43,-9 -59,-28 -18,-19 -26,-45 -26,-78 0,-31 9,-57 28,-77 19,-19 42,-29 68,-29 20,0 36,5 49,16 12,10 19,21 19,32 0,6 -2,10 -6,13 -3,4 -8,6 -15,6 -8,0 -15,-3 -19,-9 -3,-3 -4,-9 -5,-17 -1,-9 -4,-16 -9,-20 -5,-5 -12,-7 -21,-7 -15,0 -27,6 -36,16 -12,15 -17,34 -17,57 0,24 5,45 17,64 12,18 28,27 48,27 14,0 27,-5 39,-14 8,-7 16,-19 23,-37 z" />
   <path
   id="path4004"
   class="fil17"
   d="m 4935,2123 c -20,16 -33,25 -38,28 -8,4 -17,5 -26,5 -14,0 -25,-4 -34,-14 -9,-9 -13,-22 -13,-37 0,-10 2,-19 6,-26 6,-10 17,-19 31,-28 15,-8 40,-19 74,-32 v -7 c 0,-20 -3,-34 -9,-42 -6,-7 -16,-11 -28,-11 -9,0 -16,3 -22,8 -5,5 -8,10 -8,17 v 13 c 0,6 -1,11 -5,15 -3,4 -8,6 -13,6 -6,0 -10,-2 -14,-6 -3,-4 -5,-9 -5,-16 0,-12 7,-24 19,-34 13,-11 32,-16 55,-16 18,0 32,3 44,9 8,4 15,11 19,21 3,6 4,19 4,38 v 68 c 0,19 0,31 1,35 1,5 2,8 4,9 1,1 3,2 5,2 3,0 5,0 7,-1 3,-2 9,-8 17,-16 v 12 c -16,22 -32,33 -47,33 -7,0 -13,-2 -17,-7 -4,-5 -6,-14 -7,-26 z m 0,-14 v -76 c -22,9 -36,15 -43,18 -11,7 -20,13 -25,20 -5,7 -7,15 -7,23 0,11 3,20 9,27 7,6 14,10 22,10 11,0 26,-7 44,-22 z" />
   <polygon
   class="fil18"
   points="910,1175 169,2003 638,2765 1807,2019 "
   id="polygon4006" />
   <path
   class="fil19"
   d="m 859,1855 1,-5 1,-6 1,-6 1,-6 2,-7 2,-6 3,-6 2,-6 3,-7 2,-6 3,-6 3,-6 4,-5 3,-6 3,-6 4,-5 3,-4 4,-5 4,-4 3,-3 4,-4 4,-2 3,-3 4,-1 4,-1 3,-1 h 3 l 4,1 3,1 3,2 3,3 3,4 -1,6 -1,6 -1,5 -1,6 -1,6 -1,6 -1,6 -1,6 -2,5 -1,6 -2,6 -1,5 -2,6 -1,5 -2,6 -2,5 -2,5 -2,6 -2,5 -2,5 -2,5 -3,5 -2,5 -2,4 -3,5 -3,5 -2,4 -3,4 -3,5 -3,3 -3,4 -3,4 -2,-1 -2,-2 -2,-3 -3,-3 -2,-3 -3,-4 -2,-3 -3,-4 -2,-4 -3,-4 -2,-4 -2,-4 -1,-4 -2,-4 -1,-3 z m -260,31 1,-8 2,-8 3,-9 3,-8 3,-8 5,-9 4,-7 5,-7 5,-6 5,-6 5,-4 5,-2 5,-2 4,1 5,2 4,4 -2,8 -1,8 -2,8 -1,7 -2,8 -3,7 -2,8 -2,7 -3,7 -3,7 -3,7 -3,7 -4,6 -4,6 -4,6 -4,5 -2,-3 -3,-4 -4,-5 -3,-6 -3,-5 -3,-5 -2,-4 z m 493,176 1,-5 v -5 l 1,-5 v -6 -4 l 1,-5 1,-5 1,-5 v -5 l 1,-5 1,-5 1,-4 1,-5 1,-5 1,-4 2,-5 1,-4 1,-5 1,-4 2,-5 1,-4 2,-5 1,-4 2,-5 1,-4 2,-5 2,-4 1,-5 2,-4 2,-4 2,-5 1,-4 3,4 2,4 2,4 3,5 3,4 3,5 4,4 4,4 3,-1 h 2 l 3,-1 h 2 l 2,-1 h 2 l 3,-1 2,-1 h 2 l 2,-1 h 3 l 2,-1 h 2 l 2,-1 3,-1 h 2 l 1,-7 1,-7 2,-6 2,-6 2,-6 2,-6 3,-6 2,-6 3,-7 3,-6 3,-7 2,-8 3,-8 3,-9 2,-10 3,-11 3,7 3,6 3,7 3,6 2,7 3,7 2,7 2,7 2,7 2,7 2,8 2,7 2,7 2,8 1,7 2,8 1,7 1,8 2,8 1,7 1,8 1,8 1,7 1,8 1,8 1,7 1,8 1,7 1,8 1,7 v 7 l 1,8 2,8 3,6 6,3 6,2 5,-1 6,-3 3,-4 2,-6 -1,-9 -1,-8 -2,-9 -1,-8 -1,-9 -1,-8 -2,-9 -1,-9 -2,-8 -1,-9 -2,-8 -2,-9 -2,-8 -2,-9 -2,-8 -2,-8 -2,-9 -3,-8 -2,-8 -3,-9 -2,-8 -3,-8 -3,-8 -3,-8 -3,-8 -3,-8 -3,-8 -3,-8 -3,-8 -4,-8 -3,-7 -4,-8 v -8 l 1,-9 v -9 l 1,-9 1,-10 1,-9 1,-10 1,-9 1,-10 2,-9 1,-9 2,-8 1,-9 2,-7 2,-7 1,-7 1,-2 v -2 -2 -3 -2 l 1,-2 v -1 -2 l -17,52 -4,-4 4,-14 8,-49 -2,5 -1,5 -2,5 -1,5 -1,5 -2,5 -1,5 -1,5 -2,6 -1,5 -1,5 -1,5 -2,5 -1,5 -1,5 -1,5 -1,5 -1,6 -1,5 -1,5 -1,5 -1,5 -1,6 -1,5 -1,5 -1,5 -1,6 -1,5 -1,5 -1,5 -1,6 -1,5 -5,-3 -4,-1 -5,-1 -5,-1 -5,1 -4,1 -5,2 -6,3 -5,3 -5,3 -5,4 -5,5 -6,5 -6,5 -6,6 -6,6 -1,-5 -2,-5 -2,-6 -2,-4 -1,-5 -2,-5 -1,-5 -2,-4 -1,-5 -2,-6 -1,-5 -2,-5 -2,-6 -2,-6 -2,-7 -2,-7 -3,-4 -4,-2 -4,-1 -4,1 -3,1 -3,2 -2,3 -2,4 1,8 2,9 1,8 2,9 2,9 2,9 2,9 3,9 2,9 2,9 3,8 2,7 3,8 2,6 3,6 2,6 -3,6 -2,6 -3,6 -3,6 -2,6 -3,6 -2,5 -2,6 -3,6 -2,6 -3,6 -2,6 -2,5 -2,6 -2,6 -3,6 -1,-8 -2,-8 -2,-8 -1,-8 -2,-8 -2,-7 -2,-9 -2,-7 -2,-8 -2,-8 -2,-8 -3,-8 -2,-7 -2,-8 -3,-8 -2,-8 -3,-7 -2,-8 -3,-7 -2,-8 -3,-8 -3,-7 -3,-8 -3,-7 -3,-8 -3,-7 -3,-8 -3,-7 -3,-7 -4,-7 -3,-8 -3,-7 v -6 -6 -6 -7 -6 l 1,-7 v -7 -7 l 1,-7 1,-7 v -7 l 1,-8 1,-7 1,-7 v -7 l 1,-7 1,-7 1,-7 1,-7 1,-7 1,-7 2,-7 v -6 l 2,-6 1,-7 1,-6 1,-5 1,-6 1,-5 1,-5 1,-5 1,-4 2,-5 v -4 -3 -3 -3 -2 -2 l 1,-2 -24,75 -5,-8 2,-21 15,-71 -2,8 -3,7 -2,8 -2,7 -2,8 -2,7 -2,8 -2,8 -2,7 -2,8 -2,7 -2,8 -1,8 -2,7 -2,8 -1,8 -2,7 -1,8 -2,8 -2,7 -1,8 -2,8 -1,8 -2,7 -1,8 -1,8 -2,8 -1,8 -2,7 -1,8 -2,8 -1,8 -8,-4 -7,-3 -7,-1 h -8 l -7,1 -7,2 -7,3 -8,4 -7,5 -8,5 -8,6 -8,7 -8,8 -9,8 -9,8 -9,9 -3,-9 -3,-7 -2,-7 -3,-8 -2,-7 -2,-7 -2,-7 -2,-8 -3,-7 -2,-8 -2,-8 -3,-8 -3,-9 -3,-10 -3,-10 -3,-11 -5,-5 -5,-3 -5,-1 -6,1 -5,3 -4,4 -4,4 -2,6 1,6 v 6 l 1,6 1,6 1,7 2,6 1,7 1,6 1,7 2,6 1,7 2,7 1,6 2,7 2,7 1,6 2,7 2,6 2,6 2,6 1,7 2,6 2,5 2,6 2,5 2,6 2,5 2,5 2,5 2,4 2,4 2,4 -4,9 -4,9 -4,9 -4,9 -3,9 -4,9 -4,9 -3,8 -4,9 -3,9 -3,9 -4,8 -3,9 -3,9 -3,9 -3,9 -1,-7 -1,-6 -1,-6 -2,-6 -1,-6 -1,-6 -1,-6 -2,-6 -1,-6 -2,-6 -1,-6 -2,-6 -2,-6 -1,-6 -2,-6 -2,-6 -2,-6 -1,-5 -2,-6 -2,-6 -2,-6 -2,-5 -3,-6 -2,-6 -2,-5 -2,-6 -3,-6 -2,-5 -3,-6 -2,-6 -3,-5 -2,-6 v -8 -9 l 1,-9 v -10 l 1,-9 1,-10 1,-9 1,-10 2,-10 1,-9 1,-8 2,-9 1,-8 2,-8 1,-7 2,-6 1,-2 v -2 -2 l 1,-3 -1,-2 v -2 -1 -2 l -16,52 -4,-4 3,-14 10,-49 -1,5 -2,5 -2,5 -1,5 -2,5 -1,5 -2,5 -1,5 -2,6 -1,5 -1,5 -2,5 -1,5 -1,5 -1,5 -1,5 -1,5 -1,6 -1,5 -1,5 -1,5 -1,5 -1,6 -1,5 -1,5 -1,5 -1,6 -1,5 -1,5 -1,5 -1,6 -1,5 -5,-3 -5,-1 -5,-1 -5,-1 -5,1 -4,1 -5,2 -5,3 -5,3 -5,3 -5,4 -5,5 -6,5 -5,5 -6,6 -6,6 -2,-5 -2,-5 -2,-6 -2,-4 -2,-5 -1,-5 -2,-5 -1,-4 -2,-5 -2,-6 -1,-5 -2,-5 -2,-6 -2,-6 -2,-7 -2,-7 -3,-4 -4,-2 -3,-1 -4,1 -3,1 -3,2 -2,3 -2,4 1,8 1,9 2,8 1,9 2,9 2,9 3,9 2,9 3,9 2,9 3,8 2,7 3,8 3,6 2,6 3,6 -2,6 -3,5 -2,6 -3,5 -2,6 -2,5 -3,6 -2,5 -2,6 -2,5 -3,6 -2,5 -2,5 -2,6 -2,5 -1,6 -2,5 -2,6 -2,6 -2,5 -1,6 -1,6 -2,5 -1,6 -1,6 -1,6 -1,6 -1,6 -1,6 -1,7 v 6 7 l 1,7 2,7 3,4 4,3 5,1 5,-2 6,-4 6,-6 1,-5 v -6 -5 l 1,-5 v -5 l 1,-5 1,-5 1,-6 v -5 l 1,-5 1,-5 1,-5 1,-5 1,-4 1,-5 2,-5 1,-5 1,-5 2,-5 1,-4 1,-5 2,-5 1,-5 2,-4 2,-5 1,-5 2,-4 1,-5 2,-5 2,-4 2,-5 1,-4 2,4 3,4 2,4 3,5 3,4 3,5 3,4 4,4 3,-1 h 2 l 3,-1 h 3 l 2,-1 h 3 l 2,-1 3,-1 h 2 l 2,-1 h 3 l 2,-1 h 2 l 3,-1 2,-1 h 3 l 1,-7 1,-7 1,-6 2,-6 1,-6 3,-6 2,-6 2,-6 3,-7 2,-6 3,-7 3,-8 2,-8 3,-9 3,-10 2,-11 3,7 3,6 3,7 3,6 3,7 2,7 3,7 2,7 2,7 2,7 2,8 2,7 2,7 2,8 1,7 2,8 1,7 1,8 2,8 1,7 1,8 1,8 1,7 1,8 1,8 1,7 v 8 l 1,7 1,8 1,7 v 7 l 1,8 v 1 1 1 1 l 1,1 v 1 l 1,1 v 1 3 l -1,3 v 4 l -1,3 v 3 l -1,3 v 3 3 l -1,4 v 3 3 l -1,3 v 4 3 4 3 6 l 2,6 1,5 2,4 2,4 3,3 3,2 4,2 h 3 l 4,1 4,-1 4,-2 4,-2 4,-3 4,-4 4,-5 1,-8 v -8 l 1,-8 v -8 l 1,-8 1,-8 1,-8 1,-7 1,-8 2,-7 1,-8 2,-7 1,-8 2,-7 1,-7 2,-7 2,-8 2,-7 2,-7 2,-7 2,-7 2,-7 3,-7 2,-7 3,-7 2,-6 2,-7 3,-7 2,-7 3,-7 3,-6 2,-7 2,3 2,3 1,3 2,3 2,3 2,3 2,4 2,3 2,3 2,4 3,3 2,3 3,3 3,3 3,3 3,3 4,-1 h 4 l 4,-1 3,-1 4,-1 4,-1 3,-1 4,-1 h 4 l 3,-1 4,-1 4,-1 3,-1 4,-1 h 3 l 4,-1 v -5 l 1,-6 v -4 l 1,-5 1,-5 1,-4 2,-5 1,-4 1,-5 2,-4 1,-5 2,-4 1,-5 2,-4 2,-5 2,-5 2,-4 2,-5 2,-5 2,-6 2,-5 2,-6 2,-6 2,-5 2,-7 2,-6 2,-7 2,-7 2,-7 2,-8 2,-8 1,-8 5,9 5,10 4,10 4,10 4,10 4,11 3,10 4,11 3,11 3,11 3,11 2,11 3,11 2,11 3,12 2,11 2,11 2,12 2,11 2,12 1,11 2,12 1,11 2,12 1,11 1,11 2,12 1,11 1,11 2,11 1,11 1,11 v 7 l 1,5 3,5 3,4 3,3 5,2 4,1 5,1 h 5 l 4,-1 5,-2 4,-2 3,-3 2,-4 2,-4 1,-5 -1,-4 v -3 l -1,-4 v -3 l -1,-4 v -3 l -1,-4 v -3 l -1,-4 v -4 l -1,-3 -1,-4 v -3 -4 l -1,-3 z m 59,-176 1,-8 1,-8 3,-9 3,-8 3,-8 4,-9 5,-7 4,-7 5,-6 5,-6 5,-4 5,-2 4,-2 5,1 4,2 4,4 -1,8 -2,8 -1,8 -2,7 -1,8 -2,7 -2,8 -3,7 -2,7 -3,7 -3,7 -3,7 -4,6 -4,6 -4,6 -4,5 -2,-3 -3,-4 -3,-5 -4,-6 -3,-5 -2,-5 -2,-4 z m -542,-239 7,2 5,2 5,3 4,4 4,4 2,5 1,5 v 6 l -1,4 -2,4 -4,4 -4,3 -5,2 -5,2 -7,1 -6,1 -6,-1 -6,-3 -5,-3 -4,-4 -4,-4 -2,-5 -1,-5 v -5 l 1,-5 2,-4 4,-4 4,-3 5,-3 5,-2 7,-1 z m 265,-146 4,1 5,2 4,1 4,2 4,2 4,2 3,3 3,3 3,3 2,3 2,4 2,3 1,4 v 4 l 1,4 -1,4 v 3 l -1,3 -2,4 -2,3 -2,3 -3,3 -3,2 -4,2 -3,2 -4,2 -5,2 -4,1 -5,1 h -4 -5 -5 l -5,-1 -4,-1 -4,-1 -4,-2 -4,-2 -4,-2 -3,-3 -3,-3 -2,-3 -3,-3 -2,-3 -1,-4 -2,-3 v -4 -4 -3 l 1,-4 1,-4 1,-3 2,-3 2,-3 3,-3 3,-3 3,-2 4,-2 4,-2 4,-1 4,-1 5,-1 5,-1 5,-1 z m 286,146 6,2 5,2 5,3 5,4 4,4 2,5 2,5 v 6 l -1,4 -3,4 -3,4 -5,3 -5,2 -6,2 -6,1 -7,1 -6,-1 -5,-3 -6,-3 -4,-4 -4,-4 -2,-5 -1,-5 v -5 l 1,-5 3,-4 3,-4 4,-3 6,-3 5,-2 6,-1 z"
   id="path4008" />
   
   
   
   
   
   
   
   
   
   
   
   
   
   
   
   
   
   
   
   
   
   
   
   
   
   
   
   
   
   
   
   
   
   
   
   
   
   
   
   
   
   
   
   
   
   
   
   
   
   
   
   
   
   
   
   
   
   
   
   
   
   
   
   
   
   
   
   
   
   
   
   
   
   
   
   
   
   
   
   
   
   
   
   
   
   
   
   
   
   
   
   
   
   
   
   
   
   
   
   
   
   
   
   
   
   
   
   
   
   
   
   
   
   
   
   
   
   
   
   
   
   
   
   
   
   
   
   
   
   
   
   
   
   
   
   
   
   
   
   
   
   
   
   
   
   
   
   
   
   
   
   
   
   
   
   
   
   
   
   
   
   
   
   
   
   
   
   
   
   
   
   
   
   
   
   
   
   
   
   
   
   
   
   
   
   
   
   
   
   
   
   
   
   
   
   
   
   
   
   
   
   
   
   
   
   
   
   
   
   
   
   
   
   
   
   
   
   
   
   
   
   
   
   
   
   
   
   
   
   
   
   
   
   
   
   
   
   
   
   
   
   
   
   
   
   
   
   
   
   
   
   
   
   
   
   
   
   
   
   
   
   
   
   
   
   
   
   
   
   
   
   
   
   
   
   
   
   
   
   
   
   
   
   
   
   
   
   
   
   
   
   
   
   
   
   
   
   
   
   
   
   
   
   
   
   
   
   
   
   
   
   
   
   
   
   
   
   
   
   
   
   
   
   
   
   
   
   
   
   
   
   
   
   
   
   
   
   
   
   
   
   
   
   
   
   
   
   
   
   
   
   
   
   
   
   
   
   
   
   
   
   
   
   
   
   
   
   
   
   
   
   
   
   
   
   
   
   
   
   
   
   
   
   
   
   
   
   
   
   
   
   
   
   
   
   
   
   
   
   
   
   
   
   
   
   
   
   
   
   
   
   
   
   
   
   
   
   
   
   
   
   
   
   
   
   
   
   
   
   
   
   
   
   
   
   
   
   
   
   
   
   
   
   
   
   
   
   
   
   
   
   
   
   
   
   
   
   
   
   
   
   
   
   
   
   
   
   
   
   
   
   
   
   
   
   
   
   
   
   
   
   
   
   
   
   
   
   
   
   
   
   
   
   
   
   
   
   
   
   
   
   
   
   
   
   
   
   
   
   
   
   
   
   
   
   
   
   
   
   
   
   
   
   
   
   
   
   
   
   
   
   
   
   
   
   
   
   
   
   
   
   
   
   
   
   
   
   
   
   
   
   
   
   
   
   
   
   
   
   
   
   
   
   
   
   
   
   
   
   
   
   
   
   
   
   
   
   
   
   
   
   
   
   
   
   
   
   
   
   
   
   
   
   
   
   
   
   
   
   
  </g>
 </g>
</svg>
