<?xml version="1.0" encoding="UTF-8" standalone="no"?>
<!-- Creator: CorelDRAW X7 -->

<svg
   xml:space="preserve"
   width="34mm"
   height="15mm"
   version="1.1"
   style="clip-rule:evenodd;fill-rule:evenodd;image-rendering:optimizeQuality;shape-rendering:geometricPrecision;text-rendering:geometricPrecision"
   viewBox="0 0 3400.4233 1500.1883"
   id="svg5546"
   sodipodi:docname="faperj.svg"
   inkscape:version="1.1 (1:1.1+202105261517+ce6663b3b7)"
   xmlns:inkscape="http://www.inkscape.org/namespaces/inkscape"
   xmlns:sodipodi="http://sodipodi.sourceforge.net/DTD/sodipodi-0.dtd"
   xmlns="http://www.w3.org/2000/svg"
   xmlns:svg="http://www.w3.org/2000/svg"><sodipodi:namedview
   id="namedview5548"
   pagecolor="#ffffff"
   bordercolor="#666666"
   borderopacity="1.0"
   inkscape:pageshadow="2"
   inkscape:pageopacity="0.0"
   inkscape:pagecheckerboard="0"
   inkscape:document-units="mm"
   showgrid="false"
   inkscape:zoom="2.3232521"
   inkscape:cx="137.73796"
   inkscape:cy="117.29248"
   inkscape:window-width="1680"
   inkscape:window-height="986"
   inkscape:window-x="0"
   inkscape:window-y="27"
   inkscape:window-maximized="1"
   inkscape:current-layer="_1660824352032" />
 <defs
   id="defs36">
  <style
   type="text/css"
   id="style2">
   <![CDATA[
    .str2 {stroke:#E88734;stroke-width:141.127}
    .str4 {stroke:#A6CE53;stroke-width:123.485}
    .str26 {stroke:#373435;stroke-width:21.1726}
    .str18 {stroke:#96989A;stroke-width:26.4533}
    .str3 {stroke:#FEFEFE;stroke-width:105.843}
    .str7 {stroke:black;stroke-width:11.1514}
    .str10 {stroke:black;stroke-width:8.9311}
    .str21 {stroke:#E6E7E8;stroke-width:35.2744}
    .str5 {stroke:#201E1E;stroke-width:35.2744}
    .str22 {stroke:#D2D3D5;stroke-width:20.0025}
    .str27 {stroke:#A9ABAE;stroke-width:20.0025}
    .str25 {stroke:#373435;stroke-width:20.0025}
    .str1 {stroke:#E88734;stroke-width:20.0025}
    .str0 {stroke:#BDBFC1;stroke-width:17.6322}
    .str19 {stroke:#4B4B4D;stroke-width:17.6322}
    .str23 {stroke:#FEFEFE;stroke-width:7.62094}
    .str17 {stroke:#96989A;stroke-width:7.62094}
    .str20 {stroke:#4B4B4D;stroke-width:7.62094}
    .str8 {stroke:black;stroke-width:11.1514;stroke-linejoin:round}
    .str9 {stroke:black;stroke-width:0.0400049;stroke-linecap:round;stroke-linejoin:round}
    .str6 {stroke:#282828;stroke-width:44.2055}
    .str11 {stroke:#373435;stroke-width:18.7423}
    .str13 {stroke:#373435;stroke-width:3.50043}
    .str14 {stroke:#373435;stroke-width:3.51043}
    .str12 {stroke:#373435;stroke-width:1.01012}
    .str15 {stroke:#373435;stroke-width:34.6143}
    .str16 {stroke:#373435;stroke-width:34.6143}
    .str24 {stroke:#FEFEFE;stroke-width:53.0566}
    .fil3 {fill:none}
    .fil23 {fill:none;fill-rule:nonzero}
    .fil20 {fill:#FEFEFE}
    .fil6 {fill:#FEFEFE}
    .fil0 {fill:#E6E7E8}
    .fil30 {fill:#848688}
    .fil34 {fill:#606062}
    .fil31 {fill:#4B4B4D}
    .fil27 {fill:#373435}
    .fil32 {fill:#373435}
    .fil22 {fill:#ACB3AC}
    .fil21 {fill:#282828}
    .fil26 {fill:#201E1E}
    .fil25 {fill:#201E1E}
    .fil11 {fill:#004B92}
    .fil41 {fill:#12AED7}
    .fil38 {fill:#2B5492}
    .fil39 {fill:#2F691D}
    .fil7 {fill:#367372}
    .fil18 {fill:#709D21}
    .fil37 {fill:#8FC73E}
    .fil40 {fill:#A34963}
    .fil43 {fill:#D91F2C}
    .fil19 {fill:#E3F1E0}
    .fil29 {fill:#E88734}
    .fil16 {fill:#EF9E57}
    .fil15 {fill:#EF9E57}
    .fil35 {fill:#F19317}
    .fil9 {fill:#F1F1F1}
    .fil36 {fill:#F3BF07}
    .fil13 {fill:#FDFDFD}
    .fil12 {fill:#FEFEFE}
    .fil5 {fill:#FEFEFE;fill-rule:nonzero}
    .fil17 {fill:#96989A;fill-rule:nonzero}
    .fil2 {fill:#4B4B4D;fill-rule:nonzero}
    .fil14 {fill:#373435;fill-rule:nonzero}
    .fil4 {fill:#373435;fill-rule:nonzero}
    .fil33 {fill:#201E1E;fill-rule:nonzero}
    .fil42 {fill:#D91F2C;fill-rule:nonzero}
    .fil10 {fill:#DADCE0;fill-rule:nonzero}
    .fil1 {fill:#E88734;fill-rule:nonzero}
    .fil24 {fill:black;fill-rule:nonzero}
    .fil28 {fill:white;fill-rule:nonzero}
    .fil8 {fill:#D2D3D5;fill-opacity:0.458824}
   ]]>
  </style>
    <clipPath
   id="id0">
     <path
   d="M 24,2683 H 36167 V 23577 H 24 Z"
   id="path4" />
    </clipPath>
    <mask
   id="id1">
  <linearGradient
   id="id2"
   gradientUnits="userSpaceOnUse"
   x1="-33.794201"
   y1="5327.6299"
   x2="36205.602"
   y2="4090.3">
   <stop
   offset="0"
   style="stop-opacity:1; stop-color:white"
   id="stop7" />
   <stop
   offset="0.980392"
   style="stop-opacity:-95.8784; stop-color:white"
   id="stop9" />
   <stop
   offset="1"
   style="stop-opacity:0; stop-color:white"
   id="stop11" />
  </linearGradient>
     <rect
   style="fill:url(#id2)"
   x="15"
   y="2671"
   width="36142"
   height="4077"
   id="rect14" />
    </mask>
    <mask
   id="id3">
  <linearGradient
   id="id4"
   gradientUnits="userSpaceOnUse"
   x1="15052.7"
   y1="16018.4"
   x2="36353.301"
   y2="15291.1">
   <stop
   offset="0"
   style="stop-opacity:1; stop-color:white"
   id="stop17" />
   <stop
   offset="0.988235"
   style="stop-opacity:-95.8784; stop-color:white"
   id="stop19" />
   <stop
   offset="1"
   style="stop-opacity:0; stop-color:white"
   id="stop21" />
  </linearGradient>
     <rect
   style="fill:url(#id4)"
   x="15244"
   y="9384"
   width="20918"
   height="12542"
   id="rect24" />
    </mask>
    <clipPath
   id="id5">
     <rect
   x="4123"
   y="215"
   width="771"
   height="535"
   id="rect27" />
    </clipPath>
     <clipPath
   id="id6">
      <rect
   x="4123"
   y="215"
   width="771"
   height="535"
   id="rect30" />
     </clipPath>
     <clipPath
   id="id7">
      <path
   d="m 28193,30240 h 7219 v 5816 h -7219 z"
   id="path33" />
     </clipPath>
 </defs>
 <g
   id="Camada_x0020_1"
   inkscape:label="Camada 1"
   inkscape:groupmode="layer">
  <metadata
   id="CorelCorpID_0Corel-Layer" />
  <g
   id="_1660824352032">
   
   
   
   
   
   
   
   
   
   
   
   
   
   
   
   
   
   
   
   
   
   
   
   
   
   
   
   
   
   
   
   
   
   
   
   
   
   
   
   
   
   
   
   
   
   
   
   
   
   
   
   
   
   
   
   
   
   
   
   
   
   
   
   
   
   
   
   
   
   
   
   
   
   
   
   
   
   
   
   
   
   
   
   
   
   
   
   
   
   
   
   
   
   
   
   
   
   
   
   
   
   
   
   
   
   
   
   
   
   
   
   
   
   
   
   
   
   
   
   
   
   
   
   
   
   
   
   
   
   
   
   
   
   
   
   
   
   
   
   
   
   
   
   
   
   
   
   
   
   
   
   
   
   
   
   
   
   
   
   
   
   
   
   
   
   
   
   
   
   
   
   
   
   
   
   
   
   
   
   
   
   
   
   
   
   
   
   
   
   
   
   
   
   
   
   
   
   
   
   
   
   
   
   
   
   
   
   
   
   
   
   
   
   
   
   
   
   
   
   
   
   
   
   
   
   
   
   
   
   
   
   
   
   
   
   
   
   
   
   
   
   
   
   
   
   
   
   
   
   
   
   
   
   
   
   
   
   
   
   
   
   
   
   
   
   
   
   
   
   
   
   
   
   
   
   
   
   
   
   
   
   
   
   
   
   
   
   
   
   
   
   
   
   
   
   
   
   
   
   
   
   
   
   
   
   
   
   
   
   
   
   
   
   
   
   
   
   
   
   
   
   
   
   
   
   
   
   
   
   
   
   
   
   
   
   
   
   
   
   
   
   
   
   
   
   
   
   
   
   
   
   
   
   
   
   
   
   
   
   
   
   
   
   
   
   
   
   
   
   
   
   
   
   
   
   
   
   
   
   
   
   
   
   
   
   
   
   
   
   
   
   
   
   
   
   
   
   
   
   
   
   
   
   
   
   
   
   
   
   
   
   
   
   
   
   
   
   
   
   
   
   
   
   
   
   
   
   
   
   
   
   
   
   
   
   
   
   
   
   
   
   
   
   
   
   
   
   
   
   
   
   
   
   
   
   
   
   
   
   
   
   
   
   
   
   
   
   
   
   
   
   
   
   
   
   
   
   
   
   
   
   
   
   
   
   
   
   
   
   
   
   
   
   
   
   
   
   
   
   
   
   
   
   
   
   
   
   
   
   
   
   
   
   
   
   
   
   
   
   
   
   
   
   
   
   
   
   
   
   
   
   
   
   
   
   
   
   
   
   
   
   
   
   
   
   
   
   
   
   
   
   
   
   
   
   
   
   
   
   
   
   
   
   
   
   
   
   
   
   
   
   
   
   
   
   
   
   
   
   
   
   
   
   
   
   
   
   
   
   
   
   
   
   
   
   
   
   
   
   
   
   
   
   
   
   
   
   
   
   
   
   
   
   
   
   
   
   
   
   
   
   
   
   
   
   
   
   
   
   
   
   
   
   
   
   
   
   
   
   
   
   
   
   
   
   
   
   
   
   
   
   
   
   
   
   
   
   
   
   
   
   
   
   
   
   
   
   
   
   
   
   
   
   
   
   
   
   
   
   
   
   
   
   
   
   
   
   
   
   
   
   
   
   
   
   
   
   
   
   
   
   
   
   
   
   
   
   
   
   
   
   
   
   
   
   
   
   
   
   
   
   
   
   
   
   
   
   
   
   
   
   
   
   
   
   
   
   
   
   
   
   
   
   
   
   
   
   
   
   
   
   
   
   
   
   
   
   
   
   
   
   
   
   
   
   
   
   
   
   
   
   
   
   
   
   
   
   
   
   
   
   
   
   
   
   
   
   
   
   
   
   
   
   
   
   
   
   
   
   
   
   
   
   
   
   
   
   
   
   
   
   
   
   
   
   
   
   
   
   
   
   
   
   
   
   
   
   
   
   
   
   
   
   
   
   
   
   
   
   
   
   
   
   
   
   
   
   
   
   
   
   
   
   
   
   
   
   
   
   
   
   
   
   
   
   
   
   
   
   
   
   
   
   
   
   
   
   
   
   
   
   
   
   
   
   
   
   
   
   
   
   
   
   
   
   
   
   
   
   
   
   
   
   
   
   
   
   
   
   
   
   
   
   
   
   
   
   
   
   
   
   
   
   
   
   
   
   
   
   
   
   
   
   
   
   
   
   
   
   
   
   
   
   
   
   
   
   
   
   
   
   
   
   
   
   
   
   
   
   
   
   
   
   
   
   
   
   
   
   
   
   
   
   
   
   
   
   
   
   
   
   
   
   
   
   
   
   
   
   
   
   
   
   
   
   
   
   
   
   
   
   
   
   
   
   
   
   
   
   
   
   
   
   
   
   
   
   
   
   
   
   
   
   
   
   
   
   
   
   
   
   
   
   
   
   
   
   
   
   
   
   
   
   
   
   
   
   
   
   
   
   
   
   
   
   
   
   
   
   
   
   
   
   
   
   
   
   
   
   
   
   
   
   
   
   
   
   
   
   
   
   
   
   
   
   
   
   
   
   
   
   
   
   
   
   
   
   
   
   
   
   
   
   
   
   
   
   
   
   
   
   
   
   
   
   
   
   
   
   
   
   
   
   
   
   
   
   
   
   
   
   
   
   
   
   
   
   
   
   
   
   
   
   
   
   
   
   
   
   
   
   
   
   
   
   
   
   
   
   
   
   
   
   
   
   
   
   
   
   
   
   
   
   
   
   
   
   
   
   
   
   
   
   
   
   
   
   
   
   
   
   
   
   
   
   
   
   
   
   
   
   
   
   
   
   
   
   
   
   
   
   
   
   
   
   
   
   
   
   
   
   
   
   
   
   
   
   
   
   
   
   
   
   
   
   
   
   
   
   
   
   
   
   
   
   
   
   
   
   
   
   
   
   
   
   
   
   
   
   
   
   
   
   
   
   
   
   
   
   
   
   
   
   
   
   
   
   
   
   
   
   
   
   
   
   
   
   
   
   
   
   
   
   
   
   
   
   
   
   
   
   
   
   
   
   
   
   
   
   
   
   
   
   
   
   
   
   
   
   
   
   
   
   
   
   
   
   
   
   
   
   
   
   
   
   
   
   
   
   
   
   
   
   
   
   
   
   
   
   
   
   
   
   
   
   
   
   
   
   
   
   
   
   
   
   
   
   
   
   
   
   
   
   
   
   
   
   
   
   
   
   
   
   
   
   
   
   
   
   
   
   
   
   
   
   
   
   
   
   
   
   
   
   
   
   
   
   
   
   
   
   
   
   
   
   
   
   
   
   
   
   
   
   
   
   
   
   
   
   
   
   
   
   
   
   
   
   
   
   
   
   
   
   
   
   
   
   
   
   
   
   
   
   
   
   
   
   
   
   
   
   
   
   
   
   
   
   
   
   
   
   
   
   
   
   
   
   
   
   
   
   
   
   
   
   
   
   
   
   
   
   
   
   
   
   
   
   
   
   
   
   
   
   
   
   
   
   
   
   
   
   
   
   
   
   
   
   
   
   
   
   
   
   
   
   
   
   
   
   
   
   
   
   
   
   
   
   
   
   
   
   
   
   
   
   
   
   
   
   
   
   
   
   
   
   
   
   
   
   
   
   
   
   
   
   
   
   
   
   
   
   
   
   
   
   
   
   
   
   
   
   
   
   
   
   
   
   
   
   
   
   
   
   
   
   
   
   
   
   
   
   
   
   
   
   
   
   
   
   
   
   
   
   
   
   
   
   
   
   
   
   
   
   
   
   
   
   
   
   
   
   
   
   
   
   
   
   
   
   
   
   
   
   
   
   
   
   
   
   
   
   
   
   
   
   
   
   
   
   
   
   
   
   
   
   
   
   
   
   
   
   
   
   
   
   
   
   
   
   
   
   
   
   
   
   
   
   
   
   
   
   
   
   
   
   
   
   
   
   
   
   
   
   
   
   
   
   
   
   
   
   
   
   
   
   
   
   
   
   
   
   
   
   
   
   
   
   
   
   
   
   
   
   
   
   
   
   
   
   
   
   
   
   
   
   
   
   
   
   
   
   
   
   
   
   
   
   
   
   
   
   
   
   
   
   
   
   
   
   
   
   
   
   
   
   
   
   
   
   
   
   
   
   
   
   
   
   
   
   
   
   
   
   
   
   
   
   
   
   
   
   
   
   
   
   
   
   
   
   
   
   
   
   
   
   
   
   
   
   
   
   
   
   
   
   
   
   
   
   
   
   
   
   
   
   
   
   
   
   
   
   
   
   
   
   
   
   
   
   
   
   
   
   
   
   
   
   
   
   
   
   
   
   
   
   
   
   
   
   
   
   
   
   
   
   
   
   
   
   
   
   
   
   
   
   
   
   
   
   
   
   
   
   
   
   
   
   
   
   
   
   
   
   
   
   
   
   
   
   
   
   
   
   
   
   
   
   
   
   
   
   
   
   
   
   
   
   
   
   
   
   
   
   
   
   
   
   
   
   
   
   
   
   
   
   
   
   
   
   
   
   
   
   
   
   
   
   
   
   
   
   
   
   
   
   
   
   
   
   
   
   
   
   
   
   
   
   
   
   
   
   
   
   
   
   
   
   
   
   
   
   
   
   
   
   
   
   
   
   
   
   
   
   
   
   
   
   
   
   
   
   
   
   
   
   
   
   
   
   
   
   
   
   
   
   
   
   
   
   
   
   
   
   
   
   
   
   
   
   
   
   
   
   
   
   
   
   
   
   
   
   
   
   
   
   
   
   
   
   
   
   
   
   
   
   
   
   
   
   
   
   
   
   
   
   
   
   
   
   
   
   
   
   
   
   
   
   
   
   
   
   
   
   
   
   
   
   
   
   
   
   
   
   
   
   
   
   
   
   
   
   
   
   
   
   
   
   
   
   
   
   
   
   
   
   
   
   
   
   
   
   
   
   
   
   
   
   
   
   
   
   
   
   
   
   
   
   
   
   
   
   
   
   
   
   
   
   
   
   
   
   
   
   
   
   
   
   
   
   
   
   
   
   
   
   
   
   
   
   
   
   
   
   
   
   
   
   
   
   
   
   
   
   
   
   
   
   
   
   
   
   
   
   
   
   
   
   
   
   
   
   
   
   
   
   
   
   
   
   
   
   
   
   
   
   
   
   
   
   
   
   
   
   
   
   
   
   
   
   
   
   
   
   
   
   
   
   
   
   
   
   
   
   
   
   
   
   
   
   
   
   
   
   
   
   
   
   
   
   
   
   
   
   
   
   
   
   
   
   
   
   
   
   
   
   
   
   
   
   
   
   
   
   
   
   
   
   
   
   
   
   
   
   
   
   
   
   
   
   
   
   
   
   
   
   
   
   
   
   
   
   
   
   
   
   
   
   
   
   
   
   
   
   
   
   
   
   
   
   
   
   
   
   
   
   
   
   
   
   
   
   
   
   
   
   
   
   
   
   
   
   
   
   
   
   
   
   
   
   
   
   
   
   
   
   
   
   
   
   
   
   
   
   
   
   
   
   
   
   
   
   
   
   <path
   class="fil25"
   d="m 1244.4844,665.74691 v 82.99994 h 114 c 15,0 30,-3 44,-8 v 74.99997 c -10,-5 -19,-8 -26,-9 -8,-1 -17,-1 -30,-1 h -102 v 95.99994 c 0,23 5,40 14,50.99997 h -158.9997 c 9,-11.99997 14,-28.99997 14,-50.99997 V 660.74691 c 0,-22 -5,-38.99967 -14,-50.99967 h 299.9997 l 11,64.99967 c -11,-4 -21,-7 -30,-8 -7,0 -21,0 -42,-1 z m 287,-55.99967 h 151 l 119.9997,301.99952 c 7,15 16,29 27,40.99997 h -172.9997 c 6,-6.99997 9,-13.99997 9,-22.99997 0,-9 -3,-20 -9,-33 l -15,-36.99997 h -142 l -21,46.99997 c -4,9 -6,17 -6,24 0,5 2,13 7,21.99997 h -97 c 16,-16.99997 29,-37.99997 41,-64.99994 l 121,-257.99958 c -3,-6.99997 -8,-13.99997 -13,-19.99997 z m 86,194.99958 -44,-106.99994 -48,106.99994 z m 364.9997,25 v 71.99994 c 1,22 6,39 15,50.99997 h -158 c 9,-11.99997 14,-28.99997 14,-50.99997 V 660.74691 c 0,-22 -5,-38.99967 -14,-50.99967 h 281 c 22,0 39,2 50,6 27,9 40,30.99967 41,64.99967 v 77.99994 c -1,24 -8,41.99997 -22,53.99997 -9,8 -21,13 -37,15 -6,1 -17,2 -32,2 z m 0,-56.99997 h 66 c 15,0 25,-3 30,-9 3,-4 4,-15 4,-30.99997 v -27 c 0,-14 -1,-24.99997 -4,-30.99997 -3,-5 -7,-7 -13,-8 -1,0 -4,-1 -10,-1 h -73 z m 401.9997,-106.99994 v 83.99994 h 105 c 21,0 37,-3 49,-8 v 72.99997 c -7,-5 -20,-8 -39,-9 h -115 v 89.99994 h 127 c 12,0 28,-3.99997 49,-10.99997 l -11,67.99994 h -309.9997 c 9,-11.99997 14,-28.99997 15,-50.99997 V 660.74691 c -1,-22 -6,-38.99967 -15,-50.99967 h 301.9997 l 10,63.99967 c -12,-4 -23,-7 -32,-7 -6,0 -15,-1 -28,-1 z m 383,140.99991 h -40 v 94.99994 c 1,22 5,39 14,50.99997 h -159 c 9,-11.99997 14,-28.99997 14,-50.99997 V 660.74691 c 0,-22 -5,-38.99967 -14,-50.99967 h 281.9997 c 22,0 39,2 51,6 26,9 40,30.99967 41,64.99967 v 73.99994 c 0,15 -2,27 -6,33.99997 -8,12 -19,18 -35,18 -3,0 -6,0 -10,0 l 47,98.99994 c 8,18 17,34 26,46.99997 h -150 z m -40,-56.99997 h 73 c 10.9997,0 17.9997,-2 21.9997,-6 3,-5 5,-12.99997 5,-23.99997 v -17 c 0,-16 -2,-25.99997 -5,-29.99997 -4,-5 -12,-7 -25.9997,-7 h -69 z m 247.9997,202.99988 -11,-67.99994 c 12,8 31,11.99997 57,10.99997 h 73 c 15,1 25,-2.99997 30,-9.99997 3,-5 4,-15 4,-30 V 660.74691 c -1,-23 -5,-39.99967 -14,-50.99967 h 159 c -9,11 -14,27.99967 -14,50.99967 v 193.99988 c -1,33 -7,56.99997 -20,69.99997 -9,11 -23,19 -40,23.99997 -9,3 -18,4 -28,4 z"
   id="path4498" />
   <path
   class="fil25"
   d="m 463.48533,842.74679 43.99997,-59.99994 c 97.99994,0 223.99958,-70.99997 296.99952,-169.99961 l 60.99997,1 C 770.48485,741.74685 591.48524,842.74679 463.48533,842.74679 Z"
   id="path4500" />
   <path
   class="fil25"
   d="m 807.48482,379.74736 -44.99997,59.99997 c -94.99964,0 -228.99958,77.99997 -299.99952,173.99991 H 400.48536 C 499.4853,480.7473 674.48521,379.74736 807.48482,379.74736 Z"
   id="path4502" />
   <path
   class="fil25"
   d="m 852.48479,318.74739 c 157.99991,0 190.99991,135.99994 72.99997,294.99985 H 865.48479 C 962.48473,483.7473 938.48476,378.74736 807.48482,378.74736 Z"
   id="path4504" />
   <path
   class="fil25"
   d="m 418.48533,902.74676 c -156.99991,0 -197.99988,-129.99991 -79.99994,-288.99952 h 61.99997 c -95.99994,128.99961 -68.99997,229.99955 61.99997,229.99955 z"
   id="path4506" />
   <path
   class="fil25"
   d="m 896.48476,259.74742 -43.99997,58.99997 c -158.99991,2 -400.99946,136.99994 -513.9994,294.99985 H 278.48542 C 423.48533,417.74736 707.48488,259.74742 896.48476,259.74742 Z"
   id="path4508" />
   <path
   class="fil25"
   d="m 374.48536,962.74673 43.99997,-59.99997 c 157.99994,-1 394.99949,-131.99991 506.99943,-288.99952 h 60.99997 C 844.48479,804.74682 565.48527,962.74673 374.48536,962.74673 Z"
   id="path4510" />
   <path
   class="fil25"
   d="M 1046.4847,613.74724 H 985.48473 C 1126.4847,424.74733 1088.4847,259.74742 896.48476,259.74742 l 45,-61.99994 c 225.99994,0 270.99994,191.99988 104.99994,415.99976 z"
   id="path4512" />
   <path
   class="fil25"
   d="m 284.48542,1082.7467 43.99997,-59 c 224.99988,0 543.9994,-176.99991 717.99931,-409.99946 h 61 C 909.48476,880.74679 550.48527,1082.7467 284.48542,1082.7467 Z"
   id="path4514" />
   <path
   class="fil25"
   d="m 462.48533,612.74724 h 60.99997 c -57.99997,73.99964 -49,106.99964 28.99997,110.99964 l -44.99997,58.99997 c -124.99994,0 -109.99994,-82.99997 -44.99997,-169.99961 z"
   id="path4516" />
   <path
   class="fil25"
   d="m 805.48482,613.74724 h -61.99997 c 46.99997,-63.99997 41,-112.99994 -25.99997,-112.99994 l 44.99997,-60.99997 c 84.99994,1 126.99994,58.99997 42.99997,173.99991 z"
   id="path4518" />
   <path
   class="fil25"
   d="m 985.48473,138.74751 -42.99997,58.99997 c -234.99988,-1 -556.9994,187.99988 -724.99931,415.99976 H 157.48548 C 352.48539,350.74739 725.48488,138.74751 985.48473,138.74751 Z"
   id="path4520" />
   <path
   class="fil25"
   d="m 217.48545,612.74724 h 61.99997 c -143.99961,192.99958 -98.99994,349.99949 93.99994,349.99949 l -44.99997,60.99997 c -227.99958,0 -277.999551,-185.99988 -110.99994,-410.99946 z"
   id="path4522" />
   <path
   class="fil25"
   d="m 161.48548,1132.7467 v 21 h 29 c 4,0 8,-1 11,-2 v 18.9997 c -2,-1 -4,-2 -6,-2 -2,-1 -5,-1 -8,-1 h -26 v 25 c 0,6 1,10 4,13 h -40.99967 c 2,-3 3,-7 4,-13 v -61.9997 c -1,-5 -2,-10 -4,-13 h 76.99967 l 2,17 c -2,-1 -5,-2 -7,-2 -2,0 -6,0 -11,0 z m 135.99994,8 v 48.9997 c 0,5 0,8 0,10 0,2 1,4 2,6 h -30 l -1,-6 c -1,2 -2,3 -3,4 -2,1 -5,2 -8.99997,2 h -24 c -4,0 -8,0 -10,-1 -3,-1 -5,-2 -6,-4 -3,-2 -5,-6 -5,-10 0,-2 0,-4 0,-7 v -26.9997 c 0,-5 0,-8 -1,-10 0,-2 0,-4 -2,-6 h 35 v 43.9997 c -1,6 2,9 7,9 h 7 c 2.99997,0 5.99997,-1 6.99997,-2 1,-1 1,-3 1,-6 v -28.9997 c 0,-5 0,-8 -1,-10 0,-2 0,-4 -2,-6 z m 42.99997,0 1,7 c 1,-3 2,-4 4,-5 2,-1 4,-2 7,-2 h 23.99997 c 5,0 8,1 11,2 7,4 10,10 10,19.9997 v 27 c 0,5 0,8 0,10 0,2 1,4 2,6 h -36.99997 c 2,-2 2,-4 2,-6 0.99997,-2 0.99997,-5 0.99997,-10 v -28.9997 c 0,-3 0,-5 -0.99997,-6 -1,-1 -3,-2 -6,-2 h -10 c -1,0 -3,1 -4,2 -1,0 -1,2 -1,5 v 29.9997 c 0,5 0,8 0,10 1,2 1,4 3,6 h -36.99997 c 1,-2 1,-4 2,-6 0,-2 0,-5 0,-10 v -32.9997 c 0,-5 0,-8 0,-10 -1,-2 -1,-4 -2,-6 z m 153.99991,-23 v 71.9997 c 0,5 0,8 1,10 0,2 0,4 2,6 h -29.99997 l -2,-6 c -1,2 -3,4 -5,5 -2,1 -5,1 -8,1 h -23 c -6,0 -11,-1 -12.99997,-3 -4,-2 -6,-5 -7,-9 0,-2 -1,-5 -1,-7 v -27.9997 c 0,-5 2,-9 5,-13 3,-3 6.99997,-5 11.99997,-5 h 27 c 5,0 8,2 10,6 v -12 c 0,-6 0,-9 0,-11 0,-2 -1,-4 -2,-6 z m -45.99997,75.9997 h 7 c 3,0 5,-1 6,-2 1,-2 1,-4 1,-7 v -23.9997 c 0,-2 0,-4 0,-4 -1,-2 -1,-2 -2,-3 -1,0 -3,-1 -4,-1 h -9 c -3,0 -4,1 -5,2 -1,1 -2,3 -2,6 v 25.9997 c 0,2 1,4 2,5 1,1 3,2 6,2 z m 61.99997,-52.9997 h 59.99997 c 4,0 7.99997,0 9.99997,1 2,1 4,2 6,4 2,1 3,3 4,5 1,3 2,5 2,9 v 29.9997 c 0,5 0,8 0,10 0,2 1,4 2,6 h -30.99997 c -1,-2 -2,-4 -2,-7 -1,2 -2,4 -5,6 -1,0 -3,1 -7,1 h -24 c -2.99997,0 -6.99997,0 -8.99997,-1 -3,-1 -6,-3 -8,-5 -2,-3 -3,-7 -3,-12 v -11 c 0,-5 2,-10 6,-12 2,-1 4,-2 7,-2.9997 1,0 3,0 4,0 h 29.99997 c 3,0 5,0 5,0 2,-1 3,-2 3,-5 0,-1 -1,-2 -2,-3 -1,0 -3,-1 -5,-1 H 522.4853 c -5,0 -10,1 -14,3 z m 49.99997,32.9997 h -15 c -4,1 -6,1 -7,3 0,1 -1,3 -1,6 v 2 c 0,3 1,5 1,7 1,1 3,2 7,2 h 7 c 3,0 5,-1 6,-2 1,-2 2,-4 2,-7 z m 83.99994,32 v 5 h 3 c 5,0 8,1 10,2 2,2 3,5 3,8 v 4 c 0,3 0,5 -1,6 0,1 -1,2 -2,3 -2,1 -6,1 -12,1 h -15 l -1.99997,-11 c 1.99997,1 2.99997,2 4.99997,2 2,0 3,0 6,0 h 3 c 2,0 4,0 4,0 2,-1 2,-2 2,-3 0,-2 0,-3 -1,-3 -1,-1 -3,-1 -5,-1 h -7 v -13 h -8.99997 c -1,0 -4,0 -9,-1 -2,0 -5,-1 -7,-3 -2,-2 -4,-4 -5,-6 -1,-2 -2,-5 -2,-8 v -28.9997 c 1,-12 8,-18 22,-18 h 47.99997 l 3,16 c -2,-2 -4,-3 -6,-3 -2,0 -4,-1 -7,-1 h -19 c -3,0 -6,1 -7,2 -1,1 -2,3 -2,6 v 25.9997 c 0,3 1,4 2,6 2,0 4,1 7,1 h 18 c 4,0 7,-1 9,-1 1,-1 3,-2 5,-3 l -3,16 z m 43.99967,-64.9997 h 58.99997 c 5,0 8,0 11,1 2,1 4,2 5,4 2,1 4,3 5,5 1,3 1,5 1,9 v 29.9997 c 0,5 0,8 1,10 0,2 1,4 2,6 h -32 c -1,-2 -1,-4 -2,-7 0,2 -2,4 -3.99997,6 -1,0 -4,1 -7,1 h -24 c -4,0 -7,0 -9,-1 -4,-1 -7,-3 -8,-5 -1.9997,-3 -2.9997,-7 -2.9997,-12 v -11 c 0,-5 2,-10 5.9997,-12 2,-1 4,-2 6,-2.9997 2,0 3,0 4,0 h 31 c 2,0 4,0 4.99997,0 2,-1 2,-2 2,-5 0,-1 0,-2 -1,-3 -1,0 -2.99997,-1 -5.99997,-1 h -30 c -6,0 -10,1 -14,3 z m 48.99997,32.9997 h -14.99997 c -3,1 -5,1 -6,3 -1,1 -1,3 -1,6 v 2 c 0,3 0,5 1,7 1,1 3,2 6,2 h 8 c 3,0 4.99997,-1 5.99997,-2 1,-2 1,-4 1,-7 z m 4,-59.9997 h 15 v 10 c 0,3 0,6 -1,7 -1,3 -4,4 -8,4 -4,0 -11,-2 -21.99997,-5 -3,-1 -5,-1 -7,-1 -1,0 -2,0 -3,2 0,0 -1,2 -1,3 0,0 0,1 0,1 h -15 v -10 c 0,-3 1,-6 2,-8 1,-2 4,-3 8,-3 2,0 8,1 16,3 7,2 10.99997,3 12.99997,3 2,0 3,-2 3,-6 z m 61.99997,27 h 41.99997 c 6,0 10,0 13,1 8,3 11,10 11,20 v 24.9997 c 0,13 -7,20 -22,19 h -40.99997 c -7,0 -11,0 -14,-1 -2,-1 -3,-2 -4.99997,-3 -2,-2 -3,-3 -4,-5 -1,-3 -2,-6 -2,-10 v -27.9997 c 0,-7 2,-12 7.99997,-15 2,-2 5,-3 8,-3 1,0 3,0 6,0 z m 10,20 v 24.9997 c 0,3 0,5 1,6 2,1 4,2 6,2 h 10 c 3,0 5,-1 6,-2 1,-2 1,-4 1,-6 v -24.9997 c 0,-2 0,-4 -1,-5 -2,-2 -4,-3 -8,-3 h -8 c -5,0 -7,3 -7,8 z m 173.99991,-43 3,18 c -2,-1 -4,-2 -6,-3 -2,0 -6,0 -10,0 h -19 c -3,0 -5,0 -5,0 -3,1 -3.99997,3 -3.99997,6 0,0 0,2 0,5 v 36.9997 c 0,4 0.99997,7 1.99997,9 2,1 3,1 5,1 1,0 2,0 4,0 h 17 c 7,1 13,0 17,-2 l -3,17 h -52.99997 c -8,0 -13,-3 -17,-7 -2,-2 -3,-4 -4,-5 -1,-2 -1,-4 -1,-6 -1,-3 -1,-5 -1,-7 v -37.9997 c 0,-5 1,-8 1,-11 1,-2 2,-4 4,-6 2,-2 4,-4 6,-5 3,-2 7,-3 12,-3 z m 16.99997,23 h 59 c 5,0 8,0 11,1 2,1 4,2 6,4 1,1 3,3 4,5 1,3 1,5 1,9 v 29.9997 c 0,5 1,8 1,10 0,2 1,4 2,6 h -32 c -1,-2 -1,-4 -2,-7 0,2 -2,4 -4,6 -1,0 -3,1 -7,1 h -24 c -4,0 -7,0 -9,-1 -4,-1 -6,-3 -8,-5 -2,-3 -2.99997,-7 -2.99997,-12 v -11 c 0,-5 1.99997,-10 5.99997,-12 2,-1 4,-2 6,-2.9997 2,0 3,0 5,0 h 30 c 3,0 4,0 5,0 2,-1 2,-2 2,-5 0,-1 0,-2 -1,-3 -1,0 -3,-1 -6,-1 h -30 c -6,0 -10,1 -14,3 z m 50,32.9997 h -16 c -3,1 -5,1 -6,3 -1,1 -1,3 -1,6 v 2 c 0,3 0,5 1,7 1,1 3,2 6,2 h 8 c 3,0 5,-1 6,-2 1,-2 2,-4 2,-7 z m 74,-32.9997 1,11 c 1,-3 2,-5 3,-6 2,-4 7,-5 14,-5 h 16 v 21.9997 c -2,-1.9997 -3,-2.9997 -5,-2.9997 -2,-1 -5,-1 -9,-1 h -6 c -4,0 -6,1 -8,2 -2,1.9997 -3,4.9997 -3,6.9997 v 22 c 0,5 0,8 1,10 0,2 1,4 2,6 h -37 c 1,-2 2,-4 2,-6 0,-2 0,-5 0,-10 v -32.9997 c 0,-5 0,-8 0,-10 0,-2 -1,-4 -2,-6 z m 73,-23 v 71.9997 c 0,5 0,8 1,10 0,2 1,4 2,6 h -37 c 1,-2 2,-4 2,-6 0,-2 0,-5 0,-10 v -54.9997 c 0,-6 0,-9 0,-11 0,-2 -1,-4 -2,-6 z m 33.9997,23 h 41 c 6,0 11,0 14,1 7,3 11,10 11,20 v 24.9997 c 0,13 -8,20 -22,19 h -42 c -6,0 -11,0 -13,-1 -2,-1 -4,-2 -5,-3 -2,-2 -3,-3 -4,-5 -1.9997,-3 -1.9997,-6 -1.9997,-10 v -27.9997 c 0,-7 1.9997,-12 6.9997,-15 3,-2 6,-3 9,-3 1,0 3,0 6,0 z m 9,20 v 24.9997 c 0,3 1,5 2,6 1,1 3,2 6,2 h 9 c 3,0 5,-1 6,-2 1,-2 2,-4 2,-6 v -24.9997 c 0,-2 -1,-4 -2,-5 -1,-2 -3,-3 -7,-3 h -8 c -5,0 -8,3 -8,8 z m 142,-20 4,16 c -3,-1 -5,-2 -7,-3 -2,0 -5,-1 -9,-1 h -27 c -3,0 -5,0 -5,1 -1,0 -1,1 -1,2 0,2 1,3 2,3 1,0 2,0 3,0 h 25 c 13,0 20,5.9997 20,17.9997 v 10 c 0,6 -3,12 -7,15 -2,1 -4,2 -5,3 -2,0 -4,0 -6,1 -3,0 -5,0 -6,0 h -56 l -2,-17 c 3,2 5,3 7,4 3,0 6,1 11,1 h 28 c 2,0 3,0 4,-1 1,0 1,-1 1,-3 0,-2 0,-3 -1,-3 -1,0 -2,0 -4,0 h -28 c -4,0 -7,-1 -9,-2 -5,-3 -7,-8 -8,-15 v -10.9997 c 0,-5 2,-9 5,-12 1,-2 3,-3 5,-4 2,-1 5,-1 8,-2 2,0 5,0 9,0 z m 121,-23 3,18 c -2,-1 -4,-2 -6,-3 -2,0 -6,0 -10,0 h -18 c -3,0 -5,0 -6,0 -2,1 -4,3 -4,6 0,0 0,2 0,5 v 36.9997 c 0,4 1,7 3,9 1,1 2,1 4,1 1,0 2,0 4,0 h 18 c 6,1 12,0 16,-2 l -2,17 h -54 c -7,0 -13,-3 -17,-7 -2,-2 -3,-4 -4,-5 0,-2 -1,-4 -1,-6 0,-3 -1,-5 -1,-7 v -37.9997 c 0,-5 1,-8 2,-11 0,-2 2,-4 3,-6 2,-2 4,-4 6,-5 4,-2 7,-3 12,-3 z m 46,0 v 27 c 1,-3 4,-4 8,-4 h 25 c 4,0 8,0 10,1 7,3 11,9 11,19 v 28.9997 c 0,5 0,8 0,10 1,2 1,4 3,6 h -37 c 1,-2 1,-4 2,-6 0,-2 0,-5 0,-10 v -28.9997 c 1,-5 -2,-8 -7,-8 h -9 c -2,0 -4,1 -5,2 -1,1 -1,3 -1,5 v 29.9997 c 0,5 0,8 0,10 0,2 1,4 2,6 h -37 c 2,-2 2,-4 3,-6 0,-2 0,-5 0,-10 v -54.9997 c 0,-6 0,-9 0,-11 -1,-2 -1,-4 -3,-6 z m 71,23 h 59 c 4,0 8,0 11,1 1,1 3,2 5,4 2,1 3,3 4,5 1,3 2,5 2,9 v 29.9997 c 0,5 0,8 0,10 1,2 1,4 2,6 h -31 c -1,-2 -2,-4 -2,-7 -1,2 -2,4 -4,6 -2,0 -4,1 -8,1 h -23 c -4,0 -7,0 -9,-1 -4,-1 -7,-3 -9,-5 -1,-3 -2,-7 -2,-12 v -11 c 0,-5 2,-10 5,-12 2,-1 5,-2 7,-2.9997 2,0 3,0 4,0 h 30 c 3,0 5,0 6,0 1,-1 2,-2 2,-5 0,-1 -1,-2 -2,-3 -1,0 -2,-1 -5,-1 h -31 c -5,0 -10,1 -13,3 z m 49,32.9997 h -15 c -3,1 -5,1 -6,3 -1,1 -2,3 -2,6 v 2 c 0,3 1,5 2,7 1,1 3,2 6,2 h 8 c 3,0 5,-1 6,-2 1,-2 1,-4 1,-7 z m 100.9997,-32.9997 h 31 c -1,2 -1,4 -2,6 0,2 0,5 0,10 v 48.9997 c 0,4 0,8 -1,10 -1,4 -3,8 -6,11 -2,2 -5,3 -8,3 -3,1 -8,1 -14,1 h -51.9997 l -2,-16 c 2,1 3,2 5,3 3,0 7,1 12,1 h 23.9997 c 4,0 7,-1 8,-2 1,-1 2,-2 2,-4 0,0 0,-1 0,-3 v -9 c -1,2 -2,3 -4,4 -2,1 -5,1 -8,1 h -18.9997 c -5,0 -8,0 -10,-1 -5,-1 -9,-4 -11,-9 -2,-2 -2,-6 -2,-9 v -26.9997 c 0,-7 2,-12 6,-16 4,-2 8,-3 13,-3 h 25.9997 c 4,0 6,1 8,1 1,1 2,2 3,4 z m -3,44.9997 v -24.9997 c 0,-3 0,-4 0,-5 -1,-1 -2,-2 -2,-2 -1,0 -3,-1 -5,-1 h -9 c -2,0 -3,0 -4,1 -1,0 -2,1 -2,3 -1,0 -1,2 -1,4 v 24.9997 c 0,5 3,8 7,8 h 9 c 3,0 5,-1 6,-2 1,-1 1,-3 1,-6 z m 47,-44.9997 h 59 c 5,0 8,0 11,1 2,1 4,2 5,4 2,1 4,3 5,5 1,3 1,5 1,9 v 29.9997 c 0,5 0,8 1,10 0,2 1,4 2,6 h -32 c -1,-2 -1,-4 -2,-7 0,2 -2,4 -4,6 -1,0 -4,1 -7,1 h -24 c -4,0 -7,0 -9,-1 -4,-1 -7,-3 -8,-5 -2,-3 -3,-7 -3,-12 v -11 c 0,-5 2,-10 6,-12 2,-1 4,-2 6,-2.9997 2,0 3,0 4,0 h 31 c 2,0 4,0 5,0 2,-1 2,-2 2,-5 0,-1 0,-2 -1,-3 -1,0 -3,-1 -6,-1 h -30 c -6,0 -10,1 -14,3 z m 49,32.9997 h -15 c -3,1 -5,1 -6,3 -1,1 -1,3 -1,6 v 2 c 0,3 0,5 1,7 1,1 3,2 6,2 h 8 c 3,0 5,-1 6,-2 1,-2 1,-4 1,-7 z m 120,-32.9997 3,16 c -2,-1 -4,-2 -6,-3 -2,0 -5,-1 -10,-1 h -27 c -2,0 -4,0 -4,1 -1,0 -1,1 -1,2 0,2 0,3 2,3 0,0 1,0 3,0 h 25 c 13,0 19,5.9997 19,17.9997 v 10 c 0,6 -2,12 -7,15 -1,1 -3,2 -4,3 -2,0 -4,0 -7,1 -2,0 -4,0 -5,0 h -56 l -3,-17 c 3,2 6,3 8,4 2,0 6,1 11,1 h 27 c 2,0 4,0 4,-1 2,0 2,-1 2,-3 0,-2 0,-3 -1,-3 -1,0 -2,0 -4,0 h -28 c -4,0 -7,-1 -9,-2 -5,-3 -8,-8 -8,-15 v -10.9997 c 0,-5 2,-9 5,-12 1,-2 3,-3 5,-4 2,-1 5,-1 8,-2 2,0 4,0 8,0 z m 82,-8 v 21 h 29 c 4,0 8,-1 11,-2 v 18.9997 c -2,-1 -5,-2 -6,-2 -2,-1 -5,-1 -8,-1 h -26 v 25 c 0,6 1,10 3,13 h -40 c 2,-3 3,-7 3,-13 v -61.9997 c 0,-5 -1,-10 -3,-13 h 77 l 2,17 c -3,-1 -5,-2 -7,-2 -2,0 -6,0 -11,0 z m 83,-15 v 17 h -32 v -17 z m 0,23 v 48.9997 c 0,5 0,8 0,10 1,2 1,4 2,6 h -37 c 2,-2 2,-4 3,-6 0,-2 0,-5 0,-10 v -32.9997 c 0,-5 0,-8 0,-10 -1,-2 -1,-4 -3,-6 z m 45,-23 v 71.9997 c 0,5 1,8 1,10 0,2 1,4 2,6 h -37 c 1,-2 2,-4 2,-6 0,-2 1,-5 1,-10 v -54.9997 c 0,-6 -1,-9 -1,-11 0,-2 -1,-4 -2,-6 z m 45,0 v 27 c 2,-3 4,-4 8,-4 h 24.9997 c 5,0 8,0 11,1 7,3 10,9 10,19 v 28.9997 c 0,5 1,8 1,10 0,2 1,4 2,6 h -36.9997 c 1,-2 2,-4 2,-6 0,-2 1,-5 1,-10 v -28.9997 c 0,-5 -2,-8 -8,-8 h -8 c -3,0 -4,1 -6,2 0,1 -1,3 -1,5 v 29.9997 c 0,5 0,8 1,10 0,2 1,4 2,6 h -37 c 1,-2 2,-4 2,-6 0,-2 0,-5 1,-10 v -54.9997 c -1,-6 -1,-9 -1,-11 0,-2 -1,-4 -2,-6 z m 87.9997,23 h 42 c 6,0 10,0 13,1 8,3 11,10 11,20 v 24.9997 c 0,13 -7,20 -22,19 h -41 c -6,0 -11,0 -13,-1 -2,-1 -4,-2 -6,-3 -2,-2 -3,-3 -4,-5 -1,-3 -2,-6 -2,-10 v -27.9997 c 0,-7 3,-12 8,-15 2,-2 5,-3 9,-3 1,0 3,0 5,0 z m 10,20 v 24.9997 c 0,3 1,5 2,6 1,1 3,2 6,2 h 9 c 3,0 5,-1 6,-2 1,-2 1,-4 1,-6 v -24.9997 c 0,-2 0,-4 -1,-5 -1,-2 -4,-3 -7,-3 h -8 c -6,0 -8,3 -8,8 z m 184,-43 v 71.9997 c 0,5 1,8 1,10 0,2 1,4 2,6 h -30 l -2,-6 c -1,2 -3,4 -4,5 -2,1 -5,1 -9,1 h -23 c -6,0 -11,-1 -13,-3 -3,-2 -5,-5 -6,-9 -1,-2 -1,-5 -1,-7 v -27.9997 c 0,-5 1,-9 4,-13 3,-3 8,-5 13,-5 h 26 c 5,0 9,2 11,6 v -12 c 0,-6 -1,-9 -1,-11 0,-2 -1,-4 -2,-6 z m -46,75.9997 h 7 c 3,0 5,-1 6,-2 1,-2 2,-4 2,-7 v -23.9997 c 0,-2 -1,-4 -1,-4 0,-2 -1,-2 -2,-3 -1,0 -2,-1 -4,-1 h -9 c -2,0 -4,1 -5,2 -1,1 -2,3 -2,6 v 25.9997 c 1,2 1,4 2,5 2,1 4,2 6,2 z"
   id="path4524" />
   <path
   class="fil25"
   d="m 2621.4838,1179.7464 h -53 v 5 c 0,3 0,4 0,5 1,2 3,3 5,3 0,1 2,1 4,1 h 29 c 7,0 11,-1 14,-3 l -2,15 h -58 c -5,0 -9,0 -11,-1 -3,-1 -5,-2 -7,-4 -4,-3 -6,-9 -6,-17 v -21 c 0,-14.9997 7,-21.9997 22,-21.9997 h 40 c 6,0 10,0 13,1 2,1 4,3 6,5 1,2 3,4 3,6 1,3 1,6 1,9.9997 z m -31,-12 v -6.9997 c 0,-3 -1,-5 -1,-6 -1,-1 -1,-1 -2,-2 -1,0 -2,0 -3,0 h -10 c -2,0 -3,0 -4,1 -1,0 -2,1 -2,2 0,1 0,3 0,5 v 6.9997 z m 102,-49.9997 h 39 l 31,77.9997 c 1,3 4,7 6,10 h -44 c 2,-2 3,-4 3,-6 0,-2 -1,-5 -3,-8 l -4,-10 h -36 l -5,12 c -1,2 -2,5 -2,6 0,2 1,4 2,6 h -25 c 4,-4 8,-10 11,-17 l 31,-65.9997 c -1,-2 -2,-3 -4,-5 z m 22,49.9997 -11,-26.9997 -12,26.9997 z m 88.9997,-26.9997 1,6 c 1,-2 2,-4 3,-4 1,-1 3,-2 6,-2 h 33 c 4,0 7,0 9,1 1,1 2,3 3,5 1,-2 2,-4 3,-4 1,-1 3,-2 6,-2 h 26 c 4,0 7,0 9,1 3,1 5,3 7,5 1,2 3,4 3,7 1,2 1,6 1,10.9997 v 25 c 0,5 0,9 0,10 0,2 1,4 2,6 h -36 c 1,-2 2,-4 2,-6 0,-2 0,-5 0,-10 v -27.9997 c 0,-3 0,-5 0,-5 -1,-2 -2,-3 -3,-3 -1,-1 -2,-1 -4,-1 h -7 c -3,0 -5,1 -6,1 -1,1 -2,3 -2,7 v 28.9997 c 0,5 1,8 1,10 0,2 1,4 2,6 h -37 c 1,-2 2,-4 2,-6 0,-2 1,-5 1,-10 v -28.9997 c 0,-2 -1,-4 -1,-5 -1,-2 -3,-3 -5,-3 h -10 c -3,0 -4,1 -5,2 -1,1 -1,3 -1,6 v 28.9997 c 0,5 0,8 0,10 0,2 1,4 2,6 h -36.9997 c 2,-2 2,-4 2,-6 1,-2 1,-5 1,-10 v -32.9997 c 0,-5 0,-8 -1,-10 0,-2 0,-4 -2,-6 z m 122,87.9997 v -71.9997 c 0,-5 0,-8 0,-10 -1,-2 -1,-4 -3,-6 h 31 l 1,6 c 1,-1 2,-2 2,-3 2,-2 6,-3 12,-3 h 22 c 7,0 11,1 14,3 3,2 5,5 6,9 0,3 1,5 1,7 v 27.9997 c 0,5 -2,9 -5,13 -3,3 -7,5 -12,5 h -26 c -6,0 -9,-2 -11,-6 v 12 c 0,6 0,9 0,11 1,2 1,4 2,6 z m 40,-35 h 7 c 3,0 5,-1 6,-2 1,-2 1,-4 1,-7 v -23.9997 c 0,-2 0,-4 0,-4 -1,-2 -2,-2 -2,-3 -1,0 -3,-1 -5,-1 h -8 c -3,0 -5,1 -6,2 -1,1 -1,3 -1,6 v 25.9997 c 0,2 1,4 2,5 1,1 3,2 6,2 z m 60,-52.9997 h 60 c 4,0 8,0 10,1 2,1 4,2 6,4 2,1 3,3 4,5 1,3 2,5 2,9 v 29.9997 c 0,5 0,8 0,10 0,2 1,4 2,6 h -31 c -1,-2 -2,-4 -2,-7 -1,2 -2,4 -5,6 -1,0 -3,1 -7,1 h -24 c -4,0 -7,0 -9,-1 -3,-1 -6,-3 -8,-5 -2,-3 -3,-7 -3,-12 v -11 c 0,-5 2,-10 6,-12 2,-1 4,-2 7,-2.9997 1,0 3,0 4,0 h 30 c 3,0 5,0 5,0 2,-1 3,-2 3,-5 0,-1 -1,-2 -2,-3 -1,0 -3,-1 -5,-1 h -31 c -5,0 -10,1 -14,3 z m 50,32.9997 h -15 c -4,1 -6,1 -7,3 -1,1 -1,3 -1,6 v 2 c 0,3 0,5 1,7 1,1 3,2 7,2 h 7 c 3,0 5,-1 6,-2 1,-2 2,-4 2,-7 z m 74,-32.9997 1,11 c 1,-3 2,-5 3,-6 2,-4 7,-5 14,-5 h 16 v 21.9997 c -2,-1.9997 -3,-2.9997 -4,-2.9997 -3,-1 -6,-1 -9,-1 h -7 c -3,0 -6,1 -8,2 -2,1.9997 -3,4.9997 -3,6.9997 v 22 c 0,5 1,8 1,10 0,2 1,4 2,6 h -37 c 1,-2 2,-4 2,-6 0,-2 1,-5 1,-10 v -32.9997 c 0,-5 -1,-8 -1,-10 0,-2 -1,-4 -2,-6 z m 63,0 h 42 c 6,0 10,0 13,1 7,3 11,10 11,20 v 24.9997 c 0,13 -7,20 -22,19 h -41 c -7,0 -11,0 -14,-1 -2,-1 -4,-2 -5,-3 -2,-2 -3,-3 -4,-5 -2,-3 -2,-6 -2,-10 v -27.9997 c 0,-7 2,-12 8,-15 2,-2 5,-3 8,-3 1,0 3,0 6,0 z m 9,20 v 24.9997 c 0,3 1,5 2,6 2,1 3,2 6,2 h 10 c 3,0 5,-1 6,-2 1,-2 1,-4 1,-6 v -24.9997 c 0,-2 -1,-4 -2,-5 -1,-2 -3,-3 -7,-3 h -8 c -5,0 -8,3 -8,8 z M 129.48581,1288.7464 h 59.99967 c 4,0 8,0 10,1 2,1 4,2 6,4 1.99997,2 2.99997,3 3.99997,5 1,3 2,5 2,9 v 30 c 0,5 0,8 0,10 0,2 1,4 2,6 h -30.99997 c -1,-2 -2,-4 -2,-7 -1,3 -2,4 -5,6 -1,0 -3,1 -7,1 h -23.99967 c -4,0 -7,0 -9,-1 -3,-1 -6,-2 -8,-5 -2,-3 -3,-7 -3,-12 v -11 c 0,-5 2,-9 6,-12 2,-1 4,-2 7,-3 1,0 3,0 4,0 h 29.99967 c 3,0 5,0 5,0 2,-1 3,-2 3,-4 0,-2 -1,-3 -2,-4 -1,0 -3,-1 -5,-1 h -30.99967 c -5,0 -10,1 -14,3 z m 49.99967,34 h -16 c -3,0 -5,0 -6,2 -1,1 -1,3 -1,6 v 3 c 0,2 0,4 1,6 1,1 3,2 6,2 h 8 c 3,0 5,-1 6,-2 1,-2 2,-4 2,-6 z m -29.99967,-61 h 20.99967 l 10,21 h -18 z m 164.99958,60 v 19 c 0,6 1,10 3,13 h -39.99997 c 2,-3 4,-7 4,-13 v -62 c 0,-5 -2,-10 -4,-13 h 71.99997 c 6,0 10,1 13,2 6.99997,2 9.99997,8 9.99997,16 v 20 c 0,6 -2,11 -5,14 -2.99997,2 -5.99997,3 -9.99997,4 -1,0 -4,0 -8,0 z m 0,-14 h 17 c 3,0 6,-1 7,-2 1,-1 1,-4 1,-8 v -7 c 0,-4 0,-7 -1,-8 -1,-1 -2,-2 -3,-2 0,0 -1,0 -3,0 h -18 z m 151.99994,20 h -52.99997 v 5 c 0,3 0,4 0,5 1,2 3,3 4.99997,4 0,0 2,0 4,0 h 29 c 7,0 11,-1 14,-3 l -2,15 h -57.99997 c -5,0 -9,0 -11,-1 -3,-1 -5,-2 -7,-4 -4,-3 -6,-9 -6,-17 v -21 c 0,-15 7,-22 22,-22 h 39.99997 c 6,0 10,1 13,1 2,1 4,3 6,5 1,2 3,4 3,6 1,3 1,6 1,10 z m -31,-12 v -7 c 0,-3 0,-5 -1,-6 -1,-1 -1,-1 -2,-2 -1,0 -2,0 -3,0 h -10 c -1.99997,0 -2.99997,0 -3.99997,1 -1,0 -2,1 -2,2 0,1 0,3 0,5 v 7 z m 116.99994,-27 3,16 c -2,-1 -4,-2 -6,-3 -2,0 -6,-1 -10,-1 H 512.4853 c -3,0 -4,1 -4,1 -1,0 -2,1 -2,2 0,2 1,3 2,3 1,0 2,0 4,0 h 24.99997 c 13,0 19,6 19,18 v 10 c 0,7 -2,12 -7,15 -2,1 -3,2 -5,3 -1,0 -3,1 -6,1 -2,0 -4,0 -5,0 H 477.4853 l -3,-17 c 3,2 6,3 8,4 2,0 6,1 10,1 h 28 c 2,0 3,0 3.99997,-1 1,0 2,-1 2,-3 0,-2 -1,-3 -2,-3 0,0 -0.99997,0 -2.99997,0 h -28 c -4,0 -7,-1 -9,-2 -5,-3 -8,-8 -8,-15 v -11 c 0,-5 1,-9 4,-12 2,-2 4,-3 6,-4 2,-1 4,-1 8,-2 1,0 4,0 8,0 z m 65.99997,88 v -28 c -1,3 -5,5 -10,5 h -23 c -8,0 -12.99997,-2 -16.99997,-6 -2,-2 -3,-5 -3,-9 -1,-2 -1,-3 -1,-4 v -24 c 0,-4 1,-7 1,-10 1,-2 2,-4 4,-6 1,-2 3,-3 4,-3 2,-1 3,-2 5.99997,-2 3,-1 5,-1 7,-1 h 21 c 7,0 11,2 12,6 l 2,-6 h 30.99997 c -1,2 -2,4 -2,6 0,2 0,5 0,10 v 55 c 0,6 0,9 0,11 0,2 1,4 2,6 z m 0,-41 v -29 c 0,-4 -2,-6 -7,-6 h -8 c -3,0 -5,1 -6,2 -1,1 -1,3 -1,5 v 27 c 0,2 0,4 1,5 1,1 3,2 6,2 h 8 c 5,0 7,-2 7,-6 z m 130.99961,-47 v 49 c 0,5 1,8 1,10 0,2 1,4 2,6 h -29.99997 l -1,-6 c -1,2 -2,3 -3,4 -2,1 -5,2 -9,2 h -24.9997 c -3.99997,0 -6.99997,0 -8.99997,-1 -3,-1 -5,-2 -7,-4 -2,-2 -4,-6 -4,-10 0,-2 0,-4 0,-7 v -27 c 0,-5 -1,-8 -1,-10 0,-2 -1,-4 -2,-6 h 33.99967 v 44 c 0,6 2,9 7,9 h 8 c 3,0 5,-1 6,-2 1,-1 2,-3 2,-6 v -29 c 0,-5 -1,-8 -1,-10 0,-2 -1,-4 -2,-6 z m 46.99997,-23 v 17 h -31.99997 v -17 z m 0,23 v 49 c 0,5 0,8 0,10 0,2 1,4 2,6 h -36.99997 c 1,-2 2,-4 2,-6 1,-2 1,-5 1,-10 v -33 c 0,-5 0,-8 -1,-10 0,-2 -1,-4 -2,-6 z m 87.99997,0 3,16 c -2,-1 -4,-2 -6,-3 -2,0 -6,-1 -10,-1 h -27 c -3,0 -3.99997,1 -3.99997,1 -1,0 -2,1 -2,2 0,2 1,3 2,3 0.99997,0 1.99997,0 3.99997,0 h 25 c 13,0 19,6 19,18 v 10 c 0,7 -2,12 -7,15 -2,1 -3,2 -5,3 -1,0 -3,1 -6,1 -2,0 -4,0 -5,0 h -55.99997 l -3,-17 c 3,2 6,3 8,4 2,0 6,1 10,1 h 27.99997 c 2,0 3,0 4,-1 1,0 2,-1 2,-3 0,-2 -1,-3 -2,-3 0,0 -1,0 -3,0 h -27.99997 c -4,0 -7,-1 -9,-2 -5,-3 -8,-8 -8,-15 v -11 c 0,-5 1,-9 4,-12 2,-2 4,-3 6,-4 2,-1 4,-1 8,-2 1,0 4,0 8,0 z m 16.99997,0 h 58.99997 c 5,0 8,0 11,1 2,1 4,2 6,4 1,2 3,3 4,5 1,3 1,5 1,9 v 30 c 0,5 1,8 1,10 0,2 1,4 2,6 h -32 c 0,-2 -1,-4 -1,-7 -1,3 -3,4 -5,6 -0.99997,0 -2.99997,1 -6.99997,1 h -24 c -4,0 -7,0 -9,-1 -4,-1 -6,-2 -8,-5 -2,-3 -3,-7 -3,-12 v -11 c 0,-5 2,-9 6,-12 2,-1 4,-2 6,-3 2,0 3,0 5,0 h 30 c 3,0 3.99997,0 4.99997,0 2,-1 2,-2 2,-4 0,-2 0,-3 -1,-4 -1,0 -2.99997,-1 -4.99997,-1 h -31 c -6,0 -10,1 -14,3 z m 49.99997,34 h -15.99997 c -3,0 -5,0 -6,2 -1,1 -1,3 -1,6 v 3 c 0,2 0,4 1,6 1,1 3,2 6,2 h 8 c 3,0 4.99997,-1 5.99997,-2 1,-2 2,-4 2,-6 z m 183.99997,-57 v 72 c 0,5 0,8 1,10 0,2 1,4 2,6 h -30 l -2,-6 c -1,3 -3,4 -4,5 -3,1 -5,1 -9,1 h -23 c -6,0 -11,-1 -13,-3 -3,-2 -6,-5 -6,-9 -1,-2 -1,-5 -1,-7 v -28 c -1,-5 1,-9 4,-13 3,-3 7,-5 13,-5 h 26 c 5,0 8,2 10,6 v -12 c 0,-6 0,-9 0,-11 0,-2 -1,-4 -2,-6 z m -46,76 h 7 c 3,0 5,-1 6,-2 1,-2 1,-4 1,-7 v -24 c 0,-2 0,-4 0,-4 0,-2 -1,-2 -2,-3 -1,0 -2,-1 -4,-1 h -9 c -2,0 -4,1 -5,2 -1,1 -2,3 -2,6 v 26 c 0,2 1,4 2,5 1,1 3,2 6,2 z m 79,-53 h 42 c 5.9997,0 10.9997,1 13.9997,1 7,3 11,10 10,20 v 25 c 1,13 -7,20 -20.9997,19 h -42 c -6,0 -11,0 -13,-1 -2,-1 -4,-2 -6,-3 -1,-1 -3,-3 -4,-5 -1,-3 -2,-6 -2,-10 v -28 c 0,-6 3,-12 8,-15 3,-2 6,-3 9,-3 1,0 3,0 5,0 z m 10,20 v 25 c 0,3 1,5 2,6 1,1 3,2 6,2 h 9 c 3,0 5,-1 6,-2 1,-2 2,-4 2,-6 v -24 c 0,-3 -1,-5 -2,-6 -1,-2 -4,-3 -7,-3 h -8 c -5,0 -8,3 -8,8 z m 157.9997,-28 v 21 h 27 c 5,0 9,-1 12,-2 v 19 c -1,-2 -5,-2 -10,-3 h -29 v 24 h 33 c 2,0 7,-1 12,-3 l -3,17 h -79 c 2,-3 3,-7 4,-13 v -62 c -1,-5 -2,-10 -4,-13 h 77 l 3,17 c -3,-1 -6,-2 -9,-2 -1,0 -3,0 -7,0 z m 127,8 4,16 c -3,-1 -5,-2 -7,-3 -2,0 -5,-1 -10,-1 h -26 c -3,0 -5,1 -5,1 -1,0 -1,1 -1,2 0,2 0,3 2,3 1,0 2,0 3,0 h 25 c 13,0 20,6 19,18 v 10 c 0,7 -2,12 -6,15 -2,1 -4,2 -5,3 -2,0 -4,1 -6,1 -3,0 -5,0 -6,0 h -56 l -2,-17 c 3,2 5,3 7,4 3,0 6,1 11,1 h 28 c 2,0 3,0 4,-1 1,0 1,-1 1,-3 0,-2 0,-3 -1,-3 -1,0 -2,0 -4,0 h -28 c -4,0 -7,-1 -9,-2 -5,-3 -8,-8 -8,-15 v -11 c 0,-5 2,-9 5,-12 1,-2 3,-3 5,-4 2,-1 5,-1 8,-2 2,0 5,0 9,0 z m 78,0 v 12 h -27 v 30 c 0,3 0,5 0,6 1,2 2,4 4,4 1,1 3,1 6,1 h 8 c 6,0 10,-2 13,-4 l -2,16 h -34 c -7,0 -11,0 -14,-1 -4,-1 -7,-3 -9,-7 -2,-2 -3,-6 -3,-11 l -1,-7 v -27 h -9 v -12 h 9 v -13 l 32,-2 v 15 z m 16,0 h 59 c 4,0 8,0 10,1 2,1 4,2 6,4 2,2 3,3 4,5 1,3 2,5 2,9 v 30 c 0,5 0,8 0,10 0,2 1,4 2,6 h -31 c -1,-2 -2,-4 -2,-7 -1,3 -2,4 -5,6 -1,0 -3,1 -7,1 h -24 c -3,0 -6,0 -9,-1 -3,-1 -6,-2 -8,-5 -2,-3 -3,-7 -3,-12 v -11 c 0,-5 2,-9 6,-12 2,-1 4,-2 7,-3 1,0 3,0 4,0 h 30 c 3,0 5,0 5,0 2,-1 3,-2 3,-4 0,-2 -1,-3 -2,-4 -1,0 -3,-1 -5,-1 h -31 c -5,0 -10,1 -14,3 z m 49,34 h -15 c -3,0 -6,0 -7,2 0,1 -1,3 -1,6 v 3 c 0,2 1,4 1,6 1,1 4,2 7,2 h 7 c 3,0 5,-1 6,-2 1,-2 2,-4 2,-6 z m 129,-57 v 72 c 0,5 0,8 0,10 1,2 1,4 3,6 h -30 l -2,-6 c -1,3 -3,4 -5,5 -2,1 -5,1 -8,1 h -23 c -6,0 -11,-1 -13,-3 -4,-2 -6,-5 -7,-9 0,-2 -1,-5 -1,-7 v -28 c 0,-5 2,-9 5,-13 3,-3 7,-5 12,-5 h 26 c 6,0 9,2 11,6 v -12 c 0,-6 0,-9 0,-11 -1,-2 -1,-4 -2,-6 z m -46,76 h 7 c 3,0 5,-1 6,-2 1,-2 1,-4 1,-7 v -24 c 0,-2 0,-4 0,-4 -1,-2 -1,-2 -2,-3 -1,0 -3,-1 -4,-1 h -9 c -3,0 -4,1 -5,2 -1,1 -2,3 -2,6 v 26 c 0,2 1,4 2,5 1,1 3,2 6,2 z m 78.9997,-53 h 42 c 6,0 11,1 14,1 7,3 11,10 10,20 v 25 c 0,13 -7,20 -22,19 h -41 c -6,0 -11,0 -13,-1 -2,-1 -4,-2 -6,-3 -1,-1 -3,-3 -4,-5 -1,-3 -2,-6 -2,-10 v -28 c 0,-6 3,-12 8,-15 3,-2 6,-3 9,-3 1,0 3,0 5,0 z m 10,20 v 25 c 0,3 1,5 2,6 1,1 3,2 6,2 h 9 c 3,0 5,-1 6,-2 1,-2 2,-4 2,-6 v -24 c -1,-3 -1,-5 -2,-6 -1,-2 -4,-3 -7,-3 h -8 c -5,0 -8,3 -8,8 z m 207,-43 v 72 c 0,5 0,8 0,10 1,2 1,4 3,6 h -30 l -2,-6 c -1,3 -3,4 -5,5 -2,1 -5,1 -8,1 h -23 c -6,0 -11,-1 -13,-3 -4,-2 -6,-5 -7,-9 0,-2 -1,-5 -1,-7 v -28 c 0,-5 2,-9 5,-13 3,-3 7,-5 12,-5 h 26 c 6,0 9,2 11,6 v -12 c 0,-6 0,-9 0,-11 0,-2 -1,-4 -2,-6 z m -46,76 h 7 c 3,0 5,-1 6,-2 1,-2 1,-4 1,-7 v -24 c 0,-2 0,-4 0,-4 -1,-2 -1,-2 -2,-3 -1,0 -3,-1 -4,-1 h -9 c -3,0 -4,1 -5,2 -1,1 -2,3 -2,6 v 26 c 0,2 1,4 2,5 1,1 3,2 6,2 z m 79,-53 h 42 c 6,0 11,1 14,1 7,3 11,10 10,20 v 25 c 0,13 -7,20 -22,19 h -41 c -6,0 -11,0 -13,-1 -2,-1 -4,-2 -6,-3 -1,-1 -3,-3 -4,-5 -1,-3 -2,-6 -2,-10 v -28 c 0,-6 3,-12 8,-15 3,-2 6,-3 9,-3 1,0 3,0 5,0 z m 10,20 v 25 c 0,3 1,5 2,6 1,1 3,2 6,2 h 9 c 3,0 5,-1 6,-2 1,-2 2,-4 2,-6 v -24 c 0,-3 -1,-5 -2,-6 -1,-2 -4,-3 -7,-3 h -8 c -5,0 -8,3 -8,8 z"
   id="path4526" />
   <path
   class="fil25"
   d="m 2196.4841,1316.7464 h -10 v 24 c 0,6 1,10 4,13 h -41 c 2,-3 3,-7 4,-13 v -62 c -1,-5 -2,-10 -4,-13 h 72 c 6,0 10,1 13,2 7,2 10,8 10,16 v 19 c 0,4 0,7 -1,9 -2,3 -5,5 -9,5 -1,0 -2,0 -3,0 l 12,25 c 3,5 5,9 7,12 h -38 z m -10,-15 h 18 c 3,0 5,0 6,-2 1,-1 1,-3 1,-6 v -4 c 0,-4 0,-7 -1,-8 -1,-1 -3,-1 -6,-1 h -18 z m 102.9997,-36 v 17 h -31.9997 v -17 z m 0,23 v 49 c 0,5 0,8 1,10 0,2 1,4 2,6 h -36.9997 c 1,-2 2,-4 2,-6 0,-2 0,-5 0,-10 v -33 c 0,-5 0,-8 0,-10 0,-2 -1,-4 -2,-6 z m 34,0 h 42 c 6,0 11,1 14,1 7,3 11,10 10,20 v 25 c 0,13 -7,20 -22,19 h -41 c -6,0 -11,0 -13,-1 -2,-1 -4,-2 -6,-3 -1,-1 -3,-3 -4,-5 -1,-3 -2,-6 -2,-10 v -28 c 0,-6 3,-12 8,-15 3,-2 6,-3 9,-3 1,0 3,0 5,0 z m 10,20 v 25 c 0,3 1,5 2,6 1,1 3,2 6,2 h 9 c 3,0 5,-1 6,-2 1,-2 2,-4 2,-6 v -24 c -1,-3 -1,-5 -2,-6 -1,-2 -4,-3 -7,-3 h -8 c -5,0 -8,3 -8,8 z m 207,-43 v 72 c 0,5 0,8 0,10 1,2 1,4 3,6 h -30 l -2,-6 c -1,3 -3,4 -5,5 -2,1 -5,1 -8,1 h -23 c -6,0 -11,-1 -13,-3 -4,-2 -6,-5 -7,-9 0,-2 -1,-5 -1,-7 v -28 c 0,-5 2,-9 5,-13 3,-3 7,-5 12,-5 h 26 c 6,0 9,2 11,6 v -12 c 0,-6 0,-9 0,-11 0,-2 -1,-4 -2,-6 z m -46,76 h 7 c 3,0 5,-1 6,-2 1,-2 1,-4 1,-7 v -24 c 0,-2 0,-4 0,-4 -1,-2 -1,-2 -2,-3 -1,0 -3,-1 -4,-1 h -9 c -3,0 -4,1 -5,2 -1,1 -2,3 -2,6 v 26 c 0,2 1,4 2,5 1,1 3,2 6,2 z m 143,-14 h -54 v 5 c 0,3 0,4 1,5 1,2 2,3 4,4 1,0 3,0 5,0 h 29 c 6,0 11,-1 14,-3 l -3,15 h -57 c -5,0 -9,0 -12,-1 -2,-1 -5,-2 -6,-4 -4,-3 -6,-9 -6,-17 v -21 c -1,-15 7,-22 22,-22 h 40 c 5,0 10,1 12,1 3,1 5,3 6,5 2,2 3,4 4,6 0,3 1,6 1,10 z m -32,-12 v -7 c 0,-3 0,-5 -1,-6 0,-1 -1,-1 -2,-2 0,0 -1,0 -2,0 h -11 c -2,0 -3,0 -3,1 -1,0 -2,1 -2,2 -1,1 -1,3 -1,5 v 7 z m 91,38 -3,-17 c 3,2 8,3 15,3 h 18 c 4,0 7,-1 8,-3 1,-1 1,-4 1,-8 v -50 c 0,-5 -1,-10 -4,-13 h 41 c -2,3 -3,8 -4,13 v 50 c 0,8 -1,14 -4,18 -3,3 -6,5 -11,6 -2,1 -4,1 -7,1 z m 89,-65 h 58.9997 c 4,0 8,0 10,1 2,1 4,2 6,4 2,2 3,3 4,5 1,3 2,5 2,9 v 30 c 0,5 0,8 0,10 0,2 1,4 2,6 h -31 c -1,-2 -2,-4 -2,-7 -1,3 -2,4 -5,6 -1,0 -3,1 -7,1 h -23.9997 c -3,0 -6,0 -9,-1 -3,-1 -6,-2 -8,-5 -2,-3 -3,-7 -3,-12 v -11 c 1,-5 2,-9 6,-12 2,-1 4,-2 7,-3 1,0 3,0 4,0 h 29.9997 c 3,0 5,0 6,0 1,-1 2,-2 2,-4 0,-2 -1,-3 -2,-4 -1,0 -2,-1 -5,-1 h -30.9997 c -5,0 -10,1 -14,3 z m 48.9997,34 h -15 c -3,0 -5,0 -6,2 -1,1 -2,3 -2,6 v 3 c 0,2 1,4 2,6 1,1 3,2 6,2 h 7 c 4,0 6,-1 7,-2 0,-2 1,-4 1,-6 z m 74,-34 2,7 c 1,-3 2,-4 4,-5 1,-1 4,-2 7,-2 h 24 c 4,0 8,1 11,2 6,4 10,10 9,20 v 27 c 0,5 1,8 1,10 0,2 1,4 2,6 h -37 c 1,-2 2,-4 2,-6 0,-2 1,-5 1,-10 v -29 c 0,-3 -1,-5 -1,-6 -1,-1 -3,-2 -6,-2 h -10 c -2,0 -3,1 -4,2 -1,1 -1,2 -1,5 v 30 c 0,5 0,8 0,10 0,2 1,4 2,6 h -37 c 1,-2 2,-4 2,-6 1,-2 1,-5 1,-10 v -33 c 0,-5 0,-8 -1,-10 0,-2 -1,-4 -2,-6 z m 154,39 h -53 v 5 c 0,3 0,4 1,5 0,2 2,3 4,4 1,0 2,0 5,0 h 28 c 7,0 12,-1 14,-3 l -2,15 h -58 c -5,0 -8,0 -11,-1 -3,-1 -5,-2 -7,-4 -4,-3 -6,-9 -6,-17 v -21 c 0,-15 7,-22 22,-22 h 40 c 6,0 10,1 13,1 2,1 4,3 6,5 2,2 3,4 3,6 1,3 1,6 1,10 z m -31,-12 v -7 c 0,-3 0,-5 -1,-6 0,-1 -1,-1 -2,-2 -1,0 -1,0 -3,0 h -10 c -2,0 -3,0 -4,1 -1,0 -1,1 -2,2 0,1 0,3 0,5 v 7 z m 75,-50 v 17 h -32 v -17 z m 0,23 v 49 c 0,5 0,8 1,10 0,2 0,4 2,6 h -37 c 1,-2 2,-4 2,-6 0,-2 0,-5 0,-10 v -33 c 0,-5 0,-8 0,-10 0,-2 -1,-4 -2,-6 z m 43,0 1,11 c 1,-3 2,-5 3,-6 2,-3 7,-5 14,-5 h 16 v 22 c -2,-2 -3,-3 -4,-3 -3,-1 -6,-1 -9,-1 h -7 c -3,0 -6,1 -8,3 -2,1 -3,4 -3,7 v 21 c 0,5 1,8 1,10 0,2 1,4 2,6 h -37 c 1,-2 2,-4 2,-6 0,-2 1,-5 1,-10 v -33 c 0,-5 -1,-8 -1,-10 0,-2 -1,-4 -2,-6 z m 63,0 h 42 c 6,0 10,1 13,1 7,3 11,10 11,20 v 25 c 0,13 -7,20 -22,19 h -41 c -7,0 -11,0 -14,-1 -2,-1 -4,-2 -5,-3 -2,-1 -3,-3 -4,-5 -2,-3 -2,-6 -2,-10 v -28 c 0,-6 2,-12 7,-15 3,-2 6,-3 9,-3 1,0 3,0 6,0 z m 9,20 v 25 c 0,3 1,5 2,6 1,1 3,2 6,2 h 10 c 3,0 5,-1 6,-2 0,-2 1,-4 1,-6 v -24 c 0,-3 -1,-5 -2,-6 -1,-2 -3,-3 -7,-3 h -8 c -5,0 -8,3 -8,8 z"
   id="path4528" />
   
   
   
   
   
   
   
   
   
   
   
   
   
   
   
   
   
   
   
   
   
   
   
   
   
   
   
   
   
   
   
   
   
   
   
   
   
   
   
   
   
   
   
   
   
   
   
   
   
   
   
   
   
   
   
   
   
   
   
   
   
   
   
   
   
   
   
   
   
   
   
   
   
   
   
   
   
   
   
   
   
   
   
   
   
   
   
   
   
   
   
   
   
   
   
   
   
   
   
   
   
   
   
   
   
   
   
   
   
   
   
   
   
   
   
   
   
   
   
   
   
   
   
   
   
   
   
   
   
   
   
   
   
   
   
   
   
   
   
   
   
   
   
   
   
   
   
   
   
   
   
   
   
   
   
   
   
   
   
   
   
   
   
   
   
   
   
   
   
   
   
   
   
   
   
   
   
   
   
   
   
   
   
   
   
   
   
   
   
   
   
   
   
   
   
   
   
   
   
   
   
   
   
   
   
   
   
   
   
   
   
   
   
   
   
   
   
   
   
   
   
   
   
   
   
   
   
   
   
   
   
   
   
   
   
   
   
   
   
   
   
   
   
   
   
   
   
   
   
   
   
   
   
   
   
   
   
   
   
   
   
   
   
   
   
   
   
   
   
   
   
   
   
   
   
   
   
   
   
   
   
   
   
   
   
   
   
   
   
   
   
   
   
   
   
   
   
   
   
   
   
   
   
   
   
   
   
   
   
   
   
   
   
   
   
   
   
   
   
   
   
   
   
   
   
   
   
   
   
   
   
   
   
   
   
   
   
   
   
   
  </g>
 </g>
</svg>
