<?xml version="1.0" encoding="UTF-8" standalone="no"?>
<!-- Creator: CorelDRAW X7 -->

<svg
   xml:space="preserve"
   width="26mm"
   height="9mm"
   version="1.1"
   style="clip-rule:evenodd;fill-rule:evenodd;image-rendering:optimizeQuality;shape-rendering:geometricPrecision;text-rendering:geometricPrecision"
   viewBox="0 0 2600.3238 900.11295"
   id="svg5546"
   sodipodi:docname="fiocruz.svg"
   inkscape:version="1.1 (1:1.1+202105261517+ce6663b3b7)"
   xmlns:inkscape="http://www.inkscape.org/namespaces/inkscape"
   xmlns:sodipodi="http://sodipodi.sourceforge.net/DTD/sodipodi-0.dtd"
   xmlns="http://www.w3.org/2000/svg"
   xmlns:svg="http://www.w3.org/2000/svg"><sodipodi:namedview
   id="namedview5548"
   pagecolor="#ffffff"
   bordercolor="#666666"
   borderopacity="1.0"
   inkscape:pageshadow="2"
   inkscape:pageopacity="0.0"
   inkscape:pagecheckerboard="0"
   inkscape:document-units="mm"
   showgrid="false"
   width="100mm"
   inkscape:zoom="2.6885554"
   inkscape:cx="71.413815"
   inkscape:cy="118.4651"
   inkscape:window-width="1680"
   inkscape:window-height="986"
   inkscape:window-x="0"
   inkscape:window-y="27"
   inkscape:window-maximized="1"
   inkscape:current-layer="_1660824352032" />
 <defs
   id="defs36">
  <style
   type="text/css"
   id="style2">
   <![CDATA[
    .str2 {stroke:#E88734;stroke-width:141.127}
    .str4 {stroke:#A6CE53;stroke-width:123.485}
    .str26 {stroke:#373435;stroke-width:21.1726}
    .str18 {stroke:#96989A;stroke-width:26.4533}
    .str3 {stroke:#FEFEFE;stroke-width:105.843}
    .str7 {stroke:black;stroke-width:11.1514}
    .str10 {stroke:black;stroke-width:8.9311}
    .str21 {stroke:#E6E7E8;stroke-width:35.2744}
    .str5 {stroke:#201E1E;stroke-width:35.2744}
    .str22 {stroke:#D2D3D5;stroke-width:20.0025}
    .str27 {stroke:#A9ABAE;stroke-width:20.0025}
    .str25 {stroke:#373435;stroke-width:20.0025}
    .str1 {stroke:#E88734;stroke-width:20.0025}
    .str0 {stroke:#BDBFC1;stroke-width:17.6322}
    .str19 {stroke:#4B4B4D;stroke-width:17.6322}
    .str23 {stroke:#FEFEFE;stroke-width:7.62094}
    .str17 {stroke:#96989A;stroke-width:7.62094}
    .str20 {stroke:#4B4B4D;stroke-width:7.62094}
    .str8 {stroke:black;stroke-width:11.1514;stroke-linejoin:round}
    .str9 {stroke:black;stroke-width:0.0400049;stroke-linecap:round;stroke-linejoin:round}
    .str6 {stroke:#282828;stroke-width:44.2055}
    .str11 {stroke:#373435;stroke-width:18.7423}
    .str13 {stroke:#373435;stroke-width:3.50043}
    .str14 {stroke:#373435;stroke-width:3.51043}
    .str12 {stroke:#373435;stroke-width:1.01012}
    .str15 {stroke:#373435;stroke-width:34.6143}
    .str16 {stroke:#373435;stroke-width:34.6143}
    .str24 {stroke:#FEFEFE;stroke-width:53.0566}
    .fil3 {fill:none}
    .fil23 {fill:none;fill-rule:nonzero}
    .fil20 {fill:#FEFEFE}
    .fil6 {fill:#FEFEFE}
    .fil0 {fill:#E6E7E8}
    .fil30 {fill:#848688}
    .fil34 {fill:#606062}
    .fil31 {fill:#4B4B4D}
    .fil27 {fill:#373435}
    .fil32 {fill:#373435}
    .fil22 {fill:#ACB3AC}
    .fil21 {fill:#282828}
    .fil26 {fill:#201E1E}
    .fil25 {fill:#201E1E}
    .fil11 {fill:#004B92}
    .fil41 {fill:#12AED7}
    .fil38 {fill:#2B5492}
    .fil39 {fill:#2F691D}
    .fil7 {fill:#367372}
    .fil18 {fill:#709D21}
    .fil37 {fill:#8FC73E}
    .fil40 {fill:#A34963}
    .fil43 {fill:#D91F2C}
    .fil19 {fill:#E3F1E0}
    .fil29 {fill:#E88734}
    .fil16 {fill:#EF9E57}
    .fil15 {fill:#EF9E57}
    .fil35 {fill:#F19317}
    .fil9 {fill:#F1F1F1}
    .fil36 {fill:#F3BF07}
    .fil13 {fill:#FDFDFD}
    .fil12 {fill:#FEFEFE}
    .fil5 {fill:#FEFEFE;fill-rule:nonzero}
    .fil17 {fill:#96989A;fill-rule:nonzero}
    .fil2 {fill:#4B4B4D;fill-rule:nonzero}
    .fil14 {fill:#373435;fill-rule:nonzero}
    .fil4 {fill:#373435;fill-rule:nonzero}
    .fil33 {fill:#201E1E;fill-rule:nonzero}
    .fil42 {fill:#D91F2C;fill-rule:nonzero}
    .fil10 {fill:#DADCE0;fill-rule:nonzero}
    .fil1 {fill:#E88734;fill-rule:nonzero}
    .fil24 {fill:black;fill-rule:nonzero}
    .fil28 {fill:white;fill-rule:nonzero}
    .fil8 {fill:#D2D3D5;fill-opacity:0.458824}
   ]]>
  </style>
    <clipPath
   id="id0">
     <path
   d="M 24,2683 H 36167 V 23577 H 24 Z"
   id="path4" />
    </clipPath>
    <mask
   id="id1">
  <linearGradient
   id="id2"
   gradientUnits="userSpaceOnUse"
   x1="-33.794201"
   y1="5327.6299"
   x2="36205.602"
   y2="4090.3">
   <stop
   offset="0"
   style="stop-opacity:1; stop-color:white"
   id="stop7" />
   <stop
   offset="0.980392"
   style="stop-opacity:-95.8784; stop-color:white"
   id="stop9" />
   <stop
   offset="1"
   style="stop-opacity:0; stop-color:white"
   id="stop11" />
  </linearGradient>
     <rect
   style="fill:url(#id2)"
   x="15"
   y="2671"
   width="36142"
   height="4077"
   id="rect14" />
    </mask>
    <mask
   id="id3">
  <linearGradient
   id="id4"
   gradientUnits="userSpaceOnUse"
   x1="15052.7"
   y1="16018.4"
   x2="36353.301"
   y2="15291.1">
   <stop
   offset="0"
   style="stop-opacity:1; stop-color:white"
   id="stop17" />
   <stop
   offset="0.988235"
   style="stop-opacity:-95.8784; stop-color:white"
   id="stop19" />
   <stop
   offset="1"
   style="stop-opacity:0; stop-color:white"
   id="stop21" />
  </linearGradient>
     <rect
   style="fill:url(#id4)"
   x="15244"
   y="9384"
   width="20918"
   height="12542"
   id="rect24" />
    </mask>
    <clipPath
   id="id5">
     <rect
   x="4123"
   y="215"
   width="771"
   height="535"
   id="rect27" />
    </clipPath>
     <clipPath
   id="id6">
      <rect
   x="4123"
   y="215"
   width="771"
   height="535"
   id="rect30" />
     </clipPath>
     <clipPath
   id="id7">
      <path
   d="m 28193,30240 h 7219 v 5816 h -7219 z"
   id="path33" />
     </clipPath>
 </defs>
 <g
   id="Camada_x0020_1"
   inkscape:label="Camada 1"
   inkscape:groupmode="layer">
  <metadata
   id="CorelCorpID_0Corel-Layer" />
  <g
   id="_1660824352032">
   
   
   
   
   
   
   
   
   
   
   
   
   
   
   
   
   
   
   
   
   
   
   
   
   
   
   
   
   
   
   
   
   
   
   
   
   
   
   
   
   
   
   
   
   
   
   
   
   
   
   
   
   
   
   
   
   
   
   
   
   
   
   
   
   
   
   
   
   
   
   
   
   
   
   
   
   
   
   
   
   
   
   
   
   
   
   
   
   
   
   
   
   
   
   
   
   
   
   
   
   
   
   
   
   
   
   
   
   
   
   
   
   
   
   
   
   
   
   
   
   
   
   
   
   
   
   
   
   
   
   
   
   
   
   
   
   
   
   
   
   
   
   
   
   
   
   
   
   
   
   
   
   
   
   
   
   
   
   
   
   
   
   
   
   
   
   
   
   
   
   
   
   
   
   
   
   
   
   
   
   
   
   
   
   
   
   
   
   
   
   
   
   
   
   
   
   
   
   
   
   
   
   
   
   
   
   
   
   
   
   
   
   
   
   
   
   
   
   
   
   
   
   
   
   
   
   
   
   
   
   
   
   
   
   
   
   
   
   
   
   
   
   
   
   
   
   
   
   
   
   
   
   
   
   
   
   
   
   
   
   
   
   
   
   
   
   
   
   
   
   
   
   
   
   
   
   
   
   
   
   
   
   
   
   
   
   
   
   
   
   
   
   
   
   
   
   
   
   
   
   
   
   
   
   
   
   
   
   
   
   
   
   
   
   
   
   
   
   
   
   
   
   
   
   
   
   
   
   
   
   
   
   
   
   
   
   
   
   
   
   
   
   
   
   
   
   
   
   
   
   
   
   
   
   
   
   
   
   
   
   
   
   
   
   
   
   
   
   
   
   
   
   
   
   
   
   
   
   
   
   
   
   
   
   
   
   
   
   
   
   
   
   
   
   
   
   
   
   
   
   
   
   
   
   
   
   
   
   
   
   
   
   
   
   
   
   
   
   
   
   
   
   
   
   
   
   
   
   
   
   
   
   
   
   
   
   
   
   
   
   
   
   
   
   
   
   
   
   
   
   
   
   
   
   
   
   
   
   
   
   
   
   
   
   
   
   
   
   
   
   
   
   
   
   
   
   
   
   
   
   
   
   
   
   
   
   
   
   
   
   
   
   
   
   
   
   
   
   
   
   
   
   
   
   
   
   
   
   
   
   
   
   
   
   
   
   
   
   
   
   
   
   
   
   
   
   
   
   
   
   
   
   
   
   
   
   
   
   
   
   
   
   
   
   
   
   
   
   
   
   
   
   
   
   
   
   
   
   
   
   
   
   
   
   
   
   
   
   
   
   
   
   
   
   
   
   
   
   
   
   
   
   
   
   
   
   
   
   
   
   
   
   
   
   
   
   
   
   
   
   
   
   
   
   
   
   
   
   
   
   
   
   
   
   
   
   
   
   
   
   
   
   
   
   
   
   
   
   
   
   
   
   
   
   
   
   
   
   
   
   
   
   
   
   
   
   
   
   
   
   
   
   
   
   
   
   
   
   
   
   
   
   
   
   
   
   
   
   
   
   
   
   
   
   
   
   
   
   
   
   
   
   
   
   
   
   
   
   
   
   
   
   
   
   
   
   
   
   
   
   
   
   
   
   
   
   
   
   
   
   
   
   
   
   
   
   
   
   
   
   
   
   
   
   
   
   
   
   
   
   
   
   
   
   
   
   
   
   
   
   
   
   
   
   
   
   
   
   
   
   
   
   
   
   
   
   
   
   
   
   
   
   
   
   
   
   
   
   
   
   
   
   
   
   
   
   
   
   
   
   
   
   
   
   
   
   
   
   
   
   
   
   
   
   
   
   
   
   
   
   
   
   
   
   
   
   
   
   
   
   
   
   
   
   
   
   
   
   
   
   
   
   
   
   
   
   
   
   
   
   
   
   
   
   
   
   
   
   
   
   
   
   
   
   
   
   
   
   
   
   
   
   
   
   
   
   
   
   
   
   
   
   
   
   
   
   
   
   
   
   
   
   
   
   
   
   
   
   
   
   
   
   
   
   
   
   
   
   
   
   
   
   
   
   
   
   
   
   
   
   
   
   
   
   
   
   
   
   
   
   
   
   
   
   
   
   
   
   
   
   
   
   
   
   
   
   
   
   
   
   
   
   
   
   
   
   
   
   
   
   
   
   
   
   
   
   
   
   
   
   
   
   
   
   
   
   
   
   
   
   
   
   
   
   
   
   
   
   
   
   
   
   
   
   
   
   
   
   
   
   
   
   
   
   
   
   
   
   
   
   
   
   
   
   
   
   
   
   
   
   
   
   
   
   
   
   
   
   
   
   
   
   
   
   
   
   
   
   
   
   
   
   
   
   
   
   
   
   
   
   
   
   
   
   
   
   
   
   
   
   
   
   
   
   
   
   
   
   
   
   
   
   
   
   
   
   
   
   
   
   
   
   
   
   
   
   
   
   
   
   
   
   
   
   
   
   
   
   
   
   
   
   
   
   
   
   
   
   
   
   
   
   
   
   
   
   
   
   
   
   
   
   
   
   
   
   
   
   
   
   
   
   
   
   
   
   
   
   
   
   
   
   
   
   
   
   
   
   
   
   
   
   
   
   
   
   
   
   
   
   
   
   
   
   
   
   
   
   
   
   
   
   
   
   
   
   
   
   
   
   
   
   
   
   
   
   
   
   
   
   
   
   
   
   
   
   
   
   
   
   
   
   
   
   
   
   
   
   
   
   
   
   
   
   
   
   
   
   
   
   
   
   
   
   
   
   
   
   
   
   
   
   
   
   
   
   
   
   
   
   
   
   
   
   
   
   
   
   
   
   
   
   
   
   
   
   
   
   
   
   
   
   
   
   
   
   
   
   
   
   
   
   
   
   
   
   
   
   
   
   
   
   
   
   
   
   
   
   
   
   
   
   
   
   
   
   
   
   
   
   
   
   
   
   
   
   
   
   
   
   
   
   
   
   
   
   
   
   
   
   
   
   
   
   
   
   
   
   
   
   
   
   
   
   
   
   
   
   
   
   
   
   
   
   
   
   
   
   
   
   
   
   
   
   
   
   
   
   
   
   
   
   
   
   
   
   
   
   
   
   
   
   
   
   
   
   
   
   
   
   
   
   
   
   
   
   
   
   
   
   
   
   
   
   
   
   
   
   
   
   
   
   
   
   
   
   
   
   
   
   
   
   
   
   
   
   
   
   
   
   
   
   
   
   
   
   
   
   
   
   
   
   
   
   
   
   
   
   
   
   
   
   
   
   
   
   
   
   
   
   
   
   
   
   
   
   
   
   
   
   
   
   
   
   
   
   
   
   
   
   
   
   
   
   
   
   
   
   
   
   
   
   
   
   
   
   
   
   
   
   
   
   
   
   
   
   
   
   
   
   
   
   
   
   
   
   
   
   
   
   
   
   
   
   
   
   
   
   
   
   
   
   
   
   
   
   
   
   
   
   
   
   
   
   
   
   
   
   
   
   
   
   
   
   
   
   
   
   
   
   
   
   
   
   
   
   
   
   
   
   
   
   
   
   
   
   
   
   
   
   
   
   
   
   
   
   
   
   
   
   
   
   
   
   
   
   
   
   
   
   
   
   
   
   
   
   
   
   
   
   
   
   
   
   
   
   
   
   
   
   
   
   
   
   
   
   
   
   
   
   
   
   
   
   
   
   
   
   
   
   
   
   
   
   
   
   
   
   
   
   
   
   
   
   
   
   
   
   
   
   
   
   
   
   
   
   
   
   
   
   
   
   
   
   
   
   
   
   
   
   
   
   
   
   
   
   
   
   
   
   
   
   
   
   
   
   
   
   
   
   
   
   
   
   
   
   
   
   
   
   
   
   
   
   
   
   
   
   
   
   
   
   
   
   
   
   
   
   
   
   
   
   
   
   
   
   
   
   
   
   
   
   
   
   
   
   
   
   
   
   
   
   
   
   
   
   
   
   
   
   
   
   
   
   
   
   
   
   
   
   
   
   
   
   
   
   
   
   
   
   
   
   
   
   
   
   
   
   
   
   
   
   
   
   
   
   
   
   
   
   
   
   
   
   
   
   
   
   
   
   
   
   
   
   
   
   
   
   
   
   
   
   
   
   
   
   
   
   
   
   
   
   
   
   
   
   
   
   
   
   
   
   
   
   
   
   
   
   
   
   
   
   
   
   
   
   
   
   
   
   
   
   
   
   
   
   
   
   
   
   
   
   
   
   
   
   
   
   
   
   
   
   
   
   
   
   
   
   
   
   
   
   
   
   
   
   
   
   
   
   
   
   
   
   
   
   
   
   
   
   
   
   
   
   
   
   
   
   
   
   
   
   
   
   
   
   
   
   
   
   
   
   
   
   
   
   
   
   
   
   
   
   
   
   
   
   
   
   
   
   
   
   
   
   
   
   
   
   
   
   
   
   
   
   
   
   
   
   
   
   
   
   
   
   
   
   
   
   
   
   
   
   
   
   
   
   
   
   
   
   
   
   
   
   
   
   
   
   
   
   
   
   
   
   
   
   
   
   
   
   
   
   
   
   
   
   
   
   
   
   
   
   
   
   
   
   
   
   
   
   
   
   
   
   
   
   
   
   
   
   
   
   
   
   
   
   
   
   
   
   
   
   
   
   
   
   
   
   
   
   
   
   
   
   
   
   
   
   
   
   
   
   
   
   
   
   
   
   
   
   
   
   
   
   
   
   
   
   
   
   
   
   
   
   
   <path
   class="fil15"
   d="m 517.94303,282.84122 13,-2 z m 0,0 h -218 l -16,-2 1,2 h -15 v -19 h 277 v 19 h -17 l 1,-2 z"
   id="path3842" />
   <polygon
   class="fil15"
   points="33363,1553 33366,1561 33366,1676 33347,1676 33347,1553 "
   id="polygon3844"
   transform="translate(-33077.055,-1270.1586)" />
   <polygon
   class="fil15"
   points="33608,1553 33604,1561 33604,1676 33624,1676 33624,1553 "
   id="polygon3846"
   transform="translate(-33077.055,-1270.1586)" />
   <polygon
   class="fil15"
   points="33205,1656 33205,1676 33165,1676 33165,1656 "
   id="polygon3848"
   transform="translate(-33077.055,-1270.1586)" />
   <polygon
   class="fil15"
   points="33199,1676 33199,2003 33179,2003 33179,1676 "
   id="polygon3850"
   transform="translate(-33077.055,-1270.1586)" />
   <polygon
   class="fil15"
   points="33205,1656 33205,1676 33165,1676 33165,1656 "
   id="polygon3852"
   transform="translate(-33077.055,-1270.1586)" />
   <polygon
   class="fil15"
   points="33307,1656 33307,1676 33346,1676 33346,1656 "
   id="polygon3854"
   transform="translate(-33077.055,-1270.1586)" />
   <polygon
   class="fil15"
   points="33366,1656 33366,1676 33291,1676 33291,1656 "
   id="polygon3856"
   transform="translate(-33077.055,-1270.1586)" />
   <polygon
   class="fil15"
   points="33802,2044 33802,2063 33165,2063 33165,2044 "
   id="polygon3858"
   transform="translate(-33077.055,-1270.1586)" />
   <polygon
   class="fil15"
   points="33763,1655 33763,1675 33803,1675 33803,1655 "
   id="polygon3860"
   transform="translate(-33077.055,-1270.1586)" />
   <polygon
   class="fil15"
   points="33769,1675 33769,2002 33789,2002 33789,1675 "
   id="polygon3862"
   transform="translate(-33077.055,-1270.1586)" />
   <polygon
   class="fil15"
   points="33219,1526 33219,1676 33199,1676 33199,1526 "
   id="polygon3864"
   transform="translate(-33077.055,-1270.1586)" />
   <polygon
   class="fil15"
   points="33290,1526 33290,1676 33310,1676 33310,1526 "
   id="polygon3866"
   transform="translate(-33077.055,-1270.1586)" />
   <polygon
   class="fil15"
   points="33751,1525 33751,1676 33771,1676 33771,1525 "
   id="polygon3868"
   transform="translate(-33077.055,-1270.1586)" />
   <polygon
   class="fil15"
   points="33664,1656 33664,1676 33623,1676 33623,1656 "
   id="polygon3870"
   transform="translate(-33077.055,-1270.1586)" />
   <polygon
   class="fil15"
   points="33678,1526 33678,1676 33658,1676 33658,1526 "
   id="polygon3872"
   transform="translate(-33077.055,-1270.1586)" />
   <polygon
   class="fil15"
   points="33166,1816 33166,1797 33172,1797 33179,1797 33179,1828 "
   id="polygon3874"
   transform="translate(-33077.055,-1270.1586)" />
   <polygon
   class="fil15"
   points="33166,1922 33166,1903 33172,1903 33179,1903 33179,1934 "
   id="polygon3876"
   transform="translate(-33077.055,-1270.1586)" />
   <polygon
   class="fil15"
   points="33166,1675 33166,1657 33172,1657 33179,1657 33179,1687 "
   id="polygon3878"
   transform="translate(-33077.055,-1270.1586)" />
   <polygon
   class="fil15"
   points="33436,1534 33472,1534 33461,1523 33446,1523 "
   id="polygon3880"
   transform="translate(-33077.055,-1270.1586)" />
   <polygon
   class="fil15"
   points="33497,1534 33532,1534 33522,1523 33507,1523 "
   id="polygon3882"
   transform="translate(-33077.055,-1270.1586)" />
   <polygon
   class="fil15"
   points="33802,1815 33802,1796 33796,1796 33789,1796 33789,1827 "
   id="polygon3884"
   transform="translate(-33077.055,-1270.1586)" />
   <polygon
   class="fil15"
   points="33802,1921 33802,1903 33796,1903 33789,1903 33789,1933 "
   id="polygon3886"
   transform="translate(-33077.055,-1270.1586)" />
   <polygon
   class="fil15"
   points="33802,1674 33802,1656 33796,1656 33789,1656 33789,1686 "
   id="polygon3888"
   transform="translate(-33077.055,-1270.1586)" />
   <path
   class="fil15"
   d="m 121.94331,732.84098 -14,23.99997 z m 0,0 h -20 l -13,10.99997 v 42 h 19 v -29 z"
   id="path3890" />
   <path
   class="fil15"
   d="m 691.94303,732.84098 14,23.99997 z m 0,0 h 20 l 13,10.99997 v 42 h -19 v -29 z"
   id="path3892" />
   <polygon
   class="fil15"
   points="33230,1525 33230,1545 33199,1545 33199,1525 "
   id="polygon3894"
   transform="translate(-33077.055,-1270.1586)" />
   <polygon
   class="fil15"
   points="33279,1525 33279,1545 33310,1545 33310,1525 "
   id="polygon3896"
   transform="translate(-33077.055,-1270.1586)" />
   <path
   class="fil15"
   d="m 201.94331,235.84125 c 6.00002,-5 8.99972,-13 8.99972,-22 0,-16.99997 -14.99972,-31.99997 -33.99972,-31.99997 -18,0 -33,15 -33,31.99997 0,9 3,15 9,23 v 37.99997 h -20 v -28.99997 c -4,-9 -9,-20 -9,-31 0,-28.99997 25,-52.99997 53,-52.99997 29,0 53.99972,24 53.99972,52.99997 0,11 -5,22 -9,31 v 28.99997 h -19.99972 z"
   id="path3898" />
   <polygon
   class="fil15"
   points="33259,1372 33264,1436 33245,1436 33251,1372 "
   id="polygon3900"
   transform="translate(-33077.055,-1270.1586)" />
   <polygon
   class="fil15"
   points="33718,1372 33723,1436 33704,1436 33710,1372 "
   id="polygon3902"
   transform="translate(-33077.055,-1270.1586)" />
   <path
   class="fil15"
   d="m 661.94303,235.84125 c 6,-5 9,-13 9,-22 0,-16.99997 -15,-31.99997 -34,-31.99997 -18,0 -33,15 -33,31.99997 0,9 3,15 9,23 v 37.99997 h -20 v -28.99997 c -5,-9 -9,-20 -9,-31 0,-28.99997 24,-52.99997 53,-52.99997 29,0 54,24 54,52.99997 0,11 -5,22 -9,31 l -1,28.99997 h -19 z"
   id="path3904" />
   <polygon
   class="fil15"
   points="33347,1533 33378,1533 33368,1522 33353,1522 "
   id="polygon3906"
   transform="translate(-33077.055,-1270.1586)" />
   <polygon
   class="fil15"
   points="33347,1533 33347,1564 33336,1554 33336,1539 "
   id="polygon3908"
   transform="translate(-33077.055,-1270.1586)" />
   <polygon
   class="fil15"
   points="33624,1533 33593,1533 33603,1522 33618,1522 "
   id="polygon3910"
   transform="translate(-33077.055,-1270.1586)" />
   <polygon
   class="fil15"
   points="33624,1533 33624,1564 33635,1554 33635,1539 "
   id="polygon3912"
   transform="translate(-33077.055,-1270.1586)" />
   <path
   class="fil15"
   d="m 177.94331,135.84131 c 6,0 12,6 12,13 0,5.99997 -6,11.99997 -12,11.99997 -7,0 -13,-6 -13,-11.99997 0,-7 6,-13 13,-13 z"
   id="path3914" />
   <path
   class="fil15"
   d="m 636.94303,135.84131 c 6,0 12,6 12,13 0,5.99997 -6,11.99997 -12,11.99997 -7,0 -13,-6 -13,-11.99997 0,-7 6,-13 13,-13 z"
   id="path3916" />
   <path
   class="fil15"
   d="m 176.94331,96.84134 c 3,0 4,2 4,3.99997 0,2 -1,4 -4,4 -2,0 -4,-2 -4,-4 0,-1.99997 2,-3.99997 4,-3.99997 z"
   id="path3918" />
   <path
   class="fil15"
   d="m 636.94303,96.84134 c 3,0 4,2 4,3.99997 0,2 -1,4 -4,4 -2,0 -4,-2 -4,-4 0,-1.99997 2,-3.99997 4,-3.99997 z"
   id="path3920" />
   <path
   class="fil16"
   d="m 814.94272,489.8411 h 188.99988 v 53.99997 H 891.94269 v 43.99997 h 95.99994 v 50.99997 h -95.99994 v 103.99994 h -76.99997 z m 232.99988,0 h 77 v 252.99985 h -77 z m 122,125.99994 c 0,-40.99997 11,-72.99997 34,-95.99994 23,-23 54,-35 93.9997,-35 41,0 73,12 95,34 23,22.99997 34,54.99997 34,94.99994 0,29.99997 -5,53.99997 -15,72.99994 -10,19 -24,34 -42,44 -18,10.99997 -41,15.99997 -69,15.99997 -28,0 -50.9997,-4 -68.9997,-13.99997 -19,-9 -33,-23 -45,-43 -11,-18.99997 -17,-43.99997 -17,-73.99994 z m 77,1 c 0,24.99997 4,43.99997 14,54.99997 8.9997,10.99997 21.9997,16.99997 37.9997,16.99997 16,0 29,-6 38,-16.99997 9,-11 13,-30 13,-58.99997 0,-24 -4,-40.99997 -14,-51.99997 -9,-11 -22,-16 -38,-16 -15,0 -28,5 -36.9997,16 -10,12 -14,29.99997 -14,55.99997 z m 385.9997,21.99997 67,21 c -4,19 -12,34.99997 -21,47.99997 -10,13 -22,23 -36,28.99997 -15,7 -33,10 -55,10 -27,0 -49,-4 -66,-11.99997 -17,-8 -32,-22 -44,-42 -13,-19.99997 -19,-45.99997 -19,-76.99994 0,-41.99997 11,-73.99997 33,-96.99994 22,-22 52,-34 92,-34 31,0 56,7 74,20 18,13 31,31.99997 40,58.99997 l -68,15.99997 c -2,-7.99997 -5,-13.99997 -7,-16.99997 -5,-6 -10,-11 -16,-14 -6,-3 -13,-5 -21,-5 -17,0 -31,7 -40,21 -7,11 -10,27.99997 -10,49.99997 0,27.99997 4,47.99997 12,57.99997 9,9.99997 20,15.99997 35,15.99997 15,0 26,-5 34,-12.99997 7,-8 13,-21 16,-37 z m 105,103.99994 V 489.8411 h 127.9997 c 23,0 41,2 54,6 12,4 23,12 30,23 8,10.99997 12,24.99997 12,40.99997 0,14 -3,25.99997 -9,35.99997 -6,10 -14,19 -24,25 -7,4 -16,7 -27,9.99997 9,3 16,6 20,9 3,2 7,7 12,14 5,6 9,12 11,15 l 37,73.99994 h -87 l -41,-77.99994 c -5,-10 -9,-16 -13,-19 -6,-4 -12,-6 -19,-6 h -7 v 102.99994 z m 76.9997,-150.99991 h 32 c 4,0 11,-1 21,-3 5,-1 9,-4 12,-8 3,-4 5,-8.99997 5,-14.99997 0,-8 -3,-14 -8,-19 -5,-4 -14,-6 -28,-6 h -34 z m 347,-101.99994 h 76 v 150.99991 c 0,15 -2,29 -7,41.99997 -5,13 -12,25 -21,35 -10,10 -20,17 -31,20.99997 -15,5 -33,8 -54,8 -12,0 -25,-1 -39,-2 -14,-2 -26,-5 -36,-10.99997 -9,-5 -18,-12 -26,-21 -8,-10 -13,-20 -16,-30 -5,-15.99997 -8,-29.99997 -8,-41.99997 l 1,-150.99991 h 76 v 153.99991 c 0,14 4,25 11,33 8,6.99997 18,10.99997 31,10.99997 13,0 24,-4 31,-10.99997 8,-8 12,-19 12,-33 z m 120,0 h 216.9997 v 49.99997 l -139,147.99991 h 144 v 54.99997 H 2268.942 V 689.84098 L 2405.9417,543.84107 H 2281.942 Z"
   id="path3922" />
   
   
   
   
   
   
   
   
   
   
   
   
   
   
   
   
   
   
   
   
   
   
   
   
   
   
   
   
   
   
   
   
   
   
   
   
   
   
   
   
   
   
   
   
   
   
   
   
   
   
   
   
   
   
   
   
   
   
   
   
   
   
   
   
   
   
   
   
   
   
   
   
   
   
   
   
   
   
   
   
   
   
   
   
   
   
   
   
   
   
   
   
   
   
   
   
   
   
   
   
   
   
   
   
   
   
   
   
   
   
   
   
   
   
   
   
   
   
   
   
   
   
   
   
   
   
   
   
   
   
   
   
   
   
   
   
   
   
   
   
   
   
   
   
   
   
   
   
   
   
   
   
   
   
   
   
   
   
   
   
   
   
   
   
   
   
   
   
   
   
   
   
   
   
   
   
   
   
   
   
   
   
   
   
   
   
   
   
   
   
   
   
   
   
   
   
   
   
   
   
   
   
   
   
   
   
   
   
   
   
   
   
   
   
   
   
   
   
   
   
   
   
   
   
   
   
   
   
   
   
   
   
   
   
   
   
   
   
   
   
   
   
   
   
   
   
   
   
   
   
   
   
   
   
   
   
   
   
   
   
   
   
   
   
   
   
   
   
   
   
   
   
   
   
   
   
   
   
   
   
   
   
   
   
   
   
   
   
   
   
   
   
   
   
   
   
   
   
   
   
   
   
   
   
   
   
   
   
   
   
   
   
   
   
   
   
   
   
   
   
   
   
   
   
   
   
   
   
   
   
   
   
   
   
   
   
   
   
   
   
   
   
   
   
   
   
   
   
   
   
   
   
   
   
   
   
   
   
   
   
   
   
   
   
   
   
   
   
   
   
   
   
   
   
   
   
   
   
   
   
   
   
   
   
   
   
   
   
   
   
   
   
   
   
   
   
   
   
   
   
   
   
   
   
   
   
   
   
   
   
   
   
   
   
   
   
   
   
   
   
   
   
   
   
   
   
   
   
   
   
   
   
   
   
   
   
   
   
   
   
   
   
   
   
   
   
   
   
   
   
   
   
   
   
   
   
   
   
   
   
   
   
   
   
   
   
   
   
   
   
   
   
   
   
   
   
   
   
   
   
   
   
   
   
   
   
   
   
   
   
   
   
   
   
   
   
   
   
   
   
   
   
   
   
   
   
   
   
   
   
   
   
   
   
   
   
   
   
   
   
   
   
   
   
   
   
   
   
   
   
   
   
   
   
   
   
   
   
   
   
   
   
   
   
   
   
   
   
   
   
   
   
   
   
   
   
   
   
   
   
   
   
   
   
   
   
   
   
   
   
   
   
   
   
   
   
   
   
   
   
   
   
   
   
   
   
   
   
   
   
   
   
   
   
   
   
   
   
   
   
   
   
   
   
   
   
   
   
   
   
   
   
   
   
   
   
   
   
   
   
   
   
   
   
   
   
   
   
   
   
   
   
   
   
   
   
   
   
   
   
   
   
   
  </g>
 </g>
</svg>
