<?xml version="1.0" encoding="UTF-8" standalone="no"?>
<!-- Creator: CorelDRAW X7 -->

<svg
   xmlns:dc="http://purl.org/dc/elements/1.1/"
   xmlns:cc="http://creativecommons.org/ns#"
   xmlns:rdf="http://www.w3.org/1999/02/22-rdf-syntax-ns#"
   xmlns:svg="http://www.w3.org/2000/svg"
   xmlns="http://www.w3.org/2000/svg"
   xmlns:sodipodi="http://sodipodi.sourceforge.net/DTD/sodipodi-0.dtd"
   xmlns:inkscape="http://www.inkscape.org/namespaces/inkscape"
   xml:space="preserve"
   width="190.693mm"
   height="27.0096mm"
   version="1.1"
   style="shape-rendering:geometricPrecision; text-rendering:geometricPrecision; image-rendering:optimizeQuality; fill-rule:evenodd; clip-rule:evenodd"
   viewBox="0 0 19102 2706"
   id="svg3745"
   sodipodi:docname="logo_branco.svg"
   inkscape:version="0.92.4 (5da689c313, 2019-01-14)"><metadata
   id="metadata3749"><rdf:RDF><cc:Work
       rdf:about=""><dc:format>image/svg+xml</dc:format><dc:type
         rdf:resource="http://purl.org/dc/dcmitype/StillImage" /><dc:title></dc:title></cc:Work></rdf:RDF></metadata><sodipodi:namedview
   pagecolor="#ffffff"
   bordercolor="#666666"
   borderopacity="1"
   objecttolerance="10"
   gridtolerance="10"
   guidetolerance="10"
   inkscape:pageopacity="0"
   inkscape:pageshadow="2"
   inkscape:window-width="1366"
   inkscape:window-height="705"
   id="namedview3747"
   showgrid="false"
   inkscape:zoom="1.6802422"
   inkscape:cx="360.36471"
   inkscape:cy="51.041763"
   inkscape:window-x="-8"
   inkscape:window-y="-8"
   inkscape:window-maximized="1"
   inkscape:current-layer="svg3745" />
 <defs
   id="defs3734">
  <style
   type="text/css"
   id="style3732">
   <![CDATA[
    .fil0 {fill:#201E1E;fill-rule:nonzero}
   ]]>
  </style>
 </defs>
 <g
   id="Camada_x0020_1"
   style="fill:#ffffff">
  <metadata
   id="CorelCorpID_0Corel-Layer" />
  <g
   id="_2771880259120"
   style="fill:#ffffff">
   <path
   class="fil0"
   d="M7256 1639c-6,5 -17,12 -33,20 -17,9 -36,16 -60,23 -23,6 -49,9 -77,9 -44,-1 -83,-9 -117,-24 -34,-14 -63,-34 -86,-60 -24,-25 -42,-54 -54,-87 -13,-33 -19,-68 -19,-106 0,-41 6,-80 19,-115 13,-35 31,-65 54,-90 24,-26 52,-45 85,-59 33,-14 69,-21 109,-21 37,0 70,5 98,15 29,10 52,21 70,32l-43 102c-12,-9 -29,-19 -50,-29 -20,-10 -44,-15 -71,-15 -21,0 -41,4 -60,13 -19,8 -36,21 -51,37 -15,16 -26,34 -35,55 -8,21 -12,44 -12,69 0,27 4,51 11,73 8,22 19,41 33,56 15,16 32,28 52,37 21,8 43,12 69,12 29,0 54,-5 75,-14 21,-9 37,-19 48,-30l45 97zm62 46l248 -572 6 0 248 572 -126 0 -158 -402 78 -54 -189 456 -107 0zm169 -199l166 0 38 91 -237 0 33 -91zm428 199l0 -550 165 0c55,0 102,8 141,25 39,16 70,38 94,65 24,28 41,58 52,92 11,34 16,68 16,103 0,40 -7,77 -22,110 -15,32 -35,60 -60,84 -25,23 -55,40 -88,53 -34,12 -69,18 -106,18l-192 0zm109 -105l64 0c27,0 52,-3 75,-11 22,-7 41,-17 58,-31 16,-14 28,-32 37,-53 9,-21 13,-45 13,-73 0,-36 -6,-65 -17,-88 -12,-22 -27,-40 -44,-52 -17,-13 -35,-21 -52,-26 -18,-5 -34,-7 -46,-7l-88 0 0 341zm483 -445l375 0 0 104 -267 0 0 118 237 0 0 104 -237 0 0 119 278 0 0 105 -386 0 0 -550zm680 0c34,0 65,4 92,13 27,9 49,21 67,37 19,17 32,36 42,59 9,22 14,48 14,76 0,23 -3,45 -10,67 -7,23 -18,43 -33,62 -15,18 -35,33 -60,44 -25,11 -56,17 -93,17l-77 0 0 175 -109 0 0 -550 167 0zm19 270c16,0 30,-2 41,-8 11,-5 19,-12 25,-21 7,-8 11,-17 14,-26 3,-10 4,-18 4,-26 0,-6 -1,-14 -3,-23 -1,-9 -5,-18 -10,-28 -6,-9 -14,-17 -25,-24 -12,-6 -27,-10 -46,-10l-77 0 0 166 77 0zm101 68l136 212 -126 0 -139 -209 129 -3zm734 234l-417 -376 32 18 2 336 -110 0 0 -572 5 0 408 375 -24 -10 -2 -343 109 0 0 572 -3 0zm127 -296c0,-38 7,-74 21,-108 15,-34 35,-64 61,-90 25,-26 55,-47 89,-62 34,-15 70,-22 109,-22 38,0 74,7 108,22 34,15 64,36 90,62 27,26 47,56 62,90 14,34 22,70 22,108 0,38 -8,75 -22,109 -15,34 -35,63 -62,89 -26,26 -56,46 -90,60 -34,15 -70,22 -108,22 -39,0 -75,-7 -109,-22 -34,-14 -64,-34 -89,-60 -26,-26 -46,-55 -61,-89 -14,-34 -21,-71 -21,-109zm112 0c0,24 4,47 13,68 9,21 21,40 37,56 15,16 33,29 54,38 21,9 43,13 68,13 23,0 45,-4 65,-13 20,-9 38,-22 53,-38 15,-16 26,-35 35,-56 8,-21 13,-44 13,-68 0,-25 -5,-48 -13,-70 -9,-21 -21,-40 -36,-56 -16,-16 -33,-29 -54,-38 -20,-9 -42,-13 -66,-13 -24,0 -46,4 -67,13 -20,9 -38,22 -54,38 -15,16 -27,35 -35,56 -9,22 -13,45 -13,70zm867 -143c-21,-12 -42,-21 -64,-29 -21,-7 -42,-11 -61,-11 -23,0 -41,5 -55,14 -13,10 -20,24 -20,43 0,13 5,25 15,35 11,10 24,19 40,27 16,8 33,15 50,22 16,6 32,13 48,21 15,8 30,19 42,31 12,12 22,27 30,45 7,18 11,41 11,67 0,28 -7,54 -22,78 -14,24 -35,43 -63,58 -28,14 -62,22 -103,22 -21,0 -42,-2 -64,-7 -22,-4 -43,-10 -64,-19 -21,-9 -41,-20 -61,-33l48 -85c13,10 27,18 43,25 15,8 30,13 45,17 16,4 30,6 43,6 13,0 26,-2 39,-5 14,-4 24,-10 33,-19 9,-9 13,-22 13,-38 0,-11 -3,-21 -11,-30 -7,-9 -17,-17 -29,-24 -12,-8 -25,-14 -40,-20 -17,-6 -34,-14 -52,-22 -18,-9 -35,-19 -50,-31 -16,-12 -29,-28 -39,-46 -9,-18 -14,-40 -14,-67 0,-32 7,-59 21,-83 14,-23 34,-42 60,-55 26,-14 56,-22 90,-23 44,0 80,5 108,16 28,10 52,22 74,37l-41 83zm401 417l0 -550 164 0c55,0 102,8 141,25 39,16 70,38 94,65 24,28 41,58 52,92 11,34 16,68 16,103 0,40 -7,77 -22,110 -14,32 -34,60 -60,84 -25,23 -55,40 -88,53 -33,12 -69,18 -106,18l-191 0zm108 -105l64 0c28,0 53,-3 75,-11 22,-7 42,-17 58,-31 16,-14 29,-32 37,-53 9,-21 13,-45 13,-73 0,-36 -6,-65 -17,-88 -12,-22 -26,-40 -44,-52 -17,-13 -34,-21 -52,-26 -18,-5 -33,-7 -46,-7l-88 0 0 341zm483 -445l375 0 0 104 -266 0 0 118 236 0 0 104 -236 0 0 119 277 0 0 105 -386 0 0 -550zm1050 133c-21,-12 -42,-21 -64,-29 -22,-7 -42,-11 -61,-11 -23,0 -42,5 -55,14 -14,10 -20,24 -20,43 0,13 5,25 15,35 10,10 23,19 40,27 16,8 33,15 50,22 16,6 32,13 48,21 15,8 29,19 42,31 12,12 22,27 30,45 7,18 11,41 11,67 0,28 -7,54 -22,78 -14,24 -35,43 -63,58 -28,14 -63,22 -103,22 -21,0 -43,-2 -64,-7 -22,-4 -43,-10 -64,-19 -21,-9 -41,-20 -61,-33l48 -85c13,10 27,18 42,25 15,8 31,13 46,17 16,4 30,6 43,6 13,0 26,-2 39,-5 13,-4 24,-10 33,-19 9,-9 13,-22 13,-38 0,-11 -4,-21 -11,-30 -7,-9 -17,-17 -29,-24 -12,-8 -25,-14 -40,-20 -17,-6 -34,-14 -52,-22 -18,-9 -35,-19 -51,-31 -15,-12 -28,-28 -38,-46 -10,-18 -14,-40 -14,-67 0,-32 7,-59 21,-83 14,-23 34,-42 60,-55 26,-14 56,-22 90,-23 44,0 80,5 108,16 27,10 52,22 74,37l-41 83zm95 417l249 -572 6 0 248 572 -126 0 -158 -402 78 -54 -190 456 -107 0zm170 -199l165 0 38 91 -237 0 34 -91zm510 -4c0,17 6,34 16,50 10,16 24,29 41,39 18,9 36,14 57,14 22,0 42,-5 60,-14 17,-10 31,-23 41,-39 10,-16 15,-33 15,-50l0 -347 107 0 0 349c0,40 -10,76 -30,107 -19,31 -46,56 -80,73 -34,18 -72,27 -113,27l0 0c-41,0 -78,-9 -112,-27 -33,-17 -60,-42 -80,-73 -20,-31 -30,-67 -30,-107l0 -349 108 0 0 347zm254 -484l-111 101 -63 0 58 -101 116 0zm230 687l0 -550 164 0c55,0 102,8 141,25 39,16 70,38 94,65 24,28 41,58 52,92 11,34 16,68 16,103 0,40 -7,77 -22,110 -14,32 -34,60 -60,84 -25,23 -55,40 -88,53 -33,12 -69,18 -106,18l-191 0zm108 -105l64 0c28,0 53,-3 75,-11 22,-7 42,-17 58,-31 16,-14 29,-32 37,-53 9,-21 13,-45 13,-73 0,-36 -6,-65 -17,-88 -12,-22 -26,-40 -44,-52 -17,-13 -34,-21 -52,-26 -18,-5 -33,-7 -46,-7l-88 0 0 341zm483 -445l375 0 0 104 -266 0 0 118 236 0 0 104 -236 0 0 119 277 0 0 105 -386 0 0 -550zm923 0c45,0 84,7 115,23 31,15 55,36 72,64 16,28 24,60 24,98 0,23 -3,45 -10,68 -6,22 -17,43 -32,61 -14,19 -34,34 -59,45 -24,11 -55,17 -91,17l-77 0 0 174 -109 0 0 -550 167 0zm19 270c16,0 30,-2 41,-8 11,-6 19,-13 26,-22 6,-9 10,-18 13,-27 3,-10 4,-18 4,-25 0,-5 -1,-13 -3,-22 -1,-9 -5,-18 -10,-28 -6,-9 -14,-17 -25,-24 -12,-6 -27,-10 -46,-10l-77 0 0 166 77 0zm402 77c0,17 6,34 16,50 10,16 24,29 41,39 18,9 36,14 57,14 22,0 42,-5 60,-14 17,-10 31,-23 41,-39 10,-16 15,-33 15,-50l0 -347 107 0 0 349c0,40 -10,76 -30,107 -20,31 -46,56 -80,73 -34,18 -72,27 -113,27l0 0c-41,0 -78,-9 -112,-27 -33,-17 -60,-42 -80,-73 -20,-31 -30,-67 -30,-107l0 -349 108 0 0 347zm254 -484l-111 101 -64 0 59 -101 116 0zm391 137c57,0 103,11 137,35 34,23 51,57 51,103 0,34 -9,62 -25,85 -17,23 -40,40 -68,51 -29,11 -62,17 -99,17l-17 -59c45,0 86,7 121,19 35,12 63,30 83,53 20,24 31,51 31,84 0,30 -6,55 -16,76 -11,20 -26,37 -44,50 -18,12 -38,22 -61,27 -23,6 -47,9 -71,9l-183 0 0 -550 161 0zm13 225c21,0 37,-7 47,-20 10,-13 15,-27 15,-44 0,-19 -6,-33 -19,-42 -12,-10 -29,-15 -51,-15l-58 0 0 121 66 0zm3 224c16,0 31,-2 44,-6 13,-5 23,-11 30,-21 8,-9 12,-20 12,-34 0,-16 -5,-28 -14,-37 -9,-8 -20,-13 -35,-17 -14,-3 -29,-5 -44,-5l-62 0 0 120 69 0zm322 -449l108 0 0 445 258 0 0 105 -366 0 0 -550zm494 0l108 0 0 550 -108 0 0 -550zm678 504c-6,5 -17,12 -33,20 -16,9 -36,16 -59,23 -24,6 -50,9 -78,9 -43,-1 -82,-9 -116,-24 -34,-14 -63,-34 -87,-60 -23,-25 -42,-54 -54,-87 -12,-33 -19,-68 -19,-106 0,-41 7,-80 19,-115 13,-35 31,-65 55,-90 24,-26 52,-45 85,-59 33,-14 69,-21 109,-21 37,0 69,5 98,15 28,10 51,21 69,32l-42 102c-13,-9 -29,-19 -50,-29 -21,-10 -45,-15 -71,-15 -21,0 -41,4 -61,13 -19,8 -36,21 -50,37 -15,16 -27,34 -35,55 -9,21 -13,44 -13,69 0,27 4,51 12,73 7,22 19,41 33,56 14,16 32,28 52,37 20,8 43,12 68,12 30,0 55,-5 76,-14 21,-9 37,-19 48,-30l44 97zm62 46l248 -572 6 0 248 572 -125 0 -159 -402 79 -54 -190 456 -107 0zm170 -199l165 0 38 91 -237 0 34 -91z"
   id="path3737"
   style="fill:#ffffff" />
   <path
   class="fil0"
   d="M2109 2479c-44,29 -104,62 -180,99 -75,36 -164,67 -265,91 -101,24 -212,37 -331,37 -205,-3 -390,-39 -555,-110 -165,-71 -304,-167 -419,-289 -115,-122 -203,-263 -266,-423 -62,-160 -93,-330 -93,-511 0,-198 32,-380 97,-547 65,-168 156,-313 273,-436 117,-123 255,-219 415,-287 160,-69 335,-103 526,-103 158,0 302,21 432,64 129,43 240,93 333,152l-143 330c-73,-49 -162,-96 -265,-140 -104,-44 -219,-66 -346,-66 -130,0 -252,26 -366,77 -115,52 -216,124 -304,216 -88,93 -157,201 -207,324 -50,124 -75,256 -75,398 0,144 22,277 68,401 45,123 109,230 194,320 84,90 186,161 305,212 120,52 254,77 403,77 134,0 254,-21 359,-62 105,-42 191,-88 260,-139l150 315zm1966 -1977c-90,-47 -189,-87 -297,-121 -107,-34 -212,-51 -314,-51 -142,0 -255,32 -339,98 -84,66 -126,154 -126,264 0,83 26,153 80,210 54,58 125,107 212,149 88,41 180,80 275,117 83,32 165,67 245,106 81,39 154,88 218,147 65,58 116,130 154,216 38,85 57,191 57,318 0,139 -35,266 -105,381 -69,115 -169,205 -298,271 -129,66 -283,99 -461,99 -117,0 -229,-14 -335,-41 -107,-26 -205,-61 -295,-104 -90,-43 -171,-87 -242,-134l158 -278c58,42 125,81 201,119 76,38 155,68 238,92 83,23 164,34 242,34 83,0 165,-15 247,-45 82,-31 149,-78 203,-141 54,-64 81,-148 81,-253 0,-90 -24,-165 -72,-225 -47,-60 -110,-111 -188,-154 -78,-43 -161,-81 -249,-115 -83,-32 -168,-67 -253,-105 -85,-37 -165,-84 -238,-139 -73,-55 -132,-122 -176,-203 -44,-80 -66,-178 -66,-293 0,-139 34,-260 101,-364 67,-104 159,-186 277,-245 117,-60 251,-92 402,-97 171,0 322,20 452,62 131,41 246,93 346,154l-135 271zm1468 -473c193,0 358,33 494,97 137,65 243,158 317,280 75,122 112,270 112,443 0,105 -16,208 -48,310 -32,101 -82,193 -152,274 -69,82 -160,147 -273,196 -112,49 -248,73 -410,73l-391 0 0 974 -355 0 0 -2647 706 0zm37 1333c105,0 191,-17 260,-51 68,-34 122,-78 161,-130 39,-53 67,-108 84,-167 17,-58 26,-111 26,-157 0,-54 -9,-110 -26,-167 -17,-57 -46,-110 -86,-157 -40,-48 -93,-87 -157,-117 -65,-31 -145,-46 -240,-46l-410 0 0 992 388 0z"
   id="path3739"
   style="fill:#ffffff" />
   <path
   class="fil0"
   d="M10432 2236c23,0 44,3 64,9 19,6 36,15 51,27 14,12 26,27 34,44 8,18 12,38 12,61 0,18 -3,36 -8,53 -5,17 -14,33 -26,47 -12,14 -28,25 -47,34 -20,9 -44,13 -72,13l-68 0 0 167 -61 0 0 -455 121 0zm6 229c18,0 33,-2 45,-8 12,-5 22,-12 28,-21 7,-9 12,-18 15,-28 3,-10 4,-19 4,-28 0,-10 -1,-19 -5,-29 -3,-10 -8,-19 -15,-27 -7,-9 -16,-16 -27,-21 -11,-6 -24,-8 -40,-8l-71 0 0 170 66 0zm75 35l119 191 -70 0 -121 -189 72 -2zm211 -263l295 -1 -1 59 -234 0 0 139 210 -1 -1 58 -209 1 0 141 244 0 -1 58 -304 0 1 -454zm528 -1c33,0 62,6 85,17 24,11 42,27 55,48 13,21 19,46 19,76 0,18 -3,36 -8,53 -6,18 -14,33 -26,48 -12,14 -28,25 -47,33 -20,9 -43,13 -71,13l-67 0 0 167 -61 0 0 -455 121 0zm7 229c18,0 33,-3 44,-9 12,-5 21,-13 28,-22 7,-9 12,-18 14,-28 3,-11 5,-20 5,-28 0,-9 -2,-18 -5,-28 -2,-10 -7,-19 -14,-27 -7,-8 -16,-15 -27,-20 -11,-6 -25,-8 -42,-8l-70 0 0 170 67 0zm215 0c0,-32 6,-62 18,-90 12,-28 29,-53 50,-74 22,-22 46,-39 75,-51 28,-13 58,-19 90,-19 32,0 61,6 89,19 28,12 53,29 74,51 22,21 39,46 51,74 12,28 18,58 18,90 0,32 -6,62 -18,90 -12,28 -29,52 -51,74 -21,21 -46,37 -74,49 -28,12 -57,18 -89,18 -33,0 -63,-6 -91,-17 -28,-12 -52,-29 -74,-49 -21,-21 -38,-46 -50,-74 -12,-28 -18,-58 -18,-91zm63 0c0,24 5,46 13,67 9,21 21,39 37,55 15,16 33,28 54,37 20,9 42,14 66,14 24,0 46,-5 67,-14 20,-9 38,-21 54,-37 15,-16 27,-34 36,-55 8,-20 12,-43 12,-67 0,-25 -4,-47 -13,-69 -9,-21 -21,-39 -36,-56 -15,-16 -33,-28 -54,-37 -20,-9 -43,-13 -66,-13 -25,0 -47,4 -68,13 -20,9 -38,22 -54,38 -15,16 -27,35 -35,56 -8,21 -13,44 -13,68zm623 -229c23,0 45,3 64,9 20,6 37,15 51,27 14,12 26,27 34,44 8,18 12,38 12,61 0,18 -2,36 -8,53 -5,17 -14,33 -26,47 -12,14 -28,25 -47,34 -20,9 -44,13 -72,13l-68 0 0 167 -61 0 0 -455 121 0zm6 229c18,0 33,-2 45,-8 12,-5 22,-12 28,-21 7,-9 12,-18 15,-28 3,-10 4,-19 4,-28 0,-10 -1,-19 -4,-29 -4,-10 -9,-19 -15,-27 -7,-9 -16,-16 -28,-21 -11,-6 -24,-8 -40,-8l-71 0 0 170 66 0zm75 35l119 191 -70 0 -121 -189 72 -2zm171 -263l302 -1 -1 59 -121 0 -1 396 -60 0 0 -396 -119 0 0 -58zm631 80c-15,-8 -32,-14 -51,-20 -18,-6 -36,-9 -54,-9 -24,0 -43,6 -58,17 -14,11 -22,26 -22,45 0,14 5,26 14,36 10,10 22,19 37,26 15,7 31,14 47,20 14,5 28,11 42,18 14,7 26,15 38,25 11,10 20,23 26,37 7,15 10,33 10,55 0,24 -6,46 -18,66 -12,19 -29,35 -51,46 -23,12 -49,17 -80,17 -20,0 -39,-2 -57,-7 -19,-4 -35,-10 -51,-18 -15,-7 -29,-15 -41,-23l27 -47c10,7 21,14 34,20 13,7 27,12 41,16 14,4 28,6 42,6 14,0 28,-3 42,-8 14,-5 26,-13 35,-24 9,-11 14,-26 14,-44 0,-15 -4,-28 -12,-38 -9,-11 -19,-20 -33,-27 -13,-7 -28,-14 -43,-20 -14,-5 -28,-11 -43,-18 -15,-6 -28,-14 -41,-24 -13,-9 -23,-21 -30,-34 -8,-14 -11,-31 -11,-51 0,-24 5,-45 17,-62 11,-18 27,-32 47,-43 20,-10 44,-15 70,-16 29,0 55,3 77,10 23,8 43,16 60,27l-24 46zm328 -80l61 -1 -1 455 -60 0 0 -454zm583 469l-352 -357 18 4 1 338 -61 0 0 -469 3 0 348 358 -14 -3 -2 -341 61 0 0 470 -2 0zm450 -470c33,0 62,6 85,17 24,11 42,27 55,48 12,21 19,46 19,76 0,18 -3,36 -8,53 -6,18 -15,33 -26,48 -12,14 -28,25 -47,33 -20,9 -43,13 -71,13l-67 0 0 167 -61 0 0 -455 121 0zm7 229c18,0 32,-3 44,-9 12,-5 21,-13 28,-22 7,-9 11,-18 14,-28 3,-11 5,-20 5,-28 0,-9 -2,-18 -5,-28 -3,-10 -7,-19 -14,-27 -7,-8 -16,-15 -27,-20 -12,-6 -25,-8 -42,-8l-70 0 0 170 67 0zm298 65c0,21 5,39 15,55 10,16 23,29 39,38 17,9 35,14 56,14 21,0 40,-5 57,-14 17,-9 30,-22 40,-38 9,-16 14,-34 14,-55l0 -294 60 0 0 296c0,33 -8,62 -23,87 -15,25 -36,44 -62,57 -25,14 -54,20 -86,20l0 0c-32,0 -61,-6 -86,-20 -26,-13 -46,-32 -61,-57 -16,-25 -23,-54 -23,-87l0 -296 60 0 0 294zm520 -294c46,0 82,10 108,28 26,19 39,48 39,87 0,24 -5,45 -16,63 -11,17 -26,31 -46,41 -19,10 -42,16 -69,17l-8 -31c30,1 58,6 82,16 24,10 44,24 58,42 14,18 21,40 21,64 0,23 -4,43 -12,59 -9,16 -20,29 -34,39 -15,11 -31,18 -49,23 -18,5 -36,7 -56,7l-135 0 0 -455 117 0zm13 200c25,0 43,-7 54,-21 12,-14 17,-32 17,-52 0,-24 -7,-41 -22,-52 -14,-11 -34,-16 -59,-16l-59 0 0 141 69 0zm2 199c17,0 32,-3 46,-8 14,-5 26,-13 34,-23 8,-11 12,-24 12,-40 0,-18 -5,-31 -14,-41 -10,-11 -22,-18 -36,-22 -15,-5 -30,-7 -46,-7l-67 0 0 141 71 0zm255 -398l60 -1 0 397 231 0 0 58 -292 0 1 -454zm389 0l60 -1 -1 455 -60 0 1 -454zm522 420c-7,5 -17,11 -30,17 -13,6 -29,12 -46,16 -17,4 -36,6 -57,6 -35,0 -67,-6 -95,-19 -29,-12 -53,-28 -72,-49 -20,-21 -35,-46 -46,-73 -11,-28 -16,-57 -16,-88 0,-34 6,-65 17,-94 11,-29 26,-54 47,-75 20,-21 44,-37 71,-49 27,-12 58,-18 90,-18 28,0 52,4 75,11 22,8 41,16 57,26l-25 57c-12,-8 -28,-16 -45,-24 -18,-7 -38,-11 -60,-11 -22,0 -43,4 -63,13 -19,9 -37,21 -52,37 -15,16 -27,35 -36,56 -8,21 -12,44 -12,68 0,25 3,48 11,69 8,21 19,39 34,55 14,16 32,28 52,36 21,9 44,14 69,14 23,0 44,-4 62,-11 18,-7 33,-15 45,-24l25 54zm659 -420l0 454 -60 0 0 -199 -239 0 0 199 -60 0 -1 -455 61 1 0 197 239 0 0 -198 60 1zm129 0l295 -1 0 59 -234 0 -1 139 210 -1 -1 58 -208 1 -1 141 244 0 -1 58 -303 0 0 -454zm362 454l199 -474 3 0 199 474 -70 0 -149 -378 44 -28 -166 406 -60 0zm116 -172l170 0 20 53 -207 0 17 -53zm368 -282l61 -1 -1 397 232 0 0 58 -292 0 0 -454zm303 0l301 -1 0 59 -122 0 0 396 -61 0 1 -396 -120 0 1 -58zm755 0l0 454 -59 0 -1 -199 -239 0 1 199 -61 0 0 -455 60 1 1 197 239 0 -1 -198 60 1z"
   id="path3741"
   style="fill:#ffffff" />
  </g>
 </g>
</svg>