<?xml version="1.0" encoding="UTF-8" standalone="no"?>
<!-- Creator: CorelDRAW X7 -->

<svg
   xml:space="preserve"
   width="72mm"
   height="28mm"
   version="1.1"
   style="clip-rule:evenodd;fill-rule:evenodd;image-rendering:optimizeQuality;shape-rendering:geometricPrecision;text-rendering:geometricPrecision"
   viewBox="0 0 7200.8963 2800.351"
   id="svg5546"
   sodipodi:docname="portal-periodicos.svg"
   inkscape:version="1.1 (1:1.1+202105261517+ce6663b3b7)"
   xmlns:inkscape="http://www.inkscape.org/namespaces/inkscape"
   xmlns:sodipodi="http://sodipodi.sourceforge.net/DTD/sodipodi-0.dtd"
   xmlns="http://www.w3.org/2000/svg"
   xmlns:svg="http://www.w3.org/2000/svg"><sodipodi:namedview
   id="namedview5548"
   pagecolor="#ffffff"
   bordercolor="#666666"
   borderopacity="1.0"
   inkscape:pageshadow="2"
   inkscape:pageopacity="0.0"
   inkscape:pagecheckerboard="0"
   inkscape:document-units="mm"
   showgrid="false"
   width="80mm"
   inkscape:zoom="1.6374221"
   inkscape:cx="130.69324"
   inkscape:cy="206.11668"
   inkscape:window-width="1680"
   inkscape:window-height="986"
   inkscape:window-x="0"
   inkscape:window-y="27"
   inkscape:window-maximized="1"
   inkscape:current-layer="_1660824352032" />
 <defs
   id="defs36">
  <style
   type="text/css"
   id="style2">
   <![CDATA[
    .str2 {stroke:#E88734;stroke-width:141.127}
    .str4 {stroke:#A6CE53;stroke-width:123.485}
    .str26 {stroke:#373435;stroke-width:21.1726}
    .str18 {stroke:#96989A;stroke-width:26.4533}
    .str3 {stroke:#FEFEFE;stroke-width:105.843}
    .str7 {stroke:black;stroke-width:11.1514}
    .str10 {stroke:black;stroke-width:8.9311}
    .str21 {stroke:#E6E7E8;stroke-width:35.2744}
    .str5 {stroke:#201E1E;stroke-width:35.2744}
    .str22 {stroke:#D2D3D5;stroke-width:20.0025}
    .str27 {stroke:#A9ABAE;stroke-width:20.0025}
    .str25 {stroke:#373435;stroke-width:20.0025}
    .str1 {stroke:#E88734;stroke-width:20.0025}
    .str0 {stroke:#BDBFC1;stroke-width:17.6322}
    .str19 {stroke:#4B4B4D;stroke-width:17.6322}
    .str23 {stroke:#FEFEFE;stroke-width:7.62094}
    .str17 {stroke:#96989A;stroke-width:7.62094}
    .str20 {stroke:#4B4B4D;stroke-width:7.62094}
    .str8 {stroke:black;stroke-width:11.1514;stroke-linejoin:round}
    .str9 {stroke:black;stroke-width:0.0400049;stroke-linecap:round;stroke-linejoin:round}
    .str6 {stroke:#282828;stroke-width:44.2055}
    .str11 {stroke:#373435;stroke-width:18.7423}
    .str13 {stroke:#373435;stroke-width:3.50043}
    .str14 {stroke:#373435;stroke-width:3.51043}
    .str12 {stroke:#373435;stroke-width:1.01012}
    .str15 {stroke:#373435;stroke-width:34.6143}
    .str16 {stroke:#373435;stroke-width:34.6143}
    .str24 {stroke:#FEFEFE;stroke-width:53.0566}
    .fil3 {fill:none}
    .fil23 {fill:none;fill-rule:nonzero}
    .fil20 {fill:#FEFEFE}
    .fil6 {fill:#FEFEFE}
    .fil0 {fill:#E6E7E8}
    .fil30 {fill:#848688}
    .fil34 {fill:#606062}
    .fil31 {fill:#4B4B4D}
    .fil27 {fill:#373435}
    .fil32 {fill:#373435}
    .fil22 {fill:#ACB3AC}
    .fil21 {fill:#282828}
    .fil26 {fill:#201E1E}
    .fil25 {fill:#201E1E}
    .fil11 {fill:#004B92}
    .fil41 {fill:#12AED7}
    .fil38 {fill:#2B5492}
    .fil39 {fill:#2F691D}
    .fil7 {fill:#367372}
    .fil18 {fill:#709D21}
    .fil37 {fill:#8FC73E}
    .fil40 {fill:#A34963}
    .fil43 {fill:#D91F2C}
    .fil19 {fill:#E3F1E0}
    .fil29 {fill:#E88734}
    .fil16 {fill:#EF9E57}
    .fil15 {fill:#EF9E57}
    .fil35 {fill:#F19317}
    .fil9 {fill:#F1F1F1}
    .fil36 {fill:#F3BF07}
    .fil13 {fill:#FDFDFD}
    .fil12 {fill:#FEFEFE}
    .fil5 {fill:#FEFEFE;fill-rule:nonzero}
    .fil17 {fill:#96989A;fill-rule:nonzero}
    .fil2 {fill:#4B4B4D;fill-rule:nonzero}
    .fil14 {fill:#373435;fill-rule:nonzero}
    .fil4 {fill:#373435;fill-rule:nonzero}
    .fil33 {fill:#201E1E;fill-rule:nonzero}
    .fil42 {fill:#D91F2C;fill-rule:nonzero}
    .fil10 {fill:#DADCE0;fill-rule:nonzero}
    .fil1 {fill:#E88734;fill-rule:nonzero}
    .fil24 {fill:black;fill-rule:nonzero}
    .fil28 {fill:white;fill-rule:nonzero}
    .fil8 {fill:#D2D3D5;fill-opacity:0.458824}
   ]]>
  </style>
    <clipPath
   id="id0">
     <path
   d="M 24,2683 H 36167 V 23577 H 24 Z"
   id="path4" />
    </clipPath>
    <mask
   id="id1">
  <linearGradient
   id="id2"
   gradientUnits="userSpaceOnUse"
   x1="-33.794201"
   y1="5327.6299"
   x2="36205.602"
   y2="4090.3">
   <stop
   offset="0"
   style="stop-opacity:1; stop-color:white"
   id="stop7" />
   <stop
   offset="0.980392"
   style="stop-opacity:-95.8784; stop-color:white"
   id="stop9" />
   <stop
   offset="1"
   style="stop-opacity:0; stop-color:white"
   id="stop11" />
  </linearGradient>
     <rect
   style="fill:url(#id2)"
   x="15"
   y="2671"
   width="36142"
   height="4077"
   id="rect14" />
    </mask>
    <mask
   id="id3">
  <linearGradient
   id="id4"
   gradientUnits="userSpaceOnUse"
   x1="15052.7"
   y1="16018.4"
   x2="36353.301"
   y2="15291.1">
   <stop
   offset="0"
   style="stop-opacity:1; stop-color:white"
   id="stop17" />
   <stop
   offset="0.988235"
   style="stop-opacity:-95.8784; stop-color:white"
   id="stop19" />
   <stop
   offset="1"
   style="stop-opacity:0; stop-color:white"
   id="stop21" />
  </linearGradient>
     <rect
   style="fill:url(#id4)"
   x="15244"
   y="9384"
   width="20918"
   height="12542"
   id="rect24" />
    </mask>
    <clipPath
   id="id5">
     <rect
   x="4123"
   y="215"
   width="771"
   height="535"
   id="rect27" />
    </clipPath>
     <clipPath
   id="id6">
      <rect
   x="4123"
   y="215"
   width="771"
   height="535"
   id="rect30" />
     </clipPath>
     <clipPath
   id="id7">
      <path
   d="m 28193,30240 h 7219 v 5816 h -7219 z"
   id="path33" />
     </clipPath>
 </defs>
 <g
   id="Camada_x0020_1"
   inkscape:label="Camada 1"
   inkscape:groupmode="layer">
  <metadata
   id="CorelCorpID_0Corel-Layer" />
  <g
   id="_1660824352032">
   
   
   
   
   
   
   
   
   
   
   
   
   
   
   
   
   
   
   
   
   
   
   
   
   
   
   
   
   
   
   
   
   
   
   
   
   
   
   
   
   
   
   
   
   
   
   
   
   
   
   
   
   
   
   
   
   
   
   
   
   
   
   
   
   
   
   
   
   
   
   
   
   
   
   
   
   
   
   
   
   
   
   
   
   
   
   
   
   
   
   
   
   
   
   
   
   
   
   
   
   
   
   
   
   
   
   
   
   
   
   
   
   
   
   
   
   
   
   
   
   
   
   
   
   
   
   
   
   
   
   
   
   
   
   
   
   
   
   
   
   
   
   
   
   
   
   
   
   
   
   
   
   
   
   
   
   
   
   
   
   
   
   
   
   
   
   
   
   
   
   
   
   
   
   
   
   
   
   
   
   
   
   
   
   
   
   
   
   
   
   
   
   
   
   
   
   
   
   
   
   
   
   
   
   
   
   
   
   
   
   
   
   
   
   
   
   
   
   
   
   
   
   
   
   
   
   
   
   
   
   
   
   
   
   
   
   
   
   
   
   
   
   
   
   
   
   
   
   
   
   
   
   
   
   
   
   
   
   
   
   
   
   
   
   
   
   
   
   
   
   
   
   
   
   
   
   
   
   
   
   
   
   
   
   
   
   
   
   
   
   
   
   
   
   
   
   
   
   
   
   
   
   
   
   
   
   
   
   
   
   
   
   
   
   
   
   
   
   
   
   
   
   
   
   
   
   
   
   
   
   
   
   
   
   
   
   
   
   
   
   
   
   
   
   
   
   
   
   
   
   
   
   
   
   
   
   
   
   
   
   
   
   
   
   
   
   
   
   
   
   
   
   
   
   
   
   
   
   
   
   
   
   
   
   
   
   
   
   
   
   
   
   
   
   
   
   
   
   
   
   
   
   
   
   
   
   
   
   
   
   
   
   
   
   
   
   
   
   
   
   
   
   
   
   
   
   
   
   
   
   
   
   
   
   
   
   
   
   
   
   
   
   
   
   
   
   
   
   
   
   
   
   
   
   
   
   
   
   
   
   
   
   
   
   
   
   
   
   
   
   
   
   
   
   
   
   
   
   
   
   
   
   
   
   
   
   
   
   
   
   
   
   
   
   
   
   
   
   
   
   
   
   
   
   
   
   
   
   
   
   
   
   
   
   
   
   
   
   
   
   
   
   
   
   
   
   
   
   
   
   
   
   
   
   
   
   
   
   
   
   
   
   
   
   
   
   
   
   
   
   
   
   
   
   
   
   
   
   
   
   
   
   
   
   
   
   
   
   
   
   
   
   
   
   
   
   
   
   
   
   
   
   
   
   
   
   
   
   
   
   
   
   
   
   
   
   
   
   
   
   
   
   
   
   
   
   
   
   
   
   
   
   
   
   
   
   
   
   
   
   
   
   
   
   
   
   
   
   
   
   
   
   
   
   
   
   
   
   
   
   
   
   
   
   
   
   
   
   
   
   
   
   
   
   
   
   
   
   
   
   
   
   
   
   
   
   
   
   
   
   
   
   
   
   
   
   
   
   
   
   
   
   
   
   
   
   
   
   
   
   
   
   
   
   
   
   
   
   
   
   
   
   
   
   
   
   
   
   
   
   
   
   
   
   
   
   
   
   
   
   
   
   
   
   
   
   
   
   
   
   
   
   
   
   
   
   
   
   
   
   
   
   
   
   
   
   
   
   
   
   
   
   
   
   
   
   
   
   
   
   
   
   
   
   
   
   
   
   
   
   
   
   
   
   
   
   
   
   
   
   
   
   
   
   
   
   
   
   
   
   
   
   
   
   
   
   
   
   
   
   
   
   
   
   
   
   
   
   
   
   
   
   
   
   
   
   
   
   
   
   
   
   
   
   
   
   
   
   
   
   
   
   
   
   
   
   
   
   
   
   
   
   
   
   
   
   
   
   
   
   
   
   
   
   
   
   
   
   
   
   
   
   
   
   
   
   
   
   
   
   
   
   
   
   
   
   
   
   
   
   
   
   
   
   
   
   
   
   
   
   
   
   
   
   
   
   
   
   
   
   
   
   
   
   
   
   
   
   
   
   
   
   
   
   
   
   
   
   
   
   
   
   
   
   
   
   
   
   
   
   
   
   
   
   
   
   
   
   
   
   
   
   
   
   
   
   
   
   
   
   
   
   
   
   
   
   
   
   
   
   
   
   
   
   
   
   
   
   
   
   
   
   
   
   
   
   
   
   
   
   
   
   
   
   
   
   
   
   
   
   
   
   
   
   
   
   
   
   
   
   
   
   
   
   
   
   
   
   
   
   
   
   
   
   
   
   
   
   
   
   
   
   
   
   
   
   
   
   
   
   
   
   
   
   
   
   
   
   
   
   
   
   
   
   
   
   
   
   
   
   
   
   
   
   
   
   
   
   
   
   
   
   
   
   
   
   
   
   
   
   
   
   
   
   
   
   
   
   
   
   
   
   
   
   
   
   
   
   
   
   
   
   
   
   
   
   
   
   
   
   
   
   
   
   
   
   
   
   
   
   
   
   
   
   
   
   
   
   
   
   
   
   
   
   
   
   
   
   
   
   
   
   
   
   
   
   
   
   
   
   
   
   
   
   
   
   
   
   
   
   
   
   
   
   
   
   
   
   
   
   
   
   
   
   
   
   
   
   
   
   
   
   
   
   
   
   
   
   
   
   
   
   
   
   
   
   
   
   
   
   
   
   
   
   
   
   
   
   
   
   
   
   
   
   
   
   
   
   
   
   
   
   
   
   
   
   
   
   
   
   
   
   
   
   
   
   
   
   
   
   
   
   
   
   
   
   
   
   
   
   
   
   
   
   
   
   
   
   
   
   
   
   
   
   
   
   
   
   
   
   
   
   
   
   
   
   
   
   
   
   
   
   
   
   
   
   
   
   
   
   
   
   
   
   
   
   
   
   
   
   
   
   
   
   
   
   
   
   
   
   
   
   
   
   
   
   
   
   
   
   
   
   
   
   
   
   
   
   
   
   
   
   
   
   
   
   
   
   
   
   
   
   
   
   
   
   
   
   
   
   
   
   
   
   
   
   
   
   
   
   
   
   
   
   
   
   
   
   
   
   
   
   
   
   
   
   
   
   
   
   
   
   
   
   
   
   
   
   
   
   
   
   
   
   
   
   
   
   
   
   
   
   
   
   
   
   
   
   
   
   
   
   
   
   
   
   
   
   
   
   
   
   
   
   
   
   
   
   
   
   
   
   
   
   
   
   
   
   
   
   
   
   
   
   
   
   
   
   
   
   
   
   
   
   
   
   
   
   
   
   
   
   
   
   
   
   
   
   
   
   
   
   
   
   
   
   
   
   
   
   
   
   
   
   
   
   
   
   
   
   
   
   
   
   
   
   
   
   
   
   
   
   
   
   
   
   
   
   
   
   
   
   
   
   
   
   
   
   
   
   
   
   
   
   
   
   
   
   
   
   
   
   
   
   
   
   
   
   
   
   
   
   
   
   
   
   
   
   
   
   
   
   
   
   
   
   
   
   
   
   
   
   
   
   
   
   
   
   
   
   
   
   
   
   
   
   
   
   
   
   
   
   
   
   
   
   
   
   
   
   
   
   
   
   
   
   
   
   
   
   
   
   
   
   
   
   
   
   
   
   
   
   
   
   
   
   
   
   
   
   
   
   
   
   
   
   
   
   
   
   
   
   
   
   
   
   
   
   
   
   
   
   
   
   
   
   
   
   
   
   
   
   
   
   
   
   
   
   
   
   
   
   
   
   
   
   
   
   
   
   
   
   
   
   
   
   
   
   
   
   
   
   
   
   
   
   
   
   
   
   
   
   
   
   
   
   
   
   
   
   
   
   
   
   
   
   
   
   
   
   
   
   
   
   
   
   
   
   
   
   
   
   
   
   
   
   
   
   
   
   
   
   
   
   
   
   
   
   
   
   
   
   
   
   
   
   
   
   
   
   
   
   
   
   
   
   
   
   
   
   
   
   
   
   
   
   
   
   
   
   
   
   
   
   
   
   
   
   
   
   
   
   
   
   
   
   
   
   
   
   
   
   
   
   
   
   
   
   
   
   
   
   
   
   
   
   
   
   
   
   
   
   
   
   
   
   
   
   
   
   
   
   
   
   
   
   
   
   
   
   
   
   
   
   
   
   
   
   
   
   
   
   
   
   
   
   
   
   
   
   
   
   
   
   
   
   
   
   
   
   
   
   
   
   
   
   
   
   
   
   
   
   
   
   
   
   
   
   
   
   
   
   
   
   
   
   
   
   
   
   
   
   
   
   
   
   
   
   
   
   
   
   
   
   
   
   
   
   
   
   
   
   
   
   
   
   
   
   
   
   
   
   
   
   
   
   
   
   
   
   
   
   
   
   
   
   
   
   
   
   
   
   
   
   
   
   
   
   
   
   
   
   
   
   
   
   
   
   
   
   
   
   
   
   
   
   
   
   
   
   
   
   
   
   
   
   
   
   
   
   
   
   
   
   
   
   
   
   
   
   
   
   
   
   
   
   
   
   
   
   
   
   
   
   
   
   
   
   
   
   
   
   
   
   
   
   
   
   
   
   
   
   
   
   
   
   
   
   
   
   
   
   
   
   
   
   
   
   
   
   
   
   
   
   
   
   
   
   
   
   
   
   
   
   
   
   
   
   
   
   
   
   
   
   
   
   
   
   
   
   
   
   
   
   
   
   
   
   
   
   
   
   
   
   
   
   
   
   
   
   
   
   
   
   
   
   
   
   
   
   
   
   
   
   
   
   
   
   
   
   
   
   
   
   
   
   
   
   
   
   
   
   
   
   
   
   
   
   
   
   
   
   
   
   
   
   
   
   
   
   
   
   
   
   
   
   
   
   
   
   
   
   
   
   
   
   
   
   
   
   
   
   
   
   
   
   
   
   
   
   
   
   
   
   
   
   
   
   
   
   
   
   
   
   
   
   
   
   
   
   
   
   
   
   
   
   
   
   
   
   
   
   
   
   
   
   
   
   
   
   
   
   
   
   
   
   
   
   
   
   
   
   
   
   
   
   
   
   
   
   
   
   
   
   
   
   
   
   
   
   
   
   
   
   
   
   
   
   
   
   
   
   
   
   
   
   
   
   
   
   
   
   
   
   
   
   
   
   
   
   
   
   
   
   
   
   
   
   
   
   
   
   
   
   
   
   
   
   
   
   
   
   
   
   
   
   
   
   
   
   
   
   
   
   
   
   
   
   
   
   
   
   
   
   
   
   
   
   
   
   
   
   
   
   
   
   
   
   
   
   
   
   
   
   
   
   
   
   
   
   
   
   
   
   
   
   
   
   
   
   
   
   
   
   
   
   
   
   
   
   
   
   
   
   
   
   
   
   
   
   
   
   
   
   
   
   
   
   
   
   
   
   
   
   
   
   
   
   
   
   
   
   
   
   
   
   
   
   
   
   
   
   
   
   
   
   
   
   
   
   
   
   
   
   
   
   
   
   
   
   
   
   
   
   
   
   
   
   
   
   
   
   
   
   
   
   
   
   
   
   
   
   
   
   
   
   
   
   
   
   
   
   
   
   
   
   
   
   
   
   
   
   
   
   
   
   
   
   
   
   
   
   
   
   
   
   
   
   
   
   
   
   
   
   
   
   
   
   
   
   
   
   
   
   
   
   
   
   
   
   
   
   
   
   
   
   
   
   
   
   
   
   
   
   
   
   
   
   
   
   
   
   
   
   
   
   
   
   
   
   
   
   
   
   
   
   
   
   
   
   
   
   
   
   
   
   
   
   
   
   
   
   
   
   
   
   
   
   
   
   
   
   
   
   
   
   
   
   
   
   
   
   
   
   
   
   
   
   
   
   
   
   
   
   
   
   
   
   
   
   
   
   
   
   
   
   
   
   
   
   
   
   
   
   
   
   
   
   
   
   
   
   
   
   
   
   
   
   
   
   
   
   
   
   
   
   
   
   
   
   
   
   
   
   
   
   
   
   
   
   
   
   
   
   
   
   
   
   
   
   
   
   
   
   
   
   
   
   
   
   
   
   
   
   
   
   
   
   
   
   
   
   
   
   
   
   
   
   
   
   
   
   
   
   
   
   
   
   <g
   id="g5402"
   transform="translate(-28261.035,-36464.145)">
    <path
   class="fil35"
   d="m 28430,36568 h 6808 c 47,0 86,39 86,86 v 2513 h -6976 v -2516 c 0,-46 37,-83 82,-83 z"
   id="path5346" />
    <g
   id="g5350">
     <path
   class="fil3 str24"
   d="m 30254,37298 c -113,-23 -230,-3 -344,-5 v 630 c 118,0 234,0 350,0 28,0 70,60 98,60 39,0 62,-60 101,-60 103,0 207,0 312,0 v -635 c -155,-11 -307,-18 -428,96 v 494"
   id="path5348" />
    </g>
    <path
   class="fil5"
   d="m 30992,37498 v -233 h 87 c 16,0 28,1 36,2 11,2 21,6 29,11 7,5 14,13 18,23 5,9 7,20 7,31 0,20 -6,37 -19,50 -12,14 -35,21 -68,21 h -59 v 95 z m 31,-122 h 60 c 20,0 34,-4 42,-12 8,-7 13,-17 13,-31 0,-10 -3,-18 -8,-25 -5,-7 -11,-11 -19,-14 -5,-1 -15,-2 -29,-2 h -59 z"
   id="path5352" />
    <path
   id="path5354"
   class="fil5"
   d="m 31210,37384 c 0,-38 11,-68 31,-90 21,-22 48,-33 81,-33 21,0 41,5 58,16 17,10 30,24 39,42 9,19 14,40 14,63 0,23 -5,44 -14,63 -10,19 -23,33 -41,42 -17,10 -36,15 -56,15 -22,0 -42,-6 -59,-16 -17,-11 -30,-25 -39,-44 -9,-18 -14,-37 -14,-58 z m 32,1 c 0,28 8,50 23,66 15,16 34,24 56,24 24,0 43,-8 58,-24 15,-16 22,-39 22,-69 0,-19 -3,-36 -10,-50 -6,-14 -15,-25 -28,-33 -12,-7 -26,-11 -41,-11 -22,0 -41,7 -56,22 -16,15 -24,40 -24,75 z" />
    <path
   id="path5356"
   class="fil5"
   d="m 31485,37498 v -233 h 103 c 20,0 36,2 47,6 11,5 19,12 26,22 6,11 9,23 9,35 0,17 -5,31 -16,42 -10,12 -27,19 -49,22 8,4 14,8 18,11 9,9 18,19 26,31 l 40,64 h -38 l -31,-49 c -9,-14 -16,-24 -22,-32 -6,-7 -11,-12 -16,-15 -4,-3 -9,-5 -14,-7 -3,0 -9,-1 -17,-1 h -36 v 104 z m 30,-130 h 66 c 15,0 25,-2 33,-5 8,-3 14,-7 18,-14 4,-6 7,-13 7,-20 0,-11 -4,-21 -12,-28 -8,-7 -21,-10 -38,-10 h -74 z" />
    <polygon
   id="polygon5358"
   class="fil5"
   points="31891,37265 31891,37292 31814,37292 31814,37498 31783,37498 31783,37292 31707,37292 31707,37265 " />
    <path
   id="path5360"
   class="fil5"
   d="m 31884,37498 90,-233 h 33 l 95,233 h -35 l -27,-71 h -98 l -25,71 z m 67,-96 h 80 l -25,-64 c -7,-20 -13,-36 -16,-49 -4,15 -8,30 -13,45 z" />
    <polygon
   id="polygon5362"
   class="fil5"
   points="32137,37498 32137,37265 32168,37265 32168,37470 32282,37470 32282,37498 " />
    <path
   id="path5364"
   class="fil5"
   d="m 32408,37498 v -233 h 80 c 18,0 32,1 42,3 13,3 25,9 34,17 12,10 21,24 27,40 7,16 10,34 10,55 0,18 -2,33 -7,47 -4,14 -9,25 -15,34 -7,9 -14,16 -22,21 -7,5 -17,9 -27,12 -11,2 -24,4 -38,4 z m 31,-28 h 50 c 15,0 27,-1 36,-4 8,-3 15,-7 21,-12 7,-7 13,-17 17,-29 4,-13 6,-28 6,-45 0,-25 -4,-43 -12,-57 -8,-13 -18,-21 -29,-26 -9,-3 -22,-5 -40,-5 h -49 z" />
    <polygon
   id="polygon5366"
   class="fil5"
   points="32655,37498 32655,37265 32823,37265 32823,37292 32686,37292 32686,37364 32814,37364 32814,37391 32686,37391 32686,37470 32828,37470 32828,37498 " />
    <path
   class="fil5"
   d="m 31004,37967 v -319 h 103 c 39,0 65,1 77,5 18,4 33,15 46,31 12,16 18,37 18,62 0,20 -4,36 -11,49 -7,14 -16,24 -27,32 -11,8 -22,13 -33,15 -15,3 -38,5 -67,5 h -42 v 120 z m 64,-265 v 91 h 36 c 25,0 42,-2 50,-5 9,-4 15,-9 20,-16 5,-7 8,-15 8,-25 0,-12 -4,-21 -11,-29 -6,-7 -15,-12 -25,-14 -8,-1 -23,-2 -47,-2 z"
   id="path5368" />
    <polygon
   id="polygon5370"
   class="fil5"
   points="31313,37967 31313,37648 31550,37648 31550,37702 31378,37702 31378,37773 31538,37773 31538,37827 31378,37827 31378,37913 31556,37913 31556,37967 " />
    <path
   id="path5372"
   class="fil5"
   d="m 31623,37967 v -319 h 136 c 34,0 59,3 74,8 16,6 28,16 37,31 10,15 14,31 14,50 0,24 -7,44 -21,60 -14,15 -35,25 -63,29 14,8 26,17 35,27 9,10 21,27 36,52 l 39,62 h -77 l -46,-70 c -17,-24 -28,-40 -34,-47 -6,-6 -13,-10 -20,-13 -7,-2 -17,-3 -32,-3 h -13 v 133 z m 65,-184 h 47 c 31,0 50,-1 58,-4 8,-3 14,-7 18,-14 5,-6 7,-14 7,-24 0,-10 -3,-19 -9,-26 -6,-6 -14,-10 -24,-12 -5,-1 -21,-1 -47,-1 h -50 z" />
    <polygon
   id="polygon5374"
   class="fil5"
   points="31955,37967 31955,37648 32020,37648 32020,37967 " />
    <path
   id="path5376"
   class="fil5"
   d="m 32080,37809 c 0,-32 5,-60 15,-82 7,-16 17,-31 29,-43 13,-13 27,-23 42,-29 20,-9 43,-13 69,-13 47,0 84,15 112,44 29,29 43,70 43,122 0,51 -14,92 -42,121 -28,29 -66,44 -113,44 -47,0 -85,-15 -113,-44 -28,-29 -42,-69 -42,-120 z m 67,-2 c 0,36 8,64 25,82 16,19 38,28 63,28 26,0 47,-9 64,-27 16,-19 24,-47 24,-84 0,-36 -8,-64 -24,-82 -16,-18 -37,-27 -64,-27 -26,0 -48,9 -64,28 -16,18 -24,45 -24,82 z m 49,-188 31,-65 h 68 l -60,65 z" />
    <path
   id="path5378"
   class="fil5"
   d="m 32452,37648 h 118 c 27,0 47,2 61,6 18,5 34,15 48,29 13,14 23,32 30,52 7,20 10,46 10,75 0,27 -3,49 -9,68 -8,24 -20,42 -34,57 -12,11 -27,19 -46,25 -14,5 -33,7 -57,7 h -121 z m 65,54 v 211 h 48 c 18,0 31,-1 39,-3 10,-3 19,-7 26,-13 7,-7 12,-17 16,-31 5,-14 7,-34 7,-59 0,-24 -2,-43 -7,-56 -4,-13 -10,-24 -18,-31 -7,-8 -17,-13 -29,-15 -9,-2 -27,-3 -53,-3 z" />
    <polygon
   id="polygon5380"
   class="fil5"
   points="32784,37967 32784,37648 32849,37648 32849,37967 " />
    <path
   id="path5382"
   class="fil5"
   d="m 33127,37849 62,19 c -9,36 -25,62 -47,79 -23,17 -51,25 -85,25 -43,0 -77,-14 -105,-43 -27,-29 -41,-69 -41,-119 0,-53 14,-94 41,-124 28,-29 64,-44 109,-44 39,0 70,12 95,35 14,13 25,33 33,59 l -64,15 c -4,-17 -12,-30 -24,-39 -12,-10 -26,-15 -44,-15 -23,0 -42,9 -57,26 -15,17 -22,44 -22,82 0,41 7,69 21,86 15,17 34,26 57,26 17,0 32,-5 44,-16 13,-11 22,-28 27,-52 z" />
    <path
   id="path5384"
   class="fil5"
   d="m 33244,37809 c 0,-32 5,-60 14,-82 8,-16 18,-31 30,-43 13,-13 26,-23 41,-29 20,-9 43,-13 69,-13 47,0 85,15 113,44 28,29 42,70 42,122 0,51 -14,92 -42,121 -28,29 -65,44 -112,44 -47,0 -85,-15 -113,-44 -28,-29 -42,-69 -42,-120 z m 66,-2 c 0,36 9,64 25,82 17,19 38,28 64,28 26,0 47,-9 63,-27 17,-19 25,-47 25,-84 0,-36 -8,-64 -24,-82 -16,-18 -37,-27 -64,-27 -27,0 -48,9 -64,28 -17,18 -25,45 -25,82 z" />
    <path
   id="path5386"
   class="fil5"
   d="m 33599,37864 63,-7 c 4,21 11,37 23,47 11,9 27,14 46,14 21,0 37,-4 47,-13 11,-9 16,-19 16,-31 0,-7 -2,-13 -7,-19 -4,-5 -12,-10 -23,-14 -7,-2 -24,-7 -51,-14 -34,-8 -59,-19 -72,-31 -20,-18 -30,-39 -30,-65 0,-16 5,-31 14,-45 9,-15 22,-25 40,-33 17,-7 38,-11 62,-11 40,0 70,9 90,27 21,17 31,41 32,71 l -64,2 c -3,-17 -9,-28 -18,-36 -9,-7 -22,-10 -40,-10 -19,0 -34,3 -44,11 -7,5 -10,12 -10,20 0,8 3,14 9,19 8,7 28,14 59,22 32,7 55,15 70,23 15,8 26,19 35,32 8,14 13,31 13,51 0,18 -5,36 -16,52 -10,15 -24,27 -43,35 -18,8 -41,12 -69,12 -40,0 -71,-10 -93,-28 -22,-19 -35,-46 -39,-81 z" />
    <rect
   class="fil25"
   x="28348"
   y="38504"
   width="995"
   height="663"
   id="rect5388" />
    <rect
   class="fil36"
   x="29342"
   y="38504"
   width="995"
   height="663"
   id="rect5390" />
    <rect
   class="fil37"
   x="30337"
   y="38504"
   width="995"
   height="663"
   id="rect5392" />
    <rect
   class="fil38"
   x="31331"
   y="38504"
   width="995"
   height="663"
   id="rect5394" />
    <rect
   class="fil39"
   x="32326"
   y="38504"
   width="995"
   height="663"
   id="rect5396" />
    <rect
   class="fil40"
   x="33320"
   y="38504"
   width="995"
   height="663"
   id="rect5398" />
    <rect
   class="fil41"
   x="34315"
   y="38504"
   width="995"
   height="663"
   id="rect5400" />
   </g>
   
   
   
   
   
   
   
   
   
   
   
   
   
   
   
   
   
   
   
   
   
   
   
   
   
   
   
   
   
   
   
   
   
   
   
   
   
   
   
   
   
   
   
   
   
   
   
   
   
   
   
   
   
   
   
   
   
   
   
   
   
   
   
   
   
   
   
   
   
   
  </g>
 </g>
</svg>
