<?xml version="1.0" encoding="UTF-8" standalone="no"?>
<!-- Creator: CorelDRAW X7 -->

<svg
   xml:space="preserve"
   width="18.625mm"
   height="23mm"
   version="1.1"
   style="clip-rule:evenodd;fill-rule:evenodd;image-rendering:optimizeQuality;shape-rendering:geometricPrecision;text-rendering:geometricPrecision"
   viewBox="0 0 1862.733 2300.2886"
   id="svg5546"
   sodipodi:docname="portal-fiocruz.svg"
   inkscape:version="1.1 (1:1.1+202105261517+ce6663b3b7)"
   xmlns:inkscape="http://www.inkscape.org/namespaces/inkscape"
   xmlns:sodipodi="http://sodipodi.sourceforge.net/DTD/sodipodi-0.dtd"
   xmlns="http://www.w3.org/2000/svg"
   xmlns:svg="http://www.w3.org/2000/svg"><sodipodi:namedview
   id="namedview5548"
   pagecolor="#ffffff"
   bordercolor="#666666"
   borderopacity="1.0"
   inkscape:pageshadow="2"
   inkscape:pageopacity="0.0"
   inkscape:pagecheckerboard="0"
   inkscape:document-units="mm"
   showgrid="false"
   width="360.625mm"
   inkscape:zoom="1.2003863"
   inkscape:cx="-79.557724"
   inkscape:cy="183.69087"
   inkscape:window-width="1680"
   inkscape:window-height="986"
   inkscape:window-x="0"
   inkscape:window-y="27"
   inkscape:window-maximized="1"
   inkscape:current-layer="_1660824352032" />
 <defs
   id="defs36">
  <style
   type="text/css"
   id="style2">
   <![CDATA[
    .str2 {stroke:#E88734;stroke-width:141.127}
    .str4 {stroke:#A6CE53;stroke-width:123.485}
    .str26 {stroke:#373435;stroke-width:21.1726}
    .str18 {stroke:#96989A;stroke-width:26.4533}
    .str3 {stroke:#FEFEFE;stroke-width:105.843}
    .str7 {stroke:black;stroke-width:11.1514}
    .str10 {stroke:black;stroke-width:8.9311}
    .str21 {stroke:#E6E7E8;stroke-width:35.2744}
    .str5 {stroke:#201E1E;stroke-width:35.2744}
    .str22 {stroke:#D2D3D5;stroke-width:20.0025}
    .str27 {stroke:#A9ABAE;stroke-width:20.0025}
    .str25 {stroke:#373435;stroke-width:20.0025}
    .str1 {stroke:#E88734;stroke-width:20.0025}
    .str0 {stroke:#BDBFC1;stroke-width:17.6322}
    .str19 {stroke:#4B4B4D;stroke-width:17.6322}
    .str23 {stroke:#FEFEFE;stroke-width:7.62094}
    .str17 {stroke:#96989A;stroke-width:7.62094}
    .str20 {stroke:#4B4B4D;stroke-width:7.62094}
    .str8 {stroke:black;stroke-width:11.1514;stroke-linejoin:round}
    .str9 {stroke:black;stroke-width:0.0400049;stroke-linecap:round;stroke-linejoin:round}
    .str6 {stroke:#282828;stroke-width:44.2055}
    .str11 {stroke:#373435;stroke-width:18.7423}
    .str13 {stroke:#373435;stroke-width:3.50043}
    .str14 {stroke:#373435;stroke-width:3.51043}
    .str12 {stroke:#373435;stroke-width:1.01012}
    .str15 {stroke:#373435;stroke-width:34.6143}
    .str16 {stroke:#373435;stroke-width:34.6143}
    .str24 {stroke:#FEFEFE;stroke-width:53.0566}
    .fil3 {fill:none}
    .fil23 {fill:none;fill-rule:nonzero}
    .fil20 {fill:#FEFEFE}
    .fil6 {fill:#FEFEFE}
    .fil0 {fill:#E6E7E8}
    .fil30 {fill:#848688}
    .fil34 {fill:#606062}
    .fil31 {fill:#4B4B4D}
    .fil27 {fill:#373435}
    .fil32 {fill:#373435}
    .fil22 {fill:#ACB3AC}
    .fil21 {fill:#282828}
    .fil26 {fill:#201E1E}
    .fil25 {fill:#201E1E}
    .fil11 {fill:#004B92}
    .fil41 {fill:#12AED7}
    .fil38 {fill:#2B5492}
    .fil39 {fill:#2F691D}
    .fil7 {fill:#367372}
    .fil18 {fill:#709D21}
    .fil37 {fill:#8FC73E}
    .fil40 {fill:#A34963}
    .fil43 {fill:#D91F2C}
    .fil19 {fill:#E3F1E0}
    .fil29 {fill:#E88734}
    .fil16 {fill:#EF9E57}
    .fil15 {fill:#EF9E57}
    .fil35 {fill:#F19317}
    .fil9 {fill:#F1F1F1}
    .fil36 {fill:#F3BF07}
    .fil13 {fill:#FDFDFD}
    .fil12 {fill:#FEFEFE}
    .fil5 {fill:#FEFEFE;fill-rule:nonzero}
    .fil17 {fill:#96989A;fill-rule:nonzero}
    .fil2 {fill:#4B4B4D;fill-rule:nonzero}
    .fil14 {fill:#373435;fill-rule:nonzero}
    .fil4 {fill:#373435;fill-rule:nonzero}
    .fil33 {fill:#201E1E;fill-rule:nonzero}
    .fil42 {fill:#D91F2C;fill-rule:nonzero}
    .fil10 {fill:#DADCE0;fill-rule:nonzero}
    .fil1 {fill:#E88734;fill-rule:nonzero}
    .fil24 {fill:black;fill-rule:nonzero}
    .fil28 {fill:white;fill-rule:nonzero}
    .fil8 {fill:#D2D3D5;fill-opacity:0.458824}
   ]]>
  </style>
    <clipPath
   id="id0">
     <path
   d="M 24,2683 H 36167 V 23577 H 24 Z"
   id="path4" />
    </clipPath>
    <mask
   id="id1">
  <linearGradient
   id="id2"
   gradientUnits="userSpaceOnUse"
   x1="-33.794201"
   y1="5327.6299"
   x2="36205.602"
   y2="4090.3">
   <stop
   offset="0"
   style="stop-opacity:1; stop-color:white"
   id="stop7" />
   <stop
   offset="0.980392"
   style="stop-opacity:-95.8784; stop-color:white"
   id="stop9" />
   <stop
   offset="1"
   style="stop-opacity:0; stop-color:white"
   id="stop11" />
  </linearGradient>
     <rect
   style="fill:url(#id2)"
   x="15"
   y="2671"
   width="36142"
   height="4077"
   id="rect14" />
    </mask>
    <mask
   id="id3">
  <linearGradient
   id="id4"
   gradientUnits="userSpaceOnUse"
   x1="15052.7"
   y1="16018.4"
   x2="36353.301"
   y2="15291.1">
   <stop
   offset="0"
   style="stop-opacity:1; stop-color:white"
   id="stop17" />
   <stop
   offset="0.988235"
   style="stop-opacity:-95.8784; stop-color:white"
   id="stop19" />
   <stop
   offset="1"
   style="stop-opacity:0; stop-color:white"
   id="stop21" />
  </linearGradient>
     <rect
   style="fill:url(#id4)"
   x="15244"
   y="9384"
   width="20918"
   height="12542"
   id="rect24" />
    </mask>
    <clipPath
   id="id5">
     <rect
   x="4123"
   y="215"
   width="771"
   height="535"
   id="rect27" />
    </clipPath>
     <clipPath
   id="id6">
      <rect
   x="4123"
   y="215"
   width="771"
   height="535"
   id="rect30" />
     </clipPath>
     <clipPath
   id="id7">
      <path
   d="m 28193,30240 h 7219 v 5816 h -7219 z"
   id="path33" />
     </clipPath>
 </defs>
 <g
   id="Camada_x0020_1"
   inkscape:label="Camada 1"
   inkscape:groupmode="layer">
  <metadata
   id="CorelCorpID_0Corel-Layer" />
  <g
   id="_1660824352032">
   
   
   
   
   
   
   
   
   
   
   
   
   
   
   
   
   
   
   
   
   
   
   
   
   
   
   
   
   
   
   
   
   
   
   
   
   
   
   
   
   
   
   
   
   
   
   
   
   
   
   
   
   
   
   
   
   
   
   
   
   
   
   
   
   
   
   
   
   
   
   
   
   
   
   
   
   
   
   
   
   
   
   
   
   
   
   
   
   
   
   
   
   
   
   
   
   
   
   
   
   
   
   
   
   
   
   
   
   
   
   
   
   
   
   
   
   
   
   
   
   
   
   
   
   
   
   
   
   
   
   
   
   
   
   
   
   
   
   
   
   
   
   
   
   
   
   
   
   
   
   
   
   
   
   
   
   
   
   
   
   
   
   
   
   
   
   
   
   
   
   
   
   
   
   
   
   
   
   
   
   
   
   
   
   
   
   
   
   
   
   
   
   
   
   
   
   
   
   
   
   
   
   
   
   
   
   
   
   
   
   
   
   
   
   
   
   
   
   
   
   
   
   
   
   
   
   
   
   
   
   
   
   
   
   
   
   
   
   
   
   
   
   
   
   
   
   
   
   
   
   
   
   
   
   
   
   
   
   
   
   
   
   
   
   
   
   
   
   
   
   
   
   
   
   
   
   
   
   
   
   
   
   
   
   
   
   
   
   
   
   
   
   
   
   
   
   
   
   
   
   
   
   
   
   
   
   
   
   
   
   
   
   
   
   
   
   
   
   
   
   
   
   
   
   
   
   
   
   
   
   
   
   
   
   
   
   
   
   
   
   
   
   
   
   
   
   
   
   
   
   
   
   
   
   
   
   
   
   
   
   
   
   
   
   
   
   
   
   
   
   
   
   
   
   
   
   
   
   
   
   
   
   
   
   
   
   
   
   
   
   
   
   
   
   
   
   
   
   
   
   
   
   
   
   
   
   
   
   
   
   
   
   
   
   
   
   
   
   
   
   
   
   
   
   
   
   
   
   
   
   
   
   
   
   
   
   
   
   
   
   
   
   
   
   
   
   
   
   
   
   
   
   
   
   
   
   
   
   
   
   
   
   
   
   
   
   
   
   
   
   
   
   
   
   
   
   
   
   
   
   
   
   
   
   
   
   
   
   
   
   
   
   
   
   
   
   
   
   
   
   
   
   
   
   
   
   
   
   
   
   
   
   
   
   
   
   
   
   
   
   
   
   
   
   
   
   
   
   
   
   
   
   
   
   
   
   
   
   
   
   
   
   
   
   
   
   
   
   
   
   
   
   
   
   
   
   
   
   
   
   
   
   
   
   
   
   
   
   
   
   
   
   
   
   
   
   
   
   
   
   
   
   
   
   
   
   
   
   
   
   
   
   
   
   
   
   
   
   
   
   
   
   
   
   
   
   
   
   
   
   
   
   
   
   
   
   
   
   
   
   
   
   
   
   
   
   
   
   
   
   
   
   
   
   
   
   
   
   
   
   
   
   
   
   
   
   
   
   
   
   
   
   
   
   
   
   
   
   
   
   
   
   
   
   
   
   
   
   
   
   
   
   
   
   
   
   
   
   
   
   
   
   
   
   
   
   
   
   
   
   
   
   
   
   
   
   
   
   
   
   
   
   
   
   
   
   
   
   
   
   
   
   
   
   
   
   
   
   
   
   
   
   
   
   
   
   
   
   
   
   
   
   
   
   
   
   
   
   
   
   
   
   
   
   
   
   
   
   
   
   
   
   
   
   
   
   
   
   
   
   
   
   
   
   
   
   
   
   
   
   
   
   
   
   
   
   
   
   
   
   
   
   
   
   
   
   
   
   
   
   
   
   
   
   
   
   
   
   
   
   
   
   
   
   
   
   
   
   
   
   
   
   
   
   
   
   
   
   
   
   
   
   
   
   
   
   
   
   
   
   
   
   
   
   
   
   
   
   
   
   
   
   
   
   
   
   
   
   
   
   
   
   
   
   
   
   
   
   
   
   
   
   
   
   
   
   
   
   
   
   
   
   
   
   
   
   
   
   
   
   
   
   
   
   
   
   
   
   
   
   
   
   
   
   
   
   
   
   
   
   
   
   
   
   
   
   
   
   
   
   
   
   
   
   
   
   
   
   
   
   
   
   
   
   
   
   
   
   
   
   
   
   
   
   
   
   
   
   
   
   
   
   
   
   
   
   
   
   
   
   
   
   
   
   
   
   
   
   
   
   
   
   
   
   
   
   
   
   
   
   
   
   
   
   
   
   
   
   
   
   
   
   
   
   
   
   
   
   
   
   
   
   
   
   
   
   
   
   
   
   
   
   
   
   
   
   
   
   
   
   
   
   
   
   
   
   
   
   
   
   
   
   
   
   
   
   
   
   
   
   
   
   
   
   
   
   
   
   
   
   
   
   
   
   
   
   
   
   
   
   
   
   
   
   
   
   
   
   
   
   
   
   
   
   
   
   
   
   
   
   
   
   
   
   
   
   
   
   
   
   
   
   
   
   
   
   
   
   
   
   
   
   
   
   
   
   
   
   
   
   
   
   
   
   
   
   
   
   
   
   
   
   
   
   
   
   
   
   
   
   
   
   
   
   
   
   
   
   
   
   
   
   
   
   
   
   
   
   
   
   
   
   
   
   
   
   
   
   
   
   
   
   
   
   
   
   
   
   
   
   
   
   
   
   
   
   
   
   
   
   
   
   
   
   
   
   
   
   
   
   
   
   
   
   
   
   
   
   
   
   
   
   
   
   
   
   
   
   
   
   
   
   
   
   
   
   
   
   
   
   
   
   
   
   
   
   
   
   
   
   
   
   
   
   
   
   
   
   
   
   
   
   
   
   
   
   
   
   
   
   
   
   
   
   
   
   
   
   
   
   
   
   
   
   
   
   
   
   
   
   
   
   
   
   
   
   
   
   
   
   
   
   
   
   
   
   
   
   
   
   
   
   
   
   
   
   
   
   
   
   
   
   
   
   
   
   
   
   
   
   
   
   
   
   
   
   
   
   
   
   
   
   
   
   
   
   
   
   
   
   
   
   
   
   
   
   
   
   
   
   
   
   
   
   
   
   
   
   
   
   
   
   
   
   
   
   
   
   
   
   
   
   
   
   
   
   
   
   
   
   
   
   
   
   
   
   
   
   
   
   
   
   
   
   
   
   
   
   
   
   
   
   
   
   
   
   
   
   
   
   
   
   
   
   
   
   
   
   
   
   
   
   
   
   
   
   
   
   
   
   
   
   
   
   
   
   
   
   
   
   
   
   
   
   
   
   
   
   
   
   
   
   
   
   
   
   
   
   
   
   
   
   
   
   
   
   
   
   
   
   
   
   
   
   
   
   
   
   
   
   
   
   
   
   
   
   
   
   
   
   
   
   
   
   
   
   
   
   
   
   
   
   
   
   
   
   
   
   
   
   
   
   
   
   
   
   
   
   
   
   
   
   
   
   
   
   
   
   
   
   
   
   
   
   
   
   
   
   
   
   
   
   
   
   
   
   
   
   
   
   
   
   
   
   
   
   
   
   
   
   
   
   
   
   
   
   
   
   
   
   
   
   
   
   
   
   
   
   
   
   
   
   
   
   
   
   
   
   
   
   
   
   
   
   
   
   
   
   
   
   
   
   
   
   
   
   
   
   
   
   
   
   
   
   
   
   
   
   
   
   
   
   
   
   
   
   
   
   
   
   
   
   
   
   
   
   
   
   
   
   
   
   
   
   
   
   
   
   
   
   
   
   
   
   
   
   
   
   
   
   
   
   
   
   
   
   
   
   
   
   
   
   
   
   
   
   
   
   
   
   
   
   
   
   
   
   
   
   
   
   
   
   
   
   
   
   
   
   
   
   
   
   
   
   
   
   
   
   
   
   
   
   
   
   
   
   
   
   
   
   
   
   
   
   
   
   
   
   
   
   
   
   
   
   
   
   
   
   
   
   
   
   
   
   
   
   
   
   
   
   
   
   
   
   
   
   
   
   
   
   
   
   
   
   
   
   
   
   
   
   
   
   
   
   
   
   
   
   
   
   
   
   
   
   
   
   
   
   
   
   
   
   
   
   
   
   
   
   
   
   
   
   
   
   
   
   
   
   
   
   
   
   
   
   
   
   
   
   
   
   
   
   
   
   
   
   
   
   
   
   
   
   
   
   
   
   
   
   
   
   
   
   
   
   
   
   
   
   
   
   
   
   
   
   
   
   
   
   
   
   
   
   
   
   
   
   
   
   
   
   
   
   
   
   
   
   
   
   
   
   
   
   
   
   
   
   
   
   
   
   
   
   
   
   
   
   
   
   
   
   
   
   
   
   
   
   
   
   
   
   
   
   
   
   
   
   
   
   
   
   
   
   
   
   
   
   
   
   
   
   
   
   
   
   
   
   
   
   
   
   
   
   
   
   
   
   
   
   
   
   
   
   
   
   
   
   
   
   
   
   
   
   
   
   
   
   
   
   
   
   
   
   
   
   
   
   
   
   
   
   
   
   
   
   
   
   
   
   
   
   
   
   
   
   
   
   
   
   
   
   
   
   
   
   
   
   
   
   
   
   
   
   
   
   
   
   
   
   
   
   
   
   
   
   
   
   
   
   
   
   
   
   
   
   
   
   
   
   
   
   
   
   
   
   
   
   
   
   
   
   
   
   
   
   
   
   
   
   
   
   
   
   
   
   
   
   
   
   
   
   
   
   
   
   
   
   
   
   
   
   
   
   
   
   
   
   
   
   
   
   
   
   
   
   
   
   
   
   
   
   
   
   
   
   
   
   
   
   
   
   
   
   
   
   
   
   
   
   
   
   
   
   
   
   
   
   
   
   
   
   
   
   
   
   
   
   
   
   
   
   
   
   
   
   
   
   
   
   
   
   
   
   
   
   
   
   
   
   
   
   
   
   
   
   
   
   
   
   
   
   
   
   
   
   
   
   
   
   
   
   
   
   
   
   
   
   
   
   
   
   
   
   
   
   
   
   
   
   
   
   
   
   
   
   
   
   
   
   
   
   
   
   
   
   
   
   
   
   
   
   
   
   
   
   
   
   
   
   
   
   
   
   
   
   
   
   
   
   
   
   
   
   
   
   
   
   
   
   
   
   
   
   
   
   
   
   
   
   
   
   
   
   
   
   
   
   
   
   
   
   
   
   
   
   
   
   
   
   
   
   
   
   
   
   
   
   
   
   
   
   
   
   
   
   
   
   
   
   
   
   
   
   
   
   
   
   
   
   
   
   
   
   
   
   
   
   
   
   
   
   
   
   
   
   
   
   
   
   
   
   
   
   
   
   
   
   
   
   
   
   
   
   
   
   
   
   
   
   
   
   
   
   
   
   
   
   
   
   
   
   
   
   
   
   
   
   
   
   
   
   
   
   
   
   
   
   
   
   
   
   
   
   
   
   
   
   
   
   
   
   
   
   
   
   
   
   
   
   
   
   
   
   
   
   
   
   
   
   
   
   
   
   
   
   
   
   
   
   
   
   
   
   
   
   
   
   
   
   
   
   
   
   
   
   
   
   
   
   
   
   
   
   
   
   
   
   
   <g
   id="g4582"
   transform="translate(-22214.001,-61054.078)">
    <line
   class="fil3 str15"
   x1="22494"
   y1="61324"
   x2="23799"
   y2="61324"
   id="line4580" />
   </g>
   <g
   id="g4586"
   transform="translate(-22214.001,-61054.078)">
    <line
   class="fil3 str16"
   x1="22503"
   y1="63085"
   x2="23808"
   y2="63085"
   id="line4584" />
   </g>
   <path
   class="fil28"
   d="m 470.00231,1608.9261 13.99999,16 c -22.99999,-7 -22.99999,-28 -22.99999,-48 0,-12 4,-31 11.99999,-45 l -2.99999,10 V 1425.926 l 9.99999,16 c -13.99999,-8 -20.99999,-21 -20.99999,-36 0,-15 7,-29 20.99999,-37 l -9.99999,17 v -114.0001 l 9.99999,16 c -13.99999,-8 -20.99999,-21 -20.99999,-36 0,-15 7,-29 20.99999,-37 l -9.99999,17 v -146.0001 l 5.99999,14 c -9.99999,-11 -16.99999,-27 -16.99999,-41 0,-12 5,-32 38.99999,-33 l -10,3 c 4,-2 7,-4 10,-5 4,-1 5,-1 7,-4 l -3,9 1,-28.99999 c 0,-6 0,-153.00008 0,-153.00008 v -12.99999 l 13,-5 c 4,-1 10.00009,-6 11.00009,-9 0,1 0,2 0,2 0,0 0,0 0,0 -16.00009,-27 -12.00009,-61.00009 -10.00009,-71.00009 5,-29.99999 25.00009,-49.99999 42.00009,-64.99999 10,-9.99999 18.99999,-18.99999 21.99999,-26.99999 -1,2 6,-38.99999 6,-38.99999 l 3,-16 h 13 6 19 l 1,16 5.99999,39.99999 c 2,6 12,15 22,24.99999 16,16 36.99999,35 40.99999,65.99999 2,9 7,43.00009 -9,70.00009 0,0 0,0 0,0 0,0 0,-1 0,-1 0,2 7,7 11,9 l 13,4 v 196.00006 c 0,-3 -3,-6 -5,-6 1,0 1,0 1,0 -3,0 -7,4 -7,6 V 890.92573 l 8,14.99999 c -11,-8 -18,-20.99999 -18,-33.99999 0,-11 5,-22 13,-30 8,-7.99999 19,-11.99999 30,-11.99999 14.00009,0 27.00009,6 35.00009,17.99999 l -16,-7.99999 h 113.99998 l -15,7.99999 c 8,-11.99999 21,-17.99999 34,-17.99999 14.00009,0 27.00009,6 35.00009,17.99999 l -15,-7.99999 h 49.99999 v 18.99999 l -18.99999,-18.99999 h 26.99999 l -15,7.99999 c 8,-11.99999 21,-17.99999 34,-17.99999 14,0 26.99999,6 34.99999,17.99999 l -15,-7.99999 h 114.0001 l -16.0001,7.99999 c 8.0001,-11.99999 21.0001,-17.99999 35.0001,-17.99999 11,0 22,4 30,11.99999 8,8 13,19 13,30 0,13 -7,25.99999 -18,33.99999 l 8,-14.99999 v 138.00007 c 0,-2 -4,-6 -7,-6 v 0 c -1,0 -4,3 -4,6 V 832.92574 l 13,-4 c 4,-2 10,-7 11,-9 0,0 0,1 0,1 0,0 0,0 0,0 -16,-27 -11,-61.00009 -9,-70.00009 4,-30.99999 25,-49.99999 41,-65.99999 10,-9.99999 20,-18.99999 22,-26.99999 -1,2 6,-37.99999 6,-37.99999 l -1,-16 h 27.0001 17 l -1,16 7,40.99999 c 1,6 11,15 21,24.99999 17,15 37,35 42,65.99999 1,9 6,43.00009 -10,70.00009 0,0 0,0 0,0 0,0 0,-1 0,-2 1,3 7,8 11,9 l 13,5 v 160.00007 c 0,6 1,34.99999 1,34.99999 l -3,-9 c 2,3 2,3 7,4 3,1 6,3 10,5 l -10,-3 c 34,1 39,21 39,33 0,14 -7,30 -17,41 l 5,-14 v 146.0001 l -9,-17 c 13,8 21,22 21,37 0,15 -8,28 -21,36 l 9,-16 v 114.0001 l -9,-17 c 13,8 21,22 21,37 0,15 -8,28 -21,36 l 9,-16 v 116.0001 l -2,-10 c 8,14 12,33 12,45 0,20 0,41 -23,48 l 13,-18 v 19 c 0,2 -19,2 -19,2 H 489.0023 Z"
   id="path4588" />
   <path
   class="fil14"
   d="m 1382.0027,1425.926 c 7,-4 12,-11 12,-20 0,-9 -5,-16 -12,-20 v -114.0001 c 7,-4 12,-11 12,-20 0,-9 -5,-16 -12,-20 v -146.0001 c 7,-7 12,-18 12,-27 0,-12 -9,-14 -20,-14 -7,-4 -16,-3 -23,-16 l -1,-34.99999 V 840.92574 c -10,2.99999 -32,-12 -21,-29 10,-17 10,-40.00009 7,-57.00009 -6,-43.99999 -55,-60.99999 -63,-90.99998 l -6,-40.99999 -5.0001,-1 -7,40.99999 c -8,30.99999 -56,46.99999 -63,90.99998 -3,17 -3,40.00009 7,57.00009 11,17 -11,31.99999 -21,29 v 183.00006 c 0,14 -7,19 -15,19 -7,0 -12,-5 -12,-13 V 881.92573 c 6,-4 9,-11 9,-18 0,-13 -10,-23.99999 -23,-23.99999 -8,0 -15,3.99999 -19,9.99999 h -114.0001 c -4.99999,-6 -10.99999,-9.99999 -19.99999,-9.99999 -8,0 -14,3.99999 -19,9.99999 h -57.99999 c -5,-6 -12,-9.99999 -20.00009,-9.99999 -8,0 -14,3.99999 -19,9.99999 H 754.00245 c -4,-6 -11,-9.99999 -19.00009,-9.99999 -13,0 -24,10.99999 -24,23.99999 0,7 4,14 10,18 v 147.00007 c 0,8 -5,13 -12,13 -8,0 -15,-5 -15,-13 V 846.92573 c -10,-4 -31.99999,-18.99999 -21.99999,-35.99999 10.99999,-17 10.99999,-40.00009 8,-57.00009 -7,-43.99999 -54.99999,-59.99999 -62.99999,-90.99998 l -7,-40.99999 -5,1 -6,40.99999 c -8,29.99999 -56.99999,46.99999 -62.99999,90.99998 -3,17 -3,40.00009 7,57.00009 10,17 -11,31.99999 -21.00009,34.99999 v 154.00007 l -1,28 c -7,13 -16,12 -23,16 -11,0 -20,2 -20,14 0,9 5,20 11,27 v 146.0001 c -6,4 -11,11 -11,20 0,9 5,16 11,20 v 114.0001 c -6,4 -11,11 -11,20 0,9 5,16 11,20 v 116.0001 c -6,10 -9,26 -9,35 0,19 0,27 9,30 v 2 h 893.0004 v -2 c 10,-3 10,-11 10,-30 0,-9 -3,-25 -10,-35 z"
   id="path4590" />
   <path
   class="fil28"
   d="m 1357.0027,1064.9258 c -1,0 -1,1 -1,1 6,0 7,-2 1,-1 z"
   id="path4592" />
   <path
   class="fil28"
   d="m 515.0023,1065.9258 c 0,0 0,-1 0,-1 -6,-1 -5,1 0,1 z"
   id="path4594" />
   <polygon
   class="fil14"
   points="22609,61473 22518,61473 22518,61512 22612,61512 22612,61521 22497,61521 22497,61416 22612,61416 22612,61425 22518,61425 22518,61463 22609,61463 "
   id="polygon4596"
   transform="translate(-22214.001,-61054.078)" />
   <path
   class="fil14"
   d="m 461.00231,361.92553 h 55.99999 c 31.00009,0 59.00009,2 83.00008,11.99999 24,10 38.99999,25 38.99999,40 0,15.00009 -12.99999,30.00009 -34.99999,40.00009 -25,11 -52.99999,13 -85.00008,13 h -57.99999 z m 47.99999,96.00008 c 28.00009,0 53.00009,-1 76.00008,-10 21,-8 32,-20 33,-34.00009 -1,-13 -11,-25 -33,-33 -22.99999,-9 -47.99999,-10 -76.00008,-10 h -27 v 87.00009 z"
   id="path4598" />
   <polygon
   class="fil14"
   points="22933,61521 22912,61521 22912,61416 22933,61416 "
   id="polygon4600"
   transform="translate(-22214.001,-61054.078)" />
   <polygon
   class="fil14"
   points="22982,61416 23099,61416 23099,61425 23051,61425 23051,61521 23030,61521 23030,61425 22982,61425 "
   id="polygon4602"
   transform="translate(-22214.001,-61054.078)" />
   <path
   class="fil14"
   d="m 1148.0026,413.92552 c 0,31.00009 -51.0001,55.00009 -112.0001,55.00009 -58.99999,0 -110.99998,-24 -110.99998,-54.00009 0,-31 49.99999,-54.99999 110.99998,-54.99999 60,0 112.0001,23.99999 112.0001,53.99999 z m -22,0 c 0,-24 -41.0001,-44 -90.0001,-44 -49.99999,0 -89.99998,20 -89.99998,45 0,24.00009 41.99999,44.00009 89.99998,44.00009 50,0 90.0001,-20 90.0001,-45.00009 z"
   id="path4604" />
   <path
   class="fil14"
   d="m 1207.0026,361.92553 h 50 c 20.0001,0 42.0001,0 60.0001,4.99999 21,6 33,17 33,29 0,17 -28,31.00009 -62,32.00009 l 59,39 h -26 l -72.0001,-48 h 6 c 15.0001,0 32.0001,1 46.0001,-2.00009 18,-4 28,-12 28,-22 0,-7 -8,-15 -20,-19 -14,-5 -31,-5 -48.0001,-5 h -33 v 96.00009 h -21 z"
   id="path4606" />
   <path
   class="fil14"
   d="m 1478.0028,361.92553 h 23 l 90,105.00008 h -22 l -31,-35 h -98 l -31.0001,35 h -23 z m 52,60.00008 -41,-48.00009 -41,48.00009 z"
   id="path4608" />
   <polygon
   class="fil14"
   points="22601,62944 22518,62944 22518,62992 22497,62992 22497,62887 22604,62887 22604,62896 22518,62896 22518,62934 22601,62934 "
   id="polygon4610"
   transform="translate(-22214.001,-61054.078)" />
   <polygon
   class="fil14"
   points="22681,62992 22660,62992 22660,62887 22681,62887 "
   id="polygon4612"
   transform="translate(-22214.001,-61054.078)" />
   <path
   class="fil14"
   d="m 749.00245,1884.9262 c 0,31 -50.00009,55 -111.00008,55 -58.99999,0 -111.99998,-24 -111.99998,-54 0,-31 50.99999,-55 111.99998,-55 58.99999,0 111.00008,24 111.00008,54 z m -21.00009,0 c 0,-24 -42,-44 -89.99999,-44 -49.99999,0 -90.99998,20 -90.99998,45 0,24 42.99999,44 90.99998,44 49.99999,0 89.99999,-20 89.99999,-45 z"
   id="path4614" />
   <path
   class="fil14"
   d="m 982.00251,1859.9262 c -15,-12 -44.99999,-19 -72.99999,-19 -48.00009,0 -89.00008,21 -89.00008,44 0,25 41.99999,45 90.00008,45 29,0 56.99999,-8 72.99999,-19 h 23.99999 c -18.99999,17 -56.99999,29 -96.99998,29 -62.00009,0 -111.00008,-24 -111.00008,-55 0,-30 48.99999,-54 109.00008,-54 22,0 42.99999,3 60.99999,9 14,4 30.99999,12 36.99999,20 z"
   id="path4616" />
   <path
   class="fil14"
   d="m 1066.0025,1832.9262 h 50.0001 c 20,0 42,0 60,5 21,6 33,17 33,29 0,17 -28,31 -63,32 l 60,39 h -27 l -71,-48 h 6 c 15,0 32,1 46,-2 17,-4 27,-12 27,-22 0,-7 -7,-15 -19,-19 -14,-5 -31,-5 -48,-5 h -33.0001 v 96 h -21 z"
   id="path4618" />
   <path
   class="fil14"
   d="m 1285.0027,1832.9262 v 64 c 0,7 1,15 10,22 8,7 24,11 41,11 15,0 30,-3 39,-10 10,-6 11,-15 11,-23 v -64 h 21 v 64 c 0,11 -2,21 -15,30 -13,8 -35,13 -56,13 -21,0 -42,-4 -55,-12 -15,-9 -17.0001,-20 -17.0001,-31 v -64 z"
   id="path4620" />
   <polygon
   class="fil14"
   points="23697,62983 23803,62983 23803,62992 23673,62992 23673,62983 23776,62896 23676,62896 23676,62887 23800,62887 23800,62896 "
   id="polygon4622"
   transform="translate(-22214.001,-61054.078)" />
   <path
   class="fil28"
   d="m 1143.0026,1434.926 c -13,0 -25,3 -35,9 l -1,-4 c 90,-133.0001 174.0001,-248.0001 249.0001,-374.0002 -7,0 -19,-4 -34,-24 V 858.92573 c -28,-12 -28,-27.99999 -27,-47.99999 12,-10 20,-24.00009 20,-40.00009 0,-28 -23,-49.99999 -51.0001,-49.99999 -28,0 -50,21.99999 -50,49.99999 0,15 8,29.00009 19,38.00009 2,21 3,37.99999 -26,49.99999 v 183.00007 c -29,34 -56,34 -86,6 V 877.92573 H 750.00245 v 170.00007 c -29.00009,28 -56.00009,28 -86.00008,0 V 865.92573 c -28,-19 -27,-35.99999 -25,-56.99999 11,-9 19,-23.00009 19,-38.00009 0,-28 -22,-49.99999 -49.99999,-49.99999 -28,0 -50.99999,21.99999 -50.99999,49.99999 0,16 8,30.00009 19.99999,40.00009 1,20 0,35.99999 -26.99999,54.99999 v 182.00007 c -16,15 -28.00009,18 -35.00009,18 2,195.0001 2,392.0002 2,511.0003 h 417.00022 l 205.00008,-1 c 39,0 74,-33 74,-72 0,-38.0001 -32,-69.0001 -70,-69.0001 z"
   id="path4624" />
   <path
   class="fil28"
   d="m 1170.0026,1404.926 c 44,15 56,31 65,52 4,17 6,7 6,20.0001 40.0001,-113.0001 80.0001,-251.0002 109.0001,-339.0003 l -95.0001,141.0001 z"
   id="path4626" />
   
   
   
   
   
   
   
   
   
   
   
   
   
   
   
   
   
   
   
   
   
   
   
   
   
   
   
   
   
   
   
   
   
   
   
   
   
   
   
   
   
   
   
   
   
   
   
   
   
   
   
   
   
   
   
   
   
   
   
   
   
   
   
   
   
   
   
   
   
   
   
   
   
   
   
   
   
   
   
   
   
   
   
   
   
   
   
   
   
   
   
   
   
   
   
   
   
   
   
   
   
   
   
   
   
   
   
   
   
   
   
   
   
   
   
   
   
   
   
   
   
   
   
   
   
   
   
   
   
   
   
   
   
   
   
   
   
   
   
   
   
   
   
   
   
   
   
   
   
   
   
   
   
   
   
   
   
   
   
   
   
   
   
   
   
   
   
   
   
   
   
   
   
   
   
   
   
   
   
   
   
   
   
   
   
   
   
   
   
   
   
   
   
   
   
   
   
   
   
   
   
   
   
   
   
   
   
   
   
   
   
   
   
   
   
   
   
   
   
   
   
   
   
   
   
   
   
   
   
   
   
   
   
   
   
   
   
   
   
   
   
   
   
   
   
   
   
   
   
   
   
   
   
   
   
   
   
   
   
   
   
   
   
   
   
   
   
   
   
   
   
   
   
   
   
   
   
   
   
   
   
   
   
   
   
   
   
   
   
   
   
   
   
   
   
   
   
   
   
   
  </g>
 </g>
</svg>
